<svg width="30" height="30" viewBox="0 0 30 30" fill="none" xmlns="http://www.w3.org/2000/svg">
<g clip-path="url(#clip0_22_2842)">
<circle cx="15" cy="15" r="14.5588" fill="white" stroke="#EEEEEE" stroke-width="0.882353"/>
<mask id="mask0_22_2842" style="mask-type:alpha" maskUnits="userSpaceOnUse" x="0" y="0" width="30" height="30">
<path d="M27.8571 0H2.14286C0.95939 0 0 1.34315 0 3V27C0 28.6569 0.95939 30 2.14286 30H27.8571C29.0406 30 30 28.6569 30 27V3C30 1.34315 29.0406 0 27.8571 0Z" fill="#F12532"/>
</mask>
<g mask="url(#mask0_22_2842)">
<path d="M30 0H0V6H30V0Z" fill="#F12532"/>
</g>
<mask id="mask1_22_2842" style="mask-type:alpha" maskUnits="userSpaceOnUse" x="0" y="0" width="30" height="30">
<path d="M27.8571 0H2.14286C0.95939 0 0 1.34315 0 3V27C0 28.6569 0.95939 30 2.14286 30H27.8571C29.0406 30 30 28.6569 30 27V3C30 1.34315 29.0406 0 27.8571 0Z" fill="#F12532"/>
</mask>
<g mask="url(#mask1_22_2842)">
<path d="M30 24.0002H0V30.0002H30V24.0002Z" fill="#F12532"/>
</g>
<mask id="mask2_22_2842" style="mask-type:alpha" maskUnits="userSpaceOnUse" x="0" y="0" width="30" height="30">
<path d="M27.8571 0H2.14286C0.95939 0 0 1.34315 0 3V27C0 28.6569 0.95939 30 2.14286 30H27.8571C29.0406 30 30 28.6569 30 27V3C30 1.34315 29.0406 0 27.8571 0Z" fill="#322B6C"/>
</mask>
<g mask="url(#mask2_22_2842)">
<path d="M30 10.0002H0V20.0002H30V10.0002Z" fill="#322B6C"/>
</g>
<rect width="42" height="30" rx="3" fill="white"/>
<mask id="mask3_22_2842" style="mask-type:luminance" maskUnits="userSpaceOnUse" x="0" y="0" width="42" height="30">
<rect width="42" height="30" rx="3" fill="white"/>
</mask>
<g mask="url(#mask3_22_2842)">
<rect width="42" height="30" fill="#0A17A7"/>
<path d="M0 -0.5H-1.35163L-0.325396 0.379628L6.5 6.22997V7.74269L-0.290619 12.5931L-0.5 12.7427V13V14V14.9021L0.264999 14.424L8.1434 9.5H9.83977L16.6231 14.3453C16.764 14.4459 16.9328 14.5 17.106 14.5C17.8772 14.5 18.2322 13.5405 17.6466 13.0386L11.5 7.77003V6.25731L18.0812 1.55642C18.344 1.36871 18.5 1.06564 18.5 0.742691V0V-0.902124L17.735 -0.423999L9.8566 4.5H8.16023L1.29062 -0.406867L1.16023 -0.5H1H0Z" fill="#FF2E3B" stroke="white"/>
<path fill-rule="evenodd" clip-rule="evenodd" d="M0 5V9H7V14C7 14.5523 7.44772 15 8 15H10C10.5523 15 11 14.5523 11 14V9H18C18.5523 9 19 8.55228 19 8V6C19 5.44772 18.5523 5 18 5H11V0H7V5H0Z" fill="url(#paint0_linear_22_2842)"/>
<path fill-rule="evenodd" clip-rule="evenodd" d="M0 6H8V5V0H10V5V6H18V8H10V9V14H8V9V8H0V6Z" fill="url(#paint1_linear_22_2842)"/>
<path fill-rule="evenodd" clip-rule="evenodd" d="M8.99965 24.4998L7.2363 25.4268L7.57307 23.4633L6.14648 22.0727L8.11798 21.7862L8.99965 19.9998L9.88133 21.7862L11.8528 22.0727L10.4262 23.4633L10.763 25.4268L8.99965 24.4998Z" fill="white"/>
<path fill-rule="evenodd" clip-rule="evenodd" d="M30.0002 25.9994L28.5859 26.4136L29.0002 24.9994L28.5859 23.5852L30.0002 23.9994L31.4144 23.5852L31.0002 24.9994L31.4144 26.4136L30.0002 25.9994Z" fill="white"/>
<path fill-rule="evenodd" clip-rule="evenodd" d="M30.0002 7.00088L28.5859 7.4151L29.0002 6.00088L28.5859 4.58667L30.0002 5.00088L31.4144 4.58667L31.0002 6.00088L31.4144 7.4151L30.0002 7.00088Z" fill="white"/>
<path fill-rule="evenodd" clip-rule="evenodd" d="M24.0002 14.9999L22.5859 15.4141L23.0002 13.9999L22.5859 12.5857L24.0002 12.9999L25.4144 12.5857L25.0002 13.9999L25.4144 15.4141L24.0002 14.9999Z" fill="white"/>
</g>
</g>
<defs>
<linearGradient id="paint0_linear_22_2842" x1="0" y1="0" x2="0" y2="15" gradientUnits="userSpaceOnUse">
<stop stop-color="white"/>
<stop offset="1" stop-color="#F0F0F0"/>
</linearGradient>
<linearGradient id="paint1_linear_22_2842" x1="0" y1="0" x2="0" y2="14" gradientUnits="userSpaceOnUse">
<stop stop-color="#FF2E3B"/>
<stop offset="1" stop-color="#FC0D1B"/>
</linearGradient>
<clipPath id="clip0_22_2842">
<rect width="30" height="30" rx="15" fill="white"/>
</clipPath>
</defs>
</svg>
