<svg width="30" height="30" viewBox="0 0 30 30" fill="none" xmlns="http://www.w3.org/2000/svg">
<g clip-path="url(#clip0_14_2771)">
<circle cx="15" cy="15" r="14.5588" fill="white" stroke="#EEEEEE" stroke-width="0.882353"/>
<mask id="mask0_14_2771" style="mask-type:alpha" maskUnits="userSpaceOnUse" x="-7" y="0" width="43" height="30">
<path d="M32.998 0H-3.00195C-4.65881 0 -6.00195 1.34315 -6.00195 3V27C-6.00195 28.6569 -4.65881 30 -3.00195 30H32.998C34.6549 30 35.998 28.6569 35.998 27V3C35.998 1.34315 34.6549 0 32.998 0Z" fill="#FF3131"/>
</mask>
<g mask="url(#mask0_14_2771)">
<path d="M35.998 0H23.998V30H35.998V0Z" fill="#FF3131"/>
</g>
<mask id="mask1_14_2771" style="mask-type:alpha" maskUnits="userSpaceOnUse" x="-7" y="0" width="43" height="30">
<path d="M32.998 0H-3.00195C-4.65881 0 -6.00195 1.34315 -6.00195 3V27C-6.00195 28.6569 -4.65881 30 -3.00195 30H32.998C34.6549 30 35.998 28.6569 35.998 27V3C35.998 1.34315 34.6549 0 32.998 0Z" fill="#FF3131"/>
</mask>
<g mask="url(#mask1_14_2771)">
<path d="M5.99805 0H-6.00195V30H5.99805V0Z" fill="#FF3131"/>
</g>
<mask id="mask2_14_2771" style="mask-type:alpha" maskUnits="userSpaceOnUse" x="-7" y="0" width="43" height="30">
<path d="M32.998 0H-3.00195C-4.65881 0 -6.00195 1.34315 -6.00195 3V27C-6.00195 28.6569 -4.65881 30 -3.00195 30H32.998C34.6549 30 35.998 28.6569 35.998 27V3C35.998 1.34315 34.6549 0 32.998 0Z" fill="#FF3131"/>
</mask>
<g mask="url(#mask2_14_2771)">
<path fill-rule="evenodd" clip-rule="evenodd" d="M17.3464 14.6516C17.154 14.844 17.041 14.7852 17.0976 14.5023L17.998 10L15.998 11L14.998 8L13.998 11L11.998 10L12.8985 14.5023C12.9535 14.7772 12.8411 14.8431 12.6497 14.6516L11.3464 13.3484C11.154 13.156 10.8418 13.1562 10.637 13.361L9.99805 14L7.99805 13L8.99805 15L8.35907 15.639C8.15968 15.8384 8.15934 16.1613 8.34219 16.3441L10.998 19H13.998L14.498 22H15.498L15.998 19H18.998L21.6539 16.3441C21.844 16.1541 21.8418 15.8437 21.637 15.639L20.998 15L21.998 13L19.998 14L19.3591 13.361C19.1597 13.1616 18.8411 13.1569 18.6497 13.3484L17.3464 14.6516Z" fill="#FF3131"/>
</g>
</g>
<defs>
<clipPath id="clip0_14_2771">
<rect width="30" height="30" rx="15" fill="white"/>
</clipPath>
</defs>
</svg>
