<svg width="30" height="30" viewBox="0 0 30 30" fill="none" xmlns="http://www.w3.org/2000/svg">
<path d="M0 15C0 23.2843 6.71573 30 15 30C23.2843 30 30 23.2843 30 15C30 6.71573 23.2843 0 15 0C6.71573 0 0 6.71573 0 15Z" fill="#043CAE"/>
<path fill-rule="evenodd" clip-rule="evenodd" d="M15.0002 6.0004L13.5859 6.41461L14.0002 5.00039L13.5859 3.58618L15.0002 4.0004L16.4144 3.58618L16.0002 5.00039L16.4144 6.41461L15.0002 6.0004ZM15.0002 26.0004L13.5859 26.4146L14.0002 25.0004L13.5859 23.5862L15.0002 24.0004L16.4144 23.5862L16.0002 25.0004L16.4144 26.4146L15.0002 26.0004ZM25.0002 16.0004L23.5859 16.4146L24.0002 15.0004L23.5859 13.5862L25.0002 14.0004L26.4144 13.5862L26.0002 15.0004L26.4144 16.4146L25.0002 16.0004ZM5.00015 16.0004L3.58594 16.4146L4.00015 15.0004L3.58594 13.5862L5.00015 14.0004L6.41436 13.5862L6.00015 15.0004L6.41436 16.4146L5.00015 16.0004ZM23.6604 11.0004L22.2462 11.4146L22.6604 10.0004L22.2462 8.58618L23.6604 9.0004L25.0746 8.58618L24.6604 10.0004L25.0746 11.4146L23.6604 11.0004ZM6.3399 21.0004L4.92568 21.4146L5.3399 20.0004L4.92568 18.5862L6.3399 19.0004L7.75411 18.5862L7.3399 20.0004L7.75411 21.4146L6.3399 21.0004ZM20.0002 7.34014L18.5859 7.75435L19.0002 6.34014L18.5859 4.92593L20.0002 5.34014L21.4144 4.92593L21.0002 6.34014L21.4144 7.75435L20.0002 7.34014ZM10.0002 24.6607L8.58594 25.0749L9.00015 23.6606L8.58594 22.2464L10.0002 22.6607L11.4144 22.2464L11.0002 23.6606L11.4144 25.0749L10.0002 24.6607ZM23.6604 21.0004L22.2462 21.4146L22.6604 20.0004L22.2462 18.5862L23.6604 19.0004L25.0746 18.5862L24.6604 20.0004L25.0746 21.4146L23.6604 21.0004ZM6.3399 11.0004L4.92568 11.4146L5.3399 10.0004L4.92568 8.58618L6.3399 9.0004L7.75411 8.58618L7.3399 10.0004L7.75411 11.4146L6.3399 11.0004ZM20.0002 24.6607L18.5859 25.0749L19.0002 23.6606L18.5859 22.2464L20.0002 22.6607L21.4144 22.2464L21.0002 23.6606L21.4144 25.0749L20.0002 24.6607ZM10.0002 7.34014L8.58594 7.75435L9.00015 6.34014L8.58594 4.92593L10.0002 5.34014L11.4144 4.92593L11.0002 6.34014L11.4144 7.75435L10.0002 7.34014Z" fill="#FFD429"/>
</svg>
