<svg width="30" height="30" viewBox="0 0 30 30" fill="none" xmlns="http://www.w3.org/2000/svg">
<g clip-path="url(#clip0_14_2761)">
<mask id="mask0_14_2761" style="mask-type:alpha" maskUnits="userSpaceOnUse" x="-7" y="0" width="43" height="30">
<path d="M32.998 0H-3.00195C-4.65881 0 -6.00195 1.34315 -6.00195 3V27C-6.00195 28.6569 -4.65881 30 -3.00195 30H32.998C34.6549 30 35.998 28.6569 35.998 27V3C35.998 1.34315 34.6549 0 32.998 0Z" fill="#F0371D"/>
</mask>
<g mask="url(#mask0_14_2761)">
<path d="M35.998 0H-6.00195V30H35.998V0Z" fill="#F0371D"/>
</g>
<mask id="mask1_14_2761" style="mask-type:alpha" maskUnits="userSpaceOnUse" x="-7" y="0" width="43" height="30">
<path d="M32.998 0H-3.00195C-4.65881 0 -6.00195 1.34315 -6.00195 3V27C-6.00195 28.6569 -4.65881 30 -3.00195 30H32.998C34.6549 30 35.998 28.6569 35.998 27V3C35.998 1.34315 34.6549 0 32.998 0Z" fill="white"/>
</mask>
<g mask="url(#mask1_14_2761)">
<path fill-rule="evenodd" clip-rule="evenodd" d="M16.2567 16.0229C17.8325 15.511 19.6633 16.7991 20.3459 18.9001C21.0286 21.0011 20.3046 23.1194 18.7288 23.6314C18.1424 21.8266 17.1328 21.9553 16.8507 21.0872C16.5047 20.0223 16.4168 19.7519 16.8747 17.9251C17.3326 16.0982 15.4797 16.2754 16.2567 16.0229ZM13.1574 17.9533C15.0363 17.8242 14.2952 16.1167 14.7754 16.7777C15.7493 18.1181 15.0899 20.2574 13.3027 21.5559C11.5154 22.8544 9.27713 22.8204 8.30325 21.48C9.83853 20.3645 9.40411 19.4441 10.1425 18.9076C11.0485 18.2494 11.2784 18.0823 13.1574 17.9533ZM11.3586 19.7308C11.1352 19.8931 11.0857 20.2058 11.248 20.4292C11.4103 20.6526 11.723 20.7021 11.9464 20.5398C12.1698 20.3775 12.2193 20.0648 12.057 19.8414C11.8947 19.618 11.582 19.5685 11.3586 19.7308ZM18.3304 19.555C18.0678 19.6403 17.9241 19.9224 18.0094 20.185C18.0947 20.4477 18.3768 20.5914 18.6394 20.5061C18.9021 20.4207 19.0458 20.1386 18.9605 19.876C18.8751 19.6134 18.593 19.4697 18.3304 19.555ZM7.12768 10.8999C8.66296 12.0153 9.40411 11.3177 10.1425 11.8542C11.0485 12.5124 11.2784 12.6795 11.9818 14.4266C12.6851 16.1737 14.08 14.9412 13.5998 15.6021C12.6259 16.9426 10.3876 16.9765 8.60039 15.678C6.81316 14.3795 6.15381 12.2403 7.12768 10.8999ZM19.9966 11.3809C22.2058 11.3809 23.9966 12.7241 23.9966 14.3809C22.0989 14.3809 21.9093 15.3809 20.9966 15.3809C19.8768 15.3809 19.5926 15.3809 17.9966 14.3809C16.4007 13.3809 15.9966 15.1979 15.9966 14.3809C15.9966 12.7241 17.7875 11.3809 19.9966 11.3809ZM9.03703 13.3758C8.87472 13.5992 8.92425 13.9119 9.14765 14.0742C9.37105 14.2365 9.68374 14.187 9.84605 13.9635C10.0084 13.7401 9.95884 13.4275 9.73544 13.2651C9.51203 13.1028 9.19935 13.1524 9.03703 13.3758ZM12.7375 9.38956C13.4201 7.28854 15.251 6.00039 16.8267 6.51238C16.2403 8.31721 17.1328 8.80652 16.8507 9.67457C16.5047 10.7396 16.4168 11.0099 14.9726 12.2187C13.5284 13.4275 15.1316 14.3733 14.3546 14.1208C12.7788 13.6088 12.0548 11.4906 12.7375 9.38956ZM20.4966 13.0001C20.2205 13.0001 19.9966 13.224 19.9966 13.5001C19.9966 13.7763 20.2205 14.0001 20.4966 14.0001C20.7728 14.0001 20.9966 13.7763 20.9966 13.5001C20.9966 13.224 20.7728 13.0001 20.4966 13.0001ZM14.432 9.4144C14.3466 9.67703 14.4904 9.95911 14.753 10.0444C15.0156 10.1298 15.2977 9.98605 15.383 9.72342C15.4684 9.46079 15.3246 9.17871 15.062 9.09338C14.7994 9.00805 14.5173 9.15177 14.432 9.4144Z" fill="white"/>
</g>
</g>
<defs>
<clipPath id="clip0_14_2761">
<rect width="30" height="30" rx="15" fill="white"/>
</clipPath>
</defs>
</svg>
