<svg width="30" height="30" viewBox="0 0 30 30" fill="none" xmlns="http://www.w3.org/2000/svg">
<path d="M15 0.5C23.0081 0.5 29.5 6.99187 29.5 15C29.5 23.0081 23.0081 29.5 15 29.5C6.99187 29.5 0.5 23.0081 0.5 15C0.5 6.99187 6.99187 0.5 15 0.5Z" fill="white" stroke="#EEEEEE"/>
<mask id="mask0_14_2785" style="mask-type:luminance" maskUnits="userSpaceOnUse" x="0" y="0" width="30" height="30">
<path d="M15 0.5C23.0081 0.5 29.5 6.99187 29.5 15C29.5 23.0081 23.0081 29.5 15 29.5C6.99187 29.5 0.5 23.0081 0.5 15C0.5 6.99187 6.99187 0.5 15 0.5Z" fill="white" stroke="white"/>
</mask>
<g mask="url(#mask0_14_2785)">
<path d="M-0.697266 15.6978H43.3178V-1.04639H-0.697266V15.6978Z" fill="#E12237"/>
</g>
</svg>
