<svg width="30" height="30" viewBox="0 0 30 30" fill="none" xmlns="http://www.w3.org/2000/svg">
<g clip-path="url(#clip0_14_2793)">
<circle cx="15" cy="15" r="14.5588" fill="white" stroke="#EEEEEE" stroke-width="0.882353"/>
<mask id="mask0_14_2793" style="mask-type:alpha" maskUnits="userSpaceOnUse" x="-7" y="0" width="43" height="30">
<path d="M32.998 0H-3.00195C-4.65881 0 -6.00195 1.34315 -6.00195 3V27C-6.00195 28.6569 -4.65881 30 -3.00195 30H32.998C34.6549 30 35.998 28.6569 35.998 27V3C35.998 1.34315 34.6549 0 32.998 0Z" fill="url(#paint0_linear_14_2793)"/>
</mask>
<g mask="url(#mask0_14_2793)">
<path d="M14.9983 22.0588C18.8968 22.0588 22.0571 18.8985 22.0571 15C22.0571 11.1015 18.8968 7.94116 14.9983 7.94116C11.0998 7.94116 7.93945 11.1015 7.93945 15C7.93945 18.8985 11.0998 22.0588 14.9983 22.0588Z" fill="url(#paint1_linear_14_2793)"/>
</g>
</g>
<defs>
<linearGradient id="paint0_linear_14_2793" x1="2094" y1="0" x2="2094" y2="3000" gradientUnits="userSpaceOnUse">
<stop stop-color="#D81441"/>
<stop offset="1" stop-color="#BB0831"/>
</linearGradient>
<linearGradient id="paint1_linear_14_2793" x1="713.822" y1="7.94116" x2="713.822" y2="1419.71" gradientUnits="userSpaceOnUse">
<stop stop-color="#D81441"/>
<stop offset="1" stop-color="#BB0831"/>
</linearGradient>
<clipPath id="clip0_14_2793">
<rect width="30" height="30" rx="15" fill="white"/>
</clipPath>
</defs>
</svg>
