<svg width="26" height="26" viewBox="0 0 26 26" fill="none" xmlns="http://www.w3.org/2000/svg">
<g clip-path="url(#clip0_229_3822)">
<path d="M12.9666 0C14.8267 0 16.5954 0.391701 18.1946 1.09712L8.12682 11.1649C7.18716 12.1046 7.18716 13.6281 8.12682 14.5677L11.9541 18.3951C12.2817 18.7227 12.0497 19.2828 11.5864 19.2828H2.65669C2.02875 19.2828 1.44128 18.947 1.179 18.3764C0.422075 16.7299 0 14.8975 0 12.9666C0 5.80534 5.80534 0 12.9666 0Z" fill="#1C2EEF"/>
<mask id="mask0_229_3822" style="mask-type:luminance" maskUnits="userSpaceOnUse" x="0" y="0" width="19" height="20">
<path d="M12.9666 0C14.8267 0 16.5954 0.391701 18.1946 1.09712L8.12682 11.1649C7.18716 12.1046 7.18716 13.6281 8.12682 14.5677V14.5677C9.86678 16.3077 8.63444 19.2828 6.17375 19.2828H1.6397C0.595265 17.4138 0 15.2597 0 12.9666C0 5.80534 5.80534 0 12.9666 0Z" fill="white"/>
</mask>
<g mask="url(#mask0_229_3822)">
<path opacity="0.2" fill-rule="evenodd" clip-rule="evenodd" d="M8.12686 14.5678L5.35918 11.9711C2.66715 9.4454 2.53231 5.2156 5.05801 2.52357C5.10659 2.47179 5.15599 2.42079 5.2062 2.37058L10.6916 -3.11481L18.4315 0.996289L8.81765 10.8102L8.12686 14.5678Z" fill="url(#paint0_linear_229_3822)"/>
</g>
<path fill-rule="evenodd" clip-rule="evenodd" d="M12.982 25.9665C11.1218 25.9665 9.35312 25.5748 7.75391 24.8694L17.8217 14.8016C18.7614 13.8619 18.7614 12.3384 17.8217 11.3988L13.8465 7.42346C13.5735 7.15047 13.7668 6.68372 14.1529 6.68372H23.2919C23.9198 6.68372 24.5073 7.01954 24.7696 7.59008C25.5265 9.23663 25.9485 11.069 25.9485 12.9999C25.9485 20.1612 20.1432 25.9665 12.982 25.9665Z" fill="#00C580"/>
<mask id="mask1_229_3822" style="mask-type:alpha" maskUnits="userSpaceOnUse" x="7" y="6" width="19" height="20">
<path fill-rule="evenodd" clip-rule="evenodd" d="M12.9815 25.9666C11.1213 25.9666 9.35263 25.5749 7.75342 24.8695L17.8212 14.8017C18.7609 13.862 18.7609 12.3385 17.8212 11.3988L13.1063 6.68378H24.3084C25.3528 8.55276 25.9481 10.7069 25.9481 13C25.9481 20.1612 20.1427 25.9666 12.9815 25.9666Z" fill="#00AC70"/>
</mask>
<g mask="url(#mask1_229_3822)">
<path opacity="0.2" fill-rule="evenodd" clip-rule="evenodd" d="M17.7833 11.3892L20.551 13.9859C23.243 16.5116 23.3778 20.7414 20.8521 23.4334C20.8036 23.4852 20.7542 23.5362 20.704 23.5864L15.2186 29.0718L7.47866 24.9607L17.0925 15.1468L17.7833 11.3892Z" fill="url(#paint1_linear_229_3822)"/>
</g>
</g>
<defs>
<linearGradient id="paint0_linear_229_3822" x1="10.84" y1="-3.11481" x2="10.1928" y2="16.2751" gradientUnits="userSpaceOnUse">
<stop stop-color="white" stop-opacity="0.4"/>
<stop offset="1" stop-color="white"/>
</linearGradient>
<linearGradient id="paint1_linear_229_3822" x1="15.0701" y1="29.0718" x2="15.7173" y2="9.68188" gradientUnits="userSpaceOnUse">
<stop stop-color="white" stop-opacity="0.4"/>
<stop offset="1" stop-color="white"/>
</linearGradient>
<clipPath id="clip0_229_3822">
<rect width="26" height="26" fill="white"/>
</clipPath>
</defs>
</svg>
