<svg width="54" height="40" viewBox="0 0 54 40" fill="none" xmlns="http://www.w3.org/2000/svg">
<path d="M32.1271 28.667H22.1329V10.8394H32.1271V28.667Z" fill="#FF5F00"/>
<path d="M22.7732 19.7518C22.7732 16.1354 24.4791 12.9139 27.1357 10.838C25.193 9.31991 22.7413 8.41382 20.0766 8.41382C13.7686 8.41382 8.65515 13.4899 8.65515 19.7518C8.65515 26.0136 13.7686 31.0897 20.0766 31.0897C22.7413 31.0897 25.193 30.1836 27.1357 28.6656C24.4791 26.5896 22.7732 23.3682 22.7732 19.7518Z" fill="#EB001B"/>
<path d="M45.6061 19.7518C45.6061 26.0136 40.4927 31.0897 34.1846 31.0897C31.52 31.0897 29.0683 30.1836 27.1249 28.6656C29.7822 26.5896 31.4881 23.3682 31.4881 19.7518C31.4881 16.1354 29.7822 12.9139 27.1249 10.838C29.0683 9.31991 31.52 8.41382 34.1846 8.41382C40.4927 8.41382 45.6061 13.4899 45.6061 19.7518Z" fill="#F79E1B"/>
</svg>
