<svg width="30" height="30" viewBox="0 0 30 30" fill="none" xmlns="http://www.w3.org/2000/svg">
<g clip-path="url(#clip0_14_2679)">
<circle cx="15" cy="15" r="14.5588" fill="white" stroke="#EEEEEE" stroke-width="0.882353"/>
<rect x="0.441176" y="0.441176" width="29.1176" height="29.1176" rx="14.5588" fill="white" stroke="#F5F5F5" stroke-width="0.882353"/>
<mask id="mask0_14_2679" style="mask-type:luminance" maskUnits="userSpaceOnUse" x="0" y="0" width="30" height="30">
<rect x="0.441176" y="0.441176" width="29.1176" height="29.1176" rx="14.5588" fill="white" stroke="white" stroke-width="0.882353"/>
</mask>
<g mask="url(#mask0_14_2679)">
<path fill-rule="evenodd" clip-rule="evenodd" d="M0 16H42V0H0V16Z" fill="#E12237"/>
<path fill-rule="evenodd" clip-rule="evenodd" d="M12.0002 3.00078C12.615 3.00078 13.2038 3.11171 13.7477 3.31465C12.7209 2.49231 11.4179 2.00049 10 2.00049C6.68629 2.00049 4 4.68678 4 8.00049C4 11.3142 6.68629 14.0005 10 14.0005C11.4173 14.0005 12.7198 13.5091 13.7464 12.6874C13.2028 12.89 12.6144 13.0008 12.0002 13.0008C9.23881 13.0008 7.00023 10.7622 7.00023 8.00078C7.00023 5.23935 9.23881 3.00078 12.0002 3.00078ZM11 8.00049C11.5523 8.00049 12 7.55277 12 7.00049C12 6.4482 11.5523 6.00049 11 6.00049C10.4477 6.00049 10 6.4482 10 7.00049C10 7.55277 10.4477 8.00049 11 8.00049ZM14 10.9995C14 11.5518 13.5523 11.9995 13 11.9995C12.4477 11.9995 12 11.5518 12 10.9995C12 10.4472 12.4477 9.99951 13 9.99951C13.5523 9.99951 14 10.4472 14 10.9995ZM17 11.9995C17.5523 11.9995 18 11.5518 18 10.9995C18 10.4472 17.5523 9.99951 17 9.99951C16.4477 9.99951 16 10.4472 16 10.9995C16 11.5518 16.4477 11.9995 17 11.9995ZM20 7.00049C20 7.55277 19.5523 8.00049 19 8.00049C18.4477 8.00049 18 7.55277 18 7.00049C18 6.4482 18.4477 6.00049 19 6.00049C19.5523 6.00049 20 6.4482 20 7.00049ZM15 5.00024C15.5523 5.00024 16 4.55253 16 4.00024C16 3.44796 15.5523 3.00024 15 3.00024C14.4477 3.00024 14 3.44796 14 4.00024C14 4.55253 14.4477 5.00024 15 5.00024Z" fill="white"/>
</g>
</g>
<defs>
<clipPath id="clip0_14_2679">
<rect width="30" height="30" rx="15" fill="white"/>
</clipPath>
</defs>
</svg>
