<svg width="30" height="30" viewBox="0 0 30 30" fill="none" xmlns="http://www.w3.org/2000/svg">
<g clip-path="url(#clip0_22_2843)">
<rect x="0.441176" y="0.441176" width="29.1176" height="29.1176" rx="14.5588" fill="white" stroke="#F5F5F5" stroke-width="0.882353"/>
<mask id="mask0_22_2843" style="mask-type:luminance" maskUnits="userSpaceOnUse" x="2" y="2" width="26" height="26">
<rect x="2.95726" y="2.95628" width="24.0882" height="24.0882" rx="12.0441" fill="white" stroke="white" stroke-width="0.617647"/>
</mask>
<g mask="url(#mask0_22_2843)">
<circle cx="15.001" cy="14.9993" r="5.76471" fill="#E01B41"/>
<mask id="mask1_22_2843" style="mask-type:luminance" maskUnits="userSpaceOnUse" x="9" y="9" width="12" height="12">
<circle cx="15.001" cy="14.9993" r="5.76471" fill="white"/>
</mask>
<g mask="url(#mask1_22_2843)">
<path fill-rule="evenodd" clip-rule="evenodd" d="M9.23593 15.8224C10.883 17.3665 13.3536 18.293 15.0006 15.8224C16.6477 13.3518 19.9418 13.3518 20.7653 15.8224C21.5889 18.293 20.7653 20.7636 20.7653 20.7636H9.23593C9.23593 20.7636 7.58887 14.2783 9.23593 15.8224Z" fill="#0E4B9C"/>
</g>
<path opacity="0.75" fill-rule="evenodd" clip-rule="evenodd" d="M23.3934 7.30196C23.1965 7.41567 23.129 7.6675 23.2427 7.86444L25.3016 11.4304C25.4153 11.6274 25.6671 11.6949 25.864 11.5811L26.5772 11.1694C26.7742 11.0557 26.8417 10.8038 26.728 10.6069L24.6691 7.04091C24.5554 6.84397 24.3036 6.77649 24.1066 6.8902L23.3934 7.30196ZM21.2548 8.53756C21.0578 8.65126 20.9904 8.90309 21.1041 9.10004L23.1629 12.666C23.2766 12.863 23.5284 12.9304 23.7254 12.8167L24.4386 12.405C24.6355 12.2913 24.703 12.0394 24.5893 11.8425L22.5305 8.27651C22.4168 8.07956 22.1649 8.01209 21.968 8.12579L21.2548 8.53756ZM3.27398 19.3933C3.16028 19.1963 3.22776 18.9445 3.4247 18.8308L4.1379 18.419C4.33484 18.3053 4.58667 18.3728 4.70038 18.5697L6.7592 22.1357C6.87291 22.3327 6.80543 22.5845 6.60849 22.6982L5.89529 23.11C5.69834 23.2237 5.44651 23.1562 5.33281 22.9592L3.27398 19.3933ZM5.56337 17.5959C5.36643 17.7096 5.29895 17.9614 5.41266 18.1584L7.47148 21.7244C7.58519 21.9213 7.83702 21.9888 8.03396 21.8751L8.74716 21.4633C8.9441 21.3496 9.01158 21.0978 8.89787 20.9008L6.83905 17.3349C6.72535 17.1379 6.47351 17.0704 6.27657 17.1841L5.56337 17.5959ZM23.163 17.3342C23.2767 17.1372 23.5285 17.0697 23.7255 17.1835L24.4387 17.5952C24.6356 17.7089 24.7031 17.9608 24.5894 18.1577L22.5306 21.7237C22.4169 21.9206 22.165 21.9881 21.9681 21.8744L21.2549 21.4626C21.0579 21.3489 20.9905 21.0971 21.1042 20.9002L23.163 17.3342ZM25.8661 18.4193C25.6692 18.3056 25.4173 18.3731 25.3036 18.57L23.2448 22.136C23.1311 22.3329 23.1986 22.5848 23.3955 22.6985L24.1087 23.1102C24.3057 23.2239 24.5575 23.1565 24.6712 22.9595L26.73 19.3935C26.8437 19.1966 26.7762 18.9448 26.5793 18.8311L25.8661 18.4193ZM5.33292 7.0412C5.44663 6.84426 5.69846 6.77678 5.8954 6.89048L6.6086 7.30225C6.80555 7.41595 6.87302 7.66778 6.75932 7.86473L4.70049 11.4307C4.58679 11.6277 4.33496 11.6951 4.13801 11.5814L3.42482 11.1697C3.22787 11.056 3.16039 10.8041 3.2741 10.6072L5.33292 7.0412ZM8.03603 8.1251C7.83909 8.0114 7.58725 8.07887 7.47355 8.27582L5.41472 11.8418C5.30102 12.0387 5.3685 12.2906 5.56544 12.4043L6.27864 12.8161C6.47558 12.9298 6.72741 12.8623 6.84112 12.6653L8.89994 9.09935C9.01365 8.9024 8.94617 8.65057 8.74923 8.53687L8.03603 8.1251Z" fill="#262626"/>
</g>
</g>
<defs>
<clipPath id="clip0_22_2843">
<rect width="30" height="30" rx="15" fill="white"/>
</clipPath>
</defs>
</svg>
