<svg width="30" height="30" viewBox="0 0 30 30" fill="none" xmlns="http://www.w3.org/2000/svg">
<g clip-path="url(#clip0_22_2845)">
<rect x="-6.00195" width="42" height="30" rx="3" fill="white"/>
<mask id="mask0_22_2845" style="mask-type:luminance" maskUnits="userSpaceOnUse" x="-7" y="0" width="43" height="30">
<rect x="-6.00195" width="42" height="30" rx="3" fill="white"/>
</mask>
<g mask="url(#mask0_22_2845)">
<rect x="-6.00195" width="42" height="30" fill="#FF0000"/>
<path fill-rule="evenodd" clip-rule="evenodd" d="M11.998 18H6.49805C6.2219 18 5.99805 17.7761 5.99805 17.5V12.5C5.99805 12.2239 6.2219 12 6.49805 12H11.998V6.5C11.998 6.22386 12.2219 6 12.498 6H17.498C17.7742 6 17.998 6.22386 17.998 6.5V12H23.498C23.7742 12 23.998 12.2239 23.998 12.5V17.5C23.998 17.7761 23.7742 18 23.498 18H17.998V23.5C17.998 23.7761 17.7742 24 17.498 24H12.498C12.2219 24 11.998 23.7761 11.998 23.5V18Z" fill="white"/>
</g>
</g>
<defs>
<clipPath id="clip0_22_2845">
<rect width="30" height="30" rx="15" fill="white"/>
</clipPath>
</defs>
</svg>
