<svg width="30" height="30" viewBox="0 0 30 30" fill="none" xmlns="http://www.w3.org/2000/svg">
<g clip-path="url(#clip0_14_2661)">
<circle cx="15" cy="15" r="14.5588" fill="white" stroke="#EEEEEE" stroke-width="0.882353"/>
<mask id="mask0_14_2661" style="mask-type:alpha" maskUnits="userSpaceOnUse" x="0" y="0" width="42" height="30">
<path d="M39 0H3C1.34315 0 0 1.34315 0 3V27C0 28.6569 1.34315 30 3 30H39C40.6569 30 42 28.6569 42 27V3C42 1.34315 40.6569 0 39 0Z" fill="#D02F44"/>
</mask>
<g mask="url(#mask0_14_2661)">
<path fill-rule="evenodd" clip-rule="evenodd" d="M0 0H42V2H0V0ZM0 4H42V6H0V4ZM0 8H42V10H0V8ZM0 12H42V14H0V12ZM0 16H42V18H0V16ZM0 20H42V22H0V20ZM0 24H42V26H0V24ZM0 28H42V30H0V28Z" fill="#D02F44"/>
</g>
<mask id="mask1_14_2661" style="mask-type:alpha" maskUnits="userSpaceOnUse" x="0" y="0" width="42" height="30">
<path d="M39 0H3C1.34315 0 0 1.34315 0 3V27C0 28.6569 1.34315 30 3 30H39C40.6569 30 42 28.6569 42 27V3C42 1.34315 40.6569 0 39 0Z" fill="#46467F"/>
</mask>
<g mask="url(#mask1_14_2661)">
<path d="M18 0H0V14H18V0Z" fill="#46467F"/>
</g>
<g filter="url(#filter0_d_14_2661)">
<path d="M5.00195 4C5.55424 4 6.00195 4.44772 6.00195 5C6.00195 5.55228 5.55424 6 5.00195 6C4.44967 6 4.00195 5.55228 4.00195 5C4.00195 4.44772 4.44967 4 5.00195 4ZM3.00195 2C3.55424 2 4.00195 2.44772 4.00195 3C4.00195 3.55228 3.55424 4 3.00195 4C2.44967 4 2.00195 3.55228 2.00195 3C2.00195 2.44772 2.44967 2 3.00195 2ZM9.00195 4C9.55424 4 10.002 4.44772 10.002 5C10.002 5.55228 9.55424 6 9.00195 6C8.44967 6 8.00195 5.55228 8.00195 5C8.00195 4.44772 8.44967 4 9.00195 4ZM7.00195 2C7.55424 2 8.00195 2.44772 8.00195 3C8.00195 3.55228 7.55424 4 7.00195 4C6.44967 4 6.00195 3.55228 6.00195 3C6.00195 2.44772 6.44967 2 7.00195 2ZM13.002 4C13.5542 4 14.002 4.44772 14.002 5C14.002 5.55228 13.5542 6 13.002 6C12.4497 6 12.002 5.55228 12.002 5C12.002 4.44772 12.4497 4 13.002 4ZM11.002 2C11.5542 2 12.002 2.44772 12.002 3C12.002 3.55228 11.5542 4 11.002 4C10.4497 4 10.002 3.55228 10.002 3C10.002 2.44772 10.4497 2 11.002 2ZM15.002 4C15.5542 4 16.002 3.55228 16.002 3C16.002 2.44772 15.5542 2 15.002 2C14.4497 2 14.002 2.44772 14.002 3C14.002 3.55228 14.4497 4 15.002 4ZM15.002 8C15.5542 8 16.002 7.55228 16.002 7C16.002 6.44771 15.5542 6 15.002 6C14.4497 6 14.002 6.44771 14.002 7C14.002 7.55228 14.4497 8 15.002 8ZM13.002 8C13.5542 8 14.002 8.44771 14.002 9C14.002 9.55228 13.5542 10 13.002 10C12.4497 10 12.002 9.55228 12.002 9C12.002 8.44771 12.4497 8 13.002 8ZM11.002 6C11.5542 6 12.002 6.44771 12.002 7C12.002 7.55228 11.5542 8 11.002 8C10.4497 8 10.002 7.55228 10.002 7C10.002 6.44771 10.4497 6 11.002 6ZM9.00195 8C9.55424 8 10.002 8.44771 10.002 9C10.002 9.55228 9.55424 10 9.00195 10C8.44967 10 8.00195 9.55228 8.00195 9C8.00195 8.44771 8.44967 8 9.00195 8ZM7.00195 6C7.55424 6 8.00195 6.44771 8.00195 7C8.00195 7.55228 7.55424 8 7.00195 8C6.44967 8 6.00195 7.55228 6.00195 7C6.00195 6.44771 6.44967 6 7.00195 6ZM5.00195 8C5.55424 8 6.00195 8.44771 6.00195 9C6.00195 9.55228 5.55424 10 5.00195 10C4.44967 10 4.00195 9.55228 4.00195 9C4.00195 8.44771 4.44967 8 5.00195 8ZM3.00195 6C3.55424 6 4.00195 6.44771 4.00195 7C4.00195 7.55228 3.55424 8 3.00195 8C2.44967 8 2.00195 7.55228 2.00195 7C2.00195 6.44771 2.44967 6 3.00195 6ZM15.002 12C15.5542 12 16.002 11.5523 16.002 11C16.002 10.4477 15.5542 10 15.002 10C14.4497 10 14.002 10.4477 14.002 11C14.002 11.5523 14.4497 12 15.002 12ZM11.002 12C11.5542 12 12.002 11.5523 12.002 11C12.002 10.4477 11.5542 10 11.002 10C10.4497 10 10.002 10.4477 10.002 11C10.002 11.5523 10.4497 12 11.002 12ZM7.00195 12C7.55424 12 8.00195 11.5523 8.00195 11C8.00195 10.4477 7.55424 10 7.00195 10C6.44967 10 6.00195 10.4477 6.00195 11C6.00195 11.5523 6.44967 12 7.00195 12ZM3.00195 12C3.55424 12 4.00195 11.5523 4.00195 11C4.00195 10.4477 3.55424 10 3.00195 10C2.44967 10 2.00195 10.4477 2.00195 11C2.00195 11.5523 2.44967 12 3.00195 12Z" fill="black"/>
</g>
<path d="M5.00195 4C5.55424 4 6.00195 4.44772 6.00195 5C6.00195 5.55228 5.55424 6 5.00195 6C4.44967 6 4.00195 5.55228 4.00195 5C4.00195 4.44772 4.44967 4 5.00195 4ZM3.00195 2C3.55424 2 4.00195 2.44772 4.00195 3C4.00195 3.55228 3.55424 4 3.00195 4C2.44967 4 2.00195 3.55228 2.00195 3C2.00195 2.44772 2.44967 2 3.00195 2ZM9.00195 4C9.55424 4 10.002 4.44772 10.002 5C10.002 5.55228 9.55424 6 9.00195 6C8.44967 6 8.00195 5.55228 8.00195 5C8.00195 4.44772 8.44967 4 9.00195 4ZM7.00195 2C7.55424 2 8.00195 2.44772 8.00195 3C8.00195 3.55228 7.55424 4 7.00195 4C6.44967 4 6.00195 3.55228 6.00195 3C6.00195 2.44772 6.44967 2 7.00195 2ZM13.002 4C13.5542 4 14.002 4.44772 14.002 5C14.002 5.55228 13.5542 6 13.002 6C12.4497 6 12.002 5.55228 12.002 5C12.002 4.44772 12.4497 4 13.002 4ZM11.002 2C11.5542 2 12.002 2.44772 12.002 3C12.002 3.55228 11.5542 4 11.002 4C10.4497 4 10.002 3.55228 10.002 3C10.002 2.44772 10.4497 2 11.002 2ZM15.002 4C15.5542 4 16.002 3.55228 16.002 3C16.002 2.44772 15.5542 2 15.002 2C14.4497 2 14.002 2.44772 14.002 3C14.002 3.55228 14.4497 4 15.002 4ZM15.002 8C15.5542 8 16.002 7.55228 16.002 7C16.002 6.44771 15.5542 6 15.002 6C14.4497 6 14.002 6.44771 14.002 7C14.002 7.55228 14.4497 8 15.002 8ZM13.002 8C13.5542 8 14.002 8.44771 14.002 9C14.002 9.55228 13.5542 10 13.002 10C12.4497 10 12.002 9.55228 12.002 9C12.002 8.44771 12.4497 8 13.002 8ZM11.002 6C11.5542 6 12.002 6.44771 12.002 7C12.002 7.55228 11.5542 8 11.002 8C10.4497 8 10.002 7.55228 10.002 7C10.002 6.44771 10.4497 6 11.002 6ZM9.00195 8C9.55424 8 10.002 8.44771 10.002 9C10.002 9.55228 9.55424 10 9.00195 10C8.44967 10 8.00195 9.55228 8.00195 9C8.00195 8.44771 8.44967 8 9.00195 8ZM7.00195 6C7.55424 6 8.00195 6.44771 8.00195 7C8.00195 7.55228 7.55424 8 7.00195 8C6.44967 8 6.00195 7.55228 6.00195 7C6.00195 6.44771 6.44967 6 7.00195 6ZM5.00195 8C5.55424 8 6.00195 8.44771 6.00195 9C6.00195 9.55228 5.55424 10 5.00195 10C4.44967 10 4.00195 9.55228 4.00195 9C4.00195 8.44771 4.44967 8 5.00195 8ZM3.00195 6C3.55424 6 4.00195 6.44771 4.00195 7C4.00195 7.55228 3.55424 8 3.00195 8C2.44967 8 2.00195 7.55228 2.00195 7C2.00195 6.44771 2.44967 6 3.00195 6ZM15.002 12C15.5542 12 16.002 11.5523 16.002 11C16.002 10.4477 15.5542 10 15.002 10C14.4497 10 14.002 10.4477 14.002 11C14.002 11.5523 14.4497 12 15.002 12ZM11.002 12C11.5542 12 12.002 11.5523 12.002 11C12.002 10.4477 11.5542 10 11.002 10C10.4497 10 10.002 10.4477 10.002 11C10.002 11.5523 10.4497 12 11.002 12ZM7.00195 12C7.55424 12 8.00195 11.5523 8.00195 11C8.00195 10.4477 7.55424 10 7.00195 10C6.44967 10 6.00195 10.4477 6.00195 11C6.00195 11.5523 6.44967 12 7.00195 12ZM3.00195 12C3.55424 12 4.00195 11.5523 4.00195 11C4.00195 10.4477 3.55424 10 3.00195 10C2.44967 10 2.00195 10.4477 2.00195 11C2.00195 11.5523 2.44967 12 3.00195 12Z" fill="url(#paint0_linear_14_2661)"/>
</g>
<defs>
<filter id="filter0_d_14_2661" x="2.00195" y="2" width="14" height="11.5" filterUnits="userSpaceOnUse" color-interpolation-filters="sRGB">
<feFlood flood-opacity="0" result="BackgroundImageFix"/>
<feColorMatrix in="SourceAlpha" type="matrix" values="0 0 0 0 0 0 0 0 0 0 0 0 0 0 0 0 0 0 127 0" result="hardAlpha"/>
<feOffset dy="1.5"/>
<feColorMatrix type="matrix" values="0 0 0 0 0 0 0 0 0 0 0 0 0 0 0 0 0 0 0.06 0"/>
<feBlend mode="normal" in2="BackgroundImageFix" result="effect1_dropShadow_14_2661"/>
<feBlend mode="normal" in="SourceGraphic" in2="effect1_dropShadow_14_2661" result="shape"/>
</filter>
<linearGradient id="paint0_linear_14_2661" x1="702.002" y1="2" x2="702.002" y2="1002" gradientUnits="userSpaceOnUse">
<stop stop-color="white"/>
<stop offset="1" stop-color="#F0F0F0"/>
</linearGradient>
<clipPath id="clip0_14_2661">
<rect width="30" height="30" rx="15" fill="white"/>
</clipPath>
</defs>
</svg>
