<svg width="54" height="40" viewBox="0 0 54 40" fill="none" xmlns="http://www.w3.org/2000/svg">
<g clip-path="url(#clip0_135_1045)">
<path d="M23.6424 27.9185H19.5221L22.0972 12.0926H26.2179L23.6424 27.9185ZM16.0558 12.0926L12.1277 22.9778L11.6629 20.6338L11.6633 20.6346L10.2769 13.5175C10.2769 13.5175 10.1092 12.0926 8.32234 12.0926H1.8284L1.7522 12.3606C1.7522 12.3606 3.73806 12.7737 6.06216 14.1695L9.64188 27.9189H13.9349L20.4902 12.0926H16.0558ZM48.4642 27.9185H52.2475L48.9489 12.0922H45.6367C44.1072 12.0922 43.7347 13.2716 43.7347 13.2716L37.5896 27.9185H41.8847L42.7436 25.5678H47.9816L48.4642 27.9185ZM43.9303 22.3204L46.0952 16.3979L47.3131 22.3204H43.9303ZM37.9117 15.8984L38.4997 12.4998C38.4997 12.4998 36.6853 11.8098 34.7939 11.8098C32.7492 11.8098 27.8935 12.7035 27.8935 17.049C27.8935 21.1376 33.5924 21.1884 33.5924 23.3359C33.5924 25.4835 28.4807 25.0987 26.7937 23.7445L26.1811 27.2979C26.1811 27.2979 28.0209 28.1916 30.8319 28.1916C33.6437 28.1916 37.8855 26.7357 37.8855 22.7733C37.8855 18.6585 32.1353 18.2754 32.1353 16.4864C32.1357 14.697 36.1485 14.9268 37.9117 15.8984Z" fill="#2566AF"/>
<path d="M11.6633 20.6342L10.2769 13.5171C10.2769 13.5171 10.1092 12.0922 8.32234 12.0922H1.8284L1.7522 12.3601C1.7522 12.3601 4.87344 13.007 7.86726 15.4306C10.7298 17.7471 11.6633 20.6342 11.6633 20.6342Z" fill="#E6A540"/>
</g>
<defs>
<clipPath id="clip0_135_1045">
<rect width="54" height="40" fill="white"/>
</clipPath>
</defs>
</svg>
