<svg width="101" height="100" viewBox="0 0 101 100" fill="none" xmlns="http://www.w3.org/2000/svg">
<g clip-path="url(#clip0_1_2)">
<path d="M-0.254333 49.9897C-0.254676 56.6086 1.04873 63.1629 3.58146 69.2781C6.11419 75.3933 9.82664 80.9498 14.5068 85.6302C19.187 90.3106 24.7433 94.0234 30.8584 96.5564C36.9735 99.0894 43.5276 100.393 50.1466 100.393C56.7655 100.393 63.3197 99.0894 69.4348 96.5564C75.5498 94.0234 81.1061 90.3106 85.7863 85.6302C90.4665 80.9498 94.1789 75.3933 96.7117 69.2781C99.2444 63.1629 100.548 56.6086 100.547 49.9897C100.548 43.3707 99.2444 36.8165 96.7117 30.7013C94.1789 24.5861 90.4665 19.0296 85.7863 14.3492C81.1061 9.66876 75.5498 5.95602 69.4348 3.42298C63.3197 0.88993 56.7655 -0.413815 50.1466 -0.413815C43.5276 -0.413815 36.9735 0.88993 30.8584 3.42298C24.7433 5.95602 19.187 9.66876 14.5068 14.3492C9.82664 19.0296 6.11419 24.5861 3.58146 30.7013C1.04873 36.8165 -0.254676 43.3707 -0.254333 49.9897Z" fill="#D9EAF8"/>
<path d="M72.8774 50.3929C72.8774 64.3539 62.7972 75.7445 50.3482 75.7445C37.8991 75.7445 27.819 64.4043 27.819 50.3929C27.819 36.3815 37.8991 25.0412 50.3482 25.0412C62.7972 25.0412 72.8774 36.4319 72.8774 50.3929Z" fill="#F4F2EE"/>
<path d="M41.6792 71.7125H58.9164V85.9759H41.6792V71.7125ZM30.7423 51.9049C30.7423 53.9714 29.1798 55.685 27.2646 55.685C25.3998 55.685 23.7869 53.9714 23.7869 51.9049C23.7869 49.8385 25.3494 48.1249 27.2646 48.1249C29.2302 48.0745 30.7423 49.7881 30.7423 51.9049ZM76.9095 51.8545C76.9095 53.921 75.347 55.6346 73.4318 55.6346C71.567 55.6346 69.9541 53.921 69.9541 51.8545C69.9541 49.7881 71.5166 48.0745 73.4318 48.0745C75.3974 48.0745 76.9095 49.7881 76.9095 51.8545Z" fill="#F4F2EE"/>
<path d="M41.6792 73.7789C41.6792 73.7789 44.9553 75.4925 49.6929 75.4925C55.2874 75.7445 58.8659 73.8797 58.8659 73.8797V75.5933C58.8659 75.5933 52.7674 78.8694 49.9954 78.8694C47.2233 78.8694 41.6288 75.0389 41.6288 75.0389L41.6792 73.7789ZM47.5257 18.7915C47.5257 18.7915 32.3046 20.3036 32.103 30.2829C31.9014 40.2119 43.8464 42.1775 48.2817 43.236C52.6666 44.2944 64.8132 45.756 71.9197 34.1638C71.9197 34.1638 69.9541 29.6277 68.8957 26.5029C68.3917 25.6965 69.6517 27.8637 65.3676 25.2428C61.1844 22.5716 55.4891 18.1867 47.5257 18.7915Z" fill="#E1DDD4"/>
<path d="M36.8407 24.2348C36.8407 24.2348 25.7526 26.0493 25.0973 35.9782C24.4421 45.9072 26.2062 48.5785 26.2062 48.5785C26.2062 48.5785 28.7262 48.5785 29.331 52.3081C29.331 52.3081 30.4398 53.0137 30.591 52.3081C30.7926 51.1489 29.583 45.756 31.9015 40.7159C34.2199 35.6758 36.4879 34.9702 36.4879 34.9702L36.8407 24.2348ZM66.0229 35.1214C66.0229 35.1214 68.9965 38.9519 69.5005 42.7824C69.9541 46.0584 70.5589 52.1569 70.5589 52.1569C70.5589 52.1569 71.3654 52.7113 72.0206 51.3505C72.575 49.9897 72.4742 48.5281 73.0286 48.2257C75.9014 46.26 75.1454 38.2463 75.0446 37.3391C74.3894 33.7606 71.4158 27.9141 71.4158 27.9141L66.0229 35.1214Z" fill="#757C96"/>
<path d="M47.1225 15.4651C47.1225 15.4651 31.347 16.1203 31.1958 26.6037C31.095 37.0871 43.4432 40.0607 47.9289 41.2199C52.3138 42.3288 64.4604 43.8408 71.5669 31.6942C71.5669 31.6942 73.331 26.2005 72.2726 22.874C71.7685 22.0172 69.2989 25.0916 65.0148 22.2692C60.8315 19.4467 55.0859 14.8099 47.1225 15.4651ZM58.9163 79.9782C49.7938 88.6472 41.6792 79.9782 41.6792 79.9782C26.6597 81.8431 19.3516 85.6231 16.2772 87.488C25.1981 95.5017 37.0423 100.391 49.9954 100.391C63.0492 100.391 74.9942 95.4009 83.9656 87.2359C74.6918 81.591 58.9163 79.9782 58.9163 79.9782Z" fill="#757C96"/>
</g>
<defs>
<clipPath id="clip0_1_2">
<rect width="101" height="100" fill="white"/>
</clipPath>
</defs>
</svg>
