<svg width="16" height="16" viewBox="0 0 16 16" fill="none" xmlns="http://www.w3.org/2000/svg">
<path d="M2.84375 2.67188C2.19758 2.67188 1.67188 3.19758 1.67188 3.84375V12.0469C1.67188 12.693 2.19758 13.2188 2.84375 13.2188H13.1562C13.8024 13.2188 14.3281 12.693 14.3281 12.0469V3.84375C14.3281 3.19758 13.8024 2.67188 13.1562 2.67188H2.84375ZM2.84375 1.5H13.1562C14.4507 1.5 15.5 2.54933 15.5 3.84375V12.0469C15.5 13.3413 14.4507 14.3906 13.1562 14.3906H2.84375C1.54933 14.3906 0.5 13.3413 0.5 12.0469V3.84375C0.5 2.54933 1.54933 1.5 2.84375 1.5Z" fill="white"/>
<path d="M9.75781 6.36328C9.43473 6.36328 9.17188 6.62613 9.17188 6.94922V8.94141C9.17188 9.26449 9.43473 9.52734 9.75781 9.52734H14.3281V6.36328H9.75781ZM9.75781 5.19141H15.5V10.6992H9.75781C8.787 10.6992 8 9.91222 8 8.94141V6.94922C8 5.97841 8.787 5.19141 9.75781 5.19141Z" fill="white"/>
<path d="M13.1562 7.35938C13.2721 7.35937 13.3854 7.39374 13.4818 7.45812C13.5781 7.52251 13.6532 7.61402 13.6976 7.72108C13.7419 7.82815 13.7535 7.94596 13.7309 8.05962C13.7083 8.17328 13.6525 8.27769 13.5706 8.35963C13.4886 8.44158 13.3842 8.49738 13.2706 8.51999C13.1569 8.5426 13.0391 8.531 12.932 8.48665C12.825 8.4423 12.7334 8.3672 12.6691 8.27084C12.6047 8.17449 12.5703 8.0612 12.5703 7.94531C12.5703 7.78991 12.632 7.64088 12.7419 7.53099C12.8518 7.42111 13.0008 7.35938 13.1562 7.35938Z" fill="white"/>
</svg>
