<svg width="20" height="20" viewBox="0 0 20 20" fill="none" xmlns="http://www.w3.org/2000/svg">
<path d="M16.7084 3.91673C14.9584 2.16673 12.5 1.16673 10.0417 1.25007C7.50002 1.2084 5.04169 2.16673 3.29169 3.91673C1.66669 5.5834 0.79169 7.75007 0.833356 10.0001C0.833356 11.5417 1.25002 13.0417 1.95836 14.3334L1.37502 16.0417C1.16669 16.6667 1.29169 17.3334 1.75002 17.8334C2.12502 18.2501 2.58336 18.4584 3.12502 18.4584C3.25002 18.4584 3.33336 18.4584 3.45836 18.4167L6.04169 17.9584C7.25002 18.5001 8.58336 18.7501 9.95836 18.7501H10.1667C12.625 18.7501 14.9584 17.7917 16.6667 16.0834C18.3334 14.4167 19.2084 12.2501 19.125 10.0001C19.2084 7.7084 18.3334 5.5834 16.7084 3.91673ZM10 14.5834C7.41669 14.5834 5.33336 12.5417 5.33336 10.0001C5.33336 9.54173 5.70836 9.16673 6.16669 9.16673C6.62502 9.16673 7.00002 9.54173 7.00002 10.0001C7.00002 11.6251 8.33336 12.9167 10 12.9167C11.6667 12.9167 13 11.6251 13 10.0001C13 9.54173 13.375 9.16673 13.8334 9.16673C14.2917 9.16673 14.6667 9.54173 14.6667 10.0001C14.6667 12.5417 12.5834 14.5834 10 14.5834Z" fill="#00A0FF"/>
</svg>
