<svg width="20" height="20" viewBox="0 0 20 20" fill="none" xmlns="http://www.w3.org/2000/svg">
<path d="M16.9195 1.84C17.2795 2.17333 17.5662 2.45 17.7795 2.67C17.9929 2.89 18.1562 3.07667 18.2695 3.23C18.3829 3.38333 18.4529 3.51333 18.4795 3.62C18.5062 3.72667 18.5195 3.82 18.5195 3.9V4.22H15.5595C15.4262 4.22 15.3095 4.17 15.2095 4.07C15.1095 3.97 15.0262 3.85333 14.9595 3.72C14.8929 3.58667 14.8429 3.45 14.8095 3.31C14.7762 3.17 14.7595 3.06 14.7595 2.98V0.5H14.8195C14.9262 0.5 15.0362 0.516667 15.1495 0.55C15.2629 0.583333 15.3929 0.646667 15.5395 0.74C15.6862 0.833333 15.8695 0.966667 16.0895 1.14C16.3095 1.31333 16.5862 1.54667 16.9195 1.84ZM13.4995 3C13.4995 3.26667 13.5395 3.54333 13.6195 3.83C13.6995 4.11667 13.8262 4.38333 13.9995 4.63C14.1729 4.87667 14.3929 5.08 14.6595 5.24C14.9262 5.4 15.2395 5.48 15.5995 5.48H18.5195V16.76C18.5195 17.1467 18.4429 17.4933 18.2895 17.8C18.1362 18.1067 17.9329 18.3667 17.6795 18.58C17.4262 18.7933 17.1462 18.96 16.8395 19.08C16.5329 19.2 16.2329 19.26 15.9395 19.26H4.09953C3.8462 19.26 3.56953 19.1867 3.26953 19.04C2.96953 18.8933 2.68953 18.7 2.42953 18.46C2.16953 18.22 1.95286 17.9467 1.77953 17.64C1.6062 17.3333 1.51953 17.0133 1.51953 16.68V3.08C1.51953 2.8 1.58286 2.51 1.70953 2.21C1.8362 1.91 2.00953 1.63333 2.22953 1.38C2.44953 1.12667 2.69953 0.916667 2.97953 0.75C3.25953 0.583333 3.55286 0.5 3.85953 0.5H13.4995V3ZM13.7595 15.48C14.1062 15.48 14.3995 15.3567 14.6395 15.11C14.8795 14.8633 14.9995 14.5667 14.9995 14.22C14.9995 13.8733 14.8795 13.58 14.6395 13.34C14.3995 13.1 14.1062 12.98 13.7595 12.98H6.25953C5.91286 12.98 5.61953 13.1 5.37953 13.34C5.13953 13.58 5.01953 13.8733 5.01953 14.22C5.01953 14.5667 5.13953 14.8633 5.37953 15.11C5.61953 15.3567 5.91286 15.48 6.25953 15.48H13.7595ZM14.9995 9.24C14.9995 8.89333 14.8795 8.59667 14.6395 8.35C14.3995 8.10333 14.1062 7.98 13.7595 7.98H6.25953C5.91286 7.98 5.61953 8.10333 5.37953 8.35C5.13953 8.59667 5.01953 8.89333 5.01953 9.24C5.01953 9.58667 5.13953 9.88 5.37953 10.12C5.61953 10.36 5.91286 10.48 6.25953 10.48H13.7595C14.1062 10.48 14.3995 10.36 14.6395 10.12C14.8795 9.88 14.9995 9.58667 14.9995 9.24Z" fill="#00A0FF"/>
</svg>
