<svg width="14" height="14" viewBox="0 0 14 14" fill="none" xmlns="http://www.w3.org/2000/svg">
<g clip-path="url(#clip0_100_3)">
<path d="M7 14C3.13392 14 0 10.8661 0 7.00001C0 3.13395 3.13394 0 7 0C10.8661 0 14 3.13393 14 6.99999C14 10.866 10.8661 14 7 14Z" fill="#8BA3B9"/>
<path d="M7.91062 10.6928C7.6693 10.6928 7.49956 10.6542 7.40141 10.5769C7.30346 10.4999 7.25455 10.3552 7.25455 10.1424C7.25455 10.0577 7.26957 9.93297 7.29999 9.76787C7.33018 9.60312 7.36427 9.45612 7.40214 9.32755L7.86789 7.72602C7.9133 7.57937 7.94448 7.41774 7.96142 7.24184C7.97837 7.06554 7.98701 6.94278 7.98701 6.87273C7.98701 6.53516 7.86502 6.26113 7.62117 6.04983C7.37737 5.83889 7.03058 5.73343 6.58085 5.73343C6.33124 5.73343 6.06662 5.77653 5.7868 5.86277C5.50701 5.94897 5.21409 6.0529 4.90791 6.17375L4.7832 6.66912C4.87386 6.63602 4.98279 6.60138 5.10977 6.56439C5.2366 6.52787 5.36056 6.50977 5.48179 6.50977C5.72792 6.50977 5.89441 6.55016 5.98159 6.63061C6.06858 6.71144 6.11205 6.85464 6.11205 7.06017C6.11205 7.17368 6.09802 7.29955 6.06951 7.43695C6.04121 7.57434 6.00623 7.72061 5.96445 7.87459L5.49682 9.48188C5.45524 9.65045 5.42501 9.80211 5.40616 9.93604C5.38727 10.0696 5.37786 10.2012 5.37786 10.3294C5.37786 10.6597 5.50336 10.9322 5.7545 11.1469C6.00563 11.3613 6.35779 11.4687 6.81084 11.4687C7.10546 11.4687 7.36391 11.431 7.58675 11.3559C7.80958 11.2808 8.10789 11.1715 8.48181 11.0284L8.60632 10.533C8.54224 10.5626 8.43851 10.5961 8.29515 10.635C8.15193 10.6735 8.02376 10.6928 7.91062 10.6928ZM8.3996 3.09694C8.18251 2.89875 7.92101 2.7998 7.61521 2.7998C7.30921 2.7998 7.04671 2.89873 6.8279 3.09694C6.60873 3.29514 6.49939 3.53379 6.49939 3.81244C6.49939 4.09149 6.60871 4.32899 6.8279 4.52526C7.04671 4.72158 7.30921 4.81971 7.61521 4.81971C7.92101 4.81971 8.18251 4.72158 8.3996 4.52526C8.61669 4.32899 8.72522 4.09149 8.72522 3.81244C8.72522 3.53379 8.61669 3.29514 8.3996 3.09694Z" fill="white"/>
</g>
<defs>
<clipPath id="clip0_100_3">
<rect width="14" height="14" fill="white"/>
</clipPath>
</defs>
</svg>
