<svg width="31" height="30" viewBox="0 0 31 30" fill="none" xmlns="http://www.w3.org/2000/svg">
<path fill-rule="evenodd" clip-rule="evenodd" d="M12.1486 5.45458C12.5036 5.09971 12.7031 4.61829 12.7031 4.1163V0.756857C12.7031 0.338856 12.3642 0 11.9462 0H8.58289C8.08128 0 7.6002 0.199177 7.24539 0.55375L0.565383 7.2293C0.210265 7.58419 0.0107422 8.06565 0.0107422 8.5677V11.9277C0.0107422 12.3457 0.349599 12.6846 0.767599 12.6846H4.13151C4.63317 12.6846 5.1143 12.4853 5.46912 12.1307L12.1486 5.45458ZM13.951 9.14226C14.5424 8.55129 15.5011 8.55129 16.0924 9.14226L20.8862 13.9332C21.4775 14.5242 21.4775 15.4823 20.8862 16.0733L16.0924 20.8642C15.5011 21.4552 14.5424 21.4552 13.951 20.8642L9.15728 16.0733C8.56597 15.4823 8.56597 14.5242 9.15728 13.9332L13.951 9.14226ZM17.3184 4.1163C17.3184 4.61829 17.5179 5.09971 17.8729 5.45458L24.5524 12.1307C24.9072 12.4853 25.3883 12.6846 25.89 12.6846H29.2539C29.6719 12.6846 30.0107 12.3457 30.0107 11.9277V8.5677C30.0107 8.06565 29.8112 7.58419 29.4561 7.2293L22.7761 0.55375C22.4213 0.199177 21.9402 0 21.4386 0H18.0752C17.6572 0 17.3184 0.338856 17.3184 0.756857V4.1163ZM12.1486 24.5271C12.5036 24.882 12.7031 25.3634 12.7031 25.8654V29.2248C12.7031 29.6428 12.3642 29.9817 11.9462 29.9817H8.58289C8.08128 29.9817 7.6002 29.7825 7.24539 29.4279L0.565383 22.7524C0.210265 22.3975 0.0107422 21.916 0.0107422 21.414V18.054C0.0107422 17.636 0.349599 17.2971 0.767599 17.2971H4.13151C4.63317 17.2971 5.1143 17.4964 5.46912 17.851L12.1486 24.5271ZM17.3184 25.8654C17.3184 25.3634 17.5179 24.882 17.8729 24.5271L24.5524 17.851C24.9072 17.4964 25.3883 17.2971 25.89 17.2971H29.2539C29.6719 17.2971 30.0107 17.636 30.0107 18.054V21.414C30.0107 21.916 29.8112 22.3975 29.4561 22.7524L22.7761 29.4279C22.4213 29.7825 21.9402 29.9817 21.4386 29.9817H18.0752C17.6572 29.9817 17.3184 29.6428 17.3184 29.2248V25.8654Z" fill="white"/>
</svg>
