<svg width="16" height="16" viewBox="0 0 16 16" fill="none" xmlns="http://www.w3.org/2000/svg">
<rect opacity="0.01" width="16" height="16" fill="black"/>
<path d="M0 0H16V16H0V0Z" fill="#FF0033" fill-opacity="0.01"/>
<path fill-rule="evenodd" clip-rule="evenodd" d="M7.32699 0.905658C7.71936 0.587437 8.28096 0.587437 8.67332 0.905658L14.9223 5.94666C15.392 6.32533 15.4713 7.02 15.0993 7.49866C14.9512 7.69007 14.7433 7.82632 14.5086 7.88566L14.4506 7.89833L14.451 13.547C14.451 14.4747 13.756 15.242 12.849 15.3263L12.775 15.332L12.6976 15.3337H3.30299C2.36799 15.3337 1.59899 14.5867 1.55132 13.6257L1.54965 13.547L1.54932 7.89833L1.51099 7.89067C1.04699 7.78366 0.695992 7.37366 0.668648 6.87567L0.666992 6.813C0.666992 6.47533 0.81832 6.15633 1.07832 5.94633L7.32699 0.905658ZM8.05734 1.68708C8.0243 1.6603 7.97703 1.6603 7.94399 1.68708L1.70166 6.73675C1.67969 6.75475 1.66696 6.78167 1.66699 6.81008C1.66699 6.86208 1.70799 6.90408 1.75866 6.90408H2.05266C2.32666 6.90375 2.54866 7.13075 2.54866 7.4104V13.5437L2.54966 13.5967C2.56999 14.0084 2.90366 14.3334 3.30866 14.3334H12.68L12.732 14.3321C13.1347 14.3114 13.4523 13.9704 13.4523 13.5567V7.41075C13.4523 7.13075 13.6743 6.90408 13.9483 6.90408H14.2423C14.2703 6.90408 14.2967 6.89108 14.3143 6.86875C14.3456 6.82799 14.339 6.76975 14.2993 6.73708L8.05734 1.68708ZM10.3318 10.8747C10.3428 10.7426 10.3009 10.6114 10.2152 10.5102C10.1295 10.4089 10.0071 10.3458 9.87488 10.3348C9.74264 10.3238 9.61146 10.3658 9.51022 10.4516C9.07222 10.8225 8.62922 10.9999 8.16689 10.9999C7.70422 10.9999 7.26122 10.8225 6.82355 10.4516C6.68719 10.336 6.49957 10.3021 6.33135 10.3624C6.16314 10.4227 6.03989 10.5682 6.00802 10.744C5.97616 10.9199 6.04054 11.0994 6.17689 11.2149C6.78889 11.7325 7.45689 11.9999 8.16689 11.9999C8.87689 11.9999 9.54491 11.7325 10.1565 11.2149C10.2578 11.1292 10.3208 11.0069 10.3318 10.8747Z" fill="white"/>
</svg>
