<svg width="16" height="16" viewBox="0 0 16 16" fill="none" xmlns="http://www.w3.org/2000/svg">
<g clip-path="url(#clip0_0_189)">
<path d="M15.3594 6.53238C15.2701 6.06027 14.9805 5.75499 14.6096 5.75499H14.5453C13.5431 5.75499 12.728 4.93988 12.728 3.93743C12.728 3.62075 12.88 3.25967 12.8858 3.24531C13.0707 2.82925 12.9289 2.31939 12.5548 2.05771L10.6743 1.01065L10.6467 0.997119C10.2704 0.833973 9.75552 0.938396 9.47501 1.23064C9.27201 1.44001 8.57217 2.037 8.03816 2.037C7.49719 2.037 6.7958 1.42804 6.59177 1.2147C6.31174 0.920315 5.80214 0.809802 5.42168 0.972667L3.47422 2.03966L3.44499 2.05827C3.0709 2.3189 2.9285 2.82875 3.11237 3.24321C3.11872 3.25837 3.27124 3.61652 3.27124 3.93745C3.27124 4.9399 2.45611 5.75501 1.45397 5.75501H1.37799C1.01877 5.75501 0.729169 6.06027 0.639905 6.5324C0.633253 6.56562 0.482605 7.36454 0.482605 8.00511C0.482605 8.64486 0.633253 9.4435 0.639905 9.47646C0.729169 9.94886 1.01877 10.2544 1.38966 10.2544H1.45397C2.45611 10.2544 3.27124 11.0695 3.27124 12.0717C3.27124 12.3905 3.11874 12.7502 3.11289 12.764C2.92852 13.1809 3.06987 13.69 3.44287 13.9503L5.28778 14.9855L5.31595 14.9982C5.69748 15.1661 6.21343 15.0567 6.49241 14.7517C6.7501 14.4732 7.44834 13.8951 7.96109 13.8951C8.5169 13.8951 9.23268 14.5423 9.43886 14.7697C9.62907 14.978 9.92133 15.1035 10.2205 15.1035C10.3602 15.1035 10.4925 15.0758 10.6137 15.0237L12.5266 13.9695L12.5548 13.9514C12.9289 13.69 13.0713 13.1809 12.8869 12.7662C12.8805 12.7508 12.728 12.3926 12.728 12.0717C12.728 11.0696 13.5432 10.2544 14.5453 10.2544H14.6203C14.98 10.2544 15.2701 9.94888 15.3594 9.47648C15.3658 9.44352 15.5166 8.64488 15.5166 8.00513C15.5166 7.36452 15.3658 6.5656 15.3594 6.53238ZM14.4263 8.00509C14.4263 8.41902 14.3439 8.95093 14.3062 9.17304C12.8029 9.29632 11.6376 10.5525 11.6376 12.0717C11.6376 12.5005 11.7737 12.9112 11.846 13.1002L10.2141 14.0013C10.1339 13.9174 9.89688 13.6783 9.57435 13.4381C9.00791 13.0183 8.46482 12.8039 7.96107 12.8039C7.46159 12.8039 6.9228 13.013 6.35901 13.4274C6.03806 13.6612 5.80428 13.894 5.72243 13.9801L4.15277 13.1012C4.2293 12.9027 4.36162 12.4973 4.36162 12.0717C4.36162 10.5525 3.19633 9.29632 1.69362 9.17304C1.65535 8.95093 1.57298 8.41904 1.57298 8.00509C1.57298 7.59034 1.65535 7.05818 1.69362 6.83607C3.19633 6.71306 4.36162 5.45663 4.36162 3.93745C4.36162 3.51103 4.22559 3.09896 4.15332 2.91031L5.82555 1.9913C5.89834 2.06411 6.13692 2.29764 6.46318 2.52985C7.019 2.92652 7.54827 3.12738 8.03818 3.12738C8.5233 3.12738 9.04883 2.93025 9.60092 2.54128C9.92984 2.31013 10.1679 2.0798 10.237 2.0147L11.8465 2.90872C11.7737 3.0963 11.6376 3.50704 11.6376 3.93745C11.6376 5.45663 12.8029 6.71306 14.3062 6.83607C14.3439 7.05869 14.4263 7.593 14.4263 8.00509Z" fill="white"/>
<path d="M7.96716 5.32031C6.49261 5.32031 5.29279 6.52015 5.29279 7.99471C5.29279 9.4695 6.49263 10.6688 7.96716 10.6688C9.44171 10.6688 10.6416 9.4695 10.6416 7.99471C10.6416 6.52015 9.44171 5.32031 7.96716 5.32031ZM9.55119 7.99471C9.55119 8.86799 8.84075 9.57842 7.96716 9.57842C7.09359 9.57842 6.38367 8.86799 6.38367 7.99471C6.38367 7.12192 7.09359 6.41122 7.96716 6.41122C8.84075 6.41124 9.55119 7.12192 9.55119 7.99471Z" fill="white"/>
</g>
<defs>
<clipPath id="clip0_0_189">
<rect width="16" height="16" fill="white"/>
</clipPath>
</defs>
</svg>
