<svg width="72" height="72" viewBox="0 0 72 72" fill="none" xmlns="http://www.w3.org/2000/svg">
<g clip-path="url(#clip0_217_172495)">
<rect x="4.5" y="4.5" width="63" height="63" rx="13.5" fill="white" stroke="#E9E9E9"/>
<g clip-path="url(#clip1_217_172495)">
<path d="M60 35.9949C60 38.2299 58.19 40.0399 55.955 40.0399H42L36 27.9049L42.475 16.6899C43.595 14.7549 46.065 14.0949 48 15.2099C49.935 16.3299 50.595 18.7999 49.48 20.7349L43.005 31.9499H55.955C58.19 31.9499 60 33.7599 60 35.9949Z" fill="#1A73E8"/>
<path d="M48.0014 56.798C46.0664 57.913 43.5964 57.253 42.4764 55.318L36.0014 44.103L29.5264 55.318C28.4064 57.253 25.9364 57.913 24.0014 56.798C22.0664 55.678 21.4064 53.208 22.5214 51.273L28.9964 40.058L36.0014 39.793L43.0064 40.058L49.4814 51.273C50.5964 53.208 49.9364 55.678 48.0014 56.798Z" fill="#EA4335"/>
<path d="M36.0014 27.9049L34.1764 32.8649L28.9964 31.9499L22.5214 20.7349C21.4064 18.7999 22.0664 16.3299 24.0014 15.2099C25.9364 14.0949 28.4064 14.7549 29.5264 16.6899L36.0014 27.9049Z" fill="#FBBC04"/>
<path d="M34.955 31.957L30.26 40.047H16.045C13.81 40.047 12 38.237 12 36.002C12 33.767 13.81 31.957 16.045 31.957H34.955Z" fill="#34A853"/>
<path d="M42.9993 40.053H28.9893L35.9943 27.918L42.9993 40.053Z" fill="#185DB7"/>
</g>
<g clip-path="url(#clip2_217_172495)">
<path d="M58.8951 62.6187L59.5416 63.2651L60.1881 62.6187L65.3753 57.4317L66.0268 58.0832L59.5416 64.5682L55.9733 60.9999L56.6247 60.3486L58.8951 62.6187ZM65.7185 57.0886C65.7183 57.0887 65.7182 57.0888 65.7181 57.089L65.7185 57.0886ZM66.3698 58.4261C66.3696 58.4259 66.3693 58.4256 66.3691 58.4254L66.3696 58.4259L66.3698 58.4261ZM59.198 64.9117C59.1983 64.9115 59.1985 64.9113 59.1987 64.911L59.198 64.9117ZM56.9675 60.0059C56.9674 60.0059 56.9673 60.006 56.9673 60.0061L56.9675 60.0059ZM56.2822 60.0061C56.282 60.0059 56.2818 60.0057 56.2816 60.0055L56.2819 60.0059L56.2822 60.0061ZM61 49.0857C54.4196 49.0857 49.0857 54.42 49.0857 61C49.0857 67.58 54.4196 72.9143 61 72.9143C67.58 72.9143 72.9143 67.58 72.9143 61C72.9143 54.42 67.58 49.0857 61 49.0857Z" fill="#3F81FF" stroke="white" stroke-width="1.82857"/>
<path d="M67.016 58.3867L59.8453 65.5573C59.6777 65.7252 59.4056 65.7252 59.238 65.5573L54.9841 61.3034C54.8165 61.1358 54.8165 60.8637 54.9841 60.696L56.3211 59.3591C56.4887 59.1913 56.7608 59.1913 56.9284 59.3591L59.5417 61.9719L65.0717 56.4422C65.2393 56.2745 65.5114 56.2745 65.679 56.4422L67.0161 57.7791C67.184 57.9468 67.184 58.219 67.016 58.3867Z" fill="white"/>
</g>
</g>
<defs>
<clipPath id="clip0_217_172495">
<rect width="72" height="72" fill="white"/>
</clipPath>
<clipPath id="clip1_217_172495">
<rect width="48" height="43.4286" fill="white" transform="translate(12 14.293)"/>
</clipPath>
<clipPath id="clip2_217_172495">
<rect width="25" height="26" fill="white" transform="translate(48 47)"/>
</clipPath>
</defs>
</svg>
