<svg width="36" height="36" viewBox="0 0 36 36" fill="none" xmlns="http://www.w3.org/2000/svg">
<g opacity="0.9">
<path d="M5.63944 11.8959C5.44878 11.6653 5.2084 11.4809 4.93632 11.3564C4.67807 11.2399 4.39901 11.1767 4.11579 11.1705C3.80301 11.1603 3.49139 11.2134 3.1996 11.3265C2.93702 11.4297 2.69868 11.5862 2.49965 11.7862C2.30517 11.9843 2.15467 12.2214 2.05811 12.482C1.85612 13.0514 1.85612 13.6729 2.05811 14.2423C2.15376 14.5053 2.30472 14.7442 2.49965 14.9441C2.69867 15.144 2.93712 15.3009 3.1996 15.4033C3.49155 15.5166 3.80299 15.5701 4.11624 15.5597C4.39931 15.5535 4.67822 15.4902 4.93632 15.3738C5.20826 15.2492 5.44859 15.0648 5.63944 14.8344L5.15891 14.4617C5.05011 14.624 4.90504 14.7582 4.73595 14.8548C4.54783 14.9636 4.33353 15.0189 4.11624 15.0148C3.89206 15.0246 3.66846 14.9851 3.46117 14.8992C3.27376 14.8245 3.10428 14.7109 2.96387 14.566C2.82421 14.4121 2.71801 14.2309 2.65198 14.0338C2.50963 13.6019 2.50963 13.1356 2.65198 12.7037C2.71816 12.507 2.82424 12.3265 2.96387 12.1733C3.10168 12.0237 3.26987 11.9049 3.45709 11.8251C3.66444 11.7394 3.88802 11.7001 4.11216 11.71C4.32976 11.7055 4.54373 11.7612 4.73232 11.87C4.90141 11.9661 5.04648 12.1008 5.15528 12.2626L5.63581 11.8904L5.63944 11.8959ZM7.04613 15.4591H7.63411V13.3157C7.6212 13.0072 7.68507 12.7004 7.81997 12.4226C7.91699 12.2336 8.05525 12.069 8.22435 11.9407C8.34942 11.8429 8.4944 11.7735 8.64912 11.7377C8.73253 11.7231 8.81685 11.7132 8.90163 11.7082C9.33456 11.7082 9.63149 11.8319 9.79243 12.0799C9.9724 12.4063 10.0558 12.7767 10.0336 13.1484V15.4595H10.6216V12.8053C10.6502 12.3684 10.5139 11.9368 10.2394 11.5958C9.98101 11.3179 9.58435 11.1791 9.05032 11.1791C8.90979 11.1791 8.77107 11.1991 8.63643 11.2367C8.49831 11.2745 8.36505 11.3282 8.23931 11.3967C8.11691 11.4638 8.00357 11.5463 7.90157 11.6425C7.80365 11.734 7.72024 11.8392 7.65269 11.9553H7.63456V8.70667H7.04613V15.4591ZM15.3036 13.3792V13.6825C15.3045 13.8593 15.2787 14.0361 15.2274 14.2051C15.1804 14.3636 15.0995 14.51 14.9902 14.634C14.8809 14.758 14.7459 14.8567 14.5946 14.9232C14.4189 14.9988 14.2291 15.0357 14.0379 15.0316C13.9191 15.0316 13.8008 15.0175 13.6852 14.9908C13.573 14.9652 13.4663 14.9197 13.3701 14.8566C13.2764 14.7951 13.1987 14.7121 13.1435 14.6145C13.0842 14.5063 13.0548 14.3842 13.0582 14.2609C13.0541 14.1677 13.0717 14.0748 13.1097 13.9895C13.1477 13.9043 13.2051 13.8291 13.2772 13.7699C13.4317 13.646 13.6106 13.556 13.8022 13.5057C14.0121 13.448 14.2273 13.4119 14.4445 13.3978C14.6667 13.3828 14.8525 13.3751 15.0008 13.3751L15.3036 13.3792ZM15.0103 12.8973C14.7628 12.8973 14.4881 12.9091 14.1861 12.9326C13.8971 12.9565 13.6126 13.019 13.3402 13.1185C13.0881 13.206 12.8617 13.355 12.6815 13.5519C12.4954 13.7755 12.4012 14.0616 12.4181 14.352C12.4136 14.537 12.4553 14.7197 12.5387 14.8842C12.617 15.0336 12.7265 15.1643 12.8597 15.2678C12.9961 15.3738 13.1516 15.4527 13.3175 15.5003C13.4916 15.5511 13.6711 15.5769 13.8525 15.5765C14.1496 15.5844 14.4443 15.5206 14.7115 15.3906C14.9663 15.2491 15.1775 15.0406 15.3222 14.7877H15.3403C15.3403 14.9006 15.3449 15.0166 15.3539 15.1354C15.3621 15.2546 15.3766 15.3625 15.3961 15.4595H15.9528C15.932 15.3155 15.916 15.1708 15.9047 15.0257C15.8901 14.8605 15.8851 14.6946 15.8898 14.5288V12.6688C15.8957 12.4421 15.8535 12.2168 15.7655 12.0083C15.689 11.8335 15.5764 11.6768 15.4351 11.5486C15.2943 11.4244 15.1286 11.3317 14.9491 11.2766C14.7607 11.217 14.5642 11.1869 14.3666 11.1873C13.5823 11.1873 12.9943 11.3895 12.6035 11.7943L12.9599 12.2146C13.3055 11.8936 13.7612 11.7179 14.2328 11.7236C14.9455 11.7236 15.3013 12.0835 15.3013 12.8043V12.9122L15.0103 12.8973ZM17.8418 11.2802C17.8541 11.4353 17.8645 11.5989 17.8735 11.7712C17.8822 11.9435 17.8862 12.0863 17.8862 12.1991V15.4595H18.4747V13.3157C18.4617 13.0072 18.5256 12.7004 18.6605 12.4226C18.7575 12.2336 18.8954 12.069 19.0649 11.9407C19.19 11.8429 19.335 11.7735 19.4897 11.7377C19.5717 11.7213 19.6547 11.7095 19.7381 11.7023C20.171 11.7023 20.468 11.8265 20.6289 12.0745C20.809 12.4004 20.8926 12.7708 20.8701 13.1425V15.4591H21.4585V12.8062C21.4872 12.3694 21.3508 11.9377 21.0763 11.5967C20.8202 11.3188 20.4249 11.1801 19.8904 11.1801C19.7503 11.1801 19.6112 11.2 19.4765 11.2376C19.3384 11.2754 19.2052 11.3291 19.0794 11.3977C18.9553 11.4628 18.8399 11.5435 18.7362 11.6379C18.6388 11.7295 18.5549 11.8347 18.4878 11.9507H18.4692V11.6153C18.4692 11.5051 18.4615 11.3931 18.4466 11.2807L17.8418 11.2802ZM24.0194 12.696C24.1726 12.3154 24.4664 12.0082 24.8399 11.8383C25.0312 11.7509 25.2393 11.7065 25.4497 11.7082C25.6763 11.705 25.9003 11.749 26.1083 11.8383C26.2969 11.919 26.4665 12.0378 26.6079 12.1865C26.7448 12.3333 26.8509 12.507 26.9194 12.696C26.9919 12.8955 27.0282 13.1058 27.0273 13.3175C27.0363 13.5433 26.9982 13.7681 26.9157 13.978C26.8387 14.1693 26.7222 14.3411 26.5726 14.4826C26.271 14.766 25.873 14.9242 25.4592 14.925C25.2485 14.927 25.0401 14.8826 24.8485 14.7949C24.6648 14.7111 24.4986 14.5931 24.3589 14.4472C24.2178 14.2995 24.1057 14.1264 24.0285 13.9372C23.8682 13.539 23.8682 13.0942 24.0285 12.696H24.0194ZM23.3548 16.7619C23.6031 17.0346 23.9068 17.251 24.2456 17.3966C24.5994 17.5382 24.978 17.6076 25.359 17.6006C25.75 17.6164 26.1395 17.5434 26.4982 17.3871C26.7639 17.264 26.9971 17.0805 27.1791 16.8513C27.3397 16.6432 27.4525 16.4024 27.5096 16.1459C27.564 15.9083 27.5926 15.6656 27.5948 15.4219V11.2802H27.0069V11.9761H26.9883C26.7852 11.6935 26.5096 11.4711 26.1904 11.3324C26.056 11.2746 25.9152 11.2327 25.7711 11.2077C25.6399 11.1848 25.5071 11.173 25.3739 11.1723C25.0823 11.1692 24.7931 11.2255 24.5239 11.3378C24.272 11.4435 24.0445 11.6 23.8557 11.7975C23.6667 11.997 23.5166 12.2304 23.4142 12.4857C23.3061 12.7554 23.2519 13.0437 23.2546 13.3343C23.2521 13.6258 23.3096 13.9147 23.4237 14.1829C23.5311 14.4368 23.6889 14.6657 23.8875 14.8566C24.0869 15.047 24.3213 15.197 24.5779 15.299C24.848 15.4072 25.1365 15.4617 25.4274 15.4595C25.7256 15.4585 26.0202 15.3952 26.2924 15.2737C26.5779 15.1434 26.819 14.9324 26.986 14.6666H27.0046V15.411C27.0059 15.6268 26.9774 15.8417 26.9194 16.0493C26.8677 16.2429 26.7743 16.4229 26.6446 16.5756C26.5074 16.7316 26.3351 16.8528 26.1419 16.9292C25.9007 17.0217 25.6432 17.0661 25.3848 17.0593C25.0632 17.0646 24.7449 16.9926 24.4569 16.8494C24.1923 16.7186 23.9623 16.5272 23.7855 16.2909L23.3548 16.7619ZM29.9721 13.0401C29.9721 12.8665 30.0138 12.6946 30.0927 12.5396C30.1729 12.3791 30.2817 12.2341 30.4137 12.1117C30.5501 11.9847 30.7083 11.8832 30.881 11.8125C31.0572 11.738 31.2465 11.6999 31.4377 11.7005C31.6209 11.6896 31.8042 11.7171 31.9761 11.7812C32.148 11.8453 32.3047 11.9446 32.436 12.0727C32.5554 12.2029 32.648 12.3554 32.7082 12.5215C32.7684 12.6876 32.7951 12.864 32.7869 13.0405H29.9717L29.9721 13.0401ZM33.427 13.5224V13.2618C33.4285 12.987 33.3832 12.714 33.2932 12.4544C33.2094 12.2106 33.0776 11.986 32.9056 11.7939C32.7313 11.6016 32.5191 11.4476 32.2823 11.3414C32.0155 11.2252 31.7269 11.1676 31.4359 11.1723C31.1516 11.17 30.8698 11.2263 30.6081 11.3378C30.357 11.4448 30.13 11.6012 29.9404 11.7975C29.7478 11.998 29.5965 12.2344 29.4952 12.4934C29.3866 12.772 29.3325 13.0688 29.3356 13.3678C29.3326 13.6675 29.3887 13.9648 29.5006 14.2428C29.6045 14.5012 29.7568 14.7369 29.9494 14.9382C30.1426 15.1367 30.3747 15.2931 30.6308 15.3979C30.9034 15.5094 31.1954 15.5657 31.4899 15.5633C31.823 15.566 32.1528 15.4963 32.4564 15.3589C32.7814 15.2016 33.064 14.9688 33.2805 14.6798L32.8258 14.3076C32.6921 14.5126 32.5139 14.6849 32.3045 14.8117C32.0597 14.9622 31.7768 15.0384 31.4899 15.0311C31.291 15.0332 31.0939 14.994 30.911 14.916C30.5528 14.7622 30.2663 14.4781 30.1095 14.1213C30.0255 13.9349 29.974 13.7356 29.9571 13.5319L33.427 13.5224Z" fill="#111111"/>
<path d="M2.41663 26.6238H3.91263V20.1579H3.9362L8.09327 26.6238H9.99273V18.1927H8.49537V24.4559H8.47316L4.39089 18.1927H2.41663V26.6238ZM12.3809 24.242C12.5875 24.7635 12.9009 25.2361 13.3012 25.6292C13.7006 26.0219 14.1779 26.3264 14.7024 26.5231C15.2732 26.739 15.8793 26.8463 16.4895 26.8396C17.1069 26.8396 17.7189 26.7244 18.2951 26.5009C18.8227 26.2948 19.3035 25.9848 19.709 25.5893C20.1102 25.1929 20.4259 24.7185 20.6365 24.1953C20.8619 23.6232 20.972 23.0116 20.9616 22.396C20.9705 21.7687 20.8577 21.1457 20.6293 20.5614C20.4206 20.0338 20.1046 19.5554 19.7013 19.1565C19.2987 18.7632 18.8166 18.4605 18.2874 18.2689C17.7088 18.0611 17.0968 17.9621 16.4822 17.9769C15.872 17.9703 15.266 18.0776 14.6952 18.2933C14.1709 18.4922 13.6938 18.7982 13.2944 19.1918C12.8912 19.593 12.5752 20.0731 12.3664 20.6022C12.1451 21.1905 12.0392 21.8161 12.0545 22.4445C12.0463 23.0597 12.1592 23.6704 12.3868 24.242H12.3813H12.3809ZM13.8248 21.1697C13.957 20.8153 14.1568 20.49 14.4132 20.2118C14.6682 19.9365 14.9777 19.7172 15.3221 19.5681C15.6967 19.4082 16.1008 19.3288 16.508 19.3351C16.9158 19.3297 17.3202 19.4089 17.6958 19.5677C18.0421 19.7159 18.354 19.9349 18.6106 20.2114C18.8667 20.4898 19.0664 20.8153 19.1986 21.1697C19.336 21.5457 19.4039 21.9436 19.3989 22.3439C19.4035 22.77 19.3332 23.193 19.1913 23.5946C19.0621 23.9596 18.8622 24.2954 18.6029 24.5829C18.3469 24.8625 18.0353 25.0855 17.6881 25.2375C17.3135 25.4 16.9086 25.4811 16.5003 25.4755C16.0939 25.4816 15.6909 25.4004 15.3185 25.2375C14.9733 25.0843 14.6637 24.8613 14.4091 24.5824C14.1499 24.295 13.95 23.9591 13.8211 23.5942C13.6798 23.1927 13.6101 22.7695 13.6153 22.3439C13.6119 21.9413 13.6823 21.5415 13.8229 21.1643L13.8248 21.1697ZM24.5633 26.6238H25.9401L27.8885 20.2046H27.9125L29.8682 26.6238H31.2935L33.7392 18.1927H32.2192L30.5677 24.266H30.5437L28.6882 18.1927H27.2149L25.324 24.266H25.3L23.7206 18.1927H22.075L24.5633 26.6238Z" fill="#00C26F"/>
</g>
</svg>
