<svg width="36" height="36" viewBox="0 0 36 36" fill="none" xmlns="http://www.w3.org/2000/svg">
<g opacity="0.9">
<g clip-path="url(#clip0_1_550)">
<path d="M18 2C26.8375 2 34 9.1625 34 18C34 26.8375 26.8375 34 18 34C9.1625 34 2 26.8375 2 18C2 9.1625 9.1625 2 18 2Z" fill="#0052FF"/>
<path d="M18.0031 23.625C14.8969 23.625 12.3781 21.1094 12.3781 18C12.3781 14.8906 14.8969 12.375 18.0031 12.375C20.7875 12.375 23.1 14.4062 23.5438 17.0625H29.2094C28.7313 11.2875 23.8969 6.75 18 6.75C11.7875 6.75 6.75 11.7875 6.75 18C6.75 24.2125 11.7875 29.25 18 29.25C23.8969 29.25 28.7313 24.7125 29.2094 18.9375H23.5406C23.0937 21.5938 20.7875 23.625 18.0031 23.625Z" fill="white"/>
</g>
</g>
<defs>
<clipPath id="clip0_1_550">
<rect width="32" height="32" fill="white" transform="translate(2 2)"/>
</clipPath>
</defs>
</svg>
