<svg width="30" height="30" viewBox="0 0 30 30" fill="none" xmlns="http://www.w3.org/2000/svg">
<circle cx="15" cy="15" r="14.25" stroke="#B9C9D4" stroke-width="1.5"/>
<path d="M15 6.25C10.1675 6.25 6.25 10.1675 6.25 15C6.25 19.8325 10.1675 23.75 15 23.75C19.8325 23.75 23.75 19.8325 23.75 15C23.75 10.1675 19.8325 6.25 15 6.25ZM19.7854 12.9215L14.0816 18.6253C13.9481 18.7587 13.7317 18.7587 13.5982 18.6253L10.2146 15.2416C10.0811 15.1082 10.0811 14.8918 10.2146 14.7583L11.278 13.6949C11.4115 13.5614 11.6279 13.5615 11.7614 13.6949L13.8399 15.7734L18.2387 11.3747C18.3721 11.2412 18.5885 11.2412 18.722 11.3747L19.7854 12.4381C19.9189 12.5716 19.9189 12.788 19.7854 12.9215Z" fill="#B9C9D4"/>
</svg>
