<svg width="26" height="26" viewBox="0 0 26 26" fill="none" xmlns="http://www.w3.org/2000/svg">
<g clip-path="url(#clip0_189_99940)">
<path fill-rule="evenodd" clip-rule="evenodd" d="M5.6625 1.74023H20.6383C20.9957 1.74023 21.3257 1.93139 21.5038 2.24151L25.8669 9.83424C26.0932 10.228 26.026 10.725 25.7032 11.0443L13.6938 22.9259C13.3047 23.3109 12.679 23.3109 12.29 22.9259L0.296778 11.0603C-0.0334546 10.7336 -0.0952926 10.2221 0.147545 9.82592L4.8113 2.21715C4.99294 1.92083 5.31525 1.74023 5.6625 1.74023ZM18.7047 5.13013V7.26055H14.4386V8.73761C17.4348 8.89547 19.6827 9.54376 19.6993 10.3208V11.9407C19.6825 12.7178 17.4348 13.3661 14.4386 13.524V17.1489H11.6059V13.524C8.60977 13.3661 6.36188 12.7178 6.34524 11.9407L6.34529 10.3208C6.36198 9.54376 8.60977 8.89547 11.6059 8.73761V7.26055H7.33993V5.13013H18.7047ZM13.0222 12.411C16.2197 12.411 18.8923 11.8629 19.5462 11.1308C18.9916 10.51 16.9854 10.0214 14.4386 9.88722V11.4337C13.9822 11.4578 13.5083 11.4705 13.0222 11.4705C12.5363 11.4705 12.0624 11.4578 11.6059 11.4337V9.88722C9.05908 10.0214 7.05294 10.51 6.49832 11.1308C7.15234 11.8629 9.82485 12.411 13.0222 12.411Z" fill="#009393"/>
<path fill-rule="evenodd" clip-rule="evenodd" d="M18.7031 5.12891V7.25933H14.4371V8.73641C17.4333 8.89425 19.6811 9.54254 19.6979 10.3196L19.6978 11.9395C19.6811 12.7166 17.4333 13.3649 14.4371 13.5227V17.1477H11.6044V13.5227C8.60828 13.3649 6.36039 12.7166 6.34375 11.9395L6.3438 10.3196C6.36049 9.54254 8.60828 8.89425 11.6044 8.73641V7.25933H7.33845V5.12891H18.7031ZM19.5448 11.1296C18.8907 11.8616 16.2182 12.4098 13.0208 12.4098C9.82336 12.4098 7.15086 11.8616 6.49683 11.1296C7.05144 10.5088 9.05759 10.0202 11.6044 9.886V11.4325C12.0609 11.4566 12.5348 11.4692 13.0208 11.4692C13.5068 11.4692 13.9806 11.4566 14.4371 11.4325V9.886C16.984 10.0202 18.99 10.5088 19.5448 11.1296Z" fill="white"/>
<path d="M22.1406 12.1406L26.0924 18.6707L22.1552 16.9879L22.1406 12.1406Z" fill="#E68F7B"/>
<path d="M18.1992 18.6707L22.14 12.1406L22.1547 16.9879L18.1992 18.6707Z" fill="#F8EC7C"/>
<path d="M22.14 21.0768L18.1992 18.669L22.1547 16.9863L22.14 21.0768Z" fill="#6EB87D"/>
<path d="M26.0924 18.669L22.1552 16.9863L22.1406 21.0768L26.0924 18.669Z" fill="#946BA7"/>
<path d="M22.1406 21.9069L26.0924 19.5645L22.1406 25.1325V21.9069Z" fill="#697CB9"/>
<path d="M22.14 21.905L18.1992 19.5625L22.14 25.1305V21.905Z" fill="#4FADD0"/>
</g>
<defs>
<clipPath id="clip0_189_99940">
<rect width="26" height="26" fill="white" transform="translate(0 0.0078125)"/>
</clipPath>
</defs>
</svg>
