<svg width="26" height="26" viewBox="0 0 26 26" fill="none" xmlns="http://www.w3.org/2000/svg">
<g clip-path="url(#clip0_297_255286)">
<path fill-rule="evenodd" clip-rule="evenodd" d="M5.6625 1.69922H20.6383C20.9956 1.69922 21.3257 1.89037 21.5038 2.2005L25.8669 9.79323C26.0932 10.187 26.026 10.684 25.7032 11.0033L13.6938 22.8849C13.3047 23.2699 12.679 23.2699 12.29 22.8849L0.296778 11.0193C-0.0334546 10.6926 -0.0952926 10.1811 0.147545 9.78491L4.8113 2.17614C4.99294 1.87981 5.31524 1.69922 5.6625 1.69922ZM18.7047 5.08911V7.21954H14.4386V8.6966C17.4348 8.85446 19.6826 9.50274 19.6993 10.2798V11.8997C19.6825 12.6768 17.4348 13.3251 14.4386 13.4829V17.1079H11.6059V13.4829C8.60977 13.3251 6.36187 12.6768 6.34523 11.8997L6.34529 10.2798C6.36198 9.50274 8.60977 8.85446 11.6059 8.6966V7.21954H7.33993V5.08911H18.7047ZM13.0222 12.37C16.2197 12.37 18.8922 11.8219 19.5461 11.0898C18.9916 10.469 16.9854 9.98039 14.4386 9.8462V11.3927C13.9821 11.4168 13.5083 11.4294 13.0222 11.4294C12.5363 11.4294 12.0624 11.4168 11.6059 11.3927V9.8462C9.05908 9.98039 7.05294 10.469 6.49832 11.0898C7.15234 11.8219 9.82485 12.37 13.0222 12.37Z" fill="#009393"/>
<path d="M19.5 26C23.0899 26 26 23.0899 26 19.5C26 15.9101 23.0899 13 19.5 13C15.9101 13 13 15.9101 13 19.5C13 23.0899 15.9101 26 19.5 26Z" fill="#EB322A"/>
<path fill-rule="evenodd" clip-rule="evenodd" d="M15.6564 15.6977C15.7141 15.6258 15.8059 15.5903 15.897 15.6047L22.4221 16.6406C22.4778 16.6494 22.5289 16.6762 22.5677 16.717L24.145 18.3718C24.175 18.4025 24.1975 18.4407 24.2092 18.4842C24.2133 18.4989 24.2159 18.514 24.2172 18.5292C24.2205 18.5674 24.2152 18.6046 24.2029 18.6388C24.1932 18.6652 24.1792 18.6904 24.1606 18.7133L19.4221 24.5394C19.3645 24.6101 19.2738 24.6449 19.1837 24.631C19.0936 24.6171 19.0176 24.5564 18.9841 24.4716L15.6179 15.9527C15.5841 15.8671 15.5988 15.7697 15.6564 15.6977ZM23.4308 18.3668L22.3934 17.2785L20.7321 18.7474L23.4308 18.3668ZM21.8536 17.0702L16.739 16.2584L19.9281 18.7728L21.8536 17.0702ZM20.1483 19.3483L23.3493 18.897L19.6156 23.4875L20.1483 19.3483ZM19.11 23.3928L16.4636 16.6952L19.6487 19.2066L19.11 23.3928Z" fill="white"/>
</g>
<defs>
<clipPath id="clip0_297_255286">
<rect width="26" height="26" fill="white"/>
</clipPath>
</defs>
</svg>
