<svg width="12" height="12" viewBox="0 0 12 12" fill="none" xmlns="http://www.w3.org/2000/svg">
  <rect opacity="0.01" width="12" height="12" fill="black" />
  <path fill-rule="evenodd" clip-rule="evenodd"
        d="M5.99988 0C2.68647 0 0 2.68645 0 5.99988C0 9.31353 2.68648 12 5.99988 12C9.31355 12 11.9998 9.31355 11.9998 5.99988C12 2.68644 9.31379 0 5.99988 0ZM6.90922 8.59127C6.90922 9.08832 6.50627 9.49127 6.00922 9.49127H5.99051C5.49345 9.49127 5.09051 9.08832 5.09051 8.59127C5.09051 8.09421 5.49345 7.69127 5.99051 7.69127H6.00922C6.50627 7.69127 6.90922 8.09421 6.90922 8.59127ZM5.99988 6.93103C6.44086 6.93103 6.79834 6.57355 6.79834 6.13257V3.37387C6.79834 2.93289 6.44086 2.5754 5.99988 2.5754C5.5589 2.5754 5.20142 2.93289 5.20142 3.37387V6.13257C5.20142 6.57355 5.5589 6.93103 5.99988 6.93103Z"
        fill={color} />
</svg>
