<svg width="30" height="30" viewBox="0 0 30 30" fill="none" xmlns="http://www.w3.org/2000/svg">
<g clip-path="url(#clip0_1_86)">
<path fill-rule="evenodd" clip-rule="evenodd" d="M6.53366 3H23.8134C24.2257 3 24.6066 3.22056 24.8121 3.5784L29.8464 12.3392C30.1076 12.7936 30.03 13.367 29.6575 13.7354L15.8005 27.445C15.3516 27.8892 14.6296 27.8892 14.1807 27.445L0.342436 13.754C-0.0386015 13.377 -0.109953 12.7868 0.170244 12.3296L5.5515 3.55029C5.76108 3.20838 6.13298 3 6.53366 3ZM21.5823 6.91142V9.3696H16.6599V11.0739C20.1171 11.256 22.7108 12.0041 22.73 12.9007V14.7698C22.7106 15.6664 20.1171 16.4145 16.6599 16.5966V20.7792H13.3915V16.5966C9.93435 16.4145 7.34062 15.6664 7.32142 14.7698L7.32149 12.9007C7.34075 12.0041 9.93435 11.256 13.3915 11.0739V9.3696H8.46915V6.91142H21.5823ZM15.0257 15.3124C18.7151 15.3124 21.7987 14.68 22.5532 13.8353C21.9133 13.119 19.5985 12.5552 16.6599 12.4004V14.1848C16.1332 14.2126 15.5865 14.2272 15.0257 14.2272C14.4649 14.2272 13.9182 14.2126 13.3915 14.1848V12.4004C10.4528 12.5552 8.13801 13.119 7.49807 13.8353C8.2527 14.68 11.3364 15.3124 15.0257 15.3124Z" fill="#009393"/>
<path fill-rule="evenodd" clip-rule="evenodd" d="M21.5821 6.91016V9.36834H16.6597V11.0727C20.1169 11.2548 22.7106 12.0028 22.7299 12.8994L22.7298 14.7686C22.7106 15.6652 20.1169 16.4132 16.6597 16.5953V20.7779H13.3913V16.5953C9.93421 16.4132 7.34049 15.6652 7.32129 14.7686L7.32135 12.8994C7.34061 12.0028 9.93421 11.2548 13.3913 11.0727V9.36834H8.46901V6.91016H21.5821ZM22.5532 13.834C21.7986 14.6787 18.7149 15.3112 15.0256 15.3112C11.3362 15.3112 8.25256 14.6787 7.49791 13.834C8.13786 13.1177 10.4526 12.5539 13.3913 12.3991V14.1836C13.918 14.2113 14.4648 14.2259 15.0256 14.2259C15.5863 14.2259 16.1331 14.2113 16.6597 14.1836V12.3991C19.5985 12.5539 21.9132 13.1177 22.5532 13.834Z" fill="white"/>
<path d="M15 22.5C15 18.3579 18.3579 15 22.5 15V15C26.6421 15 30 18.3579 30 22.5V22.5C30 26.6421 26.6421 30 22.5 30V30C18.3579 30 15 26.6421 15 22.5V22.5Z" fill="#4E8EE9"/>
<path d="M26.0015 22.4558L22.5025 24.5238L19.0034 22.4558L22.5025 16.65L26.0015 22.4558Z" fill="white"/>
<path d="M26.0035 23.419L22.5026 28.3492L19.0035 23.419L22.5026 25.4851L26.0035 23.419Z" fill="white"/>
</g>
<defs>
<clipPath id="clip0_1_86">
<rect width="30" height="30" fill="white"/>
</clipPath>
</defs>
</svg>
