<svg width="90" height="90" viewBox="0 0 90 90" fill="none" xmlns="http://www.w3.org/2000/svg">
<path d="M44.9963 0C39.0869 0.000328201 33.2355 1.16461 27.7762 3.42638C22.3168 5.68814 17.3564 9.00309 13.1781 13.182C8.99978 17.3608 5.68546 22.3218 3.42437 27.7816C1.16327 33.2413 -0.00032821 39.093 6.94423e-08 45.0025C0.000328349 50.912 1.16458 56.7635 3.42628 62.2231C5.68798 67.6826 9.00284 72.6432 13.1816 76.8216C17.3603 81 22.3212 84.3144 27.7808 86.5756C33.2404 88.8367 39.0919 90.0003 45.0013 90C56.9357 90 68.3813 85.2589 76.8202 76.8198C85.2591 68.3807 90 56.9347 90 45C90 33.0653 85.2591 21.6193 76.8202 13.1802C68.3813 4.74106 56.9357 1.77842e-07 45.0013 0H44.9963Z" fill="#F9515B"/>
<path d="M51.8943 44.9995L62.4798 34.414C63.2609 33.6329 63.2609 32.3666 62.4798 31.5855L58.414 27.5197C57.6329 26.7386 56.3666 26.7386 55.5855 27.5197L45 38.1052L34.4145 27.5197C33.6334 26.7386 32.3671 26.7386 31.586 27.5197L27.5202 31.5855C26.7391 32.3666 26.7391 33.6329 27.5202 34.414L38.1057 44.9995L27.5197 55.5855C26.7386 56.3666 26.7386 57.6329 27.5197 58.414L31.5855 62.4798C32.3666 63.2609 33.6329 63.2609 34.414 62.4798L45 51.8938L55.586 62.4798C56.3671 63.2609 57.6334 63.2609 58.4145 62.4798L62.4803 58.414C63.2614 57.6329 63.2614 56.3666 62.4803 55.5855L51.8943 44.9995Z" fill="white"/>
</svg>
