<svg width="22" height="22" viewBox="0 0 22 22" fill="none" xmlns="http://www.w3.org/2000/svg">
<path fill-rule="evenodd" clip-rule="evenodd" d="M20.8837 11.1049C20.8837 5.58898 16.4119 1.11719 10.896 1.11719C5.3801 1.11731 0.908203 5.58906 0.908203 11.1049C0.908203 15.4496 3.68258 19.1464 7.55621 20.5206C7.47763 20.3103 7.43467 20.0826 7.43467 19.8449V18.5075C6.57459 18.1053 5.7903 17.556 5.11762 16.8833C4.3588 16.1245 3.75687 15.2236 3.3462 14.2322C3.05164 13.521 2.85961 12.7733 2.77457 12.0113H6.38697C6.4884 13.476 6.83765 14.8837 7.43467 16.2345V13.6626C7.43467 13.0266 7.74215 12.4625 8.21655 12.1108C8.21357 12.0777 8.21073 12.0445 8.20805 12.0113H8.36462C8.65639 11.8341 8.99886 11.7321 9.36515 11.7321H12.8084C13.2753 11.7321 13.7035 11.8979 14.0374 12.1738C14.3712 11.8979 14.7995 11.7321 15.2664 11.7321H15.6441C16.0214 11.7321 16.3855 11.831 16.7039 12.0113H18.8428C19.1346 11.8341 19.4771 11.7321 19.8434 11.7321H20.0361C20.3275 11.7321 20.6038 11.7967 20.8516 11.9123C20.8729 11.646 20.8837 11.3767 20.8837 11.1049ZM3.3462 7.97773C3.05206 8.68784 2.86017 9.43446 2.77494 10.1953H6.3872C6.56272 7.67 7.475 5.314 9.12372 3.12763C8.6616 3.2303 8.20818 3.37316 7.76875 3.55518C6.7773 3.96586 5.87645 4.56779 5.11762 5.32661C4.3588 6.08543 3.75687 6.98628 3.3462 7.97773ZM10.676 4.08627C9.19741 5.9995 8.38428 8.02621 8.20831 10.1953H13.5831C13.4071 8.02675 12.594 5.99943 11.1155 4.08627L10.8957 3.80843L10.676 4.08627ZM16.6743 5.32661C17.9909 6.64317 18.8118 8.36271 19.017 10.1953H15.4043C15.2287 7.66994 14.3164 5.31388 12.6676 3.12747C14.1733 3.4619 15.5665 4.21879 16.6743 5.32661Z" fill="#141516"/>
<path d="M20.6273 13.3635C20.518 13.1479 20.2943 13.0002 20.0361 13.0002H19.8434C19.4775 13.0002 19.181 13.2967 19.181 13.6626V16.6847C19.852 15.6903 20.3487 14.5687 20.6273 13.3635Z" fill="#141516"/>
<path d="M18.8426 17.156L17.7719 15.5208C17.4778 15.9788 17.1366 16.4094 16.7515 16.805L17.7674 18.3532C18.1569 17.9839 18.5166 17.5835 18.8426 17.156Z" fill="#141516"/>
<path d="M16.1215 19.6182V17.3877C15.652 17.7782 15.1426 18.1128 14.604 18.387V19.8449C14.604 19.9751 14.6416 20.0966 14.7065 20.199C14.7307 20.2372 14.7587 20.2727 14.79 20.3051C15.2527 20.109 15.6976 19.879 16.1215 19.6182Z" fill="#141516"/>
<path d="M12.7401 18.9856C12.7161 19.0179 12.6919 19.0502 12.6676 19.0824C12.7714 19.0594 12.8746 19.0343 12.9772 19.0073C13.1222 19.0454 13.2477 19.1314 13.3359 19.2473C13.4205 19.3585 13.4708 19.4974 13.4708 19.648V19.8449C13.4708 19.9751 13.4332 20.0966 13.3683 20.199C13.2509 20.3843 13.044 20.5073 12.8084 20.5073H9.36515C8.99932 20.5073 8.70276 20.2107 8.70276 19.8449V18.9769C8.84217 19.0158 8.98254 19.0509 9.12373 19.0823C8.97762 18.8885 8.8373 18.6934 8.70276 18.497V14.4774C9.0637 15.5808 9.61007 16.6468 10.3462 17.6795V18.9856H12.7401Z" fill="#141516"/>
<path d="M14.604 15.6351C14.9321 14.7791 15.1631 13.9008 15.2971 13.0002H15.2664C15.0308 13.0002 14.8239 13.1232 14.7065 13.3085C14.6416 13.4109 14.604 13.5323 14.604 13.6626V15.6351Z" fill="#141516"/>
<path d="M11.6165 17.4334H12.4533C12.8192 17.4334 13.1157 17.1369 13.1157 16.771V16.6553C13.1157 16.293 12.825 15.9987 12.4641 15.993C12.2206 16.4803 11.9382 16.9604 11.6165 17.4334Z" fill="#141516"/>
<path d="M13.0953 14.4567C13.1903 14.411 13.2727 14.3433 13.3359 14.2602C13.4205 14.1489 13.4708 14.0101 13.4708 13.8595V13.6626C13.4708 13.5483 13.4419 13.4409 13.391 13.3471C13.3127 13.7212 13.2142 14.091 13.0953 14.4567Z" fill="#141516"/>
<path d="M12.8083 20.5071C13.1741 20.5071 13.4707 20.2105 13.4707 19.8447V19.6478C13.4707 19.282 13.1741 18.9854 12.8083 18.9854H10.3461V17.4333H12.4532C12.819 17.4333 13.1156 17.1367 13.1156 16.7709V16.6551C13.1156 16.2893 12.819 15.9927 12.4532 15.9927H10.3461V14.5217H12.8083C13.1741 14.5217 13.4707 14.2251 13.4707 13.8593V13.6624C13.4707 13.2966 13.1741 13 12.8083 13H9.36503C8.9992 13 8.70264 13.2966 8.70264 13.6624V19.8447C8.70264 20.2105 8.9992 20.5071 9.36503 20.5071H12.8083Z" fill="#141516"/>
<path d="M15.459 20.5071C15.8248 20.5071 16.1214 20.2106 16.1214 19.8447V15.8817C16.1214 15.8707 16.1356 15.8665 16.1416 15.8757L18.9192 20.1085C19.0825 20.3573 19.3601 20.5071 19.6576 20.5071H20.0359C20.4018 20.5071 20.6983 20.2106 20.6983 19.8447V13.6624C20.6983 13.2966 20.4018 13 20.0359 13H19.8432C19.4774 13 19.1808 13.2966 19.1808 13.6624V17.6355C19.1808 17.6465 19.1666 17.6507 19.1606 17.6415L16.3829 13.3994C16.2197 13.1502 15.9419 13 15.644 13H15.2663C14.9004 13 14.6039 13.2966 14.6039 13.6624V19.8447C14.6039 20.2106 14.9004 20.5071 15.2663 20.5071H15.459Z" fill="#141516"/>
</svg>
