<svg width="22" height="22" viewBox="0 0 22 22" fill="none" xmlns="http://www.w3.org/2000/svg">
<g clip-path="url(#clip0_1_16857)">
<path fill-rule="evenodd" clip-rule="evenodd" d="M20.8713 11.0013C20.8713 5.43255 16.3567 0.917969 10.7879 0.917969C5.21917 0.917969 0.70459 5.43255 0.70459 11.0013C0.70459 16.5701 5.21917 21.0846 10.7879 21.0846C11.9293 21.0846 13.0264 20.895 14.0494 20.5455C14.048 20.517 14.0474 20.4884 14.0474 20.4596V19.3263H12.7814C11.9745 19.3263 11.2668 18.9019 10.8693 18.2642L10.7879 18.3667L10.5661 18.0871C9.07238 16.1543 8.25138 14.1068 8.07445 11.9154H11.6424C11.9765 11.719 12.3658 11.6064 12.7814 11.6064H14.0474V11.0753C14.0474 10.286 14.5607 9.61665 15.2717 9.38278C14.9864 7.0967 14.088 4.95155 12.5768 2.94755C14.0968 3.28521 15.5032 4.04932 16.6216 5.16767C17.9505 6.49661 18.7792 8.23224 18.9866 10.082H18.0471C18.238 10.3658 18.3495 10.7076 18.3495 11.0753V11.6064H19.5163C20.0023 11.6064 20.4523 11.7604 20.8202 12.0222C20.854 11.6865 20.8713 11.3459 20.8713 11.0013ZM8.99901 19.055C8.53237 18.9514 8.07452 18.8071 7.63078 18.6233C6.62985 18.2087 5.72038 17.601 4.95429 16.8349C4.18821 16.0688 3.58052 15.1594 3.16592 14.1584C2.86841 13.4402 2.67451 12.685 2.58872 11.9154H6.23596C6.41243 14.4665 7.33356 16.8465 8.99901 19.055ZM3.16592 7.84416C2.86909 8.56078 2.67539 9.31423 2.5893 10.082H6.23632C6.41368 7.53288 7.33469 5.15463 8.99901 2.94759C8.53237 3.05124 8.07452 3.1955 7.63078 3.3793C6.62985 3.7939 5.72038 4.40159 4.95429 5.16767C4.18821 5.93375 3.58052 6.84323 3.16592 7.84416ZM10.5661 3.91547C9.07357 5.84673 8.25268 7.89252 8.07487 10.082H13.501C13.3231 7.89307 12.5022 5.84665 11.0098 3.91547L10.7879 3.63497L10.5661 3.91547Z" fill="#141516"/>
<path d="M20.421 13.9898V13.858C20.421 13.61 20.3212 13.3853 20.1596 13.2219L20.1525 13.2148C19.9891 13.0531 19.7643 12.9533 19.5163 12.9533H18.8037C18.6685 13.5085 18.4761 14.0475 18.2301 14.5617H18.8127V16.3711H17.0512C16.9144 16.5306 16.7712 16.6853 16.6216 16.8349C16.1845 17.272 15.7035 17.6549 15.1889 17.9794H15.3943V19.9733C15.9641 19.6802 16.5023 19.3343 17.0026 18.9423V17.9794H18.0666C19.1362 16.864 19.952 15.5031 20.421 13.9898Z" fill="#141516"/>
<path d="M13.3206 17.9794C13.6526 17.4526 13.9444 16.9165 14.1958 16.3711H13.485V14.5617H14.8721C15.0251 14.0337 15.1429 13.4975 15.2256 12.9533H13.3675C13.1274 14.2974 12.6327 15.5873 11.8767 16.8297V17.0747C11.8767 17.3228 11.9765 17.5475 12.1381 17.7109L12.1452 17.718C12.3086 17.8796 12.5333 17.9794 12.7814 17.9794H13.3206Z" fill="#141516"/>
<path d="M15.3943 11.9154H17.0026V11.0753C17.0026 10.8354 16.8081 10.6408 16.5681 10.6408H15.8287C15.5888 10.6408 15.3943 10.8354 15.3943 11.0753V11.9154Z" fill="#141516"/>
<path fill-rule="evenodd" clip-rule="evenodd" d="M15.829 10.6406C15.5891 10.6406 15.3945 10.8351 15.3945 11.0751V12.9531H12.7816C12.282 12.9531 11.877 13.3582 11.877 13.8578V17.0745C11.877 17.5742 12.282 17.9792 12.7816 17.9792H15.3945V20.4593C15.3945 20.6993 15.5891 20.8938 15.829 20.8938H16.5684C16.8084 20.8938 17.0029 20.6993 17.0029 20.4593V17.9792H19.5166C20.0162 17.9792 20.4213 17.5742 20.4213 17.0745V13.8578C20.4213 13.3582 20.0162 12.9531 19.5166 12.9531H17.0029V11.0751C17.0029 10.8351 16.8084 10.6406 16.5684 10.6406H15.829ZM15.3945 14.5615H13.4853V16.3709H15.3945V14.5615ZM17.0029 16.3709V14.5615H18.8129V16.3709H17.0029Z" fill="#141516"/>
</g>
<defs>
<clipPath id="clip0_1_16857">
<rect width="22" height="22" fill="white"/>
</clipPath>
</defs>
</svg>
