<svg width="50" height="50" viewBox="0 0 50 50" fill="none" xmlns="http://www.w3.org/2000/svg">
<path d="M24.9979 0C21.715 0.000182334 18.4642 0.647006 15.4312 1.90354C12.3982 3.16008 9.64242 5.00172 7.32115 7.32331C4.99988 9.64491 3.15859 12.401 1.90243 15.4342C0.646263 18.4674 -0.000182339 21.7183 3.85791e-08 25.0014C0.000182416 28.2844 0.646989 31.5353 1.90349 34.5684C3.15999 37.6014 5.00158 40.3573 7.32311 42.6787C9.64464 45 12.4006 46.8413 15.4338 48.0975C18.4669 49.3537 21.7177 50.0002 25.0007 50C31.6309 50 37.9896 47.3661 42.6779 42.6777C47.3662 37.9893 50 31.6304 50 25C50 18.3696 47.3662 12.0107 42.6779 7.32233C37.9896 2.63392 31.6309 9.88009e-08 25.0007 0H24.9979Z" fill="#F0F0F0"/>
<path d="M22.2207 13.6238C22.2207 13.0102 22.7182 12.5127 23.3318 12.5127H26.6647C27.2783 12.5127 27.7758 13.0102 27.7758 13.6238V27.234C27.7758 27.8476 27.2783 28.3451 26.6647 28.3451H23.3318C22.7182 28.3451 22.2207 27.8476 22.2207 27.234V13.6238ZM22.2207 33.3448C22.2207 32.7312 22.7182 32.2337 23.3318 32.2337H26.6647C27.2783 32.2337 27.7758 32.7312 27.7758 33.3448V36.6778C27.7758 37.2915 27.2783 37.7889 26.6647 37.7889H23.3318C22.7182 37.7889 22.2207 37.2915 22.2207 36.6778V33.3448Z" fill="#808080"/>
</svg>
