<svg width="20" height="20" viewBox="0 0 20 20" fill="none" xmlns="http://www.w3.org/2000/svg">
<path fill-rule="evenodd" clip-rule="evenodd" d="M18.9852 10.0954C18.9852 5.08089 14.92 1.01562 9.90546 1.01562C4.89105 1.01574 0.825684 5.08096 0.825684 10.0954C0.825684 14.045 3.34778 17.4057 6.86921 18.655C6.79774 18.4638 6.75867 18.2568 6.75867 18.0407V16.8249C5.97685 16.4593 5.26391 15.9599 4.65243 15.3484C3.96259 14.6586 3.41538 13.8396 3.04204 12.9383C2.77426 12.2918 2.59969 11.6121 2.52238 10.9193H5.80638C5.89858 12.2508 6.21602 13.5304 6.75867 14.7582V12.4204C6.75867 11.8422 7.03826 11.3293 7.46961 11.0096C7.46691 10.9795 7.46434 10.9494 7.46191 10.9193H7.60382C7.86913 10.7582 8.18055 10.6654 8.51365 10.6654H11.6439C12.0684 10.6654 12.4576 10.8161 12.7611 11.0669C13.0646 10.8161 13.4539 10.6654 13.8784 10.6654H14.2218C14.5649 10.6654 14.896 10.7553 15.1855 10.9193H17.1295C17.3948 10.7582 17.7062 10.6654 18.0393 10.6654H18.2145C18.4795 10.6654 18.7308 10.7241 18.956 10.8293C18.9754 10.5872 18.9852 10.3425 18.9852 10.0954ZM18.7521 12.1488C18.6528 11.9526 18.4493 11.8182 18.2145 11.8182H18.0393C17.7067 11.8182 17.4371 12.0878 17.4371 12.4204V15.1681C18.0472 14.2641 18.4988 13.2444 18.7521 12.1488ZM17.1297 15.5964L16.1563 14.1099C15.8889 14.5263 15.5787 14.9177 15.2286 15.2773L16.1522 16.6848C16.5063 16.349 16.8333 15.985 17.1297 15.5964ZM14.6558 17.8349V15.8071C14.2289 16.1621 13.7659 16.4663 13.2762 16.7156V18.0407C13.2762 18.159 13.3104 18.2695 13.3694 18.3626C13.3914 18.3973 13.417 18.4297 13.4455 18.4592C13.8661 18.2809 14.2704 18.0719 14.6558 17.8349ZM11.582 17.2595C11.5602 17.2889 11.5382 17.3183 11.516 17.3477C11.6104 17.3267 11.7044 17.3039 11.7977 17.2793C11.9293 17.314 12.0433 17.3921 12.1234 17.4974C12.2004 17.5985 12.246 17.7247 12.246 17.8616V18.0407C12.246 18.159 12.2119 18.2695 12.1529 18.3626C12.0461 18.531 11.8581 18.6428 11.6439 18.6428H8.51365C8.18108 18.6428 7.91148 18.3732 7.91148 18.0407V17.2517C8.03827 17.287 8.16594 17.319 8.29434 17.3475C8.16146 17.1713 8.03384 16.9939 7.91148 16.8152V13.1608C8.23958 14.164 8.73628 15.1331 9.40552 16.0721V17.2595H11.582ZM13.2762 14.2142C13.5746 13.4358 13.7847 12.6372 13.9065 11.8182H13.8784C13.6642 11.8182 13.4762 11.93 13.3694 12.0985C13.3104 12.1916 13.2762 12.302 13.2762 12.4204V14.2142ZM10.5606 15.8484H11.3211C11.6537 15.8484 11.9233 15.5788 11.9233 15.2462V15.141C11.9233 14.8118 11.6591 14.5443 11.3311 14.5389C11.1098 14.982 10.853 15.4184 10.5606 15.8484ZM11.905 13.1422C11.9912 13.1006 12.066 13.0391 12.1234 12.9636C12.2004 12.8625 12.246 12.7363 12.246 12.5994V12.4204C12.246 12.3166 12.2198 12.219 12.1736 12.1338C12.1025 12.4738 12.013 12.8098 11.905 13.1422ZM3.04204 7.25248C2.77465 7.89804 2.6002 8.57679 2.52272 9.26846H5.80659C5.96616 6.97272 6.7955 4.83091 8.29434 2.8433C7.87423 2.93663 7.46203 3.06651 7.06254 3.23199C6.16122 3.60532 5.34227 4.15253 4.65243 4.84237C3.96259 5.53221 3.41538 6.35117 3.04204 7.25248ZM9.70549 3.7148C8.36133 5.45409 7.62212 7.29655 7.46215 9.26846H12.3483C12.1883 7.29705 11.4491 5.45402 10.105 3.7148L9.90525 3.46221L9.70549 3.7148ZM15.1585 4.84237C16.3554 6.03924 17.1017 7.60246 17.2882 9.26846H14.0039C13.8443 6.97267 13.015 4.8308 11.516 2.84315C12.8849 3.14718 14.1514 3.83527 15.1585 4.84237Z" fill="#141516"/>
<path d="M11.6439 18.6428C11.9765 18.6428 12.2461 18.3732 12.2461 18.0406V17.8616C12.2461 17.5291 11.9765 17.2594 11.6439 17.2594H9.40554V15.8484H11.3211C11.6537 15.8484 11.9233 15.5788 11.9233 15.2462V15.141C11.9233 14.8084 11.6537 14.5388 11.3211 14.5388H9.40554V13.2016H11.6439C11.9765 13.2016 12.2461 12.9319 12.2461 12.5994V12.4204C12.2461 12.0878 11.9765 11.8182 11.6439 11.8182H8.51367C8.1811 11.8182 7.9115 12.0878 7.9115 12.4204V18.0406C7.9115 18.3732 8.1811 18.6428 8.51367 18.6428H11.6439Z" fill="#141516"/>
<path d="M14.0536 18.6428C14.3862 18.6428 14.6558 18.3732 14.6558 18.0407V14.4379C14.6558 14.4279 14.6687 14.4241 14.6742 14.4324L17.1993 18.2804C17.3477 18.5066 17.6001 18.6428 17.8706 18.6428H18.2145C18.5471 18.6428 18.8167 18.3732 18.8167 18.0407V12.4204C18.8167 12.0878 18.5471 11.8182 18.2145 11.8182H18.0393C17.7067 11.8182 17.4371 12.0878 17.4371 12.4204V16.0323C17.4371 16.0422 17.4242 16.0461 17.4187 16.0378L14.8935 12.1813C14.7452 11.9547 14.4926 11.8182 14.2218 11.8182H13.8784C13.5459 11.8182 13.2763 12.0878 13.2763 12.4204V18.0407C13.2763 18.3732 13.5459 18.6428 13.8784 18.6428H14.0536Z" fill="#141516"/>
</svg>
