<svg width="20" height="20" viewBox="0 0 20 20" fill="none" xmlns="http://www.w3.org/2000/svg">
<path fill-rule="evenodd" clip-rule="evenodd" d="M9.80778 0.833496C14.8703 0.833496 18.9744 4.93766 18.9744 10.0002C18.9744 10.3134 18.9587 10.623 18.928 10.9282C18.5935 10.6901 18.1843 10.5501 17.7425 10.5501H16.6817V10.0682C16.6817 9.7344 16.5807 9.42422 16.4077 9.1665H17.2613C17.0732 7.48411 16.3197 5.90547 15.1111 4.69686C14.0944 3.68018 12.8159 2.98554 11.434 2.67857C12.808 4.50056 13.6247 6.4509 13.884 8.52938C13.2375 8.7419 12.7707 9.35051 12.7707 10.0682V10.5501H11.6198C11.2404 10.5501 10.8852 10.6533 10.5806 10.8332H7.34115C7.50234 12.8246 8.24866 14.6853 9.60611 16.4418L9.80778 16.696L9.88166 16.6029C10.2431 17.1825 10.8864 17.5682 11.6198 17.5682H12.7707V18.5993C12.7707 18.6253 12.7713 18.6511 12.7725 18.6768C11.8426 18.9944 10.8453 19.1668 9.80778 19.1668C4.74528 19.1668 0.641113 15.0627 0.641113 10.0002C0.641113 4.93766 4.74528 0.833496 9.80778 0.833496ZM13.9951 16.3439V18.1567C13.9951 18.1567 13.9951 18.1566 13.9952 18.1566V18.5994C13.9952 18.8176 14.172 18.9944 14.3901 18.9944H15.0623C15.2805 18.9944 15.4573 18.8176 15.4573 18.5994V16.3439H17.7425C18.1967 16.3439 18.5649 15.9757 18.5649 15.5214V12.5972C18.5649 12.5575 18.5621 12.5185 18.5567 12.4803C18.5505 12.437 18.541 12.3949 18.5284 12.3541C18.4889 12.2262 18.4191 12.1115 18.3272 12.0187L18.3208 12.0122C18.1722 11.8653 17.9679 11.7746 17.7425 11.7746H17.0949C17.0949 11.7746 17.0949 11.7747 17.0948 11.7747H15.4573V10.0683C15.4573 10.0368 15.4536 10.0061 15.4466 9.97666C15.4053 9.80264 15.2489 9.67318 15.0623 9.67318H14.3901C14.172 9.67318 13.9951 9.85002 13.9951 10.0682V10.8332H13.9952V11.7747H13.842C13.842 11.7747 13.842 11.7746 13.842 11.7746H12.1529C12.1529 11.7746 12.1528 11.7747 12.1528 11.7747H11.6198C11.1656 11.7747 10.7974 12.1429 10.7974 12.5972V15.299C10.7974 15.299 10.7973 15.299 10.7973 15.2991V15.5213C10.7973 15.5876 10.8052 15.6521 10.82 15.7139C10.9066 16.0753 11.2319 16.3439 11.6198 16.3439H13.9951ZM17.1028 13.2369V14.8816H15.5018C15.5018 14.8816 15.5017 14.8817 15.5017 14.8818H15.4573V13.2369H17.1028ZM12.9059 14.8818H13.9952V13.2369H12.2595V14.8816H12.9059C12.9059 14.8816 12.9059 14.8817 12.9059 14.8818ZM6.93765 16.9293C7.34105 17.0963 7.75728 17.2275 8.1815 17.3217C6.66789 15.3145 5.83055 13.1516 5.66977 10.8332H2.35418C2.4323 11.5321 2.60849 12.218 2.87868 12.8703C3.25559 13.7802 3.80804 14.607 4.50448 15.3035C5.20092 15.9999 6.02771 16.5523 6.93765 16.9293ZM2.35426 9.1665C2.43241 8.46779 2.60857 7.78214 2.87868 7.13004C3.25559 6.22009 3.80804 5.3933 4.50448 4.69686C5.20092 4.00042 6.02771 3.44798 6.93765 3.07107C7.34105 2.90398 7.75728 2.77283 8.1815 2.6786C6.66803 4.6856 5.83071 6.84832 5.66981 9.1665H2.35426ZM7.3412 9.1665C7.50251 7.17527 8.24881 5.31479 9.60611 3.5585L9.80778 3.3035L10.0094 3.5585C11.3667 5.31472 12.113 7.17577 12.2743 9.1665H7.3412Z" fill="#141516"/>
</svg>
