<svg width="16" height="16" viewBox="0 0 16 16" fill="none" xmlns="http://www.w3.org/2000/svg">
<g clip-path="url(#clip0_2_668)">
<path d="M8.00002 0C12.4182 0 16 3.58182 16 8.00002C16 12.4182 12.4182 16 8.00002 16C3.58182 16 0 12.4182 0 8.00002C0 3.58182 3.58182 0 8.00002 0ZM8.00002 1.45455C7.14045 1.45455 6.28931 1.62385 5.49517 1.95279C4.70104 2.28174 3.97948 2.76387 3.37167 3.37167C2.76387 3.97948 2.28174 4.70104 1.95279 5.49517C1.62385 6.28931 1.45455 7.14045 1.45455 8.00002C1.45455 8.85957 1.62385 9.71072 1.95279 10.5049C2.28174 11.299 2.76387 12.0205 3.37167 12.6283C3.97948 13.2362 4.70104 13.7183 5.49517 14.0473C6.28931 14.3762 7.14045 14.5455 8.00002 14.5455C9.73595 14.5455 11.4008 13.8558 12.6283 12.6283C13.8558 11.4008 14.5455 9.73595 14.5455 8.00002C14.5455 6.26405 13.8558 4.59918 12.6283 3.37167C11.4008 2.14415 9.73595 1.45455 8.00002 1.45455Z" fill="#262626"/>
<path d="M8.00008 0C10.4241 2.38764 11.6364 5.05456 11.6364 8.00002C11.6364 10.9455 10.4241 13.6124 8.00008 16C5.57608 13.6124 4.36371 10.9455 4.36371 8.00002C4.36371 5.05456 5.57608 2.38764 8.00008 0ZM8.00008 2.15564L7.82408 2.37819C6.47571 4.12292 5.81825 5.98547 5.81825 8.00002C5.81825 10.0145 6.47571 11.8771 7.82408 13.6218L8.00008 13.8437L8.17608 13.6218C9.46558 11.9528 10.1237 10.1753 10.1783 8.26184L10.1819 8.00002C10.1819 5.98619 9.52444 4.12292 8.17608 2.37819L8.00008 2.15564Z" fill="#262626"/>
<path d="M0.727646 7.27258H15.2732V8.72714H0.727646V7.27258Z" fill="#262626"/>
</g>
<defs>
<clipPath id="clip0_2_668">
<rect width="16" height="16" fill="white"/>
</clipPath>
</defs>
</svg>
