<svg width="36" height="36" viewBox="0 0 36 36" fill="none" xmlns="http://www.w3.org/2000/svg">
<g opacity="0.9">
<path fill-rule="evenodd" clip-rule="evenodd" d="M15.4865 9.60282C15.7991 9.29035 15.9748 8.86645 15.9748 8.42443V5.46636C15.9748 5.0983 15.6764 4.79993 15.3083 4.79993H12.3468C11.9051 4.79993 11.4815 4.97531 11.1691 5.28752L5.2872 11.1655C4.97451 11.478 4.79883 11.9019 4.79883 12.344V15.3026C4.79883 15.6706 5.0972 15.969 5.46526 15.969H8.42727C8.86899 15.969 9.29264 15.7936 9.60507 15.4813L15.4865 9.60282ZM17.0748 12.8492C17.5955 12.3288 18.4397 12.3288 18.9603 12.8492L23.1814 17.0677C23.702 17.5881 23.702 18.4318 23.1814 18.9521L18.9603 23.1707C18.4397 23.691 17.5955 23.691 17.0748 23.1707L12.8538 18.9521C12.3331 18.4318 12.3331 17.5881 12.8538 17.0677L17.0748 12.8492ZM20.0399 8.42443C20.0399 8.86645 20.2155 9.29035 20.5282 9.60282L26.4096 15.4813C26.722 15.7936 27.1457 15.969 27.5874 15.969H30.5494C30.9174 15.969 31.2158 15.6706 31.2158 15.3026V12.344C31.2158 11.9019 31.0401 11.478 30.7274 11.1655L24.8455 5.28752C24.5331 4.97531 24.1095 4.79993 23.6678 4.79993H20.7063C20.3383 4.79993 20.0399 5.0983 20.0399 5.46636V8.42443ZM15.4865 26.3964C15.7991 26.7089 15.9748 27.1328 15.9748 27.5748V30.5329C15.9748 30.901 15.6764 31.1993 15.3083 31.1993H12.3468C11.9051 31.1993 11.4815 31.024 11.1691 30.7118L5.2872 24.8338C4.97451 24.5213 4.79883 24.0973 4.79883 23.6553V20.6967C4.79883 20.3286 5.0972 20.0303 5.46526 20.0303H8.42727C8.86899 20.0303 9.29264 20.2057 9.60507 20.518L15.4865 26.3964ZM20.0399 27.5748C20.0399 27.1328 20.2155 26.7089 20.5282 26.3964L26.4096 20.518C26.722 20.2057 27.1457 20.0303 27.5874 20.0303H30.5494C30.9174 20.0303 31.2158 20.3286 31.2158 20.6967V23.6553C31.2158 24.0973 31.0401 24.5213 30.7274 24.8338L24.8455 30.7118C24.5331 31.024 24.1095 31.1993 23.6678 31.1993H20.7063C20.3383 31.1993 20.0399 30.901 20.0399 30.5329V27.5748Z" fill="#111111"/>
</g>
</svg>
