<svg width="16" height="16" viewBox="0 0 16 16" fill="none" xmlns="http://www.w3.org/2000/svg">
<path fill-rule="evenodd" clip-rule="evenodd" d="M13.3921 2.51222C13.3921 2.51222 14.5946 2.04329 14.494 3.18202C14.4779 3.41052 14.3982 3.91745 14.2937 4.5826C14.1838 5.2824 14.0463 6.15733 13.9264 7.06741L13.1247 12.3261C13.1247 12.3261 13.0579 13.0965 12.4565 13.2306C11.8554 13.3643 10.9534 12.7616 10.7863 12.6276C10.7586 12.6068 10.6352 12.5258 10.4493 12.4038C9.73701 11.9363 8.10827 10.8672 7.44596 10.283C7.21197 10.0818 6.94454 9.68006 7.47939 9.21114L10.9866 5.86152C11.3495 5.49771 11.7125 4.69427 10.5375 5.3914C10.5329 5.39413 10.5283 5.39689 10.5236 5.39968C10.4045 5.47082 10.2698 5.55716 10.118 5.66065L5.44121 8.8425C5.44121 8.8425 4.90667 9.17771 3.90475 8.87624L1.73316 8.20613C1.73316 8.20613 1.05827 7.78322 2.00493 7.32543C2.09001 7.28428 2.18819 7.24286 2.30113 7.20143C2.3305 7.1876 2.35992 7.17376 2.3894 7.15991C2.44666 7.13303 2.50413 7.10614 2.56182 7.07924C2.59729 7.0627 2.63284 7.04616 2.66847 7.02961C5.10972 5.89597 7.92498 4.74756 10.6546 3.6341C11.5828 3.25545 12.5018 2.88083 13.3921 2.51222ZM1.75693 5.91025C1.35247 6.06405 0.952789 6.27147 0.643408 6.58162C0.269593 6.95636 0.0253515 7.49583 0.120073 8.10669C0.199308 8.61767 0.48551 8.95261 0.628582 9.09885C0.712528 9.18465 0.791526 9.25021 0.85095 9.29566C0.881448 9.31898 0.908902 9.33861 0.932035 9.3545C0.94366 9.36248 0.954355 9.36962 0.963982 9.37593L0.977665 9.38479L0.983917 9.38877L0.986892 9.39065L0.988342 9.39156C0.989056 9.39201 0.989766 9.39245 1.73316 8.20613L0.989766 9.39246L1.14515 9.48982L3.49195 10.214L3.50136 10.2169C4.21383 10.4312 4.82028 10.4352 5.29424 10.3507C5.50223 10.3137 5.67769 10.2609 5.81913 10.2069C5.95379 10.781 6.31701 11.1572 6.52566 11.338C7.02435 11.7767 7.90012 12.385 8.59638 12.8546C8.96047 13.1001 9.30114 13.3246 9.55675 13.4925C9.61646 13.5318 9.66837 13.5659 9.7131 13.5953C9.86924 13.6979 9.93786 13.743 9.94522 13.7471C10.1262 13.8865 10.4685 14.1115 10.8645 14.2971C11.2196 14.4636 11.9704 14.7729 12.7605 14.5972C13.6776 14.3928 14.1177 13.7018 14.2981 13.2908C14.3929 13.0748 14.4453 12.8771 14.4748 12.7374C14.4899 12.6654 14.5002 12.6033 14.507 12.5547C14.5093 12.5384 14.5112 12.5235 14.5129 12.51L15.3125 7.26441L15.3144 7.25038C15.4288 6.38209 15.5599 5.5437 15.6686 4.85216C15.6754 4.80871 15.6822 4.7654 15.689 4.72231C15.7815 4.13407 15.8675 3.5873 15.8896 3.29316C15.9319 2.79187 15.8537 2.18828 15.4317 1.6911C15.0092 1.19316 14.4572 1.05631 14.1024 1.02538C13.7499 0.994656 13.4399 1.05109 13.2576 1.09399C13.2321 1.1 13.2076 1.10611 13.1842 1.11222H13.1132L12.856 1.21869C11.9824 1.58037 11.0752 1.95041 10.1539 2.32621C7.29798 3.49117 4.30621 4.71153 1.75693 5.91025ZM5.79962 9.41423C5.70522 9.26358 5.58764 9.07602 5.44121 8.8425L5.79962 9.41423C5.79963 9.41418 5.79961 9.41427 5.79962 9.41423Z" fill="#7E8891"/>
</svg>
