<svg width="16" height="16" viewBox="0 0 16 16" fill="none" xmlns="http://www.w3.org/2000/svg">
<g clip-path="url(#clip0_29_1363)">
<mask id="mask0_29_1363" style="mask-type:luminance" maskUnits="userSpaceOnUse" x="0" y="0" width="16" height="16">
<path d="M16 0H0V16H16V0Z" fill="white"/>
</mask>
<g mask="url(#mask0_29_1363)">
<path fill-rule="evenodd" clip-rule="evenodd" d="M15.1878 8.07632C15.1878 4.06471 11.9356 0.8125 7.92398 0.8125C3.91245 0.812596 0.660156 4.06477 0.660156 8.07632C0.660156 11.2357 2.67745 13.924 5.49416 14.9237C5.43763 14.7715 5.40674 14.6068 5.40674 14.4349V13.4601C4.7812 13.1676 4.21079 12.768 3.72156 12.2787C3.16969 11.7269 2.73192 11.0717 2.43325 10.3507C2.21893 9.83326 2.07924 9.28919 2.01743 8.73476H4.64466C4.71837 9.8003 4.97241 10.8244 5.40674 11.807L5.40674 9.93866C5.40674 9.47611 5.63042 9.06581 5.97551 8.81001C5.97324 8.78496 5.9711 8.75987 5.96907 8.73476H6.08795C6.29908 8.60773 6.54637 8.53467 6.81073 8.53467H9.31491C9.6545 8.53467 9.96593 8.65524 10.2087 8.85591C10.4515 8.65524 10.763 8.53467 11.1026 8.53467H11.3773C11.6496 8.53467 11.9125 8.60552 12.1428 8.73476H13.7085C13.9196 8.60773 14.1669 8.53467 14.4313 8.53467H14.5714C14.7832 8.53467 14.9841 8.58159 15.1643 8.66562C15.1799 8.47124 15.1878 8.27471 15.1878 8.07632ZM12.1264 3.8739C13.0837 4.83123 13.6807 6.08153 13.8301 7.41406H11.2027C11.0749 5.5777 10.4114 3.86444 9.21243 2.27453C10.3075 2.51774 11.3207 3.06821 12.1264 3.8739ZM6.63507 2.27465C5.43616 3.86453 4.7727 5.57774 4.64493 7.41406H2.01786C2.07988 6.86097 2.21942 6.31821 2.43325 5.80199C2.73192 5.08093 3.16969 4.42577 3.72156 3.8739C4.27343 3.32203 4.92859 2.88426 5.64965 2.58559C5.96923 2.45321 6.29899 2.34931 6.63507 2.27465ZM5.96938 7.41406H9.87821C9.75009 5.8372 9.15874 4.36301 8.08361 2.97184L7.9238 2.76977L7.764 2.97184C6.68883 4.36307 6.09748 5.8368 5.96938 7.41406Z" fill="#7E8891"/>
<path fill-rule="evenodd" clip-rule="evenodd" d="M9.31502 14.9167C9.58108 14.9167 9.79676 14.7011 9.79676 14.435V14.2918C9.79676 14.0257 9.58108 13.81 9.31502 13.81H7.52434V12.6812H9.05679C9.32285 12.6812 9.53853 12.4655 9.53853 12.1995V12.1153C9.53853 11.8492 9.32285 11.6335 9.05679 11.6335H7.52434V10.5637H9.31502C9.58108 10.5637 9.79676 10.348 9.79676 10.082V9.93877C9.79676 9.67271 9.58108 9.45703 9.31502 9.45703H6.81084C6.54478 9.45703 6.3291 9.67271 6.3291 9.93877V14.435C6.3291 14.7011 6.54478 14.9167 6.81084 14.9167H9.31502ZM11.2428 14.9167C11.5089 14.9167 11.7245 14.7011 11.7245 14.435V11.5528C11.7245 11.5448 11.7349 11.5417 11.7393 11.5484L13.7594 14.6268C13.8781 14.8078 14.08 14.9167 14.2964 14.9167H14.5715C14.8376 14.9167 15.0532 14.7011 15.0532 14.435V9.93877C15.0532 9.67271 14.8376 9.45703 14.5715 9.45703H14.4314C14.1653 9.45703 13.9496 9.67271 13.9496 9.93877V12.8283C13.9496 12.8363 13.9392 12.8394 13.9349 12.8327L11.9147 9.74749C11.7961 9.56624 11.594 9.45703 11.3774 9.45703H11.1027C10.8366 9.45703 10.6209 9.67271 10.6209 9.93877V14.435C10.6209 14.7011 10.8366 14.9167 11.1027 14.9167H11.2428Z" fill="#7E8891"/>
</g>
</g>
<defs>
<clipPath id="clip0_29_1363">
<rect width="16" height="16" fill="white"/>
</clipPath>
</defs>
</svg>
