<svg width="16" height="16" viewBox="0 0 16 16" fill="none" xmlns="http://www.w3.org/2000/svg">
<path d="M5.4412 8.84195L5.8131 9.43499L5.82416 9.42805L5.83495 9.42071L7.26351 8.4488L7.00565 8.69507C6.61939 9.0389 6.4068 9.47673 6.48302 9.9567C6.54962 10.3762 6.81552 10.6628 6.98594 10.8101C7.44423 11.2137 8.28284 11.7983 8.98776 12.2736C9.3483 12.5168 9.68617 12.7395 9.94107 12.9069C9.98575 12.9363 10.0277 12.9638 10.0666 12.9894C10.1395 13.0372 10.202 13.0782 10.2532 13.112C10.3067 13.1473 10.338 13.1682 10.3536 13.1787C10.3595 13.1826 10.3631 13.1851 10.3649 13.1862C10.5007 13.292 10.8046 13.4954 11.1616 13.6628C11.4999 13.8213 12.0632 14.0346 12.6085 13.9133L12.6087 13.9132C13.2176 13.7775 13.5209 13.3191 13.6571 13.0089C13.7275 12.8485 13.7673 12.6995 13.7898 12.5924C13.8013 12.5379 13.8089 12.4915 13.8138 12.4565C13.8161 12.4406 13.8178 12.4268 13.8191 12.4156L14.6184 7.17235L14.6194 7.16536L14.6204 7.15834C14.7361 6.28042 14.8685 5.43417 14.977 4.74298C14.9823 4.7093 14.9876 4.67586 14.9928 4.6427C15.0902 4.02334 15.1726 3.49898 15.1918 3.23729C15.2255 2.84503 15.1587 2.45064 14.898 2.14348C14.6374 1.83642 14.291 1.74393 14.0416 1.72219C13.7933 1.70054 13.5647 1.74028 13.418 1.77481C13.3658 1.7871 13.3192 1.79991 13.2798 1.81166H13.2523L13.1237 1.8649C12.2418 2.23004 11.3291 2.60236 10.4043 2.97959C7.54283 4.14682 4.56616 5.36104 2.02988 6.55488C1.65958 6.69345 1.35449 6.8594 1.13899 7.07543C0.893356 7.32167 0.757138 7.64635 0.811801 7.99887C0.858721 8.30146 1.03053 8.50817 1.12894 8.60877C1.18435 8.6654 1.23683 8.70898 1.27617 8.73906C1.29623 8.7544 1.31393 8.76704 1.32826 8.77688L1.34744 8.78975L1.35512 8.79472L1.35846 8.79685L1.36 8.79783L1.36074 8.79829C1.3611 8.79852 1.36146 8.79874 1.73316 8.20558L1.36146 8.79874L1.43915 8.84742L1.52676 8.87446L3.69834 9.54457L3.69834 9.54458L3.70305 9.546C4.30976 9.72856 4.80505 9.7263 5.17146 9.66102C5.35274 9.62873 5.49793 9.58183 5.60546 9.53815C5.65917 9.51634 5.7034 9.49536 5.73801 9.47745C5.75532 9.46849 5.77024 9.46029 5.78275 9.45312L5.79973 9.44318L5.80686 9.43886L5.81009 9.43686L5.81162 9.43591L5.81237 9.43545C5.81273 9.43522 5.8131 9.43499 5.4412 8.84195Z" stroke="#7E8891" stroke-width="1.4"/>
</svg>
