<svg width="16" height="16" viewBox="0 0 16 16" fill="none" xmlns="http://www.w3.org/2000/svg">
<g clip-path="url(#clip0_29_1377)">
<mask id="mask0_29_1377" style="mask-type:luminance" maskUnits="userSpaceOnUse" x="0" y="0" width="16" height="16">
<path d="M16 0H0V16H16V0Z" fill="white"/>
</mask>
<g mask="url(#mask0_29_1377)">
<path fill-rule="evenodd" clip-rule="evenodd" d="M15.1823 7.99935C15.1823 3.94935 11.899 0.666018 7.84896 0.666016C3.79896 0.666016 0.515625 3.94935 0.515625 7.99935C0.515625 12.0493 3.79896 15.3327 7.84896 15.3327C8.6734 15.3327 9.46607 15.1966 10.2057 14.9458C10.2046 14.9237 10.2041 14.9016 10.2041 14.8793V14.0547H9.28693C8.70347 14.0547 8.19127 13.7495 7.90124 13.2901L7.84896 13.356L7.68763 13.1527C6.60203 11.7479 6.00501 10.2599 5.87579 8.66732H8.45444C8.69837 8.52303 8.98298 8.44022 9.28693 8.44022H10.2041V8.05434C10.2041 7.47481 10.5846 6.98416 11.1094 6.81859C10.9015 5.15736 10.2483 3.59846 9.14999 2.14208C10.2555 2.38766 11.2783 2.94337 12.0916 3.75671C13.0588 4.72397 13.6618 5.98748 13.812 7.33398H13.1144C13.2524 7.53997 13.333 7.78775 13.333 8.05434V8.44022H14.1851C14.5433 8.44022 14.8747 8.55527 15.1443 8.75044C15.1694 8.50349 15.1823 8.25292 15.1823 7.99935ZM6.54794 13.8566C6.20856 13.7812 5.87557 13.6763 5.55286 13.5426C4.8249 13.2411 4.16347 12.7991 3.60632 12.242C3.04917 11.6848 2.60721 11.0234 2.30568 10.2954C2.08973 9.77408 1.94884 9.22592 1.88626 8.66732H4.53866C4.66756 10.5214 5.3374 12.2513 6.54794 13.8566ZM2.30568 5.70325C2.08939 6.22542 1.9484 6.77448 1.88597 7.33398H4.53848C4.66692 5.47885 5.33682 3.74814 6.54794 2.1421C6.20856 2.21748 5.87557 2.3224 5.55286 2.45607C4.8249 2.7576 4.16347 3.19956 3.60632 3.75671C3.04917 4.31386 2.60721 4.97529 2.30568 5.70325ZM7.68763 2.84602C6.60144 4.25151 6.00436 5.74041 5.87558 7.33398H9.82234C9.69353 5.74081 9.09645 4.25146 8.01029 2.84602L7.84896 2.64202L7.68763 2.84602Z" fill="#7E8891"/>
<path fill-rule="evenodd" clip-rule="evenodd" d="M11.4996 7.73828C11.3251 7.73828 11.1836 7.87975 11.1836 8.05427V9.4197H9.28687C8.92349 9.4197 8.62891 9.71428 8.62891 10.0777V12.4171C8.62891 12.7805 8.92348 13.075 9.28687 13.075H11.1836V14.8792C11.1836 15.0537 11.3251 15.1952 11.4996 15.1952H12.0373C12.2118 15.1952 12.3533 15.0537 12.3533 14.8792V13.075H14.185C14.5484 13.075 14.843 12.7805 14.843 12.4171V10.0777C14.843 9.71428 14.5484 9.4197 14.185 9.4197H12.3533V8.05427C12.3533 7.87975 12.2118 7.73828 12.0373 7.73828H11.4996ZM11.1836 10.5894H9.79861V11.9053H11.1836V10.5894ZM12.3533 11.9053V10.5894H13.6733V11.9053H12.3533Z" fill="#7E8891"/>
</g>
</g>
<defs>
<clipPath id="clip0_29_1377">
<rect width="16" height="16" fill="white"/>
</clipPath>
</defs>
</svg>
