<svg width="103" height="30" viewBox="0 0 103 30" fill="none" xmlns="http://www.w3.org/2000/svg">
<g clip-path="url(#clip0_189_109631)">
<rect width="30" height="30" rx="5" fill="#1D6AFF"/>
<path fill-rule="evenodd" clip-rule="evenodd" d="M24.642 11.6901H23.2207H23.22V15.8301C23.22 20.3367 19.5667 23.9901 15.06 23.9901C10.5534 23.9901 6.90001 20.3367 6.90001 15.8301V12.6564L6.9 12.6499V9.64987C6.9 8.1587 8.10883 6.94986 9.6 6.94986C11.0912 6.94986 12.3 8.15869 12.3 9.64986V11.6901H12.3059V15.3492H10.785L15.0459 20.0901L19.185 15.3492H17.7637V11.6901H16.242L20.5029 6.94922L24.642 11.6901Z" fill="white"/>
</g>
<path d="M55.0469 17.3438V6.72656H58.7148V17.3438C58.7148 19.1797 58.4297 20.6094 57.8594 21.6328C56.7969 23.5078 54.7695 24.4453 51.7773 24.4453C48.7852 24.4453 46.7539 23.5078 45.6836 21.6328C45.1133 20.6094 44.8281 19.1797 44.8281 17.3438V6.72656H48.4961V17.3438C48.4961 18.5312 48.6367 19.3984 48.918 19.9453C49.3555 20.9141 50.3086 21.3984 51.7773 21.3984C53.2383 21.3984 54.1875 20.9141 54.625 19.9453C54.9062 19.3984 55.0469 18.5312 55.0469 17.3438ZM69.5078 17.7891H65.8398V24H62.2539V6.72656H69.7773C71.5117 6.72656 72.8945 7.17188 73.9258 8.0625C74.957 8.95312 75.4727 10.332 75.4727 12.1992C75.4727 14.2383 74.957 15.6797 73.9258 16.5234C72.8945 17.3672 71.4219 17.7891 69.5078 17.7891ZM71.1953 14.1914C71.6641 13.7773 71.8984 13.1211 71.8984 12.2227C71.8984 11.3242 71.6602 10.6836 71.1836 10.3008C70.7148 9.91797 70.0547 9.72656 69.2031 9.72656H65.8398V14.8125H69.2031C70.0547 14.8125 70.7188 14.6055 71.1953 14.1914ZM78.3906 12.6094C79.2734 11.4844 80.7891 10.9219 82.9375 10.9219C84.3359 10.9219 85.5781 11.1992 86.6641 11.7539C87.75 12.3086 88.293 13.3555 88.293 14.8945V20.7539C88.293 21.1602 88.3008 21.6523 88.3164 22.2305C88.3398 22.668 88.4062 22.9648 88.5156 23.1211C88.625 23.2773 88.7891 23.4062 89.0078 23.5078V24H85.375C85.2734 23.7422 85.2031 23.5 85.1641 23.2734C85.125 23.0469 85.0938 22.7891 85.0703 22.5C84.6094 23 84.0781 23.4258 83.4766 23.7773C82.7578 24.1914 81.9453 24.3984 81.0391 24.3984C79.8828 24.3984 78.9258 24.0703 78.168 23.4141C77.418 22.75 77.043 21.8125 77.043 20.6016C77.043 19.0312 77.6484 17.8945 78.8594 17.1914C79.5234 16.8086 80.5 16.5352 81.7891 16.3711L82.9258 16.2305C83.543 16.1523 83.9844 16.0547 84.25 15.9375C84.7266 15.7344 84.9648 15.418 84.9648 14.9883C84.9648 14.4648 84.7812 14.1055 84.4141 13.9102C84.0547 13.707 83.5234 13.6055 82.8203 13.6055C82.0312 13.6055 81.4727 13.8008 81.1445 14.1914C80.9102 14.4805 80.7539 14.8711 80.6758 15.3633H77.4531C77.5234 14.2461 77.8359 13.3281 78.3906 12.6094ZM80.875 21.5859C81.1875 21.8438 81.5703 21.9727 82.0234 21.9727C82.7422 21.9727 83.4023 21.7617 84.0039 21.3398C84.6133 20.918 84.9297 20.1484 84.9531 19.0312V17.7891C84.7422 17.9219 84.5273 18.0312 84.3086 18.1172C84.0977 18.1953 83.8047 18.2695 83.4297 18.3398L82.6797 18.4805C81.9766 18.6055 81.4727 18.7578 81.168 18.9375C80.6523 19.2422 80.3945 19.7148 80.3945 20.3555C80.3945 20.9258 80.5547 21.3359 80.875 21.5859ZM96.4609 20.6484L99.0977 11.2266H102.648L98.2656 23.7891C97.4219 26.2109 96.7539 27.7109 96.2617 28.2891C95.7695 28.875 94.7852 29.168 93.3086 29.168C93.0117 29.168 92.7734 29.1641 92.5938 29.1562C92.4141 29.1562 92.1445 29.1445 91.7852 29.1211V26.4492L92.207 26.4727C92.5352 26.4883 92.8477 26.4766 93.1445 26.4375C93.4414 26.3984 93.6914 26.3086 93.8945 26.168C94.0898 26.0352 94.2695 25.7578 94.4336 25.3359C94.6055 24.9141 94.6758 24.6562 94.6445 24.5625L89.957 11.2266H93.6719L96.4609 20.6484Z" fill="#141516"/>
<defs>
<clipPath id="clip0_189_109631">
<rect width="30" height="30" fill="white"/>
</clipPath>
</defs>
</svg>
