<svg width="16" height="16" viewBox="0 0 16 16" fill="none" xmlns="http://www.w3.org/2000/svg">
<g clip-path="url(#clip0_227_187688)">
<path d="M5.41172 6.79896V6.89896H5.51172H6.52759H6.62759V6.79896V6.79858V6.7982V6.79781V6.79742V6.79703V6.79664V6.79625V6.79585V6.79545V6.79505V6.79464V6.79423V6.79382V6.79341V6.793V6.79258V6.79216V6.79174V6.79131V6.79089V6.79046V6.79003V6.78959V6.78916V6.78872V6.78828V6.78784V6.78739V6.78695V6.7865V6.78604V6.78559V6.78513V6.78468V6.78422V6.78375V6.78329V6.78282V6.78235V6.78188V6.78141V6.78093V6.78046V6.77998V6.7795V6.77901V6.77853V6.77804V6.77755V6.77706V6.77657V6.77607V6.77558V6.77508V6.77458V6.77407V6.77357V6.77306V6.77255V6.77204V6.77153V6.77102V6.7705V6.76999V6.76947V6.76895V6.76842V6.7679V6.76737V6.76684V6.76632V6.76578V6.76525V6.76472V6.76418V6.76364V6.7631V6.76256V6.76202V6.76148V6.76093V6.76038V6.75983V6.75928V6.75873V6.75818V6.75762V6.75707V6.75651V6.75595V6.75539V6.75483V6.75426V6.7537V6.75313V6.75256V6.75199V6.75142V6.75085V6.75028V6.7497V6.74913V6.74855V6.74797V6.74739V6.74681V6.74623V6.74565V6.74506V6.74448V6.74389V6.7433V6.74271V6.74212V6.74153V6.74094V6.74034V6.73975V6.73915V6.73856V6.73796V6.73736V6.73676V6.73616V6.73555V6.73495V6.73435V6.73374V6.73314V6.73253V6.73192V6.73131V6.7307V6.73009V6.72948V6.72887V6.72825V6.72764V6.72702V6.72641V6.72579V6.72517V6.72456V6.72394V6.72332V6.7227V6.72208V6.72145V6.72083V6.72021V6.71958V6.71896V6.71833V6.71771V6.71708V6.71645V6.71583V6.7152V6.71457V6.71394V6.71331V6.71268V6.71205V6.71142V6.71078V6.71015V6.70952V6.70889V6.70825V6.70762V6.70698V6.70635V6.70571V6.70508V6.70444V6.7038V6.70317V6.70253V6.70189V6.70125V6.70061V6.69998V6.69934V6.6987V6.69806V6.69742V6.69678V6.69614V6.6955V6.69486V6.69422V6.69358V6.69294V6.6923V6.69166V6.69101V6.69037V6.68973V6.68909V6.68845V6.68781V6.68717V6.68653V6.68588V6.68524V6.6846V6.68396V6.68332V6.68268V6.68204V6.68139V6.68075V6.68011V6.67947V6.67883V6.67819V6.67755V6.67691V6.67627V6.67563V6.67499V6.67435V6.67371V6.67307V6.67244V6.6718V6.67116V6.67052V6.66989V6.66925V6.66861V6.66798V6.66734V6.6667V6.66607V6.66544V6.6648V6.66417V6.66353V6.6629V6.66227V6.66164V6.66101V6.66037V6.65974V6.65911V6.65849V6.65786V6.65723V6.6566V6.65597V6.65535V6.65472V6.6541V6.65347V6.65285V6.65223V6.6516V6.65098V6.65036V6.64974V6.64912V6.6485V6.64789V6.64727V6.64665V6.64604V6.64542V6.64481V6.6442V6.64358V6.64297V6.64236V6.64175V6.64114V6.64054V6.63993V6.63932V6.63872V6.63811V6.63751V6.63691V6.63631V6.63571V6.63511V6.63451V6.63392V6.63332V6.63273V6.63213V6.63154V6.63095V6.63036V6.62977V6.62918V6.6286V6.62801V6.62743V6.62684V6.62626V6.62568V6.6251V6.62453V6.62395V6.62337V6.6228V6.62223V6.62166V6.62109V6.62052V6.61995V6.61938V6.61882V6.61826V6.61769V6.61713V6.61658V6.61602V6.61546V6.61491V6.61435V6.6138V6.61325V6.61271V6.61216V6.61161V6.61107V6.61053V6.60999V6.60945V6.60891V6.60838V6.60784V6.60731V6.60678V6.60625V6.60572V6.6052V6.60467V6.60415V6.60363V6.60311V6.6026V6.60208V6.60157V6.60106V6.60055V6.60004V6.59954V6.59903V6.59853V6.59803V6.59753V6.59704V6.59654V6.59605V6.59556V6.59507V6.59458V6.5941V6.59362V6.59314V6.59266V6.59218V6.59171V6.59124V6.59077V6.5903V6.58983V6.58937V6.58891V6.58845V6.58799V6.58754V6.58708V6.58663V6.58618V6.58574V6.58529V6.58485V6.58441V6.58397V6.58354V6.58311V6.58268V6.58225V6.58182V6.5814V6.58098V6.58056V6.58014V6.57973V6.57932V6.57891V6.5785V6.5781V6.5777V6.5773V6.5769V6.57651V6.57612V6.57573V6.57534V6.57496V6.57458V6.5742V6.57382V6.57345V6.57308V6.57271V6.57234V6.57198V6.57162V6.57126V6.57091V6.57056V6.57021V6.56986V6.56952V6.56918V6.56884V6.5685V6.56817V6.56784V6.56751V6.56719V6.56687V6.56655V6.56623V6.56592V6.56561V6.5653V6.565V6.5647V6.5644V6.5641V6.56381V6.56352V6.56324V6.56295V6.56267V6.5624V6.56212V6.56185V6.56158V6.56132V6.56106V6.5608V6.56054V6.56029V6.56004V6.5598V6.55955V6.55931V6.55908V6.55885V6.55862V6.55839V6.55817V6.55795V6.55773V6.55752V6.55731V6.5571V6.5569V6.5567V6.5565V6.55631V6.55612V6.55593V6.55575V6.55557V6.55539V6.55522V6.55505V6.55488V6.55472V6.55456V6.55441V6.55425V6.55411V6.55396V6.55382V6.55368V6.55355V6.55342V6.55329V6.55317V6.55305V6.55293V6.55282V6.55271V6.55261V6.55251V6.55241V6.55232V6.55223V6.55214V6.55206V6.55198V6.55191V6.55183V6.55177V6.5517V6.55165V6.55159V6.55154V6.55149V6.55145V6.55141V6.55137V6.55134C6.62759 5.92288 7.24909 5.3815 8.0514 5.3815C8.85372 5.3815 9.47521 5.92288 9.47521 6.55134C9.47521 6.99505 9.16016 7.41554 8.65048 7.61195C8.29504 7.74779 7.99325 7.98596 7.77717 8.29752C7.55532 8.61688 7.44346 8.99893 7.44346 9.38467V9.63011V9.73011H7.54346C7.72705 9.73011 7.86229 9.72864 7.97991 9.72737C8.17411 9.72526 8.32026 9.72367 8.55663 9.73007L8.65934 9.73285V9.63011V9.3659C8.6601 9.23199 8.70117 9.10142 8.7772 8.99119C8.85326 8.88092 8.96077 8.79612 9.08572 8.74785C10.0561 8.37449 10.6911 7.51502 10.6911 6.55134C10.6911 5.89693 10.4043 5.28753 9.88868 4.8364L9.88861 4.83634C9.39326 4.40373 8.74098 4.16562 8.0514 4.16562C7.36199 4.16562 6.70958 4.40205 6.21405 4.83646C5.69852 5.28758 5.41172 5.89696 5.41172 6.55134V6.55165V6.55195V6.55225V6.55255V6.55285V6.55314V6.55342V6.5537V6.55398V6.55426V6.55453V6.5548V6.55506V6.55532V6.55558V6.55583V6.55608V6.55633V6.55657V6.55681V6.55705V6.55729V6.55752V6.55774V6.55797V6.55819V6.5584V6.55862V6.55883V6.55904V6.55924V6.55944V6.55964V6.55984V6.56003V6.56022V6.56041V6.56059V6.56077V6.56095V6.56113V6.5613V6.56147V6.56164V6.5618V6.56196V6.56212V6.56228V6.56243V6.56258V6.56273V6.56288V6.56302V6.56316V6.5633V6.56344V6.56357V6.56371V6.56384V6.56396V6.56409V6.56421V6.56433V6.56445V6.56456V6.56468V6.56479V6.5649V6.56501V6.56511V6.56522V6.56532V6.56542V6.56552V6.56561V6.5657V6.5658V6.56589V6.56598V6.56606V6.56615V6.56623V6.56631V6.56639V6.56647V6.56655V6.56662V6.56669V6.56677V6.56684V6.56691V6.56697V6.56704V6.5671V6.56717V6.56723V6.56729V6.56735V6.56741V6.56746V6.56752V6.56757V6.56763V6.56768V6.56773V6.56778V6.56783V6.56788V6.56792V6.56797V6.56801V6.56806V6.5681V6.56814V6.56818V6.56822V6.56826V6.5683V6.56834V6.56838V6.56842V6.56845V6.56849V6.56852V6.56856V6.56859V6.56863V6.56866V6.56869V6.56872V6.56875V6.56879V6.56882V6.56885V6.56888V6.56891V6.56894V6.56897V6.569V6.56902V6.56905V6.56908V6.56911V6.56914V6.56917V6.5692V6.56923V6.56925V6.56928V6.56931V6.56934V6.56937V6.5694V6.56943V6.56946V6.56949V6.56952V6.56955V6.56958V6.56961V6.56964V6.56968V6.56971V6.56974V6.56978V6.56981V6.56984V6.56988V6.56992V6.56995V6.56999V6.57003V6.57007V6.5701V6.57014V6.57019V6.57023V6.57027V6.57031V6.57036V6.5704V6.57045V6.5705V6.57054V6.57059V6.57064V6.57069V6.57075V6.5708V6.57085V6.57091V6.57097V6.57103V6.57108V6.57115V6.57121V6.57127V6.57134V6.5714V6.57147V6.57154V6.57161V6.57168V6.57176V6.57183V6.57191V6.57199V6.57207V6.57215V6.57223V6.57232V6.57241V6.57249V6.57258V6.57268V6.57277V6.57287V6.57297V6.57307V6.57317V6.57327V6.57338V6.57349V6.5736V6.57371V6.57382V6.57394V6.57406V6.57418V6.5743V6.57443V6.57455V6.57468V6.57482V6.57495V6.57509V6.57523V6.57537V6.57551V6.57566V6.57581V6.57596V6.57612V6.57627V6.57643V6.5766V6.57676V6.57693V6.5771V6.57727V6.57745V6.57763V6.57781V6.578V6.57818V6.57837V6.57857V6.57876V6.57896V6.57917V6.57937V6.57958V6.57979V6.58001V6.58022V6.58045V6.58067V6.5809V6.58113V6.58136V6.5816V6.58184V6.58209V6.58233V6.58259V6.58284V6.5831V6.58336V6.58363V6.58389V6.58417V6.58444V6.58472V6.58501V6.58529V6.58558V6.58588V6.58618V6.58648V6.58678V6.58709V6.58741V6.58773V6.58805V6.58837V6.5887V6.58904V6.58937V6.58971V6.59006V6.59041V6.59076V6.59112V6.59149V6.59185V6.59222V6.5926V6.59298V6.59336V6.59375V6.59414V6.59454V6.59494V6.59535V6.59576V6.59617V6.59659V6.59702V6.59744V6.59788V6.59832V6.59876V6.59921V6.59966V6.60012V6.60058V6.60104V6.60152V6.60199V6.60247V6.60296V6.60345V6.60395V6.60445V6.60495V6.60546V6.60598V6.6065V6.60703V6.60756V6.6081V6.60864V6.60919V6.60974V6.6103V6.61086V6.61143V6.612V6.61258V6.61317V6.61376V6.61435V6.61495V6.61556V6.61617V6.61679V6.61742V6.61804V6.61868V6.61932V6.61997V6.62062V6.62128V6.62194V6.62261V6.62329V6.62397V6.62465V6.62535V6.62605V6.62675V6.62746V6.62818V6.6289V6.62963V6.63037V6.63111V6.63186V6.63261V6.63337V6.63414V6.63491V6.63569V6.63648V6.63727V6.63807V6.63887V6.63968V6.6405V6.64133V6.64216V6.64299V6.64384V6.64469V6.64555V6.64641V6.64728V6.64816V6.64904V6.64993V6.65083V6.65173V6.65264V6.65356V6.65449V6.65542V6.65636V6.6573V6.65826V6.65922V6.66018V6.66116V6.66214V6.66313V6.66412V6.66513V6.66614V6.66715V6.66818V6.66921V6.67025V6.67129V6.67235V6.67341V6.67448V6.67555V6.67664V6.67773V6.67883V6.67993V6.68105V6.68217V6.6833V6.68443V6.68558V6.68673V6.68789V6.68906V6.69023V6.69142V6.69261V6.69381V6.69502V6.69623V6.69745V6.69869V6.69992V6.70117V6.70243V6.70369V6.70496V6.70624V6.70753V6.70882V6.71013V6.71144V6.71276V6.71409V6.71543V6.71677V6.71813V6.71949V6.72086V6.72224V6.72363V6.72503V6.72643V6.72785V6.72927V6.7307V6.73214V6.73359V6.73504V6.73651V6.73799V6.73947V6.74096V6.74246V6.74397V6.74549V6.74702V6.74856V6.7501V6.75166V6.75322V6.75479V6.75637V6.75797V6.75957V6.76118V6.76279V6.76442V6.76606V6.76771V6.76936V6.77103V6.7727V6.77438V6.77608V6.77778V6.77949V6.78121V6.78295V6.78469V6.78644V6.7882V6.78997V6.79174V6.79353V6.79533V6.79714V6.79896ZM7.31648 11.5037C7.31648 11.9097 7.64538 12.2386 8.0514 12.2386C8.45742 12.2386 8.78632 11.9097 8.78632 11.5037C8.78632 11.0977 8.45742 10.7688 8.0514 10.7688C7.64538 10.7688 7.31648 11.0977 7.31648 11.5037Z" fill="#7E8891" stroke="#7E8891" stroke-width="0.2"/>
<circle cx="8" cy="8" r="7.3" stroke="#7E8891" stroke-width="1.4"/>
</g>
<defs>
<clipPath id="clip0_227_187688">
<rect width="16" height="16" fill="white"/>
</clipPath>
</defs>
</svg>
