<svg width="38" height="38" viewBox="0 0 38 38" fill="none" xmlns="http://www.w3.org/2000/svg">
<rect opacity="0.1" width="38" height="38" rx="19" fill="#E7E9EE"/>
<path d="M25.2147 14.2298L14.2298 25.2147C14.0718 25.3726 13.8148 25.3703 13.6554 25.211L12.789 24.3446C12.629 24.1846 12.6274 23.9282 12.7853 23.7702L23.7702 12.7853C23.9276 12.628 24.1846 12.629 24.3446 12.789L25.211 13.6554C25.3703 13.8148 25.372 14.0725 25.2147 14.2298Z" fill="white"/>
<path d="M23.7702 25.2146L12.7852 14.2296C12.6273 14.0717 12.6296 13.8147 12.789 13.6553L13.6554 12.7889C13.8154 12.6289 14.0718 12.6273 14.2297 12.7852L25.2146 23.7701C25.3719 23.9274 25.3709 24.1845 25.2109 24.3445L24.3445 25.2109C24.1851 25.3702 23.9275 25.3719 23.7702 25.2146Z" fill="white"/>
</svg>
