<svg width="38" height="38" viewBox="0 0 38 38" fill="none" xmlns="http://www.w3.org/2000/svg">
<rect opacity="0.1" width="38" height="38" rx="19" fill="#E7E9EE"/>
<g clip-path="url(#clip0_320_2957)">
<path fill-rule="evenodd" clip-rule="evenodd" d="M23.39 18.6719C23.1718 18.6719 22.995 18.8487 22.995 19.0669V20.7732H20.6197C20.1655 20.7732 19.7972 21.1415 19.7972 21.5957V24.52C19.7972 24.9742 20.1655 25.3424 20.6197 25.3424H22.995V27.598C22.995 27.8161 23.1718 27.993 23.39 27.993H24.0622C24.2803 27.993 24.4571 27.8161 24.4571 27.598V25.3424H26.7424C27.1966 25.3424 27.5648 24.9742 27.5648 24.52V21.5957C27.5648 21.1415 27.1966 20.7732 26.7424 20.7732H24.4571V19.0669C24.4571 18.8487 24.2803 18.6719 24.0622 18.6719H23.39ZM22.995 22.2354H21.2594V23.8803H22.995V22.2354ZM24.4571 23.8803V22.2354H26.1027V23.8803H24.4571Z" fill="white"/>
<path fill-rule="evenodd" clip-rule="evenodd" d="M27.9743 18.9987C27.9743 13.9362 23.8702 9.83203 18.8077 9.83203C13.7452 9.83203 9.64099 13.9362 9.64099 18.9987C9.64099 24.0612 13.7452 28.1654 18.8077 28.1654C19.8452 28.1654 20.8424 27.993 21.7723 27.6753C21.7712 27.6503 21.7706 27.6251 21.7706 27.5998V26.5687H20.6197C19.8859 26.5687 19.2422 26.1825 18.8809 25.6022L18.8077 25.6945L18.606 25.4404C17.2492 23.6847 16.503 21.825 16.3413 19.8346H19.5788C19.8838 19.6542 20.2397 19.5506 20.6197 19.5506H21.7706V19.0687C21.7706 18.3509 22.2375 17.7423 22.8841 17.5298C22.6251 15.4506 21.8083 13.4996 20.4339 11.6771C21.8158 11.9841 23.0943 12.6787 24.111 13.6954C25.3203 14.9047 26.074 16.4845 26.2615 18.168H25.4082C25.5809 18.4255 25.6816 18.7353 25.6816 19.0687V19.5506H26.7424C27.1842 19.5506 27.5933 19.6905 27.9277 19.9285C27.9585 19.6228 27.9743 19.3126 27.9743 18.9987ZM27.5648 21.716V21.5975C27.5648 21.372 27.4741 21.1677 27.3272 21.0192L27.3207 21.0127C27.1722 20.8658 26.9679 20.775 26.7424 20.775H26.0943C25.9712 21.2798 25.7962 21.7697 25.5724 22.2372H26.1027V23.8821H24.5C24.3761 24.0264 24.2464 24.1665 24.111 24.302C23.7129 24.7001 23.2746 25.0488 22.8058 25.3442H22.995V27.1552C23.513 26.8887 24.0024 26.5743 24.4572 26.2179V25.3442H25.4229C26.3961 24.33 27.1382 23.0924 27.5648 21.716ZM21.1089 25.3442C21.4109 24.8653 21.6763 24.3779 21.9049 23.8821H21.2594V22.2372H22.5201C22.6592 21.7571 22.7664 21.2698 22.8416 20.775H21.1524C20.934 21.9964 20.4843 23.1685 19.7973 24.2975V24.5218C19.7973 24.7472 19.888 24.9515 20.0349 25.1001L20.0414 25.1065C20.1899 25.2535 20.3942 25.3442 20.6197 25.3442H21.1089ZM22.995 19.8346H24.4572V19.0687C24.4572 18.8505 24.2803 18.6737 24.0622 18.6737H23.39C23.1719 18.6737 22.995 18.8505 22.995 19.0687V19.8346ZM17.1814 26.3203C16.7572 26.226 16.3409 26.0949 15.9375 25.9278C15.0276 25.5509 14.2008 24.9984 13.5044 24.302C12.8079 23.6056 12.2555 22.7788 11.8786 21.8688C11.6087 21.2174 11.4327 20.5326 11.3544 19.8346H14.6699C14.8311 22.152 15.6684 24.3139 17.1814 26.3203ZM11.8786 16.1286C11.6081 16.7816 11.4318 17.4682 11.3538 18.168H14.6695C14.8299 15.8487 15.6673 13.685 17.1814 11.6771C16.7572 11.7714 16.3409 11.9025 15.9375 12.0696C15.0276 12.4465 14.2008 12.999 13.5044 13.6954C12.8079 14.3918 12.2555 15.2186 11.8786 16.1286ZM18.606 12.557C17.248 14.3142 16.5017 16.1756 16.3408 18.168H21.2745C21.1136 16.1761 20.3672 14.3141 19.0093 12.557L18.8077 12.302L18.606 12.557Z" fill="white"/>
</g>
<defs>
<clipPath id="clip0_320_2957">
<rect width="20" height="20" fill="white" transform="translate(9 9)"/>
</clipPath>
</defs>
</svg>
