<svg width="38" height="38" viewBox="0 0 38 38" fill="none" xmlns="http://www.w3.org/2000/svg">
<g clip-path="url(#clip0_189_101184)">
<rect x="-3" y="-2" width="44" height="43" rx="21.5" fill="#D4E3FF"/>
<path d="M22.5625 30.2812L24.3438 32.0625V34.4375L17.8125 35.0312L13.0625 32.6562L15.4375 30.2812V27.9062L13.5 26L12.5 23.5L10 22.5625L9.5 21.375L9 19L9.5 17.2188H11.2812V14.25L20.7812 8.3125L24.9375 11.875L26.7188 17.2188L29.0938 17.8125V19.5L28.5 21.375L26.7188 23.5L26.125 22.5625L24.9375 25.5312L22.5625 27.9062V30.2812Z" fill="white"/>
<path d="M25.5468 18.125C25.7344 13.7102 23.1653 11.1619 21.7839 10.6348C21.0601 9.35421 20.2806 6.99348 22.9531 7.79524C26.2938 8.79744 28.0198 10.2451 28.1868 12.4722C28.3438 14.5651 27.1389 17.6207 25.7918 18.3047C25.6694 18.3668 25.5409 18.2622 25.5468 18.125Z" fill="#070F3A"/>
<path d="M9.5 12.4702C9.5 14.5028 9.9431 16.6655 10.4813 17.4822C10.8149 17.6641 11.409 17.9925 11.8948 18.207C12.1832 18.3344 12.4591 18.1128 12.461 17.7975C12.47 16.2808 12.6915 15.0168 12.9868 14.4755C20.1692 13.1392 22.118 10.3553 22.285 10.0769C22.452 9.7985 24.9375 8.31394 23.1563 5.34517C20.7813 6.53315 20.7813 4.94707 17.2188 5.34517C12.1525 5.90912 9.5 9.5 9.5 12.4702Z" fill="#070F3A"/>
<path d="M15.4367 28V29.2581C15.4367 30.3171 14.8992 31.3037 14.0094 31.8779L5.86011 37.137" stroke="#070F3A" stroke-width="1.1875" stroke-linecap="round" stroke-linejoin="round"/>
<path d="M22.452 28V29.2581C22.452 30.3171 22.9895 31.3037 23.8793 31.8779L32.0286 37.137" stroke="#070F3A" stroke-width="1.1875" stroke-linecap="round" stroke-linejoin="round"/>
<path d="M21.9495 15.5293C22.3352 15.3066 23.2441 15.3219 23.6227 15.9776" stroke="#070F3A" stroke-linecap="round" stroke-linejoin="round"/>
<path d="M14.0123 16.1035C14.235 15.7178 15.1473 15.2573 15.8031 15.6359" stroke="#070F3A" stroke-linecap="round" stroke-linejoin="round"/>
<path d="M17.3297 24.0703C17.4782 24.293 18.009 24.7384 18.9444 24.7384C19.8797 24.7384 20.4477 24.293 20.6147 24.0703" stroke="#070F3A" stroke-linecap="round" stroke-linejoin="round"/>
<path d="M26.1824 20.5427L27.3125 19.5938" stroke="#070F3A" stroke-linecap="round" stroke-linejoin="round"/>
<path d="M11.8176 20.5427L10.6875 19.5938" stroke="#070F3A" stroke-linecap="round" stroke-linejoin="round"/>
<path d="M18.6437 19L18.0658 21.0641C17.9386 21.5185 18.2801 21.9688 18.7519 21.9688H19.574" stroke="#070F3A" stroke-linecap="round" stroke-linejoin="round"/>
<path d="M12 18.5C11.5 17.5 11.162 17.3164 10.871 17.3164C9.33355 17.3164 9.08716 17.5628 9.08716 19.1003C9.08716 20.6378 9.99998 23 11.5 23.5C11.9617 23.5 12.1516 23.2964 12.1516 23.0728" stroke="#070F3A" stroke-linecap="round" stroke-linejoin="round"/>
<path d="M26.2388 18.5C26.7388 17.5 27.0768 17.3164 27.3677 17.3164C28.9052 17.3164 29.1516 17.5628 29.1516 19.1003C29.1516 20.6378 28.2388 23 26.7388 23.5C26.277 23.5 26.0871 23.2964 26.0871 23.0728" stroke="#070F3A" stroke-linecap="round" stroke-linejoin="round"/>
<path d="M12.3031 23C12.3031 24.7911 14.6905 28.7632 19.0556 28.7632C23.4208 28.7632 25.9998 24.5022 25.9998 23" stroke="#070F3A" stroke-linecap="round" stroke-linejoin="round"/>
<path d="M24.3488 30.5166C24.042 30.3644 23.6783 30.385 23.3878 30.5662C21.8108 31.5496 20.6488 32.1115 18.523 32.1115C16.5819 32.1115 15.5862 31.643 14.1141 30.8128C13.8456 30.6614 13.5205 30.647 13.2408 30.7767L10.9456 31.8408C9.40213 32.5564 8.1576 33.7895 7.42773 35.3263V35.3263C10.6698 37.5806 14.6091 38.902 18.857 38.902C23.0617 38.902 26.9641 37.6073 30.1871 35.3949V35.3949C29.4327 33.7379 28.1302 32.3916 26.4991 31.5828L24.3488 30.5166Z" fill="#070F3A"/>
<ellipse cx="15.715" cy="18.5413" rx="0.72381" ry="1.11355" fill="#070F3A"/>
<ellipse cx="21.9509" cy="18.5413" rx="0.72381" ry="1.11355" fill="#070F3A"/>
</g>
<defs>
<clipPath id="clip0_189_101184">
<rect width="38" height="38" rx="19" fill="white"/>
</clipPath>
</defs>
</svg>
