<svg width="38" height="38" viewBox="0 0 38 38" fill="none" xmlns="http://www.w3.org/2000/svg">
<rect opacity="0.1" width="38" height="38" rx="19" fill="#E7E9EE"/>
<g clip-path="url(#clip0_320_2969)">
<path d="M20.6438 27.645C20.9764 27.645 21.246 27.3754 21.246 27.0428V26.8638C21.246 26.5312 20.9764 26.2616 20.6438 26.2616H18.4055V24.8505H20.321C20.6536 24.8505 20.9232 24.5809 20.9232 24.2484V24.1431C20.9232 23.8106 20.6536 23.5409 20.321 23.5409H18.4055V22.2037H20.6438C20.9764 22.2037 21.246 21.9341 21.246 21.6015V21.4225C21.246 21.0899 20.9764 20.8203 20.6438 20.8203H17.5136C17.181 20.8203 16.9114 21.0899 16.9114 21.4225V27.0428C16.9114 27.3754 17.181 27.645 17.5136 27.645H20.6438Z" fill="white"/>
<path d="M23.0536 27.645C23.3861 27.645 23.6557 27.3754 23.6557 27.0428V23.44C23.6557 23.4301 23.6687 23.4262 23.6742 23.4345L26.1993 27.2826C26.3477 27.5087 26.6 27.645 26.8705 27.645H27.2144C27.547 27.645 27.8166 27.3754 27.8166 27.0428V21.4225C27.8166 21.0899 27.547 20.8203 27.2144 20.8203H27.0393C26.7067 20.8203 26.4371 21.0899 26.4371 21.4225V25.0344C26.4371 25.0444 26.4241 25.0482 26.4186 25.0399L23.8935 21.1834C23.7451 20.9568 23.4926 20.8203 23.2217 20.8203H22.8784C22.5458 20.8203 22.2762 21.0899 22.2762 21.4225V27.0428C22.2762 27.3754 22.5458 27.645 22.8784 27.645H23.0536Z" fill="white"/>
<path fill-rule="evenodd" clip-rule="evenodd" d="M27.9743 18.9987C27.9743 13.9362 23.8702 9.83203 18.8077 9.83203C13.7452 9.83203 9.64099 13.9362 9.64099 18.9987C9.64099 23.0378 12.2535 26.4668 15.8809 27.6882C15.802 27.4885 15.7586 27.271 15.7586 27.0433V25.8509C14.9191 25.4774 14.1549 24.9525 13.5044 24.302C12.8079 23.6056 12.2555 22.7788 11.8786 21.8688C11.6087 21.2174 11.4327 20.5326 11.3544 19.8346H14.6699C14.7703 21.2785 15.1333 22.6621 15.7586 23.9853V21.423C15.7586 20.8925 15.9939 20.4171 16.3659 20.0953C16.3565 20.0086 16.3483 19.9218 16.3413 19.8346H16.7661C16.9929 19.7277 17.2463 19.668 17.5136 19.668H20.6438C21.0683 19.668 21.4576 19.8187 21.7611 20.0695C22.0646 19.8187 22.4539 19.668 22.8784 19.668H23.2217C23.498 19.668 23.7665 19.7263 24.0118 19.8346H26.261C26.2604 19.8399 26.2598 19.8452 26.2592 19.8504C26.4941 19.7336 26.759 19.668 27.0392 19.668H27.2144C27.4723 19.668 27.7172 19.7236 27.9377 19.8235C27.9619 19.5518 27.9743 19.2767 27.9743 18.9987ZM27.7297 21.1112C27.6241 20.9371 27.4329 20.8208 27.2144 20.8208H27.0392C26.7067 20.8208 26.4371 21.0904 26.4371 21.423V24.0817C27.0327 23.1895 27.476 22.1869 27.7297 21.1112ZM26.1 24.5537L25.1174 23.0531C24.8498 23.4695 24.5398 23.8613 24.1902 24.2215L25.1229 25.6428C25.4766 25.3065 25.8035 24.9423 26.1 24.5537ZM23.6557 26.7798V24.7212C23.2293 25.0824 22.7663 25.3928 22.2762 25.6485V27.0433C22.2762 27.1616 22.3103 27.272 22.3693 27.3652C22.3833 27.3872 22.3986 27.4082 22.4152 27.4282C22.8468 27.2432 23.2613 27.0261 23.6557 26.7798ZM20.4776 26.2621C20.4631 26.2815 20.4485 26.3009 20.4339 26.3203C20.5143 26.3024 20.5943 26.2833 20.674 26.2628C20.8573 26.2718 21.0191 26.3629 21.1234 26.5C21.2003 26.6011 21.246 26.7273 21.246 26.8642V27.0433C21.246 27.1616 21.2118 27.272 21.1528 27.3652C21.0461 27.5336 20.858 27.6454 20.6438 27.6454H17.5136C17.181 27.6454 16.9114 27.3758 16.9114 27.0433V26.255C17.001 26.2784 17.091 26.3002 17.1814 26.3203C17.0889 26.1976 16.9989 26.0743 16.9114 25.9505V22.4294C17.2579 23.3732 17.7548 24.2869 18.4055 25.1741V26.2621H20.4776ZM22.2762 22.9825C22.5332 22.2788 22.7192 21.5587 22.8343 20.8224C22.6385 20.8365 22.4687 20.9443 22.3693 21.1011C22.3103 21.1942 22.2762 21.3046 22.2762 21.423V22.9825ZM19.439 24.851H20.321C20.6536 24.851 20.9232 24.5814 20.9232 24.2488V24.1436C20.9232 23.811 20.6536 23.5414 20.321 23.5414H20.2186C19.994 23.9845 19.7343 24.4209 19.439 24.851ZM20.7894 22.1864C20.9245 22.1529 21.0416 22.0737 21.1234 21.9662C21.2003 21.8651 21.246 21.7389 21.246 21.602V21.423C21.246 21.3046 21.2118 21.1942 21.1528 21.1011C21.1377 21.0772 21.1209 21.0544 21.1027 21.033C21.0221 21.4224 20.9178 21.8068 20.7894 22.1864ZM11.8786 16.1286C11.6081 16.7816 11.4318 17.4682 11.3538 18.168H14.6695C14.8299 15.8487 15.6673 13.685 17.1814 11.6771C16.7572 11.7714 16.3409 11.9025 15.9375 12.0696C15.0276 12.4465 14.2008 12.999 13.5044 13.6954C12.8079 14.3918 12.2555 15.2186 11.8786 16.1286ZM18.606 12.557C17.248 14.3142 16.5017 16.1756 16.3408 18.168H21.2745C21.1136 16.1761 20.3672 14.3141 19.0093 12.557L18.8077 12.302L18.606 12.557ZM24.111 13.6954C25.3203 14.9047 26.074 16.4845 26.2615 18.168H22.9458C22.7854 15.8487 21.948 13.685 20.4339 11.6771C21.8158 11.9841 23.0943 12.6787 24.111 13.6954Z" fill="white"/>
</g>
<defs>
<clipPath id="clip0_320_2969">
<rect width="20" height="20" fill="white" transform="translate(9 9)"/>
</clipPath>
</defs>
</svg>
