<svg width="140" height="140" viewBox="0 0 140 140" fill="none" xmlns="http://www.w3.org/2000/svg">
<path d="M70.9176 18.609L67.0471 19.6072L19.361 31.9045L15.4904 32.9026C13.6117 33.3893 12.0028 34.6014 11.0166 36.273C10.0305 37.9445 9.74761 39.9389 10.2301 41.8188L27.0137 106.902C27.5005 108.78 28.7126 110.389 30.3841 111.376C32.0556 112.362 34.0501 112.645 35.9299 112.162L35.9399 112.16L91.3471 97.8711L91.3571 97.8685C93.2358 97.3818 94.8447 96.1697 95.8309 94.4982C96.817 92.8266 97.0999 90.8322 96.6174 88.9524L79.8338 23.8694C79.347 21.9906 78.1349 20.3817 76.4634 19.3955C74.7919 18.4094 72.7974 18.1265 70.9176 18.609Z" fill="#F2F2F2"/>
<path d="M71.6379 20.699L67.0535 21.8812L20.795 33.8104L16.2107 34.9926C14.8728 35.3392 13.727 36.2024 13.0247 37.3927C12.3225 38.583 12.1211 40.0033 12.4647 41.342L29.2483 106.425C29.5949 107.763 30.458 108.909 31.6484 109.611C32.8387 110.313 34.259 110.515 35.5977 110.171L35.6077 110.168L91.0149 95.88L91.0249 95.8774C92.3628 95.5308 93.5085 94.6676 94.2108 93.4773C94.913 92.287 95.1145 90.8667 94.7709 89.528L77.9873 24.445C77.6406 23.1072 76.7775 21.9614 75.5872 21.2591C74.3969 20.5569 72.9766 20.3554 71.6379 20.699Z" fill="white"/>
<path d="M67.7322 41.7702L39.7031 48.9984C39.39 49.0791 39.0577 49.0322 38.7793 48.8679C38.5008 48.7036 38.299 48.4354 38.2183 48.1224C38.1376 47.8093 38.1845 47.477 38.3488 47.1986C38.5131 46.9201 38.7812 46.7183 39.0943 46.6376L67.1234 39.4094C67.4364 39.329 67.7685 39.3762 68.0467 39.5405C68.3249 39.7048 68.5265 39.9728 68.6072 40.2857C68.6879 40.5986 68.641 40.9307 68.477 41.209C68.3129 41.4874 68.045 41.6892 67.7322 41.7702Z" fill="#F2F2F2"/>
<path d="M73.7576 44.5009L40.8593 52.9847C40.5463 53.0655 40.214 53.0185 39.9355 52.8543C39.6571 52.69 39.4553 52.4218 39.3746 52.1088C39.2938 51.7957 39.3408 51.4634 39.505 51.1849C39.6693 50.9065 39.9375 50.7047 40.2505 50.624L73.1488 42.1402C73.4618 42.0595 73.7941 42.1064 74.0726 42.2707C74.351 42.4349 74.5528 42.7031 74.6336 43.0162C74.7143 43.3292 74.6674 43.6615 74.5031 43.94C74.3388 44.2184 74.0706 44.4202 73.7576 44.5009Z" fill="#F2F2F2"/>
<path d="M72.3377 59.6025L44.3086 66.8307C44.1535 66.8706 43.9922 66.8797 43.8337 66.8573C43.6752 66.8349 43.5226 66.7815 43.3847 66.7002C43.2469 66.6188 43.1264 66.5111 43.0301 66.3832C42.9339 66.2553 42.8637 66.1097 42.8238 65.9547C42.7838 65.7997 42.7747 65.6383 42.7971 65.4798C42.8195 65.3213 42.8729 65.1687 42.9543 65.0309C43.0356 64.893 43.1433 64.7725 43.2712 64.6762C43.3991 64.58 43.5448 64.5099 43.6998 64.4699L71.7289 57.2417C71.8839 57.2018 72.0453 57.1927 72.2038 57.2151C72.3623 57.2375 72.5149 57.2909 72.6527 57.3722C72.7906 57.4536 72.9111 57.5613 73.0074 57.6892C73.1036 57.8171 73.1737 57.9627 73.2137 58.1177C73.2537 58.2727 73.2627 58.4341 73.2403 58.5926C73.2179 58.7511 73.1646 58.9037 73.0832 59.0415C73.0019 59.1794 72.8942 59.2999 72.7663 59.3962C72.6383 59.4924 72.4927 59.5625 72.3377 59.6025Z" fill="#F2F2F2"/>
<path d="M78.3552 62.333L45.457 70.8168C45.302 70.8568 45.1406 70.8658 44.9821 70.8434C44.8236 70.821 44.6711 70.7676 44.5332 70.6863C44.3953 70.605 44.2748 70.4972 44.1785 70.3693C44.0823 70.2414 44.0122 70.0958 43.9722 69.9408C43.9322 69.7858 43.9232 69.6244 43.9456 69.4659C43.968 69.3074 44.0214 69.1549 44.1027 69.017C44.184 68.8791 44.2917 68.7586 44.4197 68.6624C44.5476 68.5661 44.6932 68.496 44.8482 68.456L77.7464 59.9722C78.0595 59.8915 78.3918 59.9384 78.6702 60.1027C78.9487 60.267 79.1505 60.5351 79.2312 60.8482C79.3119 61.1613 79.265 61.4936 79.1007 61.772C78.9364 62.0505 78.6683 62.2523 78.3552 62.333Z" fill="#F2F2F2"/>
<path d="M76.9345 77.4306L48.9054 84.6588C48.5924 84.7393 48.2603 84.6922 47.982 84.5279C47.7038 84.3636 47.5021 84.0955 47.4214 83.7826C47.3407 83.4697 47.3876 83.1375 47.5517 82.8591C47.7158 82.5808 47.9837 82.3789 48.2966 82.298L76.3258 75.0699C76.6388 74.9891 76.9711 75.0361 77.2496 75.2004C77.528 75.3646 77.7298 75.6328 77.8105 75.9459C77.8913 76.2589 77.8443 76.5912 77.6801 76.8697C77.5158 77.1481 77.2476 77.3499 76.9345 77.4306Z" fill="#F2F2F2"/>
<path d="M82.9578 80.165L50.0596 88.6488C49.9045 88.6889 49.7431 88.6981 49.5845 88.6758C49.4259 88.6535 49.2732 88.6002 49.1352 88.5189C48.9972 88.4375 48.8766 88.3298 48.7803 88.2019C48.6839 88.0739 48.6138 87.9282 48.5738 87.7731C48.5338 87.618 48.5247 87.4565 48.5472 87.2979C48.5696 87.1393 48.6231 86.9867 48.7045 86.8488C48.786 86.7109 48.8938 86.5904 49.0219 86.4942C49.1499 86.3979 49.2957 86.3279 49.4508 86.288L82.349 77.8042C82.6621 77.7235 82.9944 77.7705 83.2729 77.9347C83.5513 78.099 83.7531 78.3672 83.8338 78.6802C83.9146 78.9933 83.8676 79.3256 83.7033 79.604C83.5391 79.8825 83.2709 80.0843 82.9578 80.165Z" fill="#F2F2F2"/>
<path d="M35.0047 56.3979L25.0854 58.9558C24.9353 58.9944 24.7761 58.9718 24.6426 58.893C24.5091 58.8143 24.4123 58.6858 24.3735 58.5358L22.0965 49.7063C22.058 49.5562 22.0806 49.3969 22.1593 49.2634C22.238 49.13 22.3665 49.0332 22.5165 48.9943L32.4358 46.4363C32.5859 46.3978 32.7451 46.4204 32.8786 46.4991C33.0121 46.5779 33.1089 46.7064 33.1477 46.8564L35.4247 55.6859C35.4632 55.836 35.4406 55.9953 35.3619 56.1287C35.2832 56.2622 35.1547 56.359 35.0047 56.3979Z" fill="#E6E6E6"/>
<path d="M39.6062 74.226L29.687 76.7839C29.5369 76.8225 29.3776 76.7999 29.2441 76.7212C29.1107 76.6424 29.0139 76.5139 28.975 76.3639L26.6981 67.5344C26.6595 67.3843 26.6821 67.225 26.7609 67.0916C26.8396 66.9581 26.9681 66.8613 27.1181 66.8225L37.0373 64.2645C37.1875 64.2259 37.3467 64.2485 37.4802 64.3273C37.6137 64.406 37.7104 64.5345 37.7493 64.6845L40.0263 73.514C40.0648 73.6641 40.0422 73.8234 39.9635 73.9569C39.8847 74.0903 39.7562 74.1871 39.6062 74.226Z" fill="#E6E6E6"/>
<path d="M44.2078 92.058L34.2885 94.616C34.1384 94.6545 33.9792 94.6319 33.8457 94.5532C33.7122 94.4744 33.6154 94.346 33.5766 94.196L31.2996 85.3664C31.2611 85.2163 31.2837 85.0571 31.3624 84.9236C31.4412 84.7901 31.5696 84.6933 31.7197 84.6545L41.6389 82.0965C41.789 82.058 41.9483 82.0806 42.0817 82.1593C42.2152 82.238 42.312 82.3665 42.3509 82.5165L44.6278 91.3461C44.6664 91.4962 44.6438 91.6554 44.565 91.7889C44.4863 91.9224 44.3578 92.0191 44.2078 92.058Z" fill="#E6E6E6"/>
<path d="M109.647 35.0586H52.4061C50.4653 35.0608 48.6047 35.8327 47.2324 37.205C45.86 38.5774 45.0881 40.438 45.0859 42.3787V109.591C45.0881 111.532 45.86 113.392 47.2324 114.765C48.6047 116.137 50.4653 116.909 52.4061 116.911H109.647C111.587 116.909 113.448 116.137 114.82 114.765C116.193 113.392 116.965 111.532 116.967 109.591V42.3787C116.965 40.438 116.193 38.5774 114.82 37.205C113.448 35.8327 111.587 35.0608 109.647 35.0586Z" fill="#E6E6E6"/>
<path d="M109.836 37.0703H52.5957C51.2136 37.0719 49.8886 37.6216 48.9113 38.5988C47.9341 39.5761 47.3844 40.9011 47.3828 42.2832V109.495C47.3844 110.877 47.9341 112.202 48.9113 113.18C49.8886 114.157 51.2136 114.707 52.5957 114.708H109.836C111.218 114.707 112.543 114.157 113.521 113.18C114.498 112.202 115.048 110.877 115.049 109.495V42.2832C115.048 40.9011 114.498 39.5761 113.521 38.5989C112.543 37.6216 111.218 37.0719 109.836 37.0703Z" fill="white"/>
<path d="M115.386 125.053C122.766 125.053 128.749 119.071 128.749 111.691C128.749 104.311 122.766 98.3281 115.386 98.3281C108.006 98.3281 102.023 104.311 102.023 111.691C102.023 119.071 108.006 125.053 115.386 125.053Z" fill="#3F81FF"/>
<path d="M115.529 119.866C116.315 119.866 116.952 119.229 116.952 118.443C116.952 117.657 116.315 117.02 115.529 117.02C114.743 117.02 114.105 117.657 114.105 118.443C114.105 119.229 114.743 119.866 115.529 119.866Z" fill="white"/>
<path d="M115.304 103.504C114.231 103.515 113.205 103.944 112.443 104.699C111.682 105.455 111.245 106.478 111.227 107.551C111.227 107.572 111.227 107.716 111.227 107.905C111.227 108.182 111.337 108.447 111.532 108.643C111.728 108.839 111.994 108.949 112.27 108.949C112.548 108.949 112.813 108.839 113.009 108.643C113.205 108.447 113.315 108.181 113.315 107.904V107.903C113.315 107.775 113.315 107.686 113.315 107.68C113.315 107.337 113.404 106.999 113.574 106.7C113.744 106.402 113.989 106.152 114.285 105.977C114.58 105.802 114.917 105.706 115.26 105.7C115.604 105.694 115.943 105.778 116.245 105.943C116.546 106.108 116.8 106.348 116.98 106.641C117.161 106.933 117.262 107.268 117.274 107.611C117.285 107.955 117.208 108.296 117.048 108.6C116.888 108.904 116.652 109.162 116.363 109.347L116.363 109.348C116.363 109.348 114.877 110.304 114.424 111.616L114.425 111.617C114.345 111.885 114.305 112.164 114.305 112.445C114.305 112.56 114.312 113.568 114.325 114.387C114.329 114.669 114.445 114.939 114.646 115.137C114.847 115.335 115.119 115.446 115.401 115.446C115.542 115.446 115.682 115.418 115.813 115.364C115.944 115.31 116.062 115.23 116.162 115.13C116.262 115.03 116.341 114.912 116.395 114.781C116.45 114.65 116.477 114.51 116.477 114.369L116.477 114.362C116.473 113.613 116.47 112.74 116.47 112.677C116.47 111.871 117.248 111.068 117.886 110.545C118.625 109.946 119.145 109.119 119.363 108.193C119.41 108.003 119.436 107.807 119.44 107.611C119.44 107.071 119.334 106.537 119.128 106.039C118.921 105.541 118.619 105.088 118.237 104.707C117.856 104.325 117.403 104.023 116.905 103.817C116.407 103.61 115.873 103.504 115.333 103.504C115.324 103.504 115.314 103.504 115.304 103.504Z" fill="white"/>
<path d="M101.131 74.02H72.1852C72.025 74.0202 71.8664 73.9888 71.7183 73.9276C71.5702 73.8664 71.4357 73.7767 71.3224 73.6635C71.209 73.5503 71.1191 73.4158 71.0578 73.2678C70.9964 73.1199 70.9648 72.9612 70.9648 72.801C70.9648 72.6408 70.9964 72.4822 71.0578 72.3342C71.1191 72.1862 71.209 72.0518 71.3224 71.9386C71.4357 71.8254 71.5702 71.7356 71.7183 71.6744C71.8664 71.6132 72.025 71.5819 72.1852 71.582H101.131C101.454 71.5824 101.764 71.711 101.992 71.9395C102.221 72.1681 102.349 72.478 102.349 72.801C102.349 73.1241 102.221 73.4339 101.992 73.6625C101.764 73.8911 101.454 74.0197 101.131 74.02Z" fill="#E6E6E6"/>
<path d="M106.16 78.188H72.1852C72.025 78.1882 71.8664 78.1568 71.7183 78.0956C71.5702 78.0344 71.4357 77.9447 71.3224 77.8314C71.209 77.7182 71.1191 77.5838 71.0578 77.4358C70.9964 77.2878 70.9648 77.1292 70.9648 76.969C70.9648 76.8088 70.9964 76.6502 71.0578 76.5022C71.1191 76.3542 71.209 76.2198 71.3224 76.1066C71.4357 75.9933 71.5702 75.9036 71.7183 75.8424C71.8664 75.7812 72.025 75.7498 72.1852 75.75H106.16C106.483 75.75 106.793 75.8784 107.022 76.107C107.25 76.3356 107.379 76.6457 107.379 76.969C107.379 77.2923 107.25 77.6024 107.022 77.831C106.793 78.0596 106.483 78.188 106.16 78.188Z" fill="#E6E6E6"/>
<path d="M101.131 92.4224H72.1852C72.025 92.4226 71.8664 92.3912 71.7183 92.33C71.5702 92.2688 71.4357 92.179 71.3224 92.0658C71.209 91.9526 71.1191 91.8182 71.0578 91.6702C70.9964 91.5222 70.9648 91.3636 70.9648 91.2034C70.9648 91.0432 70.9964 90.8846 71.0578 90.7366C71.1191 90.5886 71.209 90.4541 71.3224 90.3409C71.4357 90.2277 71.5702 90.138 71.7183 90.0768C71.8664 90.0156 72.025 89.9842 72.1852 89.9844H101.131C101.455 89.9844 101.765 90.1128 101.993 90.3414C102.222 90.57 102.35 90.8801 102.35 91.2034C102.35 91.5267 102.222 91.8367 101.993 92.0653C101.765 92.2939 101.455 92.4224 101.131 92.4224Z" fill="#E6E6E6"/>
<path d="M106.16 96.5943H72.1852C72.025 96.5944 71.8664 96.563 71.7183 96.5019C71.5702 96.4407 71.4357 96.3509 71.3224 96.2377C71.209 96.1245 71.1191 95.99 71.0578 95.8421C70.9964 95.6941 70.9648 95.5355 70.9648 95.3753C70.9648 95.2151 70.9964 95.0564 71.0578 94.9084C71.1191 94.7605 71.209 94.626 71.3224 94.5128C71.4357 94.3996 71.5702 94.3098 71.7183 94.2487C71.8664 94.1875 72.025 94.1561 72.1852 94.1563H106.16C106.32 94.1561 106.479 94.1875 106.627 94.2487C106.775 94.3098 106.909 94.3996 107.023 94.5128C107.136 94.626 107.226 94.7605 107.287 94.9084C107.349 95.0564 107.38 95.2151 107.38 95.3753C107.38 95.5355 107.349 95.6941 107.287 95.8421C107.226 95.99 107.136 96.1245 107.023 96.2377C106.909 96.3509 106.775 96.4407 106.627 96.5019C106.479 96.563 106.32 96.5944 106.16 96.5943Z" fill="#E6E6E6"/>
<path d="M65.6916 79.9983H55.4478C55.2928 79.9982 55.1443 79.9365 55.0347 79.827C54.9251 79.7174 54.8635 79.5688 54.8633 79.4138V70.2954C54.8635 70.1405 54.9251 69.9919 55.0347 69.8823C55.1443 69.7727 55.2928 69.7111 55.4478 69.7109H65.6916C65.8465 69.7111 65.9951 69.7727 66.1047 69.8823C66.2143 69.9919 66.2759 70.1405 66.2761 70.2954V79.4138C66.2759 79.5688 66.2143 79.7174 66.1047 79.827C65.9951 79.9365 65.8465 79.9982 65.6916 79.9983Z" fill="#E6E6E6"/>
<path d="M65.6916 98.4046H55.4478C55.2928 98.4044 55.1443 98.3428 55.0347 98.2332C54.9251 98.1236 54.8635 97.975 54.8633 97.8201V88.7017C54.8635 88.5467 54.9251 88.3982 55.0347 88.2886C55.1443 88.179 55.2928 88.1174 55.4478 88.1172H65.6916C65.8465 88.1174 65.9951 88.179 66.1047 88.2886C66.2143 88.3982 66.2759 88.5467 66.2761 88.7017V97.8201C66.2759 97.975 66.2143 98.1236 66.1047 98.2332C65.9951 98.3428 65.8465 98.4044 65.6916 98.4046Z" fill="#E6E6E6"/>
<path d="M101.001 53.6021H79.6604C79.3371 53.6021 79.0271 53.4736 78.7984 53.245C78.5698 53.0164 78.4414 52.7064 78.4414 52.3831C78.4414 52.0598 78.5698 51.7497 78.7984 51.5211C79.0271 51.2925 79.3371 51.1641 79.6604 51.1641H101.001C101.325 51.1641 101.635 51.2925 101.863 51.5211C102.092 51.7497 102.22 52.0598 102.22 52.3831C102.22 52.7064 102.092 53.0164 101.863 53.245C101.635 53.4736 101.325 53.6021 101.001 53.6021Z" fill="#CCCCCC"/>
<path d="M106.03 57.6255H79.6604C79.5003 57.6255 79.3418 57.594 79.1939 57.5327C79.046 57.4714 78.9116 57.3817 78.7984 57.2685C78.6853 57.1553 78.5955 57.0209 78.5342 56.873C78.4729 56.7251 78.4414 56.5666 78.4414 56.4065C78.4414 56.2464 78.4729 56.0879 78.5342 55.94C78.5955 55.7921 78.6853 55.6577 78.7984 55.5445C78.9116 55.4313 79.046 55.3415 79.1939 55.2803C79.3418 55.219 79.5003 55.1875 79.6604 55.1875H106.03C106.353 55.1875 106.663 55.3159 106.892 55.5445C107.12 55.7731 107.249 56.0832 107.249 56.4065C107.249 56.7298 107.12 57.0399 106.892 57.2685C106.663 57.4971 106.353 57.6255 106.03 57.6255Z" fill="#CCCCCC"/>
<path d="M75.1222 62.6566H55.4478C55.2928 62.6564 55.1443 62.5948 55.0347 62.4852C54.9251 62.3756 54.8635 62.227 54.8633 62.0721V46.7173C54.8635 46.5623 54.9251 46.4138 55.0347 46.3042C55.1443 46.1946 55.2928 46.133 55.4478 46.1328H75.1222C75.2772 46.133 75.4257 46.1946 75.5353 46.3042C75.6449 46.4138 75.7065 46.5623 75.7067 46.7173V62.0721C75.7065 62.227 75.6449 62.3756 75.5353 62.4852C75.4257 62.5948 75.2772 62.6564 75.1222 62.6566Z" fill="#3F81FF"/>
</svg>
