<svg width="22" height="22" viewBox="0 0 22 22" fill="none" xmlns="http://www.w3.org/2000/svg">
<path d="M0.5 11.2703H2.97478C2.97478 6.43337 6.59679 2.63263 11.2491 2.80652C12.7999 2.80652 14.1807 3.32464 15.558 4.01665L14.0072 5.57101C13.1433 5.22323 12.1095 4.879 11.0756 4.879C7.80059 4.879 5.04248 7.6435 5.04248 11.2703H7.49994L4.00863 15.5892L0.5 11.2703ZM18.7681 10.5895C18.7681 15.2526 15.1497 19.2272 10.6673 19.2272C9.11651 19.2272 7.73568 18.5388 6.35839 17.8467L7.90917 16.2924C8.77307 16.6402 9.80692 16.9844 10.8408 16.9844C14.1158 16.9844 16.8739 14.2199 16.8739 10.593H13.9999L17.7378 6.27419L21.4999 10.5895H18.7681Z" fill="#9296A4"/>
</svg>
