<svg width="30" height="30" viewBox="0 0 30 30" fill="none" xmlns="http://www.w3.org/2000/svg">
<path d="M15 22.5C9.625 22.5 5.375 20 2.5 15C5.375 10 9.625 7.5 15 7.5C20.375 7.5 24.625 10 27.5 15C24.625 20 20.375 22.5 15 22.5ZM15.25 10C11.5 10 7.75 11.625 5.625 15C7.75 18.375 11.5 20 15.25 20C19 20 22.25 18.375 24.375 15C22.25 11.625 19 10 15.25 10ZM15 18.75C12.875 18.75 11.25 17.125 11.25 15C11.25 12.875 12.875 11.25 15 11.25C17.125 11.25 18.75 12.875 18.75 15C18.75 17.125 17.125 18.75 15 18.75ZM15 16.25C15.75 16.25 16.25 15.75 16.25 15C16.25 14.25 15.75 13.75 15 13.75C14.25 13.75 13.75 14.25 13.75 15C13.75 15.75 14.25 16.25 15 16.25Z" fill="#ADBDCC"/>
</svg>
