<svg width="90" height="90" viewBox="0 0 90 90" fill="none" xmlns="http://www.w3.org/2000/svg">
<g clip-path="url(#clip0_189_106878)">
<path d="M45 0C20.1472 0 0 20.1472 0 45C0 69.8528 20.1472 90 45 90C69.8528 90 90 69.8528 90 45C90 20.1472 69.8528 0 45 0ZM67.5 54.4922C67.5 55.4629 66.713 56.25 65.7422 56.25H35.5078C35.4363 56.25 35.366 56.2445 35.2967 56.2361C35.1898 56.2233 35.0852 56.2022 34.9852 56.1711C34.9768 56.1683 34.9687 56.1646 34.9603 56.1618C34.2578 55.9315 33.7502 55.2718 33.7502 54.4922V24.2578C33.7502 23.287 34.5373 22.5 35.508 22.5H43.2424C44.213 22.5 45.0002 23.287 45.0002 24.2578V45H65.7424C66.7132 45 67.5002 45.7871 67.5002 46.7578V54.4922H67.5Z" fill="#3F81FF"/>
<path d="M67.4998 54.4922C67.4998 55.4629 66.7129 56.25 65.742 56.25H35.5076C35.4361 56.25 35.3658 56.2445 35.2965 56.2361C35.1896 56.2233 35.0851 56.2022 34.985 56.1711C34.9766 56.1683 34.9685 56.1646 34.9601 56.1618C34.2577 55.9315 33.75 55.2718 33.75 54.4922V24.2578C33.75 23.287 34.5371 22.5 35.5078 22.5H43.2422C44.2129 22.5 45 23.287 45 24.2578V45H65.7422C66.713 45 67.5 45.7871 67.5 46.7578L67.4998 54.4922Z" fill="white"/>
</g>
<defs>
<clipPath id="clip0_189_106878">
<rect width="90" height="90" fill="white"/>
</clipPath>
</defs>
</svg>
