<svg width="450" height="254" viewBox="0 0 450 254" fill="none" xmlns="http://www.w3.org/2000/svg">
<path d="M71.7456 225.907C60.4841 218.568 52.296 205.376 53.9718 192.039C64.1121 202.567 77.6496 209.17 92.1891 210.678C97.7985 211.239 104.096 211.279 108.08 215.268C110.558 217.75 111.611 221.378 111.666 224.885C111.72 228.393 110.877 231.845 110.04 235.251L110.245 236.102C96.8128 235.606 83.0071 233.246 71.7456 225.907Z" fill="#F0F0F0"/>
<path d="M54.2544 192.037C58.467 202.335 65.8172 211.043 75.261 216.925C77.2716 218.228 79.4748 219.205 81.7897 219.822C84.0641 220.349 86.4383 220.258 88.6656 219.558C90.7554 218.946 92.8223 218.079 95.0244 217.986C96.1522 217.956 97.2739 218.164 98.3157 218.597C99.3575 219.03 100.296 219.679 101.07 220.5C103.05 222.497 104.196 225.086 105.228 227.656C106.374 230.511 107.519 233.494 109.853 235.608C110.135 235.864 109.721 236.288 109.439 236.032C105.379 232.354 104.932 226.453 101.74 222.185C100.251 220.194 98.1523 218.64 95.587 218.574C93.3437 218.516 91.2115 219.409 89.1009 220.046C86.9381 220.761 84.6332 220.936 82.3874 220.555C80.0486 220.058 77.8113 219.167 75.7714 217.92C71.1341 215.186 66.9556 211.739 63.3889 207.707C59.2927 203.127 56.0102 197.881 53.6832 192.194C53.5393 191.842 54.1114 191.687 54.2544 192.037Z" fill="white"/>
<path d="M72.1089 215.21C70.9069 216.66 69.2284 217.636 67.3732 217.964C65.518 218.291 63.6069 217.948 61.9813 216.996C61.653 216.802 61.9386 216.283 62.2673 216.477C63.7795 217.366 65.5597 217.685 67.2866 217.377C69.0136 217.069 70.5735 216.154 71.6848 214.796C71.9266 214.502 72.3494 214.917 72.1089 215.21Z" fill="white"/>
<path d="M87.6458 220.005C87.321 216.168 85.5619 212.594 82.7192 209.996C82.4373 209.739 82.8512 209.315 83.1328 209.572C86.0859 212.281 87.909 216.004 88.2382 219.997C88.2693 220.378 87.6768 220.383 87.6458 220.005Z" fill="white"/>
<path d="M60.0366 202.88C60.6187 202.415 61.0763 201.814 61.3684 201.129C61.6604 200.444 61.7778 199.697 61.71 198.956C61.6741 198.576 62.2667 198.571 62.3024 198.948C62.3735 199.768 62.2428 200.592 61.9218 201.35C61.6008 202.107 61.0992 202.774 60.4608 203.293C60.4047 203.347 60.3302 203.378 60.2524 203.379C60.1746 203.38 60.0993 203.351 60.0419 203.299C59.986 203.244 59.9541 203.169 59.9531 203.09C59.9522 203.012 59.9822 202.936 60.0366 202.88Z" fill="white"/>
<path d="M92.3832 167.633C92.4124 167.87 92.4416 168.106 92.4752 168.345C92.884 171.526 93.5505 174.668 94.4682 177.74C94.5353 177.979 94.607 178.219 94.6809 178.456C96.9706 185.834 100.61 192.723 105.415 198.773C107.329 201.179 109.423 203.435 111.68 205.523C114.796 208.407 118.405 211.285 120.33 214.922C120.535 215.299 120.717 215.689 120.873 216.089L111.266 235.785C111.221 235.819 111.181 235.855 111.137 235.889L110.789 236.693C110.665 236.594 110.539 236.488 110.415 236.388C110.343 236.331 110.273 236.269 110.201 236.211C110.154 236.172 110.106 236.132 110.061 236.099C110.045 236.086 110.03 236.072 110.018 236.061C109.973 236.028 109.935 235.993 109.894 235.962C109.186 235.372 108.481 234.776 107.779 234.173C107.775 234.171 107.775 234.171 107.772 234.165C102.434 229.563 97.4335 224.476 93.3637 218.791C93.2413 218.62 93.1144 218.447 92.9964 218.267C91.1761 215.695 89.5692 212.978 88.1916 210.143C87.4423 208.589 86.7721 206.998 86.1837 205.375C84.6714 201.181 83.8283 196.775 83.6852 192.318C83.4013 183.434 85.9618 174.559 91.923 168.12C92.0756 167.956 92.2261 167.795 92.3832 167.633Z" fill="#F0F0F0"/>
<path d="M92.6146 167.798C89.7783 178.556 90.4039 189.935 94.4026 200.317C95.2237 202.568 96.3945 204.675 97.8717 206.561C99.3701 208.351 101.321 209.708 103.521 210.49C105.557 211.26 107.73 211.812 109.544 213.064C110.463 213.718 111.233 214.56 111.804 215.533C112.375 216.506 112.734 217.589 112.857 218.71C113.237 221.497 112.592 224.254 111.869 226.928C111.065 229.897 110.183 232.968 110.774 236.061C110.845 236.436 110.26 236.525 110.188 236.151C109.161 230.769 112.357 225.788 112.378 220.459C112.388 217.973 111.648 215.468 109.639 213.871C107.883 212.475 105.643 211.904 103.574 211.142C101.417 210.411 99.4712 209.162 97.9075 207.506C96.339 205.701 95.089 203.643 94.2111 201.419C92.1548 196.444 90.8935 191.176 90.4735 185.809C89.9602 179.686 90.498 173.521 92.0637 167.58C92.1608 167.212 92.7111 167.433 92.6146 167.798Z" fill="white"/>
<path d="M92.9168 197.051C91.0837 197.485 89.156 197.254 87.4777 196.398C85.7995 195.543 84.4801 194.118 83.7551 192.379C83.6096 192.027 84.1503 191.785 84.2959 192.137C84.968 193.758 86.1972 195.084 87.7616 195.878C89.326 196.672 91.1226 196.88 92.8271 196.465C93.1976 196.376 93.2852 196.962 92.9168 197.051Z" fill="white"/>
<path d="M102.436 210.237C104.487 206.977 105.234 203.065 104.528 199.279C104.458 198.904 105.044 198.815 105.114 199.189C105.841 203.13 105.055 207.2 102.914 210.587C102.709 210.91 102.233 210.558 102.436 210.237Z" fill="white"/>
<path d="M90.7043 179.938C91.4486 179.918 92.1761 179.713 92.8217 179.342C93.4672 178.971 94.0105 178.446 94.4028 177.813C94.603 177.488 95.0791 177.84 94.8803 178.163C94.4437 178.861 93.8429 179.44 93.1306 179.852C92.4183 180.263 91.6161 180.494 90.794 180.524C90.7167 180.533 90.6388 180.513 90.5761 180.467C90.5134 180.421 90.4706 180.352 90.4563 180.276C90.4449 180.198 90.4645 180.119 90.5109 180.056C90.5573 179.993 90.6268 179.95 90.7043 179.938Z" fill="white"/>
<path d="M415.419 225.907C426.68 218.568 434.868 205.376 433.192 192.039C423.052 202.567 409.515 209.17 394.975 210.678C389.366 211.239 383.068 211.279 379.085 215.268C376.606 217.75 375.553 221.378 375.499 224.885C375.444 228.393 376.287 231.845 377.124 235.251L376.919 236.102C390.351 235.606 404.157 233.246 415.419 225.907Z" fill="#F0F0F0"/>
<path d="M432.912 192.037C428.699 202.335 421.349 211.043 411.905 216.925C409.894 218.228 407.691 219.205 405.376 219.822C403.102 220.349 400.728 220.258 398.5 219.558C396.411 218.946 394.344 218.079 392.142 217.986C391.014 217.956 389.892 218.164 388.85 218.597C387.808 219.03 386.87 219.679 386.096 220.5C384.116 222.497 382.97 225.086 381.938 227.656C380.792 230.511 379.647 233.494 377.313 235.608C377.031 235.864 377.445 236.288 377.727 236.032C381.787 232.354 382.234 226.453 385.426 222.185C386.915 220.194 389.014 218.64 391.579 218.574C393.822 218.516 395.954 219.409 398.065 220.046C400.228 220.761 402.533 220.936 404.779 220.555C407.117 220.058 409.355 219.167 411.395 217.92C416.032 215.186 420.21 211.739 423.777 207.707C427.873 203.127 431.156 197.881 433.483 192.194C433.627 191.842 433.055 191.687 432.912 192.037Z" fill="white"/>
<path d="M415.056 215.21C416.258 216.66 417.936 217.636 419.792 217.964C421.647 218.291 423.558 217.948 425.184 216.996C425.512 216.802 425.226 216.283 424.898 216.477C423.385 217.366 421.605 217.685 419.878 217.377C418.151 217.069 416.591 216.154 415.48 214.796C415.238 214.502 414.815 214.917 415.056 215.21Z" fill="white"/>
<path d="M399.519 220.005C399.844 216.168 401.603 212.594 404.446 209.996C404.728 209.739 404.314 209.315 404.032 209.572C401.079 212.281 399.256 216.004 398.927 219.997C398.896 220.378 399.488 220.383 399.519 220.005Z" fill="white"/>
<path d="M427.128 202.88C426.546 202.415 426.089 201.814 425.797 201.129C425.505 200.444 425.387 199.697 425.455 198.956C425.491 198.576 424.898 198.571 424.863 198.948C424.791 199.768 424.922 200.592 425.243 201.35C425.564 202.107 426.066 202.774 426.704 203.293C426.76 203.347 426.835 203.378 426.913 203.379C426.99 203.38 427.066 203.351 427.123 203.299C427.179 203.244 427.211 203.169 427.212 203.09C427.213 203.012 427.183 202.936 427.128 202.88Z" fill="white"/>
<path d="M394.779 167.633C394.75 167.87 394.721 168.106 394.687 168.345C394.279 171.526 393.612 174.668 392.694 177.74C392.627 177.979 392.556 178.219 392.482 178.456C390.192 185.834 386.552 192.723 381.748 198.773C379.834 201.179 377.739 203.435 375.483 205.523C372.366 208.407 368.758 211.285 366.833 214.922C366.628 215.299 366.446 215.689 366.289 216.089L375.897 235.785C375.941 235.819 375.981 235.855 376.026 235.889L376.373 236.693C376.497 236.594 376.624 236.488 376.747 236.388C376.82 236.331 376.89 236.269 376.962 236.211C377.009 236.172 377.056 236.132 377.101 236.099C377.117 236.086 377.133 236.072 377.144 236.061C377.189 236.028 377.228 235.993 377.268 235.962C377.976 235.372 378.681 234.775 379.383 234.173C379.388 234.171 379.388 234.171 379.39 234.165C384.728 229.563 389.729 224.476 393.799 218.791C393.921 218.62 394.048 218.447 394.166 218.267C395.986 215.695 397.593 212.978 398.971 210.143C399.72 208.589 400.39 206.998 400.979 205.375C402.491 201.181 403.334 196.775 403.477 192.318C403.761 183.434 401.201 174.559 395.24 168.12C395.087 167.956 394.936 167.795 394.779 167.633Z" fill="#F0F0F0"/>
<path d="M394.55 167.798C397.387 178.556 396.761 189.935 392.762 200.317C391.941 202.568 390.77 204.675 389.293 206.561C387.795 208.351 385.844 209.708 383.644 210.49C381.608 211.26 379.435 211.812 377.621 213.064C376.702 213.718 375.932 214.56 375.361 215.533C374.79 216.506 374.431 217.589 374.308 218.71C373.928 221.497 374.573 224.254 375.296 226.928C376.1 229.897 376.982 232.968 376.391 236.061C376.319 236.436 376.905 236.525 376.977 236.151C378.004 230.769 374.808 225.788 374.787 220.459C374.777 217.973 375.517 215.468 377.526 213.871C379.282 212.475 381.522 211.904 383.591 211.142C385.748 210.411 387.694 209.162 389.257 207.506C390.826 205.701 392.076 203.643 392.954 201.419C395.01 196.444 396.271 191.176 396.691 185.809C397.205 179.686 396.667 173.521 395.101 167.58C395.004 167.212 394.454 167.433 394.55 167.798Z" fill="white"/>
<path d="M394.248 197.051C396.081 197.485 398.009 197.254 399.687 196.398C401.365 195.543 402.685 194.118 403.41 192.379C403.555 192.027 403.014 191.785 402.869 192.137C402.197 193.758 400.967 195.084 399.403 195.878C397.839 196.672 396.042 196.88 394.338 196.465C393.967 196.376 393.88 196.962 394.248 197.051Z" fill="white"/>
<path d="M384.731 210.237C382.68 206.977 381.933 203.065 382.639 199.279C382.709 198.904 382.123 198.815 382.053 199.189C381.326 203.13 382.112 207.2 384.254 210.587C384.458 210.91 384.934 210.558 384.731 210.237Z" fill="white"/>
<path d="M396.458 179.938C395.714 179.918 394.986 179.713 394.341 179.342C393.695 178.971 393.152 178.446 392.759 177.813C392.559 177.488 392.083 177.84 392.282 178.163C392.719 178.861 393.319 179.44 394.032 179.852C394.744 180.263 395.546 180.494 396.368 180.524C396.446 180.533 396.523 180.513 396.586 180.467C396.649 180.421 396.692 180.352 396.706 180.276C396.717 180.198 396.698 180.119 396.651 180.056C396.605 179.993 396.535 179.95 396.458 179.938Z" fill="white"/>
<path d="M93.9263 161.188C93.5002 160.931 93.1356 160.585 92.858 160.172C92.5804 159.759 92.3967 159.291 92.3197 158.8C92.2428 158.308 92.2745 157.806 92.4127 157.328C92.5508 156.851 92.792 156.409 93.1193 156.035L87.1289 145.535L93.3975 145.94L98.125 155.849C98.7176 156.44 99.0726 157.228 99.1228 158.064C99.1729 158.9 98.9148 159.725 98.3972 160.383C97.8797 161.041 97.1387 161.487 96.3147 161.635C95.4906 161.783 94.6409 161.624 93.9263 161.188Z" fill="#FFB6B6"/>
<path d="M47.813 232.762H51.9605L53.9335 216.766L47.8125 216.766L47.813 232.762Z" fill="#FFB6B6"/>
<path d="M46.7539 231.41L54.9212 231.41C56.3016 231.41 57.6257 231.959 58.6018 232.935C59.5779 233.911 60.1263 235.235 60.1264 236.615V236.784L46.7541 236.785L46.7539 231.41Z" fill="#2F2E41"/>
<path d="M76.2276 232.762H80.3746L82.3476 216.766L76.2266 216.766L76.2276 232.762Z" fill="#FFB6B6"/>
<path d="M75.168 231.41L83.3353 231.41C84.7157 231.41 86.0398 231.959 87.0159 232.935C87.992 233.911 88.5404 235.235 88.5405 236.615V236.784L75.1682 236.785L75.168 231.41Z" fill="#2F2E41"/>
<path d="M86.8908 145.984C86.8908 145.984 88.0315 162.229 85.7849 170.41C83.5382 178.591 83.1371 228.066 83.1371 228.066H75.6065L69.0795 160.72L54.0323 228.303L46.8594 227.81L50.7931 148.173L86.8908 145.984Z" fill="#2F2E41"/>
<path d="M53.9081 91.2245L59.665 87.0234L69.3117 89.1239L71.923 95.3287L76.4226 97.5596C77.902 98.2931 79.1813 99.3749 80.1504 100.712C81.1195 102.049 81.7494 103.602 81.9861 105.236L88.4143 149.626L50.7962 148.172L46.242 95.8938C46.1945 95.3477 46.2569 94.7976 46.4257 94.2761C46.5945 93.7545 46.8662 93.2722 47.2247 92.8575C47.5832 92.4429 48.0213 92.1043 48.513 91.862C49.0047 91.6196 49.54 91.4783 50.0872 91.4465L53.9081 91.2245Z" fill="#3F3D56"/>
<path d="M78.8008 101.031L82.2753 105.715L97.4083 151.871L90.3148 154.711L78.9563 133.203L78.8008 101.031Z" fill="#3F3D56"/>
<path d="M66.2067 84.8315C70.8471 84.8315 74.6088 81.0697 74.6088 76.4294C74.6088 71.7891 70.8471 68.0273 66.2067 68.0273C61.5664 68.0273 57.8047 71.7891 57.8047 76.4294C57.8047 81.0697 61.5664 84.8315 66.2067 84.8315Z" fill="#FFB9B9"/>
<path opacity="0.1" d="M47.8906 111L61.6016 130.07L76.9276 140.064L47.8906 111Z" fill="#141516"/>
<path d="M61.7504 82.5061C61.166 81.3393 60.5647 80.0691 60.7881 78.7834C61.0115 77.4976 62.4871 76.3773 63.6258 77.0147C64.0983 75.3072 66.1899 74.5599 67.9505 74.7571C69.7111 74.9542 71.3323 75.8034 73.066 76.168C74.7997 76.5326 76.9052 76.2434 77.8422 74.7398L75.6002 74.701L77.9349 71.9931L75.2286 71.7906C76.166 70.7789 75.917 69.06 75.0095 68.0214C74.102 66.9828 72.7249 66.4914 71.3811 66.1806C68.6986 65.5623 65.918 65.4983 63.2099 65.9928C61.933 66.1896 60.7027 66.6177 59.5795 67.2561C58.5218 67.9012 57.6478 68.8076 57.0416 69.8881C56.3875 71.1071 56.034 72.4646 56.0104 73.8478C55.9704 75.7006 56.3962 77.5337 57.2485 79.1792C58.1009 80.8247 59.3526 82.23 60.889 83.2662" fill="#2F2E41"/>
<path d="M374.587 237H113.843C111.158 236.997 108.583 235.929 106.685 234.03C104.786 232.132 103.718 229.557 103.715 226.872V31.1279C103.718 28.4427 104.786 25.8684 106.685 23.9697C108.583 22.071 111.158 21.003 113.843 21H374.587C377.272 21.0031 379.847 22.0711 381.745 23.9698C383.644 25.8685 384.712 28.4428 384.715 31.1279V226.872C384.712 229.557 383.644 232.132 381.745 234.03C379.847 235.929 377.272 236.997 374.587 237Z" fill="#E4E4E4"/>
<path d="M308.961 110.875H268.711C266.722 110.875 264.814 110.085 263.408 108.678C262.001 107.272 261.211 105.364 261.211 103.375C261.211 101.386 262.001 99.4782 263.408 98.0717C264.814 96.6652 266.722 95.875 268.711 95.875H308.961C310.95 95.875 312.858 96.6652 314.264 98.0717C315.671 99.4782 316.461 101.386 316.461 103.375C316.461 105.364 315.671 107.272 314.264 108.678C312.858 110.085 310.95 110.875 308.961 110.875Z" fill="white"/>
<path d="M273.711 131.375H264.211C263.482 131.375 262.782 131.085 262.266 130.57C261.751 130.054 261.461 129.354 261.461 128.625C261.461 127.896 261.751 127.196 262.266 126.68C262.782 126.165 263.482 125.875 264.211 125.875H273.711C274.44 125.875 275.14 126.165 275.655 126.68C276.171 127.196 276.461 127.896 276.461 128.625C276.461 129.354 276.171 130.054 275.655 130.57C275.14 131.085 274.44 131.375 273.711 131.375Z" fill="white"/>
<path d="M313.211 131.375H303.711C302.982 131.375 302.282 131.085 301.766 130.57C301.251 130.054 300.961 129.354 300.961 128.625C300.961 127.896 301.251 127.196 301.766 126.68C302.282 126.165 302.982 125.875 303.711 125.875H313.211C313.94 125.875 314.64 126.165 315.155 126.68C315.671 127.196 315.961 127.896 315.961 128.625C315.961 129.354 315.671 130.054 315.155 130.57C314.64 131.085 313.94 131.375 313.211 131.375Z" fill="white"/>
<path d="M293.211 131.375H283.711C282.982 131.375 282.282 131.085 281.766 130.57C281.251 130.054 280.961 129.354 280.961 128.625C280.961 127.896 281.251 127.196 281.766 126.68C282.282 126.165 282.982 125.875 283.711 125.875H293.211C293.94 125.875 294.64 126.165 295.155 126.68C295.671 127.196 295.961 127.896 295.961 128.625C295.961 129.354 295.671 130.054 295.155 130.57C294.64 131.085 293.94 131.375 293.211 131.375Z" fill="white"/>
<path d="M273.711 141.875H264.211C263.482 141.875 262.782 141.585 262.266 141.07C261.751 140.554 261.461 139.854 261.461 139.125C261.461 138.396 261.751 137.696 262.266 137.18C262.782 136.665 263.482 136.375 264.211 136.375H273.711C274.44 136.375 275.14 136.665 275.655 137.18C276.171 137.696 276.461 138.396 276.461 139.125C276.461 139.854 276.171 140.554 275.655 141.07C275.14 141.585 274.44 141.875 273.711 141.875Z" fill="white"/>
<path d="M313.211 141.875H303.711C302.982 141.875 302.282 141.585 301.766 141.07C301.251 140.554 300.961 139.854 300.961 139.125C300.961 138.396 301.251 137.696 301.766 137.18C302.282 136.665 302.982 136.375 303.711 136.375H313.211C313.94 136.375 314.64 136.665 315.155 137.18C315.671 137.696 315.961 138.396 315.961 139.125C315.961 139.854 315.671 140.554 315.155 141.07C314.64 141.585 313.94 141.875 313.211 141.875Z" fill="white"/>
<path d="M293.211 141.875H283.711C282.982 141.875 282.282 141.585 281.766 141.07C281.251 140.554 280.961 139.854 280.961 139.125C280.961 138.396 281.251 137.696 281.766 137.18C282.282 136.665 282.982 136.375 283.711 136.375H293.211C293.94 136.375 294.64 136.665 295.155 137.18C295.671 137.696 295.961 138.396 295.961 139.125C295.961 139.854 295.671 140.554 295.155 141.07C294.64 141.585 293.94 141.875 293.211 141.875Z" fill="white"/>
<path d="M273.711 152.375H264.211C263.482 152.375 262.782 152.085 262.266 151.57C261.751 151.054 261.461 150.354 261.461 149.625C261.461 148.896 261.751 148.196 262.266 147.68C262.782 147.165 263.482 146.875 264.211 146.875H273.711C274.44 146.875 275.14 147.165 275.655 147.68C276.171 148.196 276.461 148.896 276.461 149.625C276.461 150.354 276.171 151.054 275.655 151.57C275.14 152.085 274.44 152.375 273.711 152.375Z" fill="white"/>
<path d="M313.211 152.375H303.711C302.982 152.375 302.282 152.085 301.766 151.57C301.251 151.054 300.961 150.354 300.961 149.625C300.961 148.896 301.251 148.196 301.766 147.68C302.282 147.165 302.982 146.875 303.711 146.875H313.211C313.94 146.875 314.64 147.165 315.155 147.68C315.671 148.196 315.961 148.896 315.961 149.625C315.961 150.354 315.671 151.054 315.155 151.57C314.64 152.085 313.94 152.375 313.211 152.375Z" fill="white"/>
<path d="M293.211 152.375H283.711C282.982 152.375 282.282 152.085 281.766 151.57C281.251 151.054 280.961 150.354 280.961 149.625C280.961 148.896 281.251 148.196 281.766 147.68C282.282 147.165 282.982 146.875 283.711 146.875H293.211C293.94 146.875 294.64 147.165 295.155 147.68C295.671 148.196 295.961 148.896 295.961 149.625C295.961 150.354 295.671 151.054 295.155 151.57C294.64 152.085 293.94 152.375 293.211 152.375Z" fill="white"/>
<path d="M273.711 162.875H264.211C263.482 162.875 262.782 162.585 262.266 162.07C261.751 161.554 261.461 160.854 261.461 160.125C261.461 159.396 261.751 158.696 262.266 158.18C262.782 157.665 263.482 157.375 264.211 157.375H273.711C274.44 157.375 275.14 157.665 275.655 158.18C276.171 158.696 276.461 159.396 276.461 160.125C276.461 160.854 276.171 161.554 275.655 162.07C275.14 162.585 274.44 162.875 273.711 162.875Z" fill="white"/>
<path d="M313.211 162.875H303.711C302.982 162.875 302.282 162.585 301.766 162.07C301.251 161.554 300.961 160.854 300.961 160.125C300.961 159.396 301.251 158.696 301.766 158.18C302.282 157.665 302.982 157.375 303.711 157.375H313.211C313.94 157.375 314.64 157.665 315.155 158.18C315.671 158.696 315.961 159.396 315.961 160.125C315.961 160.854 315.671 161.554 315.155 162.07C314.64 162.585 313.94 162.875 313.211 162.875Z" fill="white"/>
<path d="M293.211 162.875H283.711C282.982 162.875 282.282 162.585 281.766 162.07C281.251 161.554 280.961 160.854 280.961 160.125C280.961 159.396 281.251 158.696 281.766 158.18C282.282 157.665 282.982 157.375 283.711 157.375H293.211C293.94 157.375 294.64 157.665 295.155 158.18C295.671 158.696 295.961 159.396 295.961 160.125C295.961 160.854 295.671 161.554 295.155 162.07C294.64 162.585 293.94 162.875 293.211 162.875Z" fill="white"/>
<path d="M209.461 151.875C223.544 151.875 234.961 140.458 234.961 126.375C234.961 112.292 223.544 100.875 209.461 100.875C195.378 100.875 183.961 112.292 183.961 126.375C183.961 140.458 195.378 151.875 209.461 151.875Z" fill="#CACACA"/>
<path d="M209.461 157.623C207.473 157.621 205.566 156.83 204.16 155.424C202.754 154.018 201.963 152.112 201.961 150.123V102.623C201.96 101.638 202.154 100.662 202.53 99.7513C202.907 98.8406 203.459 98.0131 204.155 97.316C204.852 96.619 205.679 96.066 206.589 95.6887C207.5 95.3114 208.475 95.1172 209.461 95.1172C210.446 95.1172 211.422 95.3114 212.332 95.6887C213.243 96.066 214.07 96.619 214.766 97.316C215.463 98.0131 216.015 98.8406 216.392 99.7513C216.768 100.662 216.962 101.638 216.961 102.623V150.123C216.959 152.112 216.168 154.018 214.762 155.424C213.356 156.83 211.449 157.621 209.461 157.623Z" fill="white"/>
<path d="M276.078 107.656H269.078C268.813 107.656 268.559 107.551 268.371 107.363C268.183 107.176 268.078 106.921 268.078 106.656C268.078 106.391 268.183 106.137 268.371 105.949C268.559 105.762 268.813 105.656 269.078 105.656H276.078C276.343 105.656 276.598 105.762 276.785 105.949C276.973 106.137 277.078 106.391 277.078 106.656C277.078 106.921 276.973 107.176 276.785 107.363C276.598 107.551 276.343 107.656 276.078 107.656Z" fill="#E4E4E4"/>
<path d="M287.078 107.906H280.078C279.813 107.906 279.559 107.801 279.371 107.613C279.183 107.426 279.078 107.171 279.078 106.906C279.078 106.641 279.183 106.387 279.371 106.199C279.559 106.012 279.813 105.906 280.078 105.906H287.078C287.343 105.906 287.598 106.012 287.785 106.199C287.973 106.387 288.078 106.641 288.078 106.906C288.078 107.171 287.973 107.426 287.785 107.613C287.598 107.801 287.343 107.906 287.078 107.906Z" fill="#E4E4E4"/>
<path d="M298.078 108.156H291.078C290.813 108.156 290.559 108.051 290.371 107.863C290.183 107.676 290.078 107.421 290.078 107.156C290.078 106.891 290.183 106.637 290.371 106.449C290.559 106.262 290.813 106.156 291.078 106.156H298.078C298.343 106.156 298.598 106.262 298.785 106.449C298.973 106.637 299.078 106.891 299.078 107.156C299.078 107.421 298.973 107.676 298.785 107.863C298.598 108.051 298.343 108.156 298.078 108.156Z" fill="#E4E4E4"/>
<path d="M309.078 108.406H302.078C301.813 108.406 301.559 108.301 301.371 108.113C301.183 107.926 301.078 107.671 301.078 107.406C301.078 107.141 301.183 106.887 301.371 106.699C301.559 106.512 301.813 106.406 302.078 106.406H309.078C309.343 106.406 309.598 106.512 309.785 106.699C309.973 106.887 310.078 107.141 310.078 107.406C310.078 107.671 309.973 107.926 309.785 108.113C309.598 108.301 309.343 108.406 309.078 108.406Z" fill="#E4E4E4"/>
<path d="M136.962 206.126C136.961 207.364 137.207 208.59 137.684 209.733C138.161 210.875 138.861 211.911 139.742 212.781H135.612C134.393 212.781 133.186 212.541 132.06 212.075C130.935 211.609 129.912 210.925 129.05 210.063C128.188 209.202 127.505 208.179 127.038 207.053C126.572 205.927 126.332 204.72 126.332 203.502V53.0608C126.332 51.8422 126.572 50.6355 127.038 49.5097C127.505 48.3838 128.188 47.3608 129.05 46.4992C129.912 45.6375 130.935 44.9539 132.06 44.4876C133.186 44.0213 134.393 43.7812 135.612 43.7813H141.622C140.205 44.6057 139.028 45.7876 138.21 47.209C137.393 48.6304 136.962 50.2414 136.962 51.8813L136.962 206.126Z" fill="#CACACA"/>
<path d="M448.741 237.98H0.59362C0.436025 237.979 0.285043 237.916 0.173767 237.805C0.0624912 237.693 0 237.542 0 237.384C0 237.227 0.0624912 237.076 0.173767 236.964C0.285043 236.852 0.436025 236.79 0.59362 236.789H448.741C448.898 236.789 449.05 236.852 449.162 236.963C449.273 237.075 449.336 237.227 449.336 237.384C449.336 237.542 449.273 237.694 449.162 237.805C449.05 237.917 448.898 237.98 448.741 237.98Z" fill="#CACACA"/>
<path d="M135.963 87.7372C132.803 86.8522 129.632 86.0322 126.448 85.2772C115.563 82.6786 104.527 80.755 93.4035 79.5172C91.5181 79.0207 89.5129 79.2891 87.8244 80.2639C86.136 81.2388 84.901 82.8411 84.3883 84.7222L78.8334 105.222C78.3234 107.112 78.584 109.127 79.558 110.824C80.532 112.522 82.1398 113.764 84.0285 114.277L84.1034 114.292C91.4535 115.127 98.8734 116.287 106.253 117.767C106.913 117.897 107.569 118.032 108.228 118.172C110.593 118.662 112.952 119.186 115.303 119.742C116.333 119.982 117.358 120.232 118.388 120.487C121.158 121.177 123.93 121.912 126.704 122.692C129.788 123.562 132.875 124.491 135.963 125.477C136.298 125.577 136.633 125.682 136.963 125.792V88.0222C136.633 87.9222 136.299 87.8272 135.963 87.7372Z" fill="white"/>
<path d="M135.963 87.7372C132.803 86.8522 129.632 86.0322 126.448 85.2772C115.563 82.6786 104.527 80.755 93.4035 79.5172C91.5181 79.0207 89.5129 79.2891 87.8244 80.2639C86.136 81.2388 84.901 82.8411 84.3883 84.7222L78.8334 105.222C78.3234 107.112 78.584 109.127 79.558 110.824C80.532 112.522 82.1398 113.764 84.0285 114.277L84.1034 114.292C91.4535 115.127 98.8734 116.287 106.253 117.767C106.913 117.897 107.569 118.032 108.228 118.172C110.593 118.662 112.952 119.186 115.303 119.742C116.333 119.982 117.358 120.232 118.388 120.487C121.158 121.177 123.93 121.912 126.704 122.692C129.788 123.562 132.875 124.491 135.963 125.477C136.298 125.577 136.633 125.682 136.963 125.792V124.737C136.628 124.632 136.293 124.527 135.963 124.422C133.123 123.517 130.287 122.665 127.454 121.867C126.393 121.562 125.333 121.267 124.273 120.982C122.363 120.467 120.458 119.974 118.558 119.502C117.548 119.247 116.54 119.002 115.533 118.767C115.458 118.747 115.378 118.732 115.303 118.712C113.588 118.307 111.87 117.92 110.148 117.552C109.488 117.412 108.828 117.272 108.168 117.137C100.208 115.487 92.1883 114.202 84.2533 113.302C82.6303 112.85 81.2515 111.775 80.4172 110.312C79.5828 108.848 79.3604 107.114 79.7984 105.487L85.3534 84.9822C85.7977 83.3507 86.8712 81.9621 88.3382 81.1212C89.8053 80.2804 91.546 80.0559 93.1783 80.4972L93.2533 80.5072C104.235 81.7266 115.132 83.6168 125.883 86.1672C125.993 86.1972 126.103 86.2222 126.213 86.2472C129.473 87.0272 132.723 87.8705 135.963 88.7772C136.293 88.8672 136.628 88.9622 136.963 89.0622V88.0222C136.633 87.9222 136.299 87.8272 135.963 87.7372Z" fill="#3F81FF"/>
<path d="M136.963 88.5457V125.266C136.629 125.156 136.299 125.051 135.963 124.946C133.009 124.001 130.044 123.111 127.069 122.276C124.213 121.466 121.349 120.704 118.474 119.991C117.454 119.741 116.439 119.496 115.419 119.256C115.379 119.076 115.338 118.896 115.304 118.716C115.119 117.856 114.974 116.986 114.864 116.111C114.814 115.776 114.779 115.441 114.744 115.101C114.217 109.744 114.951 104.338 116.885 99.3154C118.819 94.2924 121.901 89.7911 125.884 86.1707C126.029 86.0307 126.179 85.8957 126.329 85.7656C129.559 86.5356 132.77 87.369 135.963 88.2656C136.299 88.3506 136.634 88.4456 136.963 88.5457Z" fill="#3F81FF"/>
<path d="M103.76 103.58L89.8549 101.94C89.3657 101.882 88.87 101.921 88.3959 102.055C87.9219 102.189 87.4788 102.415 87.0921 102.72C86.7053 103.025 86.3824 103.403 86.1419 103.833C85.9013 104.263 85.7477 104.736 85.69 105.225C85.6322 105.714 85.6713 106.21 85.8051 106.684C85.939 107.158 86.1648 107.601 86.4699 107.988C86.7749 108.375 87.1532 108.697 87.583 108.938C88.0128 109.179 88.4858 109.332 88.975 109.39L102.88 111.03C103.866 111.144 104.858 110.862 105.637 110.246C106.416 109.63 106.919 108.73 107.036 107.744C107.152 106.758 106.873 105.765 106.259 104.985C105.645 104.204 104.746 103.699 103.76 103.58ZM106.05 107.63C105.963 108.354 105.592 109.013 105.02 109.464C104.447 109.915 103.719 110.12 102.995 110.035L89.0898 108.395C88.3677 108.307 87.7099 107.937 87.2605 107.365C86.811 106.793 86.6066 106.066 86.6919 105.344C86.7772 104.621 87.1454 103.962 87.7157 103.511C88.2861 103.059 89.0121 102.852 89.7348 102.935L103.64 104.575C104.364 104.663 105.023 105.033 105.475 105.605C105.926 106.178 106.133 106.906 106.05 107.63Z" fill="#3F81FF"/>
<path d="M136.964 97.1447V114.56C136.642 114.752 136.308 114.923 135.964 115.07C134.169 115.871 132.179 116.13 130.239 115.816C128.299 115.501 126.493 114.627 125.044 113.3C124.904 113.175 124.764 113.04 124.629 112.9C124.494 112.765 124.364 112.62 124.239 112.475C122.729 110.741 121.857 108.544 121.766 106.247C121.675 103.95 122.37 101.691 123.738 99.8434C125.105 97.9956 127.062 96.6699 129.285 96.0855C131.508 95.5011 133.864 95.6931 135.964 96.6297C136.306 96.7833 136.64 96.9552 136.964 97.1447Z" fill="white"/>
<path d="M135.964 109.752C132.029 110.572 128.121 111.48 124.239 112.477C122.789 112.847 121.344 113.23 119.904 113.627C118.184 114.102 116.464 114.594 114.744 115.102C112.549 115.752 110.357 116.432 108.169 117.142C107.534 117.352 106.894 117.562 106.254 117.772C100.169 119.802 94.124 122.052 88.1789 124.507C86.287 124.98 84.6586 126.181 83.6481 127.849C82.6377 129.517 82.3271 131.516 82.7839 133.412L87.799 154.052C88.2632 155.953 89.4624 157.592 91.1337 158.61C92.8049 159.628 94.8117 159.942 96.7138 159.482L96.7839 159.457C106.56 155.447 116.566 152.021 126.749 149.197C129.789 148.352 132.861 147.555 135.964 146.807C136.299 146.727 136.629 146.647 136.964 146.572V109.547C136.629 109.607 136.299 109.677 135.964 109.752Z" fill="white"/>
<path d="M135.964 109.752C132.029 110.572 128.121 111.48 124.239 112.477C122.789 112.847 121.344 113.23 119.904 113.627C118.184 114.102 116.464 114.594 114.744 115.102C112.549 115.752 110.357 116.432 108.169 117.142C107.534 117.352 106.894 117.562 106.254 117.772C100.169 119.802 94.124 122.052 88.1789 124.507C86.287 124.98 84.6586 126.181 83.6481 127.849C82.6377 129.517 82.3271 131.516 82.7839 133.412L87.799 154.052C88.2632 155.953 89.4624 157.592 91.1337 158.61C92.8049 159.628 94.8117 159.942 96.7138 159.482L96.7839 159.457C106.56 155.447 116.566 152.021 126.749 149.197C129.789 148.352 132.861 147.555 135.964 146.807C136.299 146.727 136.629 146.647 136.964 146.572V145.542C136.629 145.622 136.299 145.702 135.964 145.782C135.714 145.842 135.459 145.902 135.209 145.962C132.269 146.677 129.361 147.434 126.484 148.232C126.409 148.252 126.329 148.277 126.254 148.297C116.123 151.114 106.167 154.529 96.4389 158.522C94.7985 158.906 93.0725 158.628 91.6363 157.747C90.2 156.866 89.1696 155.453 88.769 153.817L83.759 133.177C83.3614 131.533 83.6318 129.799 84.511 128.355C85.3902 126.91 86.8064 125.874 88.4489 125.472L88.5239 125.447C94.999 122.767 101.589 120.337 108.229 118.177C108.869 117.967 109.509 117.762 110.149 117.557C111.719 117.062 113.291 116.58 114.864 116.112C116.524 115.617 118.182 115.14 119.839 114.682C119.949 114.652 120.059 114.622 120.169 114.592C121.789 114.147 123.414 113.717 125.044 113.302C128.659 112.382 132.299 111.537 135.964 110.767C136.294 110.697 136.629 110.627 136.964 110.562V109.547C136.629 109.607 136.299 109.677 135.964 109.752Z" fill="#3F81FF"/>
<path d="M136.961 110.047V146.052C136.632 146.127 136.297 146.202 135.961 146.282C132.832 147.042 129.715 147.852 126.612 148.712C126.487 148.572 126.367 148.432 126.252 148.292C123.012 144.499 120.631 140.05 119.274 135.251C117.916 130.451 117.613 125.415 118.386 120.487C118.412 120.322 118.442 120.152 118.472 119.987C118.497 119.827 118.527 119.662 118.557 119.502C118.865 117.865 119.293 116.252 119.836 114.677C119.902 114.487 119.967 114.297 120.037 114.107C121.562 113.687 123.091 113.284 124.626 112.897C128.382 111.927 132.16 111.045 135.961 110.252C136.292 110.177 136.627 110.112 136.961 110.047Z" fill="#3F81FF"/>
<path d="M113.726 142.667C113.351 141.746 112.626 141.012 111.711 140.624C110.795 140.237 109.763 140.229 108.841 140.602L95.866 145.862C94.9459 146.237 94.2122 146.962 93.8261 147.877C93.4399 148.793 93.4328 149.824 93.8064 150.745C94.18 151.666 94.9037 152.4 95.8186 152.788C96.7335 153.175 97.7648 153.184 98.6861 152.812L111.661 147.552C112.581 147.176 113.315 146.451 113.702 145.536C114.089 144.62 114.098 143.589 113.726 142.667ZM111.286 146.622L98.3111 151.887C97.635 152.16 96.8781 152.154 96.2066 151.87C95.5351 151.585 95.0039 151.046 94.7296 150.371C94.4553 149.695 94.4605 148.938 94.7438 148.266C95.0272 147.594 95.5657 147.062 96.241 146.787L109.216 141.527C109.892 141.252 110.649 141.258 111.321 141.541C111.993 141.825 112.524 142.364 112.799 143.039C113.073 143.715 113.068 144.472 112.784 145.144C112.501 145.816 111.962 146.347 111.286 146.622Z" fill="#3F81FF"/>
<path d="M136.962 119.247V138.852C136.632 138.936 136.299 139.003 135.962 139.052C133.955 139.333 131.909 139.004 130.091 138.108C128.273 137.211 126.767 135.788 125.768 134.024C124.77 132.26 124.325 130.237 124.491 128.217C124.658 126.197 125.428 124.273 126.702 122.697C126.817 122.552 126.937 122.412 127.067 122.277C127.187 122.137 127.317 122.002 127.452 121.872C128.558 120.778 129.901 119.955 131.377 119.466C132.853 118.977 134.422 118.835 135.962 119.052C136.299 119.097 136.633 119.162 136.962 119.247Z" fill="white"/>
<path d="M135.961 85.135V135.04C136.296 134.93 136.631 134.825 136.961 134.725V85.59C136.626 85.435 136.296 85.285 135.961 85.135ZM135.961 85.135V135.04C136.296 134.93 136.631 134.825 136.961 134.725V85.59C136.626 85.435 136.296 85.285 135.961 85.135ZM135.961 85.135V135.04C136.296 134.93 136.631 134.825 136.961 134.725V85.59C136.626 85.435 136.296 85.285 135.961 85.135ZM135.961 88.78V146.285C136.296 146.205 136.631 146.13 136.961 146.055V89.065C136.626 88.965 136.291 88.87 135.961 88.78ZM135.961 88.78V146.285C136.296 146.205 136.631 146.13 136.961 146.055V89.065C136.626 88.965 136.291 88.87 135.961 88.78ZM135.961 88.78V146.285C136.296 146.205 136.631 146.13 136.961 146.055V89.065C136.626 88.965 136.291 88.87 135.961 88.78ZM135.961 88.78V146.285C136.296 146.205 136.631 146.13 136.961 146.055V89.065C136.626 88.965 136.291 88.87 135.961 88.78ZM135.961 88.78V146.805C136.296 146.725 136.626 146.645 136.961 146.57V89.065C136.626 88.965 136.291 88.87 135.961 88.78ZM354.086 41.5H146.341C143.59 41.5046 140.952 42.5996 139.006 44.5453C137.061 46.4909 135.966 49.1284 135.961 51.88V206.125C135.966 208.876 137.061 211.513 139.007 213.458C140.952 215.403 143.59 216.497 146.341 216.5H354.086C356.837 216.497 359.474 215.403 361.418 213.458C363.363 211.513 364.458 208.876 364.461 206.125V51.88C364.459 49.1286 363.365 46.4905 361.42 44.5445C359.475 42.5986 356.837 41.5036 354.086 41.5ZM363.461 206.125C363.458 208.611 362.47 210.994 360.712 212.751C358.955 214.509 356.572 215.497 354.086 215.5H146.341C143.855 215.498 141.471 214.509 139.713 212.752C137.954 210.994 136.965 208.611 136.961 206.125V51.88C136.965 49.3934 137.954 47.0097 139.712 45.2514C141.471 43.4932 143.854 42.5037 146.341 42.5H354.086C356.572 42.5029 358.956 43.4922 360.714 45.2508C362.471 47.0094 363.459 49.3936 363.461 51.88V206.125ZM135.961 88.78V145.78C136.296 145.7 136.626 145.62 136.961 145.54V89.065C136.626 88.965 136.291 88.87 135.961 88.78ZM135.961 88.78V146.285C136.296 146.205 136.631 146.13 136.961 146.055V89.065C136.626 88.965 136.291 88.87 135.961 88.78ZM135.961 88.78V146.285C136.296 146.205 136.631 146.13 136.961 146.055V89.065C136.626 88.965 136.291 88.87 135.961 88.78ZM135.961 88.78V146.285C136.296 146.205 136.631 146.13 136.961 146.055V89.065C136.626 88.965 136.291 88.87 135.961 88.78ZM135.961 85.135V135.04C136.296 134.93 136.631 134.825 136.961 134.725V85.59C136.626 85.435 136.296 85.285 135.961 85.135ZM135.961 85.135V135.04C136.296 134.93 136.631 134.825 136.961 134.725V85.59C136.626 85.435 136.296 85.285 135.961 85.135Z" fill="#2F2E41"/>
<path d="M91.4241 137.937C91.2281 137.48 90.9343 137.071 90.5633 136.74C90.1924 136.409 89.7533 136.163 89.2771 136.02C88.8008 135.877 88.299 135.84 87.8069 135.912C87.3148 135.983 86.8445 136.162 86.4289 136.435L76.8436 129.07L76.3906 135.336L85.5625 141.369C86.0678 142.037 86.8004 142.496 87.6215 142.659C88.4426 142.823 89.2952 142.68 90.0177 142.257C90.7402 141.834 91.2825 141.16 91.5417 140.364C91.8009 139.568 91.759 138.704 91.4241 137.937Z" fill="#FFB6B6"/>
<path d="M52.7988 93.4906L49.6447 92C49.6447 92 44.5634 93.4293 47.032 100.148L61.9716 127.98L80.2111 138.659L85.8971 133.62L67.6446 119.178L52.7988 93.4906Z" fill="#3F3D56"/>
</svg>
