<svg width="176" height="130" viewBox="0 0 176 130" fill="none" xmlns="http://www.w3.org/2000/svg">
<path d="M90.3198 123.737C95.6119 123.737 99.9021 119.447 99.9021 114.155C99.9021 108.862 95.6119 104.572 90.3198 104.572C85.0276 104.572 80.7374 108.862 80.7374 114.155C80.7374 119.447 85.0276 123.737 90.3198 123.737Z" fill="#3F81FF"/>
<path d="M86.1522 86.2412C88.9133 86.2412 91.1517 84.0028 91.1517 81.2417C91.1517 78.4805 88.9133 76.2422 86.1522 76.2422C83.3911 76.2422 81.1527 78.4805 81.1527 81.2417C81.1527 84.0028 83.3911 86.2412 86.1522 86.2412Z" fill="#F2F2F2"/>
<path d="M121.982 96.6572C124.743 96.6572 126.982 94.4188 126.982 91.6577C126.982 88.8965 124.743 86.6582 121.982 86.6582C119.221 86.6582 116.983 88.8965 116.983 91.6577C116.983 94.4188 119.221 96.6572 121.982 96.6572Z" fill="#F2F2F2"/>
<path d="M147.562 123.199C152.923 121.589 158.622 119.911 162.873 116.083C166.673 112.663 169.237 107.441 167.663 102.311C166.093 97.1928 161.388 93.7798 156.531 92.0822C153.776 91.1194 150.894 90.5853 148.013 90.1657C144.881 89.7095 141.735 89.3358 138.591 88.9762C125.859 87.52 113.08 86.6305 100.252 86.3075C93.9228 86.1481 87.5945 86.1519 81.2641 86.2438C75.6107 86.3259 69.6565 86.3239 64.4119 83.9211C60.3335 82.0525 56.6319 78.6531 55.4955 74.1859C54.1837 69.0292 56.6033 63.7779 60.0741 60.0432C61.9037 58.0746 64.0419 56.4178 66.2477 54.8943C68.6407 53.2415 71.1171 51.7058 73.6471 50.2722C78.6302 47.4502 83.8398 45.0485 89.2219 43.092C91.877 42.1266 94.5714 41.2937 97.2893 40.5253C99.5843 39.8765 101.886 39.2268 104.104 38.3427C108.392 36.6338 112.47 33.7391 113.561 28.9934C114.594 24.4957 112.852 19.613 109.798 16.2717C106.264 12.4061 100.936 10.7115 95.8281 10.4373C90.0936 10.1295 84.4913 11.5647 79.1013 13.3861C73.3526 15.3288 67.7278 17.5626 61.8577 19.1362C56.0365 20.6951 50.1028 21.7981 44.1104 22.4351C43.6043 22.489 43.6084 21.8687 43.9823 21.8296C48.5363 21.3534 53.0585 20.5983 57.5231 19.5679C63.4793 18.2075 69.2227 16.2628 74.9596 14.1853C80.4082 12.2123 85.9786 10.2866 91.7995 9.85927C96.8503 9.48846 102.163 10.2243 106.564 12.8638C110.431 15.1835 113.274 19.0521 114.18 23.4915C115.066 27.8295 113.839 32.1958 110.556 35.223C107.156 38.3573 102.494 39.6973 98.1493 40.9315C92.639 42.4968 87.2469 44.3266 82.0276 46.7024C76.7372 49.1037 71.6634 51.9562 66.8625 55.2282C62.2283 58.395 57.6549 62.3796 56.1893 68.0292C55.5066 70.6608 55.6326 73.452 56.775 75.9377C57.7907 78.1478 59.4636 80.007 61.4123 81.441C66.062 84.8624 71.9222 85.5648 77.5386 85.6347C83.8466 85.7132 90.1548 85.5003 96.4648 85.6039C109.324 85.8149 122.158 86.5977 134.965 87.9521C138.174 88.2918 141.379 88.6672 144.58 89.0785C147.459 89.4484 150.348 89.816 153.179 90.4731C158.212 91.6413 163.11 93.8876 166.238 98.1552C167.627 100.005 168.487 102.197 168.727 104.497C168.946 106.898 168.358 109.303 167.273 111.439C164.871 116.165 160.371 119.172 155.592 121.147C153.033 122.205 150.378 123.006 147.728 123.802C147.342 123.918 147.177 123.315 147.562 123.199Z" fill="#F2F2F2"/>
<path d="M47.9226 19.538C50.6837 19.538 52.9221 17.2997 52.9221 14.5385C52.9221 11.7774 50.6837 9.53906 47.9226 9.53906C45.1614 9.53906 42.9231 11.7774 42.9231 14.5385C42.9231 17.2997 45.1614 19.538 47.9226 19.538Z" fill="#F2F2F2"/>
<path d="M90.7363 9.99897C93.4974 9.99897 95.7358 7.76062 95.7358 4.99948C95.7358 2.23834 93.4974 0 90.7363 0C87.9752 0 85.7368 2.23834 85.7368 4.99948C85.7368 7.76062 87.9752 9.99897 90.7363 9.99897Z" fill="#F2F2F2"/>
<path d="M84.2769 55.829C87.0381 55.829 89.2764 53.5907 89.2764 50.8296C89.2764 48.0684 87.0381 45.8301 84.2769 45.8301C81.5158 45.8301 79.2775 48.0684 79.2775 50.8296C79.2775 53.5907 81.5158 55.829 84.2769 55.829Z" fill="#F2F2F2"/>
<path d="M66.9996 89.1689C69.7607 89.1689 71.9991 86.9305 71.9991 84.1694C71.9991 81.4083 69.7607 79.1699 66.9996 79.1699C64.2385 79.1699 62.0001 81.4083 62.0001 84.1694C62.0001 86.9305 64.2385 89.1689 66.9996 89.1689Z" fill="#F2F2F2"/>
<path d="M164.292 93.9365C167.053 93.9365 169.291 91.6981 169.291 88.937C169.291 86.1758 167.053 83.9375 164.292 83.9375C161.53 83.9375 159.292 86.1758 159.292 88.937C159.292 91.6981 161.53 93.9365 164.292 93.9365Z" fill="#F2F2F2"/>
<path d="M89.2935 14.1648C74.3176 14.2706 62.0555 26.4406 61.8427 41.4154C61.8408 41.5536 61.8399 42.5258 61.84 43.7973C61.8401 45.6615 62.5807 47.4494 63.8989 48.7677C65.2171 50.086 67.0049 50.8267 68.8692 50.8269C69.7934 50.8267 70.7084 50.6444 71.5621 50.2905C72.4158 49.9365 73.1913 49.4178 73.8445 48.7639C74.4976 48.1101 75.0155 47.334 75.3685 46.4799C75.7216 45.6259 75.9029 44.7106 75.9021 43.7865C75.9014 42.9215 75.9009 42.3229 75.9009 42.2862C75.9005 39.9718 76.5024 37.6972 77.6477 35.6861C78.7929 33.675 80.4419 31.9966 82.4326 30.8161C84.4232 29.6357 86.6868 28.9937 89.0008 28.9534C91.3148 28.9131 93.5994 29.4758 95.6299 30.5863C97.6605 31.6968 99.3669 33.3167 100.582 35.2867C101.796 37.2567 102.477 39.509 102.557 41.8219C102.637 44.1349 102.114 46.4288 101.038 48.4782C99.963 50.5275 98.3727 52.2616 96.4239 53.5099L96.4263 53.5128C96.4263 53.5128 86.4214 59.9537 83.3712 68.7895L83.3738 68.7901C82.8375 70.6002 82.5657 72.4783 82.5669 74.3662C82.5669 75.1422 82.6126 81.9324 82.7008 87.4435C82.7316 89.3451 83.5088 91.1583 84.8646 92.492C86.2204 93.8257 88.0461 94.5729 89.948 94.5724C90.9036 94.5724 91.8498 94.3834 92.7321 94.0163C93.6143 93.6492 94.4153 93.1113 95.089 92.4335C95.7626 91.7557 96.2955 90.9513 96.6571 90.0668C97.0187 89.1822 97.2018 88.2349 97.1959 87.2793C97.1653 82.2321 97.1487 76.3551 97.1487 75.9285C97.1487 70.5031 102.383 65.0974 106.682 61.5722C111.633 57.5128 115.195 51.9809 116.626 45.7407C116.943 44.456 117.117 43.1403 117.147 41.8175C117.147 38.1692 116.425 34.5569 115.023 31.1888C113.62 27.8208 111.565 24.7635 108.976 22.1931C106.387 19.6226 103.315 17.59 99.9372 16.2121C96.5591 14.8342 92.9417 14.1384 89.2935 14.1648Z" fill="#3F81FF"/>
<path d="M159.653 124.331H0.679766C0.620277 124.33 0.563285 124.287 0.521281 124.209C0.479277 124.132 0.455688 124.027 0.455688 123.917C0.455688 123.808 0.479277 123.703 0.521281 123.625C0.563285 123.548 0.620277 123.504 0.679766 123.504H159.653C159.712 123.504 159.77 123.547 159.812 123.625C159.854 123.702 159.877 123.808 159.877 123.917C159.877 124.027 159.854 124.132 159.812 124.21C159.77 124.287 159.712 124.331 159.653 124.331Z" fill="#C2C0D0"/>
<path d="M131.369 56.8678C134.821 56.8678 137.619 54.0699 137.619 50.6185C137.619 47.1671 134.821 44.3691 131.369 44.3691C127.918 44.3691 125.12 47.1671 125.12 50.6185C125.12 54.0699 127.918 56.8678 131.369 56.8678Z" fill="#2F2E41"/>
<path d="M119.821 121.265H117.267L116.052 111.414H119.821L119.821 121.265Z" fill="#FFB8B8"/>
<path d="M115.444 120.535H120.369V123.636H112.343C112.343 123.229 112.423 122.826 112.579 122.45C112.735 122.073 112.963 121.731 113.251 121.443C113.539 121.155 113.881 120.927 114.257 120.771C114.633 120.615 115.037 120.535 115.444 120.535Z" fill="#2F2E41"/>
<path d="M139.611 121.265H137.057L135.842 111.414H139.612L139.611 121.265Z" fill="#FFB8B8"/>
<path d="M135.234 120.535H140.16V123.636H132.133C132.133 123.229 132.213 122.826 132.369 122.45C132.525 122.073 132.754 121.731 133.041 121.443C133.329 121.155 133.671 120.927 134.048 120.771C134.424 120.615 134.827 120.535 135.234 120.535Z" fill="#2F2E41"/>
<path d="M130.42 56.9046C133.245 56.9046 135.536 54.6139 135.536 51.7882C135.536 48.9625 133.245 46.6719 130.42 46.6719C127.594 46.6719 125.303 48.9625 125.303 51.7882C125.303 54.6139 127.594 56.9046 130.42 56.9046Z" fill="#FFB8B8"/>
<path d="M133.469 73.4111L135.759 68.1512C136.315 66.9173 136.474 65.5413 136.215 64.213C135.955 62.8846 135.29 61.6695 134.311 60.7354C134.11 60.5365 133.896 60.3507 133.671 60.1792C132.542 59.2955 131.15 58.8139 129.716 58.8105C128.751 58.8143 127.799 59.026 126.924 59.4313C126.849 59.4646 126.776 59.5001 126.701 59.5355C126.558 59.6042 126.416 59.6792 126.278 59.7563C125.382 60.2712 124.618 60.9897 124.05 61.8538C123.482 62.7178 123.125 63.7033 123.008 64.7308L121.998 73.1966C121.743 73.8611 112.678 97.8586 115.848 116.18C115.882 116.375 115.977 116.555 116.121 116.693C116.264 116.83 116.447 116.918 116.644 116.944L119.858 117.382C120.093 117.414 120.331 117.356 120.525 117.219C120.718 117.083 120.853 116.878 120.902 116.646L126.295 90.9385C126.329 90.7787 126.415 90.6349 126.54 90.5299C126.665 90.4249 126.821 90.3649 126.985 90.3594C127.148 90.3538 127.308 90.4032 127.44 90.4995C127.572 90.5958 127.667 90.7335 127.712 90.8906L135.332 117.925C135.386 118.122 135.503 118.295 135.665 118.418C135.828 118.542 136.026 118.609 136.229 118.609C136.29 118.608 136.351 118.603 136.411 118.592L140.337 117.836C140.566 117.793 140.77 117.667 140.91 117.481C141.05 117.296 141.115 117.065 141.094 116.834C140.517 110.399 137.45 78.1669 133.469 73.4111Z" fill="#2F2E41"/>
<path d="M110.534 56.0454C110.498 56.3495 110.53 56.6578 110.627 56.9484C110.723 57.2391 110.882 57.505 111.093 57.7275C111.303 57.95 111.56 58.1237 111.844 58.2363C112.129 58.3489 112.435 58.3976 112.741 58.3792L115.601 65.2519L117.764 62.045L114.717 56.0103C114.652 55.4988 114.401 55.029 114.013 54.6898C113.624 54.3506 113.125 54.1657 112.61 54.17C112.094 54.1743 111.598 54.3676 111.215 54.7133C110.833 55.0589 110.59 55.5329 110.534 56.0454Z" fill="#A0616A"/>
<path d="M130.133 80.3314C130.437 80.2951 130.729 80.1925 130.989 80.031C131.249 79.8694 131.471 79.6527 131.638 79.3963C131.806 79.1398 131.915 78.8498 131.958 78.5466C132.001 78.2434 131.977 77.9344 131.888 77.6415L137.905 73.2589L134.283 71.9023L129.124 76.2721C128.642 76.4545 128.243 76.8075 128.004 77.2642C127.764 77.7208 127.701 78.2494 127.825 78.7498C127.95 79.2502 128.253 79.6875 128.678 79.9791C129.104 80.2706 129.621 80.3959 130.133 80.3314Z" fill="#FFB8B8"/>
<path d="M120.326 69.8351C120.096 69.8349 119.865 69.8122 119.639 69.7674C119.092 69.6632 118.579 69.426 118.145 69.0767C117.711 68.7273 117.369 68.2766 117.15 67.7642L113.144 62.8786C113.059 62.7753 112.997 62.6552 112.963 62.5261C112.928 62.397 112.922 62.2621 112.944 62.1303C112.966 61.9986 113.015 61.873 113.09 61.762C113.164 61.6511 113.261 61.5573 113.375 61.487L116.226 59.7224C116.331 59.6573 116.448 59.6136 116.57 59.5939C116.692 59.5743 116.817 59.579 116.938 59.6079C117.058 59.6367 117.172 59.6891 117.272 59.7621C117.372 59.835 117.456 59.9271 117.52 60.0329L120.344 64.6853L125.752 60.6885C126.183 60.4627 126.68 60.3994 127.154 60.5101C127.627 60.6208 128.045 60.8982 128.331 61.2915C128.617 61.6848 128.752 62.1678 128.711 62.6522C128.67 63.1367 128.456 63.5903 128.108 63.9302L122.711 68.854C122.076 69.4827 121.219 69.8354 120.326 69.8351Z" fill="#2F2E41"/>
<path d="M134.937 77.1845C134.93 77.1845 134.923 77.1845 134.915 77.1843C134.784 77.1811 134.654 77.1503 134.536 77.0939C134.417 77.0376 134.311 76.9569 134.226 76.8571L131.691 73.9005C131.605 73.7998 131.541 73.6819 131.503 73.5547C131.466 73.4274 131.456 73.2937 131.474 73.1623C131.492 73.031 131.538 72.9049 131.609 72.7925C131.679 72.6802 131.773 72.584 131.883 72.5105L136.629 69.3467L132.329 64.178C132.079 63.7611 131.987 63.2681 132.071 62.7891C132.154 62.3101 132.407 61.8771 132.783 61.5692C133.16 61.2613 133.634 61.099 134.12 61.1121C134.606 61.1251 135.071 61.3126 135.431 61.6402L140.656 66.7465C141.067 67.1222 141.381 67.592 141.571 68.1158C141.76 68.6395 141.82 69.2014 141.745 69.7533C141.669 70.3052 141.461 70.8306 141.138 71.2843C140.815 71.7381 140.387 72.1067 139.89 72.3585L135.619 76.8901C135.532 76.983 135.426 77.057 135.309 77.1076C135.191 77.1582 135.065 77.1844 134.937 77.1845Z" fill="#2F2E41"/>
<path d="M129.12 66.286C129.079 66.286 129.038 66.2834 128.998 66.2782C128.821 66.2568 128.655 66.1851 128.518 66.0718C128.381 65.9585 128.279 65.8083 128.225 65.639L126.321 59.8001C126.273 59.6525 126.28 59.4926 126.341 59.35C126.402 59.2074 126.513 59.0916 126.653 59.0242L126.714 58.9951C126.77 58.9684 126.826 58.9421 126.883 58.9168C127.771 58.505 128.737 58.2902 129.716 58.2871C130.987 58.2895 132.23 58.6628 133.291 59.3613C133.433 59.456 133.533 59.6029 133.568 59.7702C133.603 59.9375 133.571 60.1119 133.479 60.2559L129.906 65.8528C129.823 65.9857 129.706 66.0951 129.569 66.1709C129.431 66.2466 129.277 66.2862 129.12 66.286Z" fill="#E6E6E6"/>
<path d="M136.299 47.8281C137.428 47.8281 138.344 46.9126 138.344 45.7832C138.344 44.6538 137.428 43.7383 136.299 43.7383C135.169 43.7383 134.254 44.6538 134.254 45.7832C134.254 46.9126 135.169 47.8281 136.299 47.8281Z" fill="#2F2E41"/>
<path d="M129.287 43.5352C127.851 43.5352 126.473 44.1058 125.457 45.1215C124.442 46.1372 123.871 47.5148 123.871 48.9513V51.2427H126.689L128.037 48.9513L128.442 51.2427H136.995L134.703 48.9513C134.703 47.5148 134.133 46.1372 133.117 45.1215C132.101 44.1058 130.724 43.5352 129.287 43.5352Z" fill="#2F2E41"/>
<path d="M137.347 44.384C137.573 43.6769 138.041 43.0722 138.669 42.6761C139.297 42.28 140.045 42.118 140.78 42.2185C142.084 42.4364 143.114 43.4839 143.728 44.6539C144.342 45.8239 144.625 47.1333 145.038 48.3885C145.451 49.6437 146.036 50.9057 147.078 51.7182C148.12 52.5306 149.719 52.751 150.742 51.9152C150.625 52.7863 150.237 53.5986 149.634 54.2372C149.03 54.8758 148.24 55.3083 147.377 55.4737C146.514 55.6391 145.621 55.529 144.824 55.1588C144.026 54.7887 143.366 54.1773 142.935 53.4112C142.395 52.4505 142.256 51.3245 142.096 50.2342C141.936 49.1439 141.728 48.0157 141.083 47.1219C140.438 46.2281 139.231 45.6444 138.207 46.0515L137.347 44.384Z" fill="#2F2E41"/>
<path d="M70.8553 47.5026C68.9911 47.5024 67.2032 46.7617 65.885 45.4434C64.5668 44.1251 63.8262 42.3372 63.826 40.4729C63.8259 39.2014 63.8269 38.2293 63.8288 38.091C63.888 33.7359 64.9848 29.4577 67.0282 25.6113C63.671 30.2073 61.825 35.733 61.7457 41.424C61.7437 41.5623 61.7428 42.5344 61.7429 43.8059C61.743 45.6702 62.4836 47.4581 63.8019 48.7764C65.1201 50.0947 66.9079 50.8354 68.7722 50.8356C70.3042 50.835 71.794 50.3344 73.0155 49.4099C74.237 48.4853 75.1233 47.1873 75.5398 45.7131C74.2527 46.8673 72.5842 47.5047 70.8553 47.5026Z" fill="#3F3D56"/>
<path d="M89.7703 28.9792C91.9255 29.0821 94.0236 29.7066 95.8843 30.799C97.745 31.8914 99.3128 33.419 100.453 35.2508C101.593 37.0826 102.272 39.1637 102.431 41.3156C102.59 43.4674 102.224 45.6256 101.365 47.605C102.607 46.1457 103.521 44.4356 104.042 42.5913C104.564 40.7471 104.682 38.812 104.388 36.918C104.094 35.024 103.395 33.2157 102.339 31.6163C101.283 30.0169 99.8946 28.664 98.2682 27.6499C96.6419 26.6358 94.816 25.9842 92.915 25.7398C91.014 25.4953 89.0827 25.6636 87.2526 26.2332C85.4226 26.8028 83.7368 27.7603 82.3104 29.0404C80.8839 30.3205 79.7503 31.8932 78.9867 33.6511C80.3064 32.0987 81.965 30.87 83.8347 30.06C85.7044 29.25 87.7351 28.8802 89.7703 28.9792Z" fill="#3F3D56"/>
<path d="M91.9314 91.249C90.0296 91.2494 88.2039 90.5022 86.8481 89.1685C85.4923 87.8348 84.7151 86.0216 84.6843 84.1201C84.5961 78.6089 84.5504 71.8188 84.5504 71.0428C84.5492 69.1549 84.821 67.2768 85.3573 65.4667L85.3548 65.4661C85.6715 64.5575 86.054 63.6733 86.4993 62.8203C85.1324 64.6418 84.0446 66.6569 83.2716 68.799L83.2742 68.7997C82.7378 70.6097 82.4661 72.4879 82.4673 74.3757C82.4673 75.1518 82.513 81.9419 82.6011 87.4531C82.632 89.3546 83.4092 91.1678 84.765 92.5015C86.1208 93.8352 87.9465 94.5824 89.8483 94.582C91.4164 94.5817 92.9421 94.073 94.1966 93.1323C95.4511 92.1915 96.3668 90.8693 96.8063 89.3641C95.4738 90.5791 93.7348 91.2515 91.9314 91.249Z" fill="#3F3D56"/>
<path d="M26.8167 121.363L29.3704 121.362L30.5854 111.512L26.816 111.512L26.8167 121.363Z" fill="#FFB8B8"/>
<path d="M34.2927 123.73L26.2663 123.731L26.2662 120.63L31.1915 120.629C32.0139 120.629 32.8027 120.956 33.3843 121.538C33.9659 122.119 34.2927 122.908 34.2927 123.73Z" fill="#2F2E41"/>
<path d="M17.6516 121.363L20.2053 121.362L21.4204 111.512L17.651 111.512L17.6516 121.363Z" fill="#FFB8B8"/>
<path d="M25.1312 123.73L17.1048 123.731L17.1047 120.63L22.03 120.629C22.8524 120.629 23.6412 120.956 24.2228 121.538C24.8044 122.119 25.1312 122.908 25.1312 123.73Z" fill="#2F2E41"/>
<path d="M19.8811 118.329L17.3865 118.197C17.2579 118.191 17.1319 118.158 17.0158 118.103C16.8997 118.047 16.7959 117.968 16.7103 117.872C16.6247 117.776 16.559 117.664 16.5171 117.542C16.4752 117.42 16.4579 117.291 16.4661 117.163L19.4476 84.1523L33.1777 87.8573L34.5005 87.4964L30.3638 116.719C30.3285 116.939 30.2194 117.14 30.0543 117.29C29.8892 117.439 29.6781 117.528 29.4559 117.541L26.7668 117.666C26.6324 117.674 26.4978 117.653 26.3717 117.606C26.2456 117.559 26.1306 117.486 26.034 117.392C25.9375 117.298 25.8615 117.185 25.8108 117.061C25.7601 116.936 25.7358 116.802 25.7395 116.667L26.2268 99.1283C26.2291 99.0472 26.2009 98.9682 26.1478 98.9068C26.0947 98.8455 26.0206 98.8062 25.94 98.7968C25.8594 98.7874 25.7782 98.8085 25.7124 98.856C25.6466 98.9035 25.601 98.9739 25.5845 99.0533L20.8856 117.554C20.8413 117.773 20.7222 117.971 20.5486 118.112C20.3751 118.254 20.1578 118.331 19.9338 118.33C19.9164 118.33 19.8988 118.33 19.8811 118.329Z" fill="#2F2E41"/>
<path d="M27.2757 57.1448C30.1013 57.1448 32.392 54.8541 32.392 52.0285C32.392 49.2028 30.1013 46.9121 27.2757 46.9121C24.45 46.9121 22.1593 49.2028 22.1593 52.0285C22.1593 54.8541 24.45 57.1448 27.2757 57.1448Z" fill="#FFB8B8"/>
<path d="M18.7535 67.0612L19.316 79.199L19.5194 83.6149C19.5275 83.8071 19.5928 83.9926 19.7069 84.1475C19.8209 84.3025 19.9786 84.4199 20.1598 84.4847L33.3534 89.2641C33.46 89.3037 33.573 89.3235 33.6867 89.3225C33.8166 89.3231 33.9454 89.2975 34.0652 89.2473C34.1851 89.1971 34.2936 89.1232 34.3843 89.0301C34.4749 88.937 34.5459 88.8266 34.593 88.7055C34.64 88.5843 34.6622 88.4549 34.6582 88.325L34.1173 66.5008C34.0817 64.7103 33.4226 62.9882 32.2535 61.6315C31.0844 60.2748 29.4786 59.3685 27.713 59.0688C27.5854 59.0494 27.4555 59.0299 27.3257 59.0126C26.2308 58.8767 25.1195 58.9823 24.0698 59.3221C23.0202 59.6619 22.0578 60.2276 21.2503 60.9793C20.4141 61.7484 19.7571 62.6917 19.3256 63.7426C18.8942 64.7936 18.6989 65.9264 18.7535 67.0612Z" fill="#2F2E41"/>
<path d="M39.6571 86.8407C39.345 86.7438 39.0599 86.5754 38.8245 86.3488C38.5891 86.1222 38.41 85.8437 38.3013 85.5356C38.1927 85.2275 38.1575 84.8982 38.1988 84.5741C38.24 84.2499 38.3564 83.94 38.5387 83.6688L34.0646 77.7194L37.9255 77.4805L41.5823 83.1667C41.9737 83.4694 42.2462 83.9003 42.3517 84.3837C42.4573 84.8672 42.3893 85.3723 42.1596 85.8106C41.9299 86.2489 41.5532 86.5924 41.0956 86.7807C40.638 86.9691 40.1287 86.9903 39.6571 86.8407Z" fill="#FFB8B8"/>
<path d="M36.5137 82.5915C36.3952 82.5434 36.2873 82.4723 36.1965 82.3822C36.1056 82.2922 36.0335 82.185 35.9844 82.0669L29.2437 66.0072C29.1115 65.6928 29.0425 65.3554 29.0407 65.0143C29.0389 64.6731 29.1043 64.335 29.2333 64.0192C29.3622 63.7034 29.5521 63.4161 29.7921 63.1737C30.0322 62.9313 30.3176 62.7386 30.6321 62.6066C30.9467 62.4746 31.2841 62.4059 31.6253 62.4043C31.9664 62.4028 32.3044 62.4685 32.6202 62.5977C32.9359 62.7269 33.223 62.917 33.4652 63.1572C33.7074 63.3974 33.8999 63.683 34.0317 63.9977L40.7723 80.0575C40.8719 80.2956 40.873 80.5635 40.7753 80.8025C40.6777 81.0414 40.4893 81.2318 40.2514 81.332L37.2589 82.5879C37.1411 82.6378 37.0146 82.6638 36.8866 82.6644C36.7587 82.665 36.632 82.6402 36.5137 82.5915Z" fill="#2F2E41"/>
<path d="M25.6268 82.0251L32.1009 69.6287C32.2258 69.3903 32.4401 69.2112 32.6969 69.1306C32.9536 69.05 33.2319 69.0746 33.4706 69.1989L42.8678 74.1067C43.1062 74.2316 43.2854 74.4459 43.366 74.7027C43.4465 74.9595 43.422 75.2377 43.2977 75.4764L36.8235 87.8728C36.6986 88.1112 36.4843 88.2903 36.2275 88.3709C35.9708 88.4515 35.6925 88.4269 35.4538 88.3026L26.0566 83.3948C25.8182 83.2699 25.6391 83.0556 25.5585 82.7988C25.4779 82.5421 25.5024 82.2638 25.6268 82.0251Z" fill="#3F81FF"/>
<path d="M29.9688 76.3605C29.8537 76.0548 29.6688 75.7801 29.4287 75.5585C29.1886 75.3369 28.9 75.1745 28.586 75.0842C28.272 74.994 27.9412 74.9784 27.6201 75.0386C27.2989 75.0989 26.9964 75.2334 26.7365 75.4314L20.5333 71.3164L20.5227 75.1847L26.415 78.4993C26.7402 78.8722 27.1864 79.1187 27.6753 79.1956C28.1641 79.2724 28.6644 79.1747 29.0884 78.9195C29.5123 78.6644 29.833 78.2681 29.9939 77.8001C30.1549 77.3322 30.146 76.8226 29.9688 76.3605Z" fill="#FFB8B8"/>
<path d="M22.1271 77.23L17.0575 73.2142C16.509 73.03 16.0135 72.7156 15.6133 72.2977C15.2132 71.8799 14.9204 71.3712 14.7602 70.8153C14.5999 70.2594 14.5769 69.673 14.6932 69.1062C14.8095 68.5395 15.0616 68.0095 15.4278 67.5616L20.0309 61.529C20.3507 61.1381 20.8006 60.8754 21.2982 60.7889C21.7959 60.7024 22.308 60.7978 22.741 61.0578C23.1741 61.3178 23.4991 61.725 23.6566 62.2048C23.8142 62.6847 23.7938 63.2053 23.5992 63.6714L19.9571 69.6291L25.3094 72.1678C25.4339 72.2268 25.5444 72.3115 25.6337 72.4165C25.723 72.5214 25.789 72.644 25.8273 72.7763C25.8657 72.9086 25.8755 73.0476 25.8562 73.1839C25.8369 73.3203 25.7888 73.4511 25.7153 73.5675L23.5547 76.9868C23.4817 77.1022 23.3852 77.2009 23.2716 77.2767C23.1579 77.3525 23.0297 77.4035 22.895 77.4265C22.8897 77.4275 22.8843 77.4283 22.8789 77.4291C22.7467 77.4491 22.6117 77.4417 22.4824 77.4075C22.3531 77.3732 22.2322 77.3128 22.1271 77.23Z" fill="#2F2E41"/>
<path d="M23.4085 55.453C23.3865 55.3888 23.3796 55.3204 23.3881 55.2531C23.3967 55.1858 23.4205 55.1213 23.4579 55.0646C23.4952 55.0079 23.545 54.9605 23.6035 54.9261C23.6619 54.8916 23.7275 54.871 23.7952 54.8658C23.9337 54.8733 24.0694 54.9089 24.1938 54.9703C24.3183 55.0317 24.429 55.1177 24.5193 55.223C24.7044 55.4365 24.92 55.6216 25.159 55.7724C25.4065 55.8971 25.7422 55.8794 25.8833 55.6415C26.0158 55.4182 25.925 55.1191 25.8448 54.8596C25.6407 54.1995 25.5265 53.515 25.5053 52.8244C25.4822 52.0536 25.5909 51.2492 26.0177 50.6479C26.5684 49.872 27.5532 49.5775 28.4852 49.5988C29.4172 49.6202 30.3341 49.9079 31.2572 50.0898C31.5759 50.1525 31.9506 50.1846 32.1637 49.9376C32.3904 49.675 32.3071 49.2499 32.2107 48.8953C31.9606 47.9751 31.6952 47.0237 31.1139 46.2805C30.4854 45.5083 29.5877 45.0029 28.6015 44.866C27.6547 44.7488 26.6936 44.8579 25.7971 45.1844C24.3366 45.6447 23.0515 46.54 22.1136 47.7505C21.1467 49.0378 20.729 50.6556 20.9516 52.2501C21.1691 53.6388 21.905 54.8935 23.0109 55.7611L23.4085 55.453Z" fill="#2F2E41"/>
<path d="M88.2076 121.398C86.8464 120.805 85.6416 119.904 84.6882 118.766C83.7349 117.627 83.0592 116.283 82.7143 114.839C82.3695 113.395 82.365 111.89 82.7012 110.444C83.0374 108.998 83.7051 107.65 84.6517 106.506C83.5542 107.307 82.6398 108.333 81.969 109.514C81.2982 110.696 80.8865 112.007 80.761 113.36C80.6356 114.713 80.7993 116.077 81.2414 117.362C81.6835 118.647 82.3938 119.823 83.3252 120.812C84.2566 121.802 85.3877 122.582 86.6436 123.1C87.8994 123.619 89.2513 123.865 90.6094 123.821C91.9675 123.778 93.3007 123.446 94.5207 122.847C95.7407 122.249 96.8195 121.398 97.6855 120.351C96.3348 121.338 94.749 121.954 93.0861 122.138C91.4232 122.322 89.7412 122.067 88.2076 121.398Z" fill="#3F3D56"/>
</svg>
