<svg width="56" height="56" viewBox="0 0 56 56" fill="none" xmlns="http://www.w3.org/2000/svg">
<rect x="0.5" y="0.5" width="55" height="55" rx="13.5" fill="white" stroke="#E9E9E9"/>
<g clip-path="url(#clip0_306_264607)">
<path d="M49 27.997C49 29.9526 47.4162 31.5364 45.4606 31.5364H33.25L28 20.9183L33.6656 11.1051C34.6456 9.412 36.8069 8.8345 38.5 9.81012C40.1931 10.7901 40.7706 12.9514 39.795 14.6445L34.1294 24.4576H45.4606C47.4162 24.4576 49 26.0414 49 27.997Z" fill="#1A73E8"/>
<path d="M38.4997 46.1841C36.8065 47.1597 34.6453 46.5822 33.6653 44.8891L27.9997 35.0759L22.334 44.8891C21.354 46.5822 19.1928 47.1597 17.4997 46.1841C15.8065 45.2041 15.229 43.0428 16.2047 41.3497L21.8703 31.5366L27.9997 31.3047L34.129 31.5366L39.7947 41.3497C40.7703 43.0428 40.1928 45.2041 38.4997 46.1841Z" fill="#EA4335"/>
<path d="M27.9997 20.9183L26.4028 25.2582L21.8703 24.4576L16.2047 14.6445C15.229 12.9514 15.8065 10.7901 17.4997 9.81012C19.1928 8.8345 21.354 9.412 22.334 11.1051L27.9997 20.9183Z" fill="#FBBC04"/>
<path d="M27.0856 24.4609L22.9775 31.5397H10.5394C8.58375 31.5397 7 29.9559 7 28.0003C7 26.0447 8.58375 24.4609 10.5394 24.4609H27.0856Z" fill="#34A853"/>
<path d="M34.1289 31.54H21.8701L27.9995 20.9219L34.1289 31.54Z" fill="#185DB7"/>
</g>
<defs>
<clipPath id="clip0_306_264607">
<rect width="42" height="38" fill="white" transform="translate(7 9)"/>
</clipPath>
</defs>
</svg>
