<svg width="22" height="22" viewBox="0 0 22 22" fill="none" xmlns="http://www.w3.org/2000/svg">
<path d="M21.5 11.2703H19.0252C19.0252 6.43337 15.4032 2.63263 10.7509 2.80652C9.20011 2.80652 7.81928 3.32464 6.44199 4.01665L7.99277 5.57101C8.85667 5.22323 9.89052 4.879 10.9244 4.879C14.1994 4.879 16.9575 7.6435 16.9575 11.2703H14.5001L17.9914 15.5892L21.5 11.2703ZM3.23186 10.5895C3.23186 15.2526 6.85034 19.2272 11.3327 19.2272C12.8835 19.2272 14.2643 18.5388 15.6416 17.8467L14.0908 16.2924C13.2269 16.6402 12.1931 16.9844 11.1592 16.9844C7.88419 16.9844 5.12608 14.2199 5.12608 10.593H8.00006L4.26217 6.27419L0.500065 10.5895H3.23186Z" fill="#9296A4"/>
</svg>
