<svg width="18" height="19" viewBox="0 0 18 19" fill="none" xmlns="http://www.w3.org/2000/svg">
<path d="M16.2415 2.0074C16.0315 2.0224 15.8254 2.07078 15.6313 2.15066H15.6287C15.4423 2.22325 14.5561 2.58944 13.2089 3.1445L8.38107 5.14182C4.91685 6.57444 1.51149 7.98522 1.51149 7.98522L1.55204 7.96981C1.55204 7.96981 1.31725 8.04561 1.07201 8.21072C0.920492 8.30543 0.790115 8.42934 0.688763 8.57498C0.568428 8.74843 0.471636 9.01376 0.507606 9.28808C0.566466 9.75191 0.872536 10.0301 1.09228 10.1836C1.31464 10.3391 1.52653 10.4117 1.52653 10.4117H1.53176L4.72523 11.4685C4.86845 11.9201 5.69838 14.6003 5.89784 15.2177C6.01556 15.5865 6.13001 15.8171 6.27324 15.9931C6.34256 16.0831 6.42366 16.1582 6.5211 16.2186C6.57176 16.2476 6.62578 16.2704 6.68199 16.2867L6.64929 16.279C6.6591 16.2816 6.66694 16.2893 6.67414 16.2919C6.7003 16.2989 6.71796 16.3015 6.75131 16.3066C7.25685 16.457 7.66298 16.1486 7.66298 16.1486L7.68587 16.1306L9.57134 14.4442L12.7315 16.8257L12.8034 16.8559C13.462 17.1399 14.129 16.9818 14.4815 16.703C14.8367 16.4223 14.9747 16.0632 14.9747 16.0632L14.9975 16.0053L17.4396 3.71626C17.5089 3.41304 17.5266 3.12908 17.45 2.85348C17.3711 2.57455 17.1889 2.33465 16.9393 2.18085C16.7296 2.05565 16.4865 1.99522 16.2415 2.0074ZM16.1754 3.32438C16.1728 3.36485 16.1806 3.36036 16.1623 3.43809V3.44516L13.7432 15.6064C13.7327 15.6237 13.7151 15.6616 13.6667 15.6995C13.6157 15.7394 13.5751 15.7644 13.3626 15.6816L9.49744 12.7707L7.16267 14.8612L7.65317 11.7839L13.9682 6.00204C14.2285 5.76434 14.1415 5.71423 14.1415 5.71423C14.1598 5.42256 13.7484 5.62878 13.7484 5.62878L5.78536 10.4746L5.78274 10.4618L1.96602 9.19942V9.19685L1.95621 9.19492C1.9629 9.19274 1.96945 9.19017 1.97583 9.18721L1.99676 9.17694L2.01703 9.16987C2.01703 9.16987 5.42501 7.75909 8.88922 6.32646C10.6236 5.60887 12.3711 4.88613 13.7151 4.3285C15.059 3.77408 16.0524 3.36742 16.1087 3.34558C16.1623 3.32502 16.1368 3.32502 16.1754 3.32502V3.32438Z" fill="#3F81FF" stroke="#3F81FF" stroke-width="0.4"/>
</svg>
