<svg width="18" height="19" viewBox="0 0 18 19" fill="none" xmlns="http://www.w3.org/2000/svg">
<g clip-path="url(#clip0_189_100867)">
<path d="M9.05636 14.1688C8.66171 14.1688 8.34207 13.8492 8.34207 13.4545C8.34207 13.0599 8.66171 12.7402 9.05636 12.7402C9.451 12.7402 9.77064 13.0599 9.77064 13.4545C9.77064 13.8492 9.451 14.1688 9.05636 14.1688Z" fill="#3F81FF"/>
<path fill-rule="evenodd" clip-rule="evenodd" d="M9.05636 14.5704C8.44081 14.5704 7.94208 14.0716 7.94208 13.4561C7.94208 12.8405 8.44081 12.3418 9.05636 12.3418C9.67192 12.3418 10.1706 12.8405 10.1706 13.4561C10.1706 14.0716 9.67192 14.5704 9.05636 14.5704Z" fill="#3F81FF"/>
<circle cx="9" cy="9.51172" r="8" stroke="#3F81FF" stroke-width="2"/>
<path d="M9.05634 5.01367C8.23819 5.01367 7.45964 5.2943 6.86593 5.81469C6.24779 6.35557 5.8992 7.09151 5.8992 7.8851V8.46367H7.64206V7.8851C7.64206 7.31156 8.22459 6.75653 9.05634 6.75653C9.8881 6.75653 10.4706 7.31156 10.4706 7.8851C10.4706 8.29086 10.18 8.70399 9.66306 8.90326C9.22776 9.0697 8.85815 9.36154 8.59383 9.74259C8.3211 10.1352 8.18491 10.6028 8.18491 11.0726V11.6487H8.48491C8.68988 11.6487 8.84284 11.6471 8.9752 11.6456C9.19484 11.6433 9.35787 11.6415 9.61965 11.6486L9.92777 11.657V11.0521C9.92851 10.9393 9.96316 10.8293 10.0272 10.7364C10.0914 10.6434 10.1821 10.5718 10.2875 10.5311C11.4425 10.0866 12.2135 9.05589 12.2135 7.8851C12.2135 7.0915 11.8647 6.35537 11.2465 5.8145C10.6533 5.29643 9.87506 5.01367 9.05634 5.01367Z" fill="#3F80FF"/>
</g>
<defs>
<clipPath id="clip0_189_100867">
<rect width="18" height="18" fill="white" transform="translate(0 0.511719)"/>
</clipPath>
</defs>
</svg>
