<svg width="140" height="140" viewBox="0 0 140 140" fill="none" xmlns="http://www.w3.org/2000/svg">
<path d="M10.2065 25.4922H82.1979C84.6387 25.4949 86.9789 26.4658 88.7048 28.1918C90.4308 29.9177 91.4016 32.2579 91.4044 34.6987V74.0837C91.4016 76.5245 90.4308 78.8647 88.7048 80.5906C86.9789 82.3166 84.6387 83.2874 82.1979 83.2902H10.2065C7.76564 83.2874 5.42552 82.3166 3.69956 80.5906C1.97359 78.8647 1.00274 76.5245 1 74.0837V34.6987C1.00274 32.2579 1.97359 29.9177 3.69956 28.1918C5.42552 26.4658 7.76564 25.4949 10.2065 25.4922Z" fill="#F2F2F2"/>
<path d="M10.5561 29H82.5475C84.2857 29.0019 85.9522 29.6933 87.1813 30.9224C88.4104 32.1515 89.1018 33.818 89.1037 35.5562V74.9411C89.1018 76.6793 88.4104 78.3458 87.1813 79.5749C85.9522 80.804 84.2857 81.4953 82.5475 81.4973H10.5561C8.8179 81.4953 7.15147 80.8039 5.92238 79.5748C4.6933 78.3457 4.00195 76.6793 4 74.9411V35.5562C4.00195 33.818 4.6933 32.1515 5.92238 30.9224C7.15146 29.6933 8.8179 29.002 10.5561 29Z" fill="white"/>
<path d="M10.8865 97.3873C10.6693 97.3867 10.4543 97.3432 10.2539 97.2593C9.95476 97.1391 9.6989 96.9314 9.5198 96.6633C9.34069 96.3953 9.24669 96.0794 9.25009 95.7571V82.142L27.4015 81.5312L12.026 96.9069C11.8773 97.0584 11.7 97.1789 11.5044 97.2613C11.3088 97.3438 11.0988 97.3866 10.8865 97.3873Z" fill="#F2F2F2"/>
<path d="M29.9739 58.9478C32.7209 58.9478 34.9478 56.7209 34.9478 53.9739C34.9478 51.2269 32.7209 49 29.9739 49C27.2269 49 25 51.2269 25 53.9739C25 56.7209 27.2269 58.9478 29.9739 58.9478Z" fill="#3F81FF"/>
<path d="M45.8255 58.9478C48.5725 58.9478 50.7994 56.7209 50.7994 53.9739C50.7994 51.2269 48.5725 49 45.8255 49C43.0785 49 40.8516 51.2269 40.8516 53.9739C40.8516 56.7209 43.0785 58.9478 45.8255 58.9478Z" fill="#3F81FF"/>
<path d="M61.7317 58.9478C64.4787 58.9478 66.7056 56.7209 66.7056 53.9739C66.7056 51.2269 64.4787 49 61.7317 49C58.9847 49 56.7578 51.2269 56.7578 53.9739C56.7578 56.7209 58.9847 58.9478 61.7317 58.9478Z" fill="#3F81FF"/>
<path d="M129.874 54.5781H57.8823C55.4414 54.5809 53.1013 55.5517 51.3753 57.2777C49.6494 59.0037 48.6785 61.3438 48.6758 63.7847V103.17C48.6785 105.61 49.6494 107.951 51.3753 109.677C53.1013 111.403 55.4414 112.373 57.8823 112.376H129.874C132.315 112.373 134.655 111.403 136.381 109.677C138.107 107.951 139.077 105.61 139.08 103.17V63.7847C139.077 61.3438 138.107 59.0037 136.381 57.2777C134.655 55.5517 132.315 54.5809 129.874 54.5781Z" fill="#E6E6E6"/>
<path d="M129.548 57H57.5562C55.818 57.0019 54.1515 57.6933 52.9224 58.9224C51.6933 60.1515 51.002 61.818 51 63.5562V102.941C51.002 104.679 51.6933 106.346 52.9224 107.575C54.1515 108.804 55.818 109.495 57.5562 109.497H129.548C131.286 109.495 132.952 108.804 134.181 107.575C135.41 106.346 136.102 104.679 136.104 102.941V63.5562C136.102 61.818 135.41 60.1515 134.181 58.9224C132.952 57.6933 131.286 57.002 129.548 57Z" fill="white"/>
<path d="M124.426 125.997L109.051 110.621L127.202 111.232V124.847C127.206 125.169 127.112 125.485 126.933 125.753C126.753 126.021 126.498 126.229 126.198 126.349C125.998 126.433 125.783 126.477 125.566 126.477C125.354 126.476 125.144 126.434 124.948 126.351C124.752 126.269 124.575 126.148 124.426 125.997Z" fill="#E6E6E6"/>
<path d="M110.137 71.4456C109.666 76.3963 107.627 88.4102 106.589 93.9552C106.151 96.3013 105.286 97.0881 104.45 97.165C102.632 97.3324 101.251 95.9635 99.49 94.8091C96.7344 93.0028 95.1777 91.8783 92.5028 90.1157C89.4117 88.0787 91.4156 86.9595 93.1772 85.129C93.6382 84.6501 101.649 77.3636 101.804 76.7026C101.823 76.6199 101.842 76.3112 101.658 76.1491C101.475 75.987 101.205 76.0419 101.01 76.086C100.734 76.1488 96.3318 79.0584 87.8039 84.8149C86.5545 85.6728 85.4228 86.0909 84.4087 86.069C83.2908 86.0449 81.1404 85.437 79.5418 84.9172C77.581 84.28 76.0227 83.943 76.1584 82.8606C76.2291 82.2967 77.0055 81.7202 78.4876 81.131C87.6148 77.1544 93.7011 74.5327 96.7463 73.2659C105.441 69.6494 107.248 69.0212 108.425 69.0002C108.684 68.9959 109.264 69.06 109.639 69.3644C109.888 69.5812 110.047 69.8838 110.084 70.2123C110.148 70.6201 110.165 71.0338 110.137 71.4456Z" fill="#3F81FF"/>
</svg>
