<svg width="16" height="16" viewBox="0 0 16 16" fill="none" xmlns="http://www.w3.org/2000/svg">
<g clip-path="url(#clip0_189_109191)">
<path d="M12.628 3.60278C12.2513 2.685 11.6102 1.89997 10.7861 1.34748C9.96209 0.794994 8.9924 0.5 8.0003 0.5C7.00819 0.5 6.0385 0.794994 5.21447 1.34748C4.39044 1.89997 3.7493 2.685 3.37255 3.60278C2.55188 3.79626 1.82105 4.26222 1.29934 4.92459C0.77763 5.58697 0.495867 6.40663 0.500046 7.24978C0.500046 9.31778 2.18205 10.9998 4.25005 10.9998H5.18409C5.3167 10.9998 5.44387 10.9471 5.53764 10.8533C5.63141 10.7596 5.68409 10.6324 5.68409 10.4998C5.68409 10.3672 5.63141 10.24 5.53764 10.1462C5.44387 10.0525 5.3167 9.99978 5.18409 9.99978H4.25005C3.52094 9.99899 2.82193 9.709 2.30638 9.19345C1.79083 8.6779 1.50084 7.97888 1.50005 7.24978C1.49677 6.59398 1.72924 5.95884 2.1551 5.46011C2.58095 4.96139 3.17183 4.63228 3.82005 4.53278L4.11755 4.48628L4.21505 4.20128C4.76955 2.58528 6.29055 1.49978 8.00005 1.49978C8.83371 1.49954 9.64662 1.75979 10.3252 2.24415C11.0037 2.7285 11.5139 3.41276 11.7845 4.20128L11.8825 4.48628L12.18 4.53278C12.8283 4.63228 13.4191 4.96139 13.845 5.46011C14.2708 5.95884 14.5033 6.59398 14.5 7.24978C14.5 8.76578 13.266 9.99978 11.75 9.99978H10.7881C10.6555 9.99978 10.5283 10.0525 10.4346 10.1462C10.3408 10.24 10.2881 10.3672 10.2881 10.4998C10.2881 10.6324 10.3408 10.7596 10.4346 10.8533C10.5283 10.9471 10.6555 10.9998 10.7881 10.9998H11.75C13.818 10.9998 15.5 9.31778 15.5 7.24978C15.5043 6.4067 15.2226 5.58709 14.701 4.92472C14.1793 4.26236 13.4486 3.79636 12.628 3.60278Z" fill="#3F81FF" stroke="#3F81FF" stroke-width="0.55"/>
<path d="M10.1533 12.5422L8.50028 13.9922L8.50028 7.19922C8.50028 7.06661 8.4476 6.93943 8.35384 6.84567C8.26007 6.7519 8.13289 6.69922 8.00028 6.69922C7.86767 6.69922 7.7405 6.7519 7.64673 6.84567C7.55296 6.93943 7.50028 7.06661 7.50028 7.19922L7.50028 13.9922L5.83228 12.5292C5.78149 12.4876 5.72301 12.4564 5.66017 12.4374C5.59733 12.4184 5.53136 12.412 5.46603 12.4185C5.40071 12.425 5.3373 12.4443 5.27944 12.4753C5.22157 12.5063 5.17038 12.5484 5.12878 12.5992C5.08718 12.65 5.056 12.7085 5.03701 12.7713C5.01801 12.8342 5.01158 12.9001 5.01808 12.9655C5.02458 13.0308 5.04389 13.0942 5.07489 13.1521C5.10589 13.2099 5.14799 13.2611 5.19878 13.3027L7.68378 15.3377C7.77317 15.411 7.88519 15.4511 8.00078 15.4511C8.11637 15.4511 8.22839 15.411 8.31778 15.3377L10.7873 13.3152C10.8397 13.2742 10.8835 13.223 10.9159 13.1648C10.9483 13.1066 10.9687 13.0425 10.976 12.9763C10.9833 12.9101 10.9773 12.8431 10.9584 12.7792C10.9394 12.7154 10.9079 12.6559 10.8657 12.6044C10.8234 12.5529 10.7713 12.5104 10.7124 12.4793C10.6535 12.4482 10.5889 12.4292 10.5226 12.4234C10.4562 12.4176 10.3893 12.4251 10.3259 12.4455C10.2625 12.4659 10.2038 12.4988 10.1533 12.5422Z" fill="#3F81FF" stroke="#3F81FF" stroke-width="0.55"/>
</g>
<defs>
<clipPath id="clip0_189_109191">
<rect width="16" height="16" fill="white"/>
</clipPath>
</defs>
</svg>
