<svg width="30" height="30" viewBox="0 0 30 30" fill="none" xmlns="http://www.w3.org/2000/svg">
<path d="M12.375 22.75L14.625 20.5H14.875C19.125 20.5 22.25 18.875 24.625 15.5C23.875 14.5 23 13.625 22.125 12.875L24 11.25C25.375 12.375 26.5 13.875 27.5 15.5C24.625 20.5 20.375 22.875 15 22.875C14.125 23 13.25 22.875 12.375 22.75ZM5.375 19.25C4.375 18.25 3.375 17 2.5 15.5C5.375 10.5 9.625 8.125 15 8.125H16.375L13.875 10.625C10.125 10.875 7.25 12.5 5.125 15.5C5.625 16.25 6.25 17 6.875 17.5L5.375 19.25ZM22.125 6.25L23.875 8L8.125 23.75L6.375 22L22.125 6.25Z" fill="#ADBDCC"/>
</svg>
