<svg width="20" height="20" viewBox="0 0 20 20" fill="none" xmlns="http://www.w3.org/2000/svg">
<path d="M19.2857 2.55469H14.1786C13.0826 2.55469 12.0112 2.86942 11.0893 3.46317L10 4.16183L8.91071 3.46317C7.98976 2.86953 6.91713 2.5541 5.82143 2.55469H0.714286C0.319196 2.55469 0 2.87388 0 3.26897V15.9475C0 16.3426 0.319196 16.6618 0.714286 16.6618H5.82143C6.91741 16.6618 7.98884 16.9766 8.91071 17.5703L9.90179 18.2087C9.9308 18.2266 9.96429 18.2377 9.99777 18.2377C10.0313 18.2377 10.0647 18.2288 10.0938 18.2087L11.0848 17.5703C12.0089 16.9766 13.0826 16.6618 14.1786 16.6618H19.2857C19.6808 16.6618 20 16.3426 20 15.9475V3.26897C20 2.87388 19.6808 2.55469 19.2857 2.55469ZM7.58929 11.3158C7.58929 11.4074 7.51786 11.4833 7.4308 11.4833H3.28348C3.19643 11.4833 3.125 11.4074 3.125 11.3158V10.3114C3.125 10.2199 3.19643 10.144 3.28348 10.144H7.42857C7.51562 10.144 7.58705 10.2199 7.58705 10.3114V11.3158H7.58929ZM7.58929 8.19085C7.58929 8.28237 7.51786 8.35826 7.4308 8.35826H3.28348C3.19643 8.35826 3.125 8.28237 3.125 8.19085V7.18639C3.125 7.09487 3.19643 7.01897 3.28348 7.01897H7.42857C7.51562 7.01897 7.58705 7.09487 7.58705 7.18639V8.19085H7.58929ZM16.875 11.3158C16.875 11.4074 16.8036 11.4833 16.7165 11.4833H12.5692C12.4821 11.4833 12.4107 11.4074 12.4107 11.3158V10.3114C12.4107 10.2199 12.4821 10.144 12.5692 10.144H16.7143C16.8013 10.144 16.8728 10.2199 16.8728 10.3114V11.3158H16.875ZM16.875 8.19085C16.875 8.28237 16.8036 8.35826 16.7165 8.35826H12.5692C12.4821 8.35826 12.4107 8.28237 12.4107 8.19085V7.18639C12.4107 7.09487 12.4821 7.01897 12.5692 7.01897H16.7143C16.8013 7.01897 16.8728 7.09487 16.8728 7.18639V8.19085H16.875Z" fill="#999999"/>
</svg>
