<svg width="18" height="18" viewBox="0 0 18 18" fill="none" xmlns="http://www.w3.org/2000/svg">
<path d="M13.3461 2H2.39504C2.17636 2 2 2.17724 2 2.39504V3.5793C2 3.79798 2.17636 3.97434 2.39504 3.97434H13.3461C13.5639 3.97434 13.7412 3.79798 13.7412 3.5793V2.39504C13.7412 2.17724 13.5639 2 13.3461 2Z" fill="white"/>
<path d="M2.39504 9.97434H10.1619C10.3797 9.97434 10.5569 9.7971 10.5569 9.5793V8.39504C10.5569 8.17636 10.3797 8 10.1619 8H2.39504C2.17724 8 2 8.17636 2 8.39504V9.5793C2 9.7971 2.17724 9.97434 2.39504 9.97434Z" fill="white"/>
<path d="M13.3461 14H2.39504C2.17636 14 2 14.1772 2 14.395V15.5793C2 15.798 2.17636 15.9743 2.39504 15.9743H13.3461C13.5639 15.9743 13.7412 15.798 13.7412 15.5793V14.395C13.7412 14.1772 13.5639 14 13.3461 14Z" fill="white"/>
<path d="M16.4636 6.09512L13.1331 8.73707C12.9499 8.87945 12.9615 9.13575 13.1331 9.28825L16.4636 11.9302C16.6486 12.0836 17 11.9973 17 11.5398V6.48462C17 5.9307 16.6486 5.93161 16.4636 6.09512Z" fill="white"/>
</svg>
