<svg width="24" height="24" viewBox="0 0 24 24" fill="none" xmlns="http://www.w3.org/2000/svg">
<g clip-path="url(#clip0_1_16971)">
<path d="M12 0C5.37226 0 0 5.37264 0 12C0 18.6273 5.37226 24 12 24C18.6273 24 24 18.6273 24 12C24 5.37264 18.6273 0 12 0ZM18.5629 9.1494L10.7402 16.9719C10.5574 17.155 10.2605 17.155 10.0777 16.9719L5.43711 12.3312C5.2543 12.1484 5.2543 11.8516 5.43711 11.6686L6.89571 10.2102C7.07851 10.0272 7.37539 10.0272 7.55822 10.2102L10.409 13.0605L16.4418 7.02812C16.6246 6.84513 16.9215 6.84513 17.1043 7.02812L18.5629 8.48653C18.7461 8.66953 18.7461 8.96641 18.5629 9.1494Z" fill="#64DA93"/>
<path d="M18.5627 9.14915L10.74 16.9716C10.5572 17.1548 10.2603 17.1548 10.0775 16.9716L5.43691 12.331C5.2541 12.1482 5.2541 11.8513 5.43691 11.6683L6.89551 10.2099C7.07831 10.0269 7.37519 10.0269 7.55802 10.2099L10.4088 13.0603L16.4416 7.02787C16.6244 6.84488 16.9213 6.84488 17.1041 7.02787L18.5627 8.48628C18.7459 8.66928 18.7459 8.96616 18.5627 9.14915Z" fill="#141516"/>
</g>
<defs>
<clipPath id="clip0_1_16971">
<rect width="24" height="24" fill="white"/>
</clipPath>
</defs>
</svg>
