<svg width="36" height="36" viewBox="0 0 36 36" fill="none" xmlns="http://www.w3.org/2000/svg">
<g opacity="0.9">
<g clip-path="url(#clip0_1_149)">
<path d="M4.32092 9.61487V24.6509C4.32119 24.7412 4.34564 24.8299 4.39188 24.9083C4.43811 24.9867 4.50455 25.0521 4.5847 25.0982L11.1792 28.7826V13.4378L4.32092 9.61487Z" fill="#60BEFF"/>
<path d="M24.8732 5.78137L31.4678 9.46585C31.5478 9.51191 31.6143 9.57734 31.6606 9.65573C31.7068 9.73412 31.7312 9.8228 31.7315 9.9131V24.9491L24.8732 21.1156V5.78137Z" fill="#1A4199"/>
<path d="M11.1681 28.7826L18.0264 24.949L11.1681 21.1155V28.7826Z" fill="#3CA9E5"/>
<path d="M11.432 5.93081L24.8739 13.4488V21.1159L4.32092 9.61528L10.9154 5.93081C10.9936 5.88581 11.0828 5.86206 11.1738 5.86206C11.2646 5.86206 11.3539 5.88581 11.432 5.93081Z" fill="#3CA9E5"/>
<path d="M24.8734 5.78137L18.0261 9.61493L24.8734 13.4485V5.78137Z" fill="#2853C3"/>
<path d="M31.732 24.949L25.1375 28.6335C25.0563 28.6755 24.9657 28.6974 24.8737 28.6974C24.7817 28.6974 24.6911 28.6755 24.6099 28.6335L11.1681 21.1155V13.4377L31.732 24.949Z" fill="#2853C3"/>
</g>
</g>
<defs>
<clipPath id="clip0_1_149">
<rect width="27.4286" height="24" fill="white" transform="translate(4.28577 5.40002)"/>
</clipPath>
</defs>
</svg>
