<svg width="120" height="120" viewBox="0 0 120 120" fill="none" xmlns="http://www.w3.org/2000/svg">
<path d="M109.696 93.0162L97.5602 57.4004L97.1113 56.0831L96.2286 53.4942L95.7304 52.0306L94.8976 49.5826V58.0253L95.7304 60.4733L96.2286 61.9368L97.1113 64.5257L97.5602 65.8431L107.046 93.6849C107.198 94.1323 106.898 94.6003 106.374 94.7307L97.5618 96.9263L97.1127 97.0383L96.2302 97.2581L95.7319 97.3815L94.899 97.5893V100.047L95.7319 99.8387L96.2302 99.7154L97.1127 99.4955L97.5618 99.3834L107.149 96.9957C108.064 96.7858 108.864 96.236 109.388 95.4579C109.622 95.1012 109.772 94.6958 109.825 94.2727C109.878 93.8495 109.834 93.4197 109.696 93.0162ZM81.0946 101.024L76.5299 102.163L71.9649 103.301L67.4919 104.415L62.7542 105.594L58.0184 106.775L42.6411 110.606C42.1178 110.735 41.5715 110.478 41.4179 110.032L40.3092 106.779L39.9059 105.598L39.5046 104.419L39.1242 103.305L38.3634 101.029H35.464L36.2248 103.305L36.6052 104.419L37.0065 105.598L37.408 106.778L38.7392 110.693C38.8958 111.117 39.1365 111.505 39.4468 111.834C39.7572 112.164 40.1308 112.427 40.5452 112.608C41.4419 113.018 42.4516 113.108 43.4069 112.865L67.8799 106.77L72.6175 105.589L77.3552 104.409L81.8264 103.3L90.956 101.023L81.0946 101.024ZM22.2625 21.9188L20.9308 22.2441L20.444 22.3662L19.0616 22.7161L17.6807 23.0606L13.1842 24.1795C11.1996 24.6762 10.0594 26.4523 10.6336 28.1512L17.6707 48.8324L19.0615 52.8855L20.4402 56.935L20.9272 58.3642L22.2583 62.2675L23.5902 66.1699V57.7419L22.2585 53.8396L20.9272 49.9363L20.4438 48.4963L19.0615 44.4467L17.6806 40.3954L13.2855 27.4917C13.1339 27.0452 13.4345 26.5775 13.9564 26.4463L17.6807 25.519L19.0616 25.1764L20.4403 24.8308L20.9273 24.7084L22.2585 24.3833L23.5903 24.0579V21.5895L22.2625 21.9188ZM85.1704 21.0245L84.4272 18.8404L84.2368 18.3044L84.1459 18.0379L83.4545 16.0112L83.4355 15.9561L82.8655 14.2548L82.8387 14.1789L81.5799 10.482C80.997 8.78631 78.9205 7.81234 76.9349 8.3027L53.3408 14.18L52.4601 14.3998L48.7666 15.3188L47.7226 15.5786L44.2016 16.457H54.0688L57.5915 15.5806L58.6353 15.3214L62.3296 14.4008L63.2102 14.1808L77.7049 10.5701C77.7961 10.548 77.8895 10.5365 77.9832 10.536C78.1852 10.5272 78.3849 10.5811 78.555 10.6903C78.7251 10.7994 78.8573 10.9585 78.9336 11.1457L79.9627 14.18L80.0369 14.3998L80.2268 14.9724L80.2667 15.0863L80.3452 15.3206L80.4342 15.5798L80.6493 16.2095L80.7348 16.4561L80.8378 16.7585L80.9631 17.1264L81.6519 19.1464L82.3118 21.0859L82.2999 18.3896L82.6445 18.7589L83.135 19.284L84.8298 21.1041L85.4006 21.7186L85.1704 21.0245Z" fill="#E7E7E7"/>
<path d="M97.5602 31.1082V100.212C97.5602 101.918 95.942 103.302 93.9459 103.302H24.5452C22.5493 103.302 20.9308 101.918 20.9308 100.212V17.2707C20.9308 15.564 22.5493 14.1802 24.5452 14.1802H82.8635V16.4571H24.5452C24.2996 16.4543 24.0611 16.5389 23.872 16.6956C23.7864 16.7653 23.7171 16.8529 23.669 16.9523C23.6208 17.0516 23.5949 17.1603 23.5931 17.2707V100.212C23.5931 100.661 24.0191 101.025 24.5446 101.025H93.9454C94.1907 101.027 94.4289 100.943 94.6181 100.787C94.7036 100.717 94.7729 100.63 94.821 100.53C94.8692 100.431 94.8951 100.322 94.8969 100.212V30.7231H97.2009L97.5602 31.1082Z" fill="#E7E7E7"/>
<path d="M97.6135 31.1555L97.5695 31.1081L97.2095 30.7229L85.0605 17.6897L83.4457 15.956L83.0876 15.5721L83.031 15.5103L82.8725 15.348V15.3397L82.857 15.3234L82.8459 15.3101C82.5159 14.9704 82.0709 14.7664 81.5981 14.7382C81.4941 14.7299 81.3897 14.7299 81.2857 14.7382C81.1356 14.7493 80.9872 14.7764 80.8428 14.8189C80.6417 14.8781 80.4519 14.9706 80.2813 15.0926C80.1871 15.1609 80.1001 15.2388 80.022 15.3251C79.7798 15.5814 79.6439 15.9201 79.6418 16.2727V16.4565L79.7116 32.0219C79.7181 32.8628 80.5111 33.5441 81.4941 33.5537L86.5839 33.5866L87.7118 33.5945H88.0234L89.4634 33.6057H90.4925L94.9069 33.6346L96.1946 33.643H96.2387C96.9205 33.6304 97.5347 33.2896 97.8257 32.7624C97.9677 32.5071 98.0236 32.2127 97.985 31.9231C97.9465 31.6335 97.8156 31.364 97.6118 31.1546L97.6135 31.1555ZM89.7144 31.3299H85.7962L82.361 31.3069L82.3156 21.1118L82.3044 18.4156L82.6485 18.7844L83.1395 19.3098L84.8341 21.1296L85.4044 21.7444L87.0194 23.4502L94.3921 31.3607L89.7144 31.3299ZM48.363 35.469H35.6942C34.8303 35.4667 34.0007 35.807 33.3874 36.4155C32.7741 37.0239 32.4271 37.8507 32.4226 38.7146V51.2874C32.4271 52.1513 32.7741 52.9781 33.3874 53.5866C34.0007 54.195 34.8303 54.5354 35.6942 54.533H48.3631C49.2272 54.5354 50.0569 54.1951 50.6705 53.5867C51.284 52.9783 51.6313 52.1514 51.6362 51.2874V38.7145C51.6313 37.8505 51.284 37.0236 50.6705 36.4152C50.0569 35.8068 49.2272 35.4665 48.3631 35.4689L48.363 35.469ZM56.9774 36.4354H86.3514V39.3604H56.9777L56.9774 36.4354ZM56.9774 50.6418H86.3514V53.5668H56.9777L56.9774 50.6418ZM32.4226 65.8152H86.1001V68.7402H32.4226V65.8152ZM32.244 80.0193H86.1718V82.9443H32.2438L32.244 80.0193Z" fill="#E7E7E7"/>
<path d="M36.4457 37.898H48.0979C49.0675 37.898 49.5522 38.3547 49.5522 39.2681V50.2513C49.5522 51.1645 49.0675 51.6212 48.0979 51.6214H36.4457C35.476 51.6214 34.9912 51.1647 34.9912 50.2513V39.2681C34.9912 38.3548 35.476 37.8981 36.4457 37.898Z" fill="#F2F2F2"/>
<path d="M36.7192 38.8492H47.1519C48.3039 38.8492 48.8799 39.4252 48.8799 40.5772V51.0098C48.8799 52.1618 48.3039 52.7378 47.1519 52.7378H36.7192C35.5672 52.7378 34.9912 52.1618 34.9912 51.0098V40.5772C34.9912 39.4252 35.5672 38.8492 36.7192 38.8492Z" fill="#F2F2F2"/>
</svg>
