<svg width="16" height="16" viewBox="0 0 16 16" fill="none" xmlns="http://www.w3.org/2000/svg">
<g clip-path="url(#clip0_1_278)">
<path d="M13.0039 12.0855C12.7977 12.0855 12.5999 12.0036 12.4541 11.8578C12.3083 11.7119 12.2263 11.5141 12.2263 11.3079C12.2263 11.1017 12.3083 10.9039 12.4541 10.7581C12.5999 10.6122 12.7977 10.5303 13.0039 10.5303C13.2033 10.5303 13.3946 10.4511 13.5356 10.3101C13.6766 10.1691 13.7558 9.97784 13.7558 9.77843V3.03923C13.7558 2.83982 13.6766 2.64858 13.5356 2.50757C13.3946 2.36656 13.2033 2.28735 13.0039 2.28735H6.26473C6.06532 2.28735 5.87407 2.36656 5.73306 2.50757C5.59206 2.64858 5.51284 2.83982 5.51284 3.03923C5.51284 3.24547 5.43092 3.44325 5.28509 3.58908C5.13926 3.73491 4.94147 3.81683 4.73524 3.81683C4.52901 3.81683 4.33122 3.73491 4.1854 3.58908C4.03957 3.44325 3.95764 3.24547 3.95764 3.03923C3.959 2.42777 4.2025 1.84175 4.63487 1.40938C5.06724 0.977009 5.65327 0.733506 6.26473 0.732147H13.0039C13.6154 0.733506 14.2014 0.977009 14.6338 1.40938C15.0662 1.84175 15.3097 2.42777 15.311 3.03923V9.77843C15.3097 10.3899 15.0662 10.9759 14.6338 11.4083C14.2014 11.8407 13.6154 12.0842 13.0039 12.0855Z" fill="#90A8D6"/>
<path d="M9.55613 15.4548H3.10185C2.78175 15.4552 2.46471 15.3925 2.16889 15.2702C1.87307 15.1479 1.6043 14.9684 1.37795 14.7421C1.1516 14.5157 0.97213 14.2469 0.849819 13.9511C0.727508 13.6553 0.664758 13.3383 0.665165 13.0182V6.53815C0.664623 6.21796 0.727272 5.90081 0.849523 5.60487C0.971773 5.30894 1.15122 5.04004 1.37758 4.81358C1.60394 4.58712 1.87277 4.40756 2.16865 4.28519C2.46454 4.16281 2.78166 4.10003 3.10185 4.10044H9.55613C9.87624 4.10003 10.1933 4.16278 10.4891 4.28509C10.7849 4.4074 11.0537 4.58687 11.28 4.81322C11.5064 5.03957 11.6859 5.30835 11.8082 5.60416C11.9305 5.89998 11.9932 6.21702 11.9928 6.53712V13.0171C12.0185 14.3656 10.9046 15.4548 9.55613 15.4548ZM3.10185 5.65564C2.98582 5.65468 2.87077 5.67682 2.76339 5.72078C2.65601 5.76474 2.55845 5.82963 2.47641 5.91168C2.39436 5.99372 2.32947 6.09128 2.28551 6.19866C2.24155 6.30604 2.2194 6.4211 2.22036 6.53712V13.0171C2.2194 13.1331 2.24155 13.2482 2.28551 13.3556C2.32947 13.463 2.39436 13.5605 2.47641 13.6426C2.55845 13.7246 2.65601 13.7895 2.76339 13.8335C2.87077 13.8774 2.98582 13.8996 3.10185 13.8986H9.55613C9.67216 13.8996 9.78722 13.8774 9.8946 13.8335C10.002 13.7895 10.0995 13.7246 10.1816 13.6426C10.2636 13.5605 10.3285 13.463 10.3725 13.3556C10.4164 13.2482 10.4386 13.1331 10.4376 13.0171V6.53712C10.4386 6.4211 10.4164 6.30604 10.3725 6.19866C10.3285 6.09128 10.2636 5.99372 10.1816 5.91168C10.0995 5.82963 10.002 5.76474 9.8946 5.72078C9.78722 5.67682 9.67216 5.65468 9.55613 5.65564H3.10185Z" fill="#90A8D6"/>
</g>
<defs>
<clipPath id="clip0_1_278">
<rect width="16" height="16" fill="white"/>
</clipPath>
</defs>
</svg>
