<svg width="101" height="31" viewBox="0 0 101 31" fill="none" xmlns="http://www.w3.org/2000/svg">
<g clip-path="url(#clip0_29_686)">
<g clip-path="url(#clip1_29_686)">
<g clip-path="url(#clip2_29_686)">
<path d="M15.1235 0.410706C17.2699 0.410706 19.3107 0.862668 21.1559 1.67661L9.53921 13.2933C8.45498 14.3775 8.45498 16.1354 9.53921 17.2196L13.9553 21.6358C14.3333 22.0138 14.0656 22.6601 13.5311 22.6601H3.22752C2.50298 22.6601 1.82512 22.2726 1.52249 21.6143C0.649118 19.7144 0.162109 17.6002 0.162109 15.3721C0.162109 7.10917 6.86057 0.410706 15.1235 0.410706Z" fill="#1C2EEF"/>
<mask id="mask0_29_686" style="mask-type:luminance" maskUnits="userSpaceOnUse" x="0" y="0" width="22" height="23">
<path d="M15.1235 0.410706C17.2699 0.410706 19.3107 0.862668 21.1559 1.67661L9.53921 13.2933C8.45498 14.3775 8.45498 16.1354 9.53921 17.2196V17.2196C11.5469 19.2273 10.1249 22.6601 7.28567 22.6601H2.05407C0.848953 20.5036 0.162109 18.0181 0.162109 15.3721C0.162109 7.10917 6.86057 0.410706 15.1235 0.410706Z" fill="white"/>
</mask>
<g mask="url(#mask0_29_686)">
<path opacity="0.2" fill-rule="evenodd" clip-rule="evenodd" d="M9.53899 17.2197L6.34552 14.2236C3.23933 11.3093 3.08375 6.42878 5.99801 3.32259C6.05407 3.26285 6.11107 3.204 6.169 3.14607L12.4983 -3.18323L21.429 1.56035L10.3361 12.884L9.53899 17.2197Z" fill="url(#paint0_linear_29_686)"/>
</g>
<path fill-rule="evenodd" clip-rule="evenodd" d="M15.1418 30.3721C12.9954 30.3721 10.9546 29.9201 9.10938 29.1062L20.7261 17.4895C21.8103 16.4053 21.8103 14.6474 20.7261 13.5631L16.1393 8.97623C15.8243 8.66125 16.0474 8.12268 16.4928 8.12268H27.0378C27.7623 8.12268 28.4402 8.51016 28.7428 9.16848C29.6162 11.0684 30.1032 13.1826 30.1032 15.4106C30.1032 23.6736 23.4047 30.3721 15.1418 30.3721Z" fill="#00C580"/>
<mask id="mask1_29_686" style="mask-type:alpha" maskUnits="userSpaceOnUse" x="9" y="8" width="22" height="23">
<path fill-rule="evenodd" clip-rule="evenodd" d="M15.1408 30.3721C12.9944 30.3721 10.9536 29.9201 9.1084 29.1062L20.7251 17.4895C21.8093 16.4053 21.8093 14.6474 20.7251 13.5631L15.2848 8.12268H28.2103C29.4154 10.2792 30.1022 12.7647 30.1022 15.4106C30.1022 23.6736 23.4038 30.3721 15.1408 30.3721Z" fill="#00AC70"/>
</mask>
<g mask="url(#mask1_29_686)">
<path opacity="0.2" fill-rule="evenodd" clip-rule="evenodd" d="M20.6807 13.552L23.8742 16.5482C26.9804 19.4625 27.136 24.343 24.2217 27.4492C24.1657 27.5089 24.1087 27.5678 24.0507 27.6257L17.7214 33.955L8.79077 29.2114L19.8837 17.8877L20.6807 13.552Z" fill="url(#paint1_linear_29_686)"/>
</g>
</g>
</g>
</g>
<path d="M92.623 21.0591L95.2598 11.6373H98.8105L94.4277 24.1998C93.584 26.6216 92.916 28.1216 92.4238 28.6998C91.9316 29.2857 90.9473 29.5787 89.4707 29.5787C89.1738 29.5787 88.9355 29.5748 88.7559 29.567C88.5762 29.567 88.3066 29.5552 87.9473 29.5318V26.8599L88.3691 26.8834C88.6973 26.899 89.0098 26.8873 89.3066 26.8482C89.6035 26.8091 89.8535 26.7193 90.0566 26.5787C90.252 26.4459 90.4316 26.1685 90.5957 25.7466C90.7676 25.3248 90.8379 25.067 90.8066 24.9732L86.1191 11.6373H89.834L92.623 21.0591Z" fill="#141516"/>
<path d="M74.5527 13.0201C75.4355 11.8951 76.9512 11.3326 79.0996 11.3326C80.498 11.3326 81.7402 11.6099 82.8262 12.1646C83.9121 12.7193 84.4551 13.7662 84.4551 15.3052V21.1646C84.4551 21.5709 84.4629 22.063 84.4785 22.6412C84.502 23.0787 84.5684 23.3755 84.6777 23.5318C84.7871 23.688 84.9512 23.817 85.1699 23.9185V24.4107H81.5371C81.4355 24.1529 81.3652 23.9107 81.3262 23.6841C81.2871 23.4576 81.2559 23.1998 81.2324 22.9107C80.7715 23.4107 80.2402 23.8365 79.6387 24.188C78.9199 24.6021 78.1074 24.8091 77.2012 24.8091C76.0449 24.8091 75.0879 24.481 74.3301 23.8248C73.5801 23.1607 73.2051 22.2232 73.2051 21.0123C73.2051 19.442 73.8105 18.3052 75.0215 17.6021C75.6855 17.2193 76.6621 16.9459 77.9512 16.7818L79.0879 16.6412C79.7051 16.563 80.1465 16.4654 80.4121 16.3482C80.8887 16.1451 81.127 15.8287 81.127 15.399C81.127 14.8755 80.9434 14.5162 80.5762 14.3209C80.2168 14.1177 79.6855 14.0162 78.9824 14.0162C78.1934 14.0162 77.6348 14.2115 77.3066 14.6021C77.0723 14.8912 76.916 15.2818 76.8379 15.774H73.6152C73.6855 14.6568 73.998 13.7388 74.5527 13.0201ZM77.0371 21.9966C77.3496 22.2545 77.7324 22.3834 78.1855 22.3834C78.9043 22.3834 79.5645 22.1724 80.166 21.7505C80.7754 21.3287 81.0918 20.5591 81.1152 19.442V18.1998C80.9043 18.3326 80.6895 18.442 80.4707 18.5279C80.2598 18.606 79.9668 18.6802 79.5918 18.7505L78.8418 18.8912C78.1387 19.0162 77.6348 19.1685 77.3301 19.3482C76.8145 19.6529 76.5566 20.1255 76.5566 20.7662C76.5566 21.3365 76.7168 21.7466 77.0371 21.9966Z" fill="#141516"/>
<path d="M65.6699 18.1998H62.002V24.4107H58.416V7.13727H65.9395C67.6738 7.13727 69.0566 7.58258 70.0879 8.47321C71.1191 9.36383 71.6348 10.7427 71.6348 12.6099C71.6348 14.649 71.1191 16.0904 70.0879 16.9341C69.0566 17.7779 67.584 18.1998 65.6699 18.1998ZM67.3574 14.6021C67.8262 14.188 68.0605 13.5318 68.0605 12.6334C68.0605 11.7349 67.8223 11.0943 67.3457 10.7115C66.877 10.3287 66.2168 10.1373 65.3652 10.1373H62.002V15.2232H65.3652C66.2168 15.2232 66.8809 15.0162 67.3574 14.6021Z" fill="#141516"/>
<path d="M51.209 17.7545V7.13727H54.877V17.7545C54.877 19.5904 54.5918 21.0201 54.0215 22.0435C52.959 23.9185 50.9316 24.856 47.9395 24.856C44.9473 24.856 42.916 23.9185 41.8457 22.0435C41.2754 21.0201 40.9902 19.5904 40.9902 17.7545V7.13727H44.6582V17.7545C44.6582 18.942 44.7988 19.8091 45.0801 20.356C45.5176 21.3248 46.4707 21.8091 47.9395 21.8091C49.4004 21.8091 50.3496 21.3248 50.7871 20.356C51.0684 19.8091 51.209 18.942 51.209 17.7545Z" fill="#141516"/>
<defs>
<linearGradient id="paint0_linear_29_686" x1="12.6696" y1="-3.18323" x2="11.9228" y2="19.1897" gradientUnits="userSpaceOnUse">
<stop stop-color="white" stop-opacity="0.4"/>
<stop offset="1" stop-color="white"/>
</linearGradient>
<linearGradient id="paint1_linear_29_686" x1="17.5502" y1="33.955" x2="18.2969" y2="11.5821" gradientUnits="userSpaceOnUse">
<stop stop-color="white" stop-opacity="0.4"/>
<stop offset="1" stop-color="white"/>
</linearGradient>
<clipPath id="clip0_29_686">
<rect width="30" height="30" fill="white" transform="translate(0.162109 0.410706)"/>
</clipPath>
<clipPath id="clip1_29_686">
<rect width="30" height="30" fill="white" transform="translate(0.162109 0.410706)"/>
</clipPath>
<clipPath id="clip2_29_686">
<rect width="30" height="30" fill="white" transform="translate(0.162109 0.410706)"/>
</clipPath>
</defs>
</svg>
