<svg width="36" height="36" viewBox="0 0 36 36" fill="none" xmlns="http://www.w3.org/2000/svg">
<g opacity="0.9">
<g opacity="0.9">
<path d="M26.6318 9.69393C26.7078 5.7366 23.4424 2.69873 18.9525 2.69873H9.66677C9.45032 2.6988 9.241 2.77612 9.07648 2.91678C8.91197 3.05745 8.80306 3.25221 8.76935 3.46602L5.04811 26.7165C5.03146 26.8219 5.03784 26.9296 5.06682 27.0322C5.09579 27.1349 5.14667 27.23 5.21594 27.3111C5.28521 27.3922 5.37124 27.4573 5.4681 27.502C5.56495 27.5467 5.67034 27.5698 5.777 27.5698H11.2789L10.4184 32.9544C10.4018 33.0598 10.4082 33.1676 10.4372 33.2703C10.4662 33.373 10.5171 33.4681 10.5865 33.5492C10.6558 33.6304 10.7419 33.6955 10.8389 33.7401C10.9358 33.7847 11.0413 33.8078 11.148 33.8077H15.6294C15.8463 33.8077 16.039 33.7295 16.2033 33.5894C16.3676 33.4486 16.3946 33.2545 16.428 33.0404L17.7436 25.3C17.777 25.0866 17.8858 24.8093 18.0508 24.6685C18.215 24.5277 18.3587 24.4509 18.5749 24.4502H21.3183C25.7151 24.4502 29.4463 21.3256 30.1283 16.9786C30.6104 13.8923 29.287 11.0856 26.6318 9.69393Z" fill="#001C64"/>
<path d="M12.4703 18.9957L11.1 27.6854L10.2395 33.1354C10.2229 33.2408 10.2293 33.3486 10.2583 33.4513C10.2873 33.554 10.3382 33.6492 10.4076 33.7303C10.4769 33.8114 10.563 33.8765 10.66 33.9211C10.7569 33.9657 10.8624 33.9888 10.9691 33.9887H15.7122C15.9286 33.9885 16.1377 33.9111 16.3021 33.7705C16.4664 33.6298 16.5752 33.4351 16.6089 33.2214L17.8591 25.2997C17.8928 25.086 18.0016 24.8915 18.166 24.7509C18.3304 24.6104 18.5395 24.5332 18.7558 24.5331H21.5483C25.9451 24.5331 29.6756 21.326 30.3576 16.979C30.8411 13.8934 29.288 11.0867 26.6328 9.69434C26.6256 10.0229 26.5972 10.3507 26.5467 10.6757C25.8648 15.022 22.1336 18.2298 17.7368 18.2298H13.367C13.1508 18.2298 12.9418 18.307 12.7774 18.4474C12.613 18.5878 12.5041 18.7822 12.4703 18.9957Z" fill="#0070E0"/>
<path d="M11.1 27.6852H5.58181C5.47511 27.6853 5.36966 27.6623 5.27275 27.6176C5.17583 27.573 5.08975 27.5079 5.02046 27.4268C4.95116 27.3456 4.90029 27.2504 4.87137 27.1477C4.84244 27.045 4.83615 26.9373 4.85292 26.8319L8.57345 3.23582C8.60717 3.02207 8.71611 2.8274 8.88064 2.68685C9.04517 2.54631 9.25448 2.46914 9.47087 2.46924H18.955C23.4442 2.46924 26.7096 5.73679 26.6335 9.69413C25.5164 9.10817 24.2037 8.77324 22.7651 8.77324H14.8582C14.642 8.77345 14.433 8.85075 14.2686 8.99125C14.1042 9.13176 13.9954 9.32626 13.9615 9.53982L12.4718 18.9955L11.1 27.6852Z" fill="#003087"/>
</g>
</g>
</svg>
