<svg width="30" height="30" viewBox="0 0 30 30" fill="none" xmlns="http://www.w3.org/2000/svg">
<circle cx="15" cy="15" r="14.25" stroke="#B9C9D4" stroke-width="1.5"/>
<g clip-path="url(#clip0_1_415)">
<path d="M15 6.25C10.1675 6.25 6.25 10.1675 6.25 15C6.25 19.8325 10.1675 23.75 15 23.75C19.8325 23.75 23.75 19.8325 23.75 15C23.75 10.1675 19.8325 6.25 15 6.25ZM19.375 16.8457C19.375 17.0344 19.222 17.1875 19.0332 17.1875H13.1543C13.1404 17.1875 13.1267 17.1864 13.1132 17.1848C13.0925 17.1823 13.0721 17.1782 13.0527 17.1722C13.051 17.1716 13.0495 17.1709 13.0478 17.1703C12.9112 17.1256 12.8125 16.9973 12.8125 16.8457V10.9668C12.8125 10.778 12.9656 10.625 13.1543 10.625H14.6582C14.847 10.625 15 10.778 15 10.9668V15H19.0332C19.222 15 19.375 15.1531 19.375 15.3418V16.8457H19.375Z" fill="#B9C9D4"/>
</g>
<defs>
<clipPath id="clip0_1_415">
<rect width="17.5" height="17.5" fill="white" transform="translate(6.25 6.25)"/>
</clipPath>
</defs>
</svg>
