<svg width="45" height="45" viewBox="0 0 45 45" fill="none" xmlns="http://www.w3.org/2000/svg">
<rect width="44.5714" height="44.5714" rx="7.2" fill="white"/>
<g clip-path="url(#clip0_1_1018)">
<path fill-rule="evenodd" clip-rule="evenodd" d="M13.6499 10.0885H31.2753C31.6959 10.0885 32.0843 10.3135 32.2939 10.6785L37.4289 19.6145C37.6953 20.0779 37.6162 20.6629 37.2363 21.0386L23.1022 35.0225C22.6442 35.4755 21.9078 35.4755 21.4499 35.0225L7.33488 21.0575C6.94622 20.673 6.87344 20.0711 7.15924 19.6047L12.6481 10.6498C12.8619 10.301 13.2412 10.0885 13.6499 10.0885ZM28.9995 14.0781V16.5855H23.9787V18.3239C27.505 18.5097 30.1506 19.2726 30.1701 20.1872V22.0937C30.1504 23.0083 27.505 23.7713 23.9787 23.957V28.2233H20.6449V23.957C17.1186 23.7713 14.473 23.0083 14.4534 22.0937L14.4535 20.1872C14.4732 19.2726 17.1186 18.5097 20.6449 18.3239V16.5855H15.6241V14.0781H28.9995ZM22.3118 22.6472C26.0749 22.6472 29.2203 22.0021 29.9899 21.1405C29.3372 20.4098 26.9761 19.8348 23.9787 19.6769V21.497C23.4415 21.5253 22.8838 21.5402 22.3118 21.5402C21.7398 21.5402 21.1821 21.5253 20.6449 21.497V19.6769C17.6474 19.8348 15.2864 20.4098 14.6336 21.1405C15.4034 22.0021 18.5487 22.6472 22.3118 22.6472Z" fill="#009393"/>
<path fill-rule="evenodd" clip-rule="evenodd" d="M28.9997 14.0778V16.5852H23.9788V18.3236C27.5052 18.5093 30.1507 19.2723 30.1704 20.1869L30.1703 22.0934C30.1507 23.008 27.5052 23.771 23.9788 23.9567V28.223H20.645V23.9567C17.1188 23.771 14.4732 23.008 14.4536 22.0934L14.4537 20.1869C14.4733 19.2723 17.1188 18.5093 20.645 18.3236V16.5852H15.6243V14.0778H28.9997ZM29.9902 21.1402C29.2204 22.0017 26.0751 22.6469 22.312 22.6469C18.5488 22.6469 15.4035 22.0017 14.6338 21.1402C15.2865 20.4095 17.6476 19.8345 20.645 19.6765V21.4967C21.1823 21.525 21.74 21.5399 22.312 21.5399C22.8839 21.5399 23.4416 21.525 23.9788 21.4967V19.6765C26.9764 19.8345 29.3373 20.4095 29.9902 21.1402Z" fill="white"/>
<path d="M29.9352 37.6293C34.1601 37.6293 37.5852 34.2043 37.5852 29.9793C37.5852 25.7544 34.1601 22.3293 29.9352 22.3293C25.7102 22.3293 22.2852 25.7544 22.2852 29.9793C22.2852 34.2043 25.7102 37.6293 29.9352 37.6293Z" fill="#EB322A"/>
<path fill-rule="evenodd" clip-rule="evenodd" d="M25.4118 25.5011C25.4798 25.4165 25.5878 25.3747 25.695 25.3917L33.3746 26.6108C33.44 26.6212 33.5002 26.6527 33.5459 26.7007L35.4023 28.6483C35.4376 28.6844 35.4641 28.7294 35.4779 28.7806C35.4826 28.7979 35.4857 28.8157 35.4872 28.8336C35.4912 28.8785 35.4849 28.9223 35.4704 28.9625C35.459 28.9936 35.4425 29.0233 35.4206 29.0502L29.8438 35.9071C29.776 35.9903 29.6692 36.0313 29.5632 36.0149C29.4572 35.9985 29.3676 35.9271 29.3283 35.8273L25.3665 25.8013C25.3268 25.7004 25.3441 25.5858 25.4118 25.5011ZM34.5617 28.6425L33.3408 27.3615L31.3856 29.0903L34.5617 28.6425ZM32.7055 27.1164L26.686 26.161L30.4393 29.1203L32.7055 27.1164ZM30.6984 29.7976L34.4658 29.2664L30.0714 34.6691L30.6984 29.7976ZM29.4764 34.5576L26.3618 26.675L30.1105 29.6308L29.4764 34.5576Z" fill="white"/>
</g>
<defs>
<clipPath id="clip0_1_1018">
<rect width="30.8571" height="30.8571" fill="white" transform="translate(6.85693 6.85742)"/>
</clipPath>
</defs>
</svg>
