<svg width="14" height="14" viewBox="0 0 14 14" fill="none" xmlns="http://www.w3.org/2000/svg">
<path d="M9.90457 3.8623C8.15947 2.26178 5.44711 2.37889 3.84659 4.12399C2.58294 5.50186 2.35739 7.54047 3.28995 9.16123C4.47552 11.21 7.09535 11.9126 9.14552 10.7285C10.1113 10.1704 10.8227 9.2581 11.1263 8.18386C11.255 7.72842 11.7292 7.46384 12.1846 7.59251C12.6401 7.72119 12.9046 8.19542 12.776 8.65085C11.8738 11.8389 8.55852 13.6924 5.36904 12.7902C2.181 11.888 0.327463 8.57278 1.22965 5.3833C2.13185 2.19382 5.44711 0.341729 8.63659 1.24392C9.56481 1.50706 10.4164 1.98852 11.1176 2.6507L12.2699 1.49838C12.4377 1.33067 12.708 1.33067 12.8757 1.49694C12.9567 1.5779 13.0015 1.68634 13.0015 1.80056V5.48017C13.0015 5.71729 12.8092 5.90813 12.5736 5.90813H8.8925C8.65539 5.90813 8.46454 5.71584 8.46454 5.47873C8.46454 5.36595 8.50936 5.25752 8.58888 5.17655L9.90457 3.8623Z" fill="#3F81FF"/>
</svg>
