<svg width="12" height="12" viewBox="0 0 12 12" fill="none" xmlns="http://www.w3.org/2000/svg">
<rect opacity="0.01" width="12" height="12" transform="matrix(1 0 0 -1 0 12)" fill="black"/>
<path fill-rule="evenodd" clip-rule="evenodd" d="M6.00001 12C2.68659 12 0.00012207 9.31355 0.00012207 6.00012C0.00012207 2.68647 2.6866 0 6.00001 0C9.31367 0 11.9999 2.68645 11.9999 6.00012C12.0001 9.31356 9.31392 12 6.00001 12ZM6.90934 3.40873C6.90934 2.91168 6.5064 2.50873 6.00934 2.50873H5.99063C5.49357 2.50873 5.09063 2.91168 5.09063 3.40873C5.09063 3.90579 5.49357 4.30873 5.99063 4.30873H6.00934C6.5064 4.30873 6.90934 3.90579 6.90934 3.40873ZM6 5.06897C6.44098 5.06897 6.79846 5.42645 6.79846 5.86743V8.62613C6.79846 9.06711 6.44098 9.4246 6 9.4246C5.55902 9.4246 5.20154 9.06711 5.20154 8.62613V5.86743C5.20154 5.42645 5.55902 5.06897 6 5.06897Z" fill="#A6AFB6"/>
</svg>
