<svg width="90" height="90" viewBox="0 0 90 90" fill="none" xmlns="http://www.w3.org/2000/svg">
<g clip-path="url(#clip0_1_823)">
<path d="M44.9999 0C20.146 0 0 20.1474 0 44.9999C0 69.8525 20.146 89.9999 44.9999 89.9999C69.8525 89.9999 90 69.8525 90 44.9999C90 20.1474 69.8525 0 44.9999 0ZM69.6109 36.3103L40.2759 65.6444C39.5903 66.3314 38.477 66.3314 37.7914 65.6444L20.3891 48.2422C19.7036 47.5567 19.7036 46.4433 20.3891 45.7571L25.8589 40.2881C26.5444 39.6018 27.6577 39.6018 28.3433 40.2881L39.0338 50.977L61.6567 28.3555C62.3422 27.6692 63.4556 27.6692 64.1412 28.3555L69.611 33.8245C70.2978 34.5107 70.2978 35.624 69.6109 36.3103Z" fill="#64DA93"/>
<path d="M69.6108 36.3103L40.2758 65.6444C39.5903 66.3314 38.477 66.3314 37.7914 65.6444L20.3891 48.2422C19.7036 47.5566 19.7036 46.4433 20.3891 45.7571L25.8589 40.2881C26.5444 39.6018 27.6577 39.6018 28.3433 40.2881L39.0338 50.977L61.6567 28.3554C62.3422 27.6692 63.4556 27.6692 64.1412 28.3554L69.611 33.8245C70.2978 34.5107 70.2978 35.624 69.6108 36.3103Z" fill="white"/>
</g>
<defs>
<clipPath id="clip0_1_823">
<rect width="90" height="90" fill="white"/>
</clipPath>
</defs>
</svg>
