<svg width="90" height="90" viewBox="0 0 90 90" fill="none" xmlns="http://www.w3.org/2000/svg">
<path d="M44.9963 0C39.0869 0.000328201 33.2355 1.16461 27.7762 3.42638C22.3168 5.68814 17.3564 9.00309 13.1781 13.182C8.99977 17.3608 5.68546 22.3218 3.42437 27.7816C1.16327 33.2413 -0.00032821 39.093 6.94423e-08 45.0025C0.000328349 50.912 1.16458 56.7635 3.42628 62.2231C5.68798 67.6826 9.00284 72.6432 13.1816 76.8216C17.3603 81 22.3212 84.3144 27.7808 86.5755C33.2404 88.8367 39.0919 90.0003 45.0013 90C56.9357 90 68.3813 85.2589 76.8202 76.8198C85.2591 68.3807 90 56.9347 90 45C90 33.0653 85.2591 21.6193 76.8202 13.1802C68.3813 4.74105 56.9357 1.77842e-07 45.0013 0H44.9963Z" fill="#B3BBC7"/>
<path d="M39.9966 24.5289C39.9966 23.4243 40.892 22.5289 41.9966 22.5289H47.9958C49.1003 22.5289 49.9958 23.4243 49.9958 24.5289V49.0273C49.9958 50.1318 49.1003 51.0273 47.9958 51.0273H41.9966C40.892 51.0273 39.9966 50.1318 39.9966 49.0273V24.5289ZM39.9966 60.0267C39.9966 58.9221 40.892 58.0267 41.9966 58.0267H47.9958C49.1003 58.0267 49.9958 58.9221 49.9958 60.0267V66.0261C49.9958 67.1307 49.1003 68.0261 47.9958 68.0261H41.9966C40.892 68.0261 39.9966 67.1307 39.9966 66.0261V60.0267Z" fill="white"/>
</svg>
