<svg width="36" height="36" viewBox="0 0 36 36" fill="none" xmlns="http://www.w3.org/2000/svg">
<g opacity="0.9">
<g clip-path="url(#clip0_1_205)">
<path d="M18.0084 33.0168C26.2973 33.0168 33.0168 26.2973 33.0168 18.0084C33.0168 9.71949 26.2973 3 18.0084 3C9.71949 3 3 9.71949 3 18.0084C3 26.2973 9.71949 33.0168 18.0084 33.0168Z" fill="url(#paint0_linear_1_205)"/>
<path d="M27.4851 17.091L23.2459 12.8518L23.2382 12.8441L23.2214 12.8294C23.194 12.8046 23.1653 12.7813 23.1354 12.7595C23.1145 12.7427 23.0935 12.7266 23.0711 12.7119C23.0613 12.7049 23.0515 12.6993 23.041 12.6931C22.7994 12.5348 22.507 12.4731 22.222 12.5204C21.937 12.5677 21.6802 12.7204 21.5026 12.9483L14.9096 19.542V13.6679C14.9096 13.3591 14.7869 13.0629 14.5685 12.8446C14.3502 12.6262 14.054 12.5035 13.7452 12.5035C13.4364 12.5035 13.1403 12.6262 12.9219 12.8446C12.7036 13.0629 12.5809 13.3591 12.5809 13.6679V19.542L10.1739 17.135C9.95388 16.9252 9.66054 16.8098 9.35655 16.8134C9.05256 16.817 8.76205 16.9394 8.54708 17.1544C8.33211 17.3693 8.20975 17.6598 8.20614 17.9638C8.20252 18.2678 8.31795 18.5611 8.52774 18.7812L12.9221 23.1756C12.9498 23.2035 12.9789 23.2299 13.0096 23.2546C13.0389 23.2784 13.0697 23.3014 13.1005 23.3245C13.2592 23.4274 13.4407 23.4901 13.6291 23.507H13.634C13.6718 23.5105 13.7096 23.5126 13.7473 23.5126H13.7648C13.7965 23.5126 13.828 23.5112 13.8592 23.5084H13.8823C13.9124 23.5049 13.9424 23.5014 13.9718 23.4951H13.9851C14.0179 23.4882 14.0508 23.4805 14.083 23.4707H14.0886C14.1237 23.4601 14.1582 23.4477 14.1921 23.4336C14.2403 23.4137 14.287 23.3903 14.3319 23.3637L14.3585 23.3483C14.4025 23.3214 14.4445 23.2915 14.4844 23.2588L14.4963 23.2483C14.5207 23.2273 14.5452 23.2063 14.5662 23.1826L21.2515 16.493V22.349C21.2515 22.6578 21.3742 22.954 21.5925 23.1723C21.8109 23.3907 22.1071 23.5133 22.4159 23.5133C22.7247 23.5133 23.0208 23.3907 23.2392 23.1723C23.4575 22.954 23.5802 22.6578 23.5802 22.349V16.4749L25.8389 18.7378C26.0582 18.9518 26.353 19.0708 26.6594 19.0689C26.9658 19.0671 27.2591 18.9445 27.4757 18.7278C27.6923 18.511 27.8148 18.2177 27.8166 17.9113C27.8183 17.6049 27.6992 17.3101 27.4851 17.091Z" fill="white"/>
</g>
</g>
<defs>
<linearGradient id="paint0_linear_1_205" x1="5.00839" y1="10.5028" x2="31.0084" y2="25.5133" gradientUnits="userSpaceOnUse">
<stop offset="0.13" stop-color="#348BED"/>
<stop offset="0.31" stop-color="#2B80E8"/>
<stop offset="0.64" stop-color="#1461DB"/>
<stop offset="0.72" stop-color="#0E57D7"/>
</linearGradient>
<clipPath id="clip0_1_205">
<rect width="30" height="30" fill="white" transform="translate(3 3)"/>
</clipPath>
</defs>
</svg>
