<svg width="30" height="30" viewBox="0 0 30 30" fill="none" xmlns="http://www.w3.org/2000/svg">
<circle cx="15" cy="15" r="14.25" stroke="#3F81FF" stroke-width="1.5"/>
<path d="M21.895 18.6646C21.3521 20.4185 18.4653 21.7563 14.9868 21.7563C11.5356 21.7563 8.66846 20.4399 8.09229 18.7075C8.03174 18.9028 8.00049 19.104 8.00049 19.3071C8.00049 21.3462 11.1353 22.9985 15.0024 22.9985C18.8696 22.9985 22.0044 21.3462 22.0044 19.3071C22.0024 19.0884 21.9653 18.8735 21.895 18.6646Z" fill="#3F81FF"/>
<path d="M21.895 16.106C21.3521 17.8599 18.4653 19.1978 14.9868 19.1978C11.5356 19.1978 8.66846 17.8813 8.09229 16.1489C8.03174 16.3442 8.00049 16.5454 8.00049 16.7485C8.00049 18.7876 11.1353 20.4399 15.0024 20.4399C18.8696 20.4399 22.0044 18.7876 22.0044 16.7485C22.0024 16.5298 21.9653 16.3149 21.895 16.106Z" fill="#3F81FF"/>
<path d="M21.895 13.4692C21.3521 15.2231 18.4653 16.561 14.9868 16.561C11.5356 16.561 8.66846 15.2446 8.09229 13.5122C8.03174 13.7075 8.00049 13.9087 8.00049 14.1118C8.00049 16.1509 11.1353 17.8032 15.0024 17.8032C18.8696 17.8032 22.0044 16.1509 22.0044 14.1118C22.0024 13.8931 21.9653 13.6782 21.895 13.4692Z" fill="#3F81FF"/>
<path d="M7.99805 11.2476C7.99805 11.7323 8.17916 12.2123 8.53104 12.6602C8.88292 13.1081 9.39868 13.515 10.0489 13.8578C10.6991 14.2006 11.471 14.4725 12.3205 14.658C13.17 14.8435 14.0805 14.939 15 14.939C15.9195 14.939 16.83 14.8435 17.6795 14.658C18.529 14.4725 19.3009 14.2006 19.9511 13.8578C20.6013 13.515 21.1171 13.1081 21.469 12.6602C21.8208 12.2123 22.002 11.7323 22.002 11.2476C22.002 10.7628 21.8208 10.2828 21.469 9.83492C21.1171 9.38706 20.6013 8.98012 19.9511 8.63734C19.3009 8.29456 18.529 8.02265 17.6795 7.83714C16.83 7.65163 15.9195 7.55615 15 7.55615C14.0805 7.55615 13.17 7.65163 12.3205 7.83714C11.471 8.02265 10.6991 8.29456 10.0489 8.63734C9.39868 8.98012 8.88292 9.38706 8.53104 9.83492C8.17916 10.2828 7.99805 10.7628 7.99805 11.2476Z" fill="#3F81FF"/>
</svg>
