<svg width="12" height="12" viewBox="0 0 12 12" fill="none" xmlns="http://www.w3.org/2000/svg">
  <path
    d="M5.99988 0C2.68647 0 0 2.68645 0 5.99988C0 9.31354 2.68648 12 5.99988 12C9.31355 12 11.9998 9.31355 11.9998 5.99988C12 2.68644 9.31379 0 5.99988 0Z"
    fill="#CCCCCC" />
  <path fill-rule="evenodd" clip-rule="evenodd"
        d="M5.33279 6.90829L8.20721 4.03387C8.51903 3.72205 9.02458 3.72205 9.3364 4.03387C9.64822 4.34569 9.64822 4.85125 9.3364 5.16306L5.92125 8.57822C5.91367 8.58646 5.90588 8.59458 5.89788 8.60258C5.58606 8.9144 5.0805 8.9144 4.76868 8.60258L2.93308 6.76698C2.62126 6.45516 2.62126 5.9496 2.93308 5.63778C3.2449 5.32596 3.75046 5.32596 4.06228 5.63778L5.33279 6.90829Z"
        fill="white" />
</svg>
