<?xml version="1.0" standalone="no"?><!DOCTYPE svg PUBLIC "-//W3C//DTD SVG 1.1//EN" "http://www.w3.org/Graphics/SVG/1.1/DTD/svg11.dtd"><svg t="1706523436022" class="icon" viewBox="0 0 2898 1024" version="1.1" xmlns="http://www.w3.org/2000/svg" p-id="42647" xmlns:xlink="http://www.w3.org/1999/xlink" width="181.125" height="64"><path d="M444.762585 888.784738v-70.797784h-70.356677v-28.010339h85.574892v-14.997661h-85.574892v-21.393723h-15.659323v64.401723h-59.990647v70.797784h146.006647z m-15.879877-14.777107h-114.246893v-41.023016h114.246893v41.023016z m27.789784 81.825477l13.233231-9.263262c-7.498831-13.674338-18.085415-29.774769-32.200861-48.301292l-12.792124 8.160492c13.453785 18.085415 24.040369 34.4064 31.759754 49.404062z m-173.79643-1.10277c11.027692-14.115446 20.511508-30.656985 28.892553-49.845169l-13.453784-6.396061c-7.939938 18.085415-17.423754 33.744738-28.451446 46.757415l13.012677 9.483815z m111.159138 0.661662l15.659323-3.528862a356.604062 356.604062 0 0 0-17.2032-49.183507l-14.997661 3.087754c6.616615 14.336 12.130462 30.877538 16.541538 49.624615z m-51.6096 0.441108l15.879877-3.528862a550.486646 550.486646 0 0 0-11.909908-47.419077l-14.777107 3.087754c4.190523 13.894892 7.719385 29.774769 10.807138 47.860185z m188.352985 0v-10.145477h120.201846v10.145477h15.218215v-83.589908h-15.218215v58.667323h-52.050708V853.070769h89.324308v-15.438769h-89.324308v-36.611938h71.238892v-15.218216h-71.238892v-31.098092h-16.320985v31.098092h-72.121107v15.218216h72.121107v36.611938h-89.103753v15.438769h89.103753v77.855508h-51.830153v-58.667323h-15.218216v83.589908h15.218216z m316.053661-1.10277A140.540062 140.540062 0 0 0 878.150892 913.723077c7.498831 16.762092 16.541538 30.215877 26.90757 40.361354l9.042707-13.453785c-11.248246-10.145477-20.952615-24.260923-29.113107-42.346338 10.366031-26.245908 15.879877-58.005662 16.762092-95.499816h8.822154v-14.777107h-41.24357c1.764431-10.366031 3.528862-21.393723 5.072739-33.303631l-13.894892-2.426092c-4.631631 44.331323-13.453785 79.619938-26.245908 105.865846l8.822154 11.027692c4.411077-8.381046 8.6016-17.644308 12.571569-28.230892 4.190523 20.732062 9.263262 39.258585 15.218215 55.359015-7.939938 18.526523-18.747077 33.524185-32.421415 45.213539l8.381046 13.23323z m-9.042708-137.846153v-51.830154h-13.012676v38.155815h-15.43877v-50.065723h-13.453784v50.065723h-15.43877v-38.155815h-13.23323v51.830154h70.57723z m-124.392369 6.175507c20.952615-18.305969 36.170831-39.258585 45.654646-62.857846l-13.674338-6.396061c-7.719385 20.290954-20.0704 38.155815-36.832492 53.815138l4.852184 15.438769z m163.871508 55.57957c-5.954954-17.2032-10.807138-37.494154-14.556554-60.431754 1.323323-4.852185 2.426092-9.924923 3.749415-15.43877h21.614277c-0.661662 28.672-4.190523 54.035692-10.807138 75.870524z m-128.582892 77.193846v-112.482462c4.411077-7.498831 8.160492-15.659323 11.248246-24.040369l-13.233231-6.396062c-7.719385 21.614277-20.0704 40.581908-37.2736 57.344l4.631631 15.218216c7.278277-6.616615 13.894892-13.453785 19.849846-20.732062v91.088739h14.777108z m86.898215-105.204185V836.529231h-68.8128v14.115446h68.8128z m-67.048369 103.439754c13.453785-13.674338 20.511508-34.185846 20.952615-61.755077v-9.924923h23.378708v40.1408a8.837908 8.837908 0 0 1-4.190523 6.175508l6.616615 13.23323a192.228431 192.228431 0 0 0 34.185846-29.113107l-3.308307-13.453785c-6.616615 6.616615-13.012677 12.571569-19.188185 18.085415v-49.404061h-52.271262v24.260923c-0.220554 22.496492-6.175508 39.699692-17.864861 51.6096l11.689354 10.145477z m202.688984 1.764431v-149.976616c7.719385-14.997662 14.115446-30.877538 19.408739-47.860184l-14.777108-6.83717c-9.924923 34.4064-25.584246 65.063385-47.198523 91.7504l5.072739 16.982647c7.939938-8.822154 15.218215-18.305969 21.83483-28.010339v123.951262h15.659323z m162.107077-158.578216v-14.997661h-69.474461l8.381046-3.087754a218.773662 218.773662 0 0 0-10.807139-26.687015l-15.218215 4.190523c4.411077 8.381046 8.160492 16.762092 11.4688 25.584246h-67.930585v14.997661h143.580554z m-18.96763 32.200862v-14.336h-104.32197v14.336h104.32197z m0 31.318646v-14.556554h-104.32197v14.556554h104.32197z m-93.073724 94.6176v-11.909908h81.604924v11.909908h15.438769v-76.532185h-112.482462v76.532185h15.438769z m81.604924-26.907569h-81.604924v-34.847508h81.604924v34.847508z m120.4224 27.128123v-12.130462h91.088738v12.130462h15.659323v-106.306954H1219.347692c9.263262-14.556554 16.982646-30.877538 23.599262-48.962954h107.630277v-15.218215h-102.778093c2.8672-9.924923 5.293292-20.290954 7.498831-31.098093l-16.100431-1.984984c-2.205538 11.4688-4.852185 22.496492-8.160492 33.083077H1157.592615v15.218215h68.151139c-15.438769 40.361354-40.581908 71.900554-75.429416 94.397046l8.381047 14.997662a195.300431 195.300431 0 0 0 48.7424-43.669662v89.544862h15.879877z m91.088738-27.348677h-91.088738v-63.740062h91.088738v63.740062z m256.945231 18.305969v-15.438769H1470.779077v-94.397046h81.825477v-15.438769H1470.779077v-68.151139h-16.320985v177.986954h-79.399384v15.438769h196.292923z m38.596923 9.704369c11.4688-14.336 19.408738-31.5392 23.819815-51.389046h55.800123v46.536862h15.659323V904.900923h56.461785v24.260923c0 7.498831-3.749415 11.248246-10.807138 11.248246-8.381046 0-17.644308-0.441108-27.569231-0.882215l3.969969 14.777108h28.230892c14.336 0 21.614277-6.616615 21.614277-19.629293v-126.818461h-56.902892c9.924923-7.057723 19.849846-15.438769 29.774769-25.143139v-11.689354h-82.266584c3.528862-5.072738 7.278277-10.366031 10.807138-15.879876l-15.879877-3.528862a208.139815 208.139815 0 0 1-68.8128 65.504492l10.145477 12.130462c6.175508-3.969969 12.130462-7.939938 18.085415-12.351016v52.491816c-0.441108 30.656985-8.381046 56.020677-24.260923 75.870523l12.130462 11.027692z m87.118769-148.432738h-63.960615a254.188308 254.188308 0 0 0 23.378707-22.9376h71.68a280.576 280.576 0 0 1-31.098092 22.9376z m64.622277 42.566892h-56.461785V822.193231h56.461785v28.230892z m-72.121108 0h-51.830154V822.193231h51.830154v28.230892z m0 40.361354h-53.37403c0.882215-7.057723 1.323323-14.556554 1.543876-22.496492v-3.749416h51.830154v26.245908z m72.121108 0h-56.461785v-26.245908h56.461785v26.245908z m67.489477 64.181169c19.408738-10.145477 33.303631-24.481477 41.684677-43.008 6.616615-14.997662 10.807138-33.744738 12.792123-56.461784h63.740061v97.705354h16.100431v-97.705354h48.301293v-15.218216h-48.301293v-58.446769h36.832493v-15.438769h-171.811447v15.438769h40.1408v50.727385c0 2.205538-0.220554 4.852185-0.220553 7.719384h-51.830154v15.218216h50.947938c-1.764431 17.644308-4.852185 32.641969-9.483815 45.434092-7.057723 16.762092-19.629292 30.215877-37.494154 40.361354l8.6016 13.674338z m118.216861-114.688h-62.637292c0-2.426092 0.220554-5.072738 0.220554-7.719384v-50.727385h62.416738v58.446769z m97.043693 115.79077c13.233231-12.351015 24.040369-26.907569 32.862523-43.669662a340.550892 340.550892 0 0 1 22.055384 26.245908l10.586585-12.351016c-6.616615-8.822154-15.218215-18.526523-25.584246-29.333661 10.586585-26.025354 16.762092-56.682338 18.526523-92.412062v-9.263261h-32.641969a1892.036923 1892.036923 0 0 0 5.954954-41.684677l-15.659323-1.323323a1126.147938 1126.147938 0 0 1-5.954954 43.008h-20.290954v15.218215h17.644308a688.726646 688.726646 0 0 1-13.894893 62.196185 1162.271508 1162.271508 0 0 1 28.451446 28.010338 144.9984 144.9984 0 0 1-31.980307 42.787446l9.924923 12.57157z m174.016984-106.748062l14.777108-7.057723a556.8512 556.8512 0 0 0-34.185846-63.740062l-13.674339 6.616616c6.396062 10.145477 12.571569 21.393723 18.747077 33.524184a751.143385 751.143385 0 0 1-70.57723 7.719385c13.233231-16.982646 26.245908-39.699692 39.479138-68.371692l-14.997661-5.072739c-18.967631 43.228554-34.847508 67.930585-47.639631 74.5472l2.426092 14.336c35.950277-2.205538 68.592246-5.513846 97.925908-9.704369 2.646646 5.513846 5.072738 11.248246 7.719384 17.2032z m-145.344984 36.170831a700.0064 700.0064 0 0 0-18.085416-17.423754c4.411077-15.218215 8.6016-34.4064 12.792123-57.564554h20.0704c-1.543877 28.010338-6.396062 52.932923-14.777107 74.988308z m63.519507 70.136123v-13.233231h67.489477v13.233231h15.218216v-93.955939h-97.925908v93.955939h15.218215z m67.489477-28.230892h-67.489477V876.228923h67.489477v51.168492z m240.403693-79.399385l10.586584-12.571569c-32.862523-19.629292-55.579569-46.536862-68.371692-80.502154l-13.674338 7.719384c13.453785 34.847508 37.2736 63.298954 71.459446 85.354339z m-181.295262 0.882215c18.305969-12.351015 33.083077-24.922585 44.110769-37.714707 10.366031-11.689354 20.732062-26.687015 31.098093-44.992985l-13.894893-8.381046a232.920615 232.920615 0 0 1-29.113107 43.449108 159.287138 159.287138 0 0 1-40.802462 33.744738l8.6016 13.894892z m11.909908 107.18917c22.496492-12.571569 39.479138-26.687015 50.727384-42.566893 9.483815-14.115446 16.762092-33.303631 22.055385-57.344h54.917908c-1.102769 34.4064-3.528862 56.682338-7.498831 67.268923-3.749415 10.145477-11.4688 15.218215-23.378708 15.218216-11.4688 0-23.599262-0.220554-36.391384-0.661662l4.411077 15.659323h40.1408c11.027692-0.661662 18.967631-4.190523 23.819815-10.586584 5.072738-6.616615 8.6016-18.526523 10.807138-35.288616 2.205538-16.982646 3.528862-39.258585 4.190524-66.827815h-131.670647v15.218215h44.551877c-4.631631 20.732062-11.4688 37.494154-20.732061 50.286277-10.366031 13.233231-25.8048 25.363692-46.095754 36.391385l10.145477 13.233231z m396.335261-169.385354v-14.997662h-88.221538a152.103385 152.103385 0 0 0-9.924923-18.967631l-18.085416 2.8672c3.749415 4.852185 7.278277 10.366031 10.586585 16.100431h-85.795446v14.997662h191.440738z m-29.554215 57.785107v-44.551877h-132.111754v44.551877h132.111754z m-15.218215-13.674338h-101.675323v-17.2032h101.675323v17.2032z m-58.887877 124.612923c13.012677 0 19.629292-6.837169 19.629292-20.0704V914.825846h88.8832v-14.556554h-88.8832v-4.190523a1055.255631 1055.255631 0 0 0 63.960615-26.687015v-11.4688h-154.8288v14.336h123.510154c-18.526523 7.719385-34.626954 14.115446-48.301292 19.408738v8.6016h-96.602585v14.556554h96.602585v15.879877c0 7.498831-3.528862 11.248246-10.145477 11.248246-7.057723 0-16.762092-0.441108-29.113108-1.102769l4.190523 14.556554h31.098093zM2552.0128 77.760985a7.876923 7.876923 0 0 1 2.300062-9.814647l1.213046-0.756184 86.882461-43.543631a7.876923 7.876923 0 0 1 10.618093 3.607631l0.504123 1.370584 28.010338 102.4a7.876923 7.876923 0 0 1-14.698338 5.482339l-0.48837-1.323323-25.473969-93.136739-78.296615 39.227077a7.876923 7.876923 0 0 1-9.8304-2.300061l-0.740431-1.213046z" fill="#FE391E" p-id="42648"></path><path d="M78.769231 791.552a78.769231 78.769231 0 1 0 0 157.538462 78.769231 78.769231 0 0 0 0-157.538462z" fill="#FE391E" opacity=".2" p-id="42649"></path><path d="M78.769231 823.059692a47.261538 47.261538 0 1 1 0 94.523077 47.261538 47.261538 0 0 1 0-94.523077zM2682.816985 627.601723c53.956923 12.445538 55.532308 105.078154 43.086769 159.035077 12.445538-53.956923 54.4768-136.507077 108.433723-124.061538-53.956923-12.445538-60.605046-83.1488-48.143754-137.08997-12.445538 53.941169-49.419815 114.577723-103.376738 102.116431M2819.938462 821.437046c27.679508 0 38.880492 44.945723 38.880492 72.625231 0-27.679508 11.185231-72.625231 38.864738-72.625231-27.679508 0-38.864738-33.713231-38.864738-61.392738 0 27.695262-11.185231 61.392738-38.880492 61.392738M154.954831 653.705846a1115.608615 1115.608615 0 0 1 32.704984-53.374031 7.876923 7.876923 0 0 0-13.185969-8.6016 1131.362462 1131.362462 0 0 0-33.1776 54.114462 7.876923 7.876923 0 0 0 13.658585 7.861169z m68.481969-104.668554a910.336 910.336 0 0 1 39.006523-48.789661 7.876923 7.876923 0 0 0-11.957169-10.255754 926.089846 926.089846 0 0 0-39.683939 49.624615 7.876923 7.876923 0 1 0 12.634585 9.4208z m81.447385-94.680615a767.984246 767.984246 0 0 1 45.79643-42.346339 7.876923 7.876923 0 1 0-10.208492-11.988676 783.738092 783.738092 0 0 0-46.741661 43.2128 7.876923 7.876923 0 0 0 11.153723 11.122215z m95.373784-80.974769a692.0192 692.0192 0 0 1 52.350031-33.792 7.876923 7.876923 0 0 0-7.924185-13.611323 707.773046 707.773046 0 0 0-53.563077 34.563938 7.876923 7.876923 0 1 0 9.137231 12.839385z m107.283693-62.54277a685.071754 685.071754 0 0 1 57.596061-23.772553 7.876923 7.876923 0 1 0-5.340554-14.808616c-20.0704 7.215262-39.699692 15.328492-58.919384 24.292431a7.876923 7.876923 0 0 0 6.663877 14.272985z m117.618215-42.409353a747.283692 747.283692 0 0 1 60.920123-13.296247 7.876923 7.876923 0 1 0-2.709662-15.517538 763.021785 763.021785 0 0 0-62.227692 13.579815 7.876923 7.876923 0 1 0 4.017231 15.23397z m123.478646-21.724554a877.300185 877.300185 0 0 1 62.337969-3.670646 7.876923 7.876923 0 1 0-0.378092-15.753847 893.054031 893.054031 0 0 0-63.456492 3.749416 7.876923 7.876923 0 1 0 1.496615 15.675077z m123.746462-3.150769c20.48 0.803446 41.275077 2.2528 62.38523 4.332307a7.876923 7.876923 0 0 0 1.543877-15.675077c-21.425231-2.111015-42.535385-3.576123-63.314707-4.411077a7.876923 7.876923 0 0 0-0.630154 15.753847z m124.707446 12.177723c20.2752 3.087754 40.833969 6.726892 61.676307 10.917415a7.876923 7.876923 0 1 0 3.103508-15.438769 1337.123446 1337.123446 0 0 0-62.416738-11.0592 7.876923 7.876923 0 1 0-2.363077 15.580554z m123.100554 24.670523c9.546831 2.363077 19.156677 4.820677 28.829538 7.404307l32.106339 8.727631a7.876923 7.876923 0 1 0 4.096-15.218215l-17.48677-4.757662a1622.646154 1622.646154 0 0 0-43.779938-11.453046 7.876923 7.876923 0 1 0-3.765169 15.296985z m121.997784 31.917292c20.527262 5.072738 41.007262 9.924923 61.44 14.493538a7.876923 7.876923 0 0 0 3.465846-15.36c-20.322462-4.568615-40.707938-9.373538-61.124923-14.430523a7.876923 7.876923 0 0 0-3.780923 15.296985z m123.384123 27.726769c20.747815 4.174769 41.432615 8.113231 62.070154 11.799631a7.876923 7.876923 0 0 0 2.756923-15.501785 2795.677538 2795.677538 0 0 1-61.707815-11.752369 7.876923 7.876923 0 1 0-3.119262 15.438769z m124.549908 22.212923c20.952615 3.245292 41.810708 6.222769 62.574277 8.916677a7.876923 7.876923 0 1 0 2.032246-15.627815c-20.637538-2.678154-41.3696-5.639877-62.196185-8.853662a7.876923 7.876923 0 1 0-2.410338 15.5648z m125.274585 16.289477c21.110154 2.221292 42.110031 4.159015 62.952369 5.797416a7.876923 7.876923 0 0 0 1.2288-15.706585 2412.859077 2412.859077 0 0 1-62.542769-5.750154 7.876923 7.876923 0 0 0-1.6384 15.659323z m126.172553 9.924923c21.267692 1.071262 42.346338 1.858954 63.220185 2.315816a7.876923 7.876923 0 1 0 0.346585-15.753846c-20.716308-0.456862-41.637415-1.2288-62.763323-2.315816a7.876923 7.876923 0 0 0-0.803447 15.753846z m126.613662 2.756923c21.346462-0.173292 42.425108-0.708923 63.220185-1.575384a7.876923 7.876923 0 0 0-0.645908-15.738093c-20.637538 0.866462-41.542892 1.386338-62.700308 1.575385a7.876923 7.876923 0 0 0 0.126031 15.753846z m126.314338-5.293292a1631.783385 1631.783385 0 0 0 63.015385-6.080985 7.876923 7.876923 0 0 0-1.827446-15.643569 1616.029538 1616.029538 0 0 1-62.385231 6.017969 7.876923 7.876923 0 0 0 1.197292 15.706585z m125.983508-14.761354c21.267692-3.402831 42.062769-7.231015 62.353723-11.484554a7.876923 7.876923 0 1 0-3.229538-15.423015 1316.548923 1316.548923 0 0 1-61.613293 11.342769 7.876923 7.876923 0 1 0 2.489108 15.5648z m124.360862-26.182892a1037.296246 1037.296246 0 0 0 60.857107-18.164185 7.876923 7.876923 0 0 0-4.978215-14.966154 1021.558154 1021.558154 0 0 1-59.927631 17.912124 7.876923 7.876923 0 0 0 4.048739 15.218215z m120.296369-40.266831a767.826708 767.826708 0 0 0 57.816615-26.702769 7.876923 7.876923 0 0 0-7.215261-14.005169 752.088615 752.088615 0 0 1-56.619323 26.151384 7.876923 7.876923 0 1 0 6.017969 14.556554z m112.986585-58.494031a547.178338 547.178338 0 0 0 51.641107-37.651692 7.876923 7.876923 0 0 0-10.019446-12.161969 531.440246 531.440246 0 0 1-50.176 36.580431 7.876923 7.876923 0 0 0 8.554339 13.23323z m98.540307-82.061784a402.558031 402.558031 0 0 0 39.557908-50.648616 7.876923 7.876923 0 0 0-13.154462-8.664615 386.819938 386.819938 0 0 1-38.01403 48.679385 7.876923 7.876923 0 0 0 11.610584 10.633846z" fill="#FE391E" p-id="42650"></path></svg>