<svg width="196" height="76" viewBox="0 0 196 76" fill="none" xmlns="http://www.w3.org/2000/svg">
<path d="M0 61.216V49.1066L30.3622 1.27276H40.8026V18.0341H34.6236L15.483 48.3253V48.8935H58.6293V61.216H0ZM34.9077 74V57.5228L35.1918 52.1605V1.27276H49.6094V74H34.9077Z" fill="#969BA1"/>
<path d="M97.3899 75.5981C91.282 75.5744 86.0263 74.0711 81.6229 71.0881C77.2431 68.1051 73.8696 63.7846 71.5021 58.1265C69.1584 52.4683 67.9983 45.662 68.022 37.7074C68.022 29.7765 69.1939 23.0176 71.5376 17.4304C73.9051 11.8433 77.2786 7.59378 81.6584 4.68185C86.0618 1.74625 91.3056 0.278442 97.3899 0.278442C103.474 0.278442 108.706 1.74625 113.086 4.68185C117.489 7.61746 120.875 11.8788 123.242 17.4659C125.61 23.0294 126.781 29.7765 126.758 37.7074C126.758 45.6856 125.574 52.5038 123.207 58.162C120.863 63.8201 117.501 68.1407 113.121 71.1236C108.742 74.1066 103.498 75.5981 97.3899 75.5981ZM97.3899 62.8495C101.557 62.8495 104.883 60.7543 107.369 56.564C109.854 52.3736 111.085 46.0881 111.062 37.7074C111.062 32.1913 110.494 27.5985 109.357 23.929C108.245 20.2595 106.658 17.5015 104.599 15.6549C102.563 13.8083 100.16 12.885 97.3899 12.885C93.2469 12.885 89.9325 14.9565 87.4467 19.0995C84.9609 23.2425 83.7062 29.4451 83.6825 37.7074C83.6825 43.2945 84.2389 47.9584 85.3516 51.6989C86.4879 55.4158 88.0859 58.2093 90.1456 60.0796C92.2053 61.9262 94.62 62.8495 97.3899 62.8495Z" fill="#969BA1"/>
<path d="M136.621 61.216V49.1066L166.983 1.27276H177.424V18.0341H171.245L152.104 48.3253V48.8935H195.25V61.216H136.621ZM171.529 74V57.5228L171.813 52.1605V1.27276H186.23V74H171.529Z" fill="#969BA1"/>
</svg>
