<svg width="48" height="48" viewBox="0 0 48 48" fill="none" xmlns="http://www.w3.org/2000/svg">
<rect width="48" height="48" rx="24" fill="#303134"/>
<path d="M34.5902 35.6843C35.7419 35.6835 36.6714 34.7495 36.6714 33.5979V30.9321C36.6714 27.0044 28.5753 25.0377 23.9998 25.0377C19.4242 25.0377 11.3281 27.0044 11.3281 30.9321V33.6013C11.3281 34.7539 12.2606 35.6882 13.4132 35.6882C20.0074 35.6882 29.2631 35.6878 34.5902 35.6843ZM23.9998 22.6567C27.7886 22.7377 30.9181 19.7297 30.999 15.9409C31.08 12.152 28.0721 9.02257 24.2832 8.94159H23.994C20.2051 9.02257 17.2029 12.1578 17.2781 15.9409C17.3649 19.6198 20.3266 22.5815 23.9998 22.6567Z" fill="#1FD69A"/>
</svg>
