<svg width="20" height="20" viewBox="0 0 20 20" fill="none" xmlns="http://www.w3.org/2000/svg">
<path fill-rule="evenodd" clip-rule="evenodd" d="M10 20C15.5229 20 20 15.5228 20 10C20 4.47715 15.5229 0 10 0C4.47713 0 0 4.47715 0 10C0 15.5228 4.47713 20 10 20ZM12.357 6.07165C12.7909 5.63774 13.4945 5.63772 13.9284 6.07165C14.3623 6.50559 14.3623 7.20909 13.9284 7.643L11.5713 10L13.9284 12.357C14.3623 12.791 14.3623 13.4945 13.9284 13.9284C13.4945 14.3623 12.7909 14.3623 12.357 13.9284L10 11.5714L7.64296 13.9284C7.20907 14.3623 6.50553 14.3623 6.07164 13.9284C5.63768 13.4945 5.63768 12.791 6.07164 12.357L8.42868 10L6.07164 7.643C5.63768 7.20907 5.63768 6.50557 6.07164 6.07165C6.50553 5.63774 7.20907 5.63772 7.64296 6.07165L10 8.42868L12.357 6.07165Z" fill="#EB4155"/>
</svg>
