<svg width="14" height="14" viewBox="0 0 14 14" fill="none" xmlns="http://www.w3.org/2000/svg">
<g opacity="0.7">
<path d="M0 3.76903L5.64961 1.5L11.3115 3.76903L5.6435 6.04417L0 3.76903Z" fill="white"/>
<path d="M0.486878 3.77211V10.8027L0 10.6068V3.77211H0.486878Z" fill="white"/>
<path d="M5.89763 5.73795V12.7992L5.67715 12.888L5.41382 12.7808V5.73795H5.89763Z" fill="white"/>
<path d="M6.32939 12.6247L5.89763 12.7992L5.67716 12.888L5.41383 12.7809L5.02492 12.6247L0.486878 10.8027L0 10.6068V10.0831L0.486878 10.2791L5.41383 12.2572L5.67716 12.3644L5.89763 12.4532L6.32939 12.6247Z" fill="white"/>
<path d="M0 3.76901V4.2957L5.89763 6.66271V6.1391L0 3.76901Z" fill="white"/>
<path d="M14 2.68807L5.61597 6.05639L5.79661 6.50653L14 3.21476V2.68807Z" fill="white"/>
<path d="M14 4.80098L5.61597 8.16625L5.79661 8.61945L14 5.32462V4.80098Z" fill="white"/>
<path d="M14 6.91077L5.61597 10.2791L5.79661 10.7292L14 7.43747V6.91077Z" fill="white"/>
<path d="M13.9999 9.02359V9.54723L6.32934 12.6246L5.89758 12.7992L5.67714 12.888L5.41377 12.7808L5.0249 12.6246L5.41377 12.4685L5.67714 12.3644L5.89758 12.2756L13.9999 9.02359Z" fill="white"/>
</g>
</svg>
