<?xml version="1.0" encoding="UTF-8"?>
<svg viewBox="0 0 20 18" version="1.1" xmlns="http://www.w3.org/2000/svg" xmlns:xlink="http://www.w3.org/1999/xlink"><g transform="translate(-829.000000, -787.000000)" fill="#FFFFFF" fill-rule="nonzero"><g transform="translate(829.000000, 787.000000)"><path d="M17.9637626,4.88017244 C17.9637626,4.69256485 17.9601643,4.50707392 17.9518739,4.322853 C18.7538453,3.72528153 19.4496656,2.97725003 20,2.12126832 C19.2526291,2.4575558 18.45735,2.67513396 17.6428753,2.76614739 C18.4905667,2.24449385 19.1406669,1.41020801 19.4478664,0.409022667 C18.6541501,0.890388916 17.7761903,1.23452431 16.8427031,1.41384162 C16.0947422,0.562763522 15.0273756,0.0206841098 13.8474021,0.000540464481 C11.5812237,-0.0369246091 9.74416505,1.87813338 9.74416504,4.27737985 C9.74416504,4.61841082 9.77983094,4.94914063 9.85063359,5.268511 C6.43806621,5.0489064 3.41408433,3.27259617 1.39128778,0.594795822 C1.0383329,1.23635877 0.835838065,1.98615417 0.835838065,2.78967771 C0.835838065,4.3094474 1.56026869,5.66020094 2.66097282,6.45726865 C1.98713064,6.42678858 1.3559041,6.22270624 0.802253552,5.88809584 L0.802253552,5.94390541 C0.802253552,8.06798466 2.21710694,9.84764627 4.09445292,10.2628665 C3.75028223,10.3607626 3.38727318,10.4117038 3.0139277,10.4098693 C2.75453019,10.4085291 2.49597548,10.3802133 2.24243643,10.3253789 C2.76408996,12.0660232 4.28019078,13.3377191 6.07509243,13.3800878 C4.67032851,14.5448565 2.90075636,15.2406062 0.979524744,15.2357379 C0.648265744,15.2357379 0.320922597,15.2135128 -6.93891838e-16,15.1732255 C1.81663279,16.419345 3.97302655,17.1451165 6.29113397,17.1451165 C13.8370657,17.1469153 17.9637626,10.5788502 17.9637626,4.88017244 L17.9637626,4.88017244 Z"></path></g></g></svg>