<?xml version="1.0" encoding="UTF-8"?>
<svg viewBox="0 0 20 20" version="1.1" xmlns="http://www.w3.org/2000/svg" xmlns:xlink="http://www.w3.org/1999/xlink">
<g stroke="none" stroke-width="1" fill="none" fill-rule="evenodd">
<path d="M0,9.72349635 C0,9.05689985 0.540383233,8.51651662 1.20697973,8.51651662 L15.8621275,8.5189306 L9.40478602,2.06158906 C8.933169,1.58997205 8.933169,0.825329781 9.40478602,0.353712763 C9.87640304,-0.117904254 10.6410453,-0.117904254 11.1126623,0.353712763 L19.646009,8.88826639 C19.872652,9.11465748 20,9.42186097 20,9.74220454 C20,10.0625481 19.872652,10.3697516 19.646009,10.5961427 L11.1126623,19.1294893 C10.6413786,19.6011063 9.87700654,19.6013765 9.40538953,19.1300928 C8.93377252,18.6588091 8.93350232,17.894437 9.40478602,17.42282 L15.8983369,10.93289 L1.20697973,10.931683 C0.540383244,10.931683 0,10.3912998 0,9.72470334 L0,9.72349635 Z" fill="#1FD69A" fill-rule="nonzero" transform="translate(10.000000, 9.741689) scale(-1, 1) translate(-10.000000, -9.741689) "></path></g>
</svg>