<svg width="14" height="14" viewBox="0 0 14 14" fill="none" xmlns="http://www.w3.org/2000/svg">
<g opacity="0.7">
<path fill-rule="evenodd" clip-rule="evenodd" d="M1 6.14286H6.14286V1H1V6.14286ZM2.71429 2.71429H4.42857V4.42857H2.71429V2.71429ZM7.85714 6.14286V1H13V6.14286H7.85714ZM11.2857 4.42857H9.57143V2.71429H11.2857V4.42857ZM6.14286 13H1V7.85714H6.14286V13ZM2.71429 9.57143H4.42857V11.2857H2.71429V9.57143ZM13 7.85714H12.1429V8.71429H10.4286V7.85714H7.85714V13H9.57143V10.4286H10.4286V11.2857H13V7.85714ZM12.1429 12.1429H13V13H12.1429V12.1429ZM11.2857 12.1429H10.4286V13H11.2857V12.1429Z" fill="white"/>
</g>
</svg>
