<svg width="14" height="14" viewBox="0 0 14 14" fill="none" xmlns="http://www.w3.org/2000/svg">
<g opacity="0.7">
<path fill-rule="evenodd" clip-rule="evenodd" d="M9.5 3.4375V1H5.5625C5.25184 1 5 1.25184 5 1.5625V10.1875C5 10.4982 5.25184 10.75 5.5625 10.75H11.9375C12.2482 10.75 12.5 10.4982 12.5 10.1875V4H10.0625C9.75313 4 9.5 3.74688 9.5 3.4375ZM9.5 11.5V12.4375C9.5 12.7482 9.24816 13 8.9375 13H2.5625C2.25184 13 2 12.7482 2 12.4375V3.8125C2 3.50184 2.25184 3.25 2.5625 3.25H4.25V10.1875C4.25 10.9112 4.83877 11.5 5.5625 11.5H9.5ZM10.7897 1.16474L12.3353 2.71026C12.4407 2.81575 12.5 2.95881 12.5 3.10799V3.25H10.25V1H10.392C10.5412 1 10.6843 1.05926 10.7897 1.16474Z" fill="white"/>
</g>
</svg>
