<?xml version="1.0" encoding="UTF-8"?>
<svg viewBox="0 0 20 20" version="1.1" xmlns="http://www.w3.org/2000/svg" xmlns:xlink="http://www.w3.org/1999/xlink"><g transform="translate(-872.000000, -785.000000)" fill="#FFFFFF" fill-rule="nonzero"><g transform="translate(872.000000, 785.000000)"><path d="M10.0011172,3.17525522e-16 C4.4754776,-0.00223355053 0,4.47100966 0,9.99218048 C0,14.3581731 2.79968719,18.0694903 6.69869288,19.4324665 C7.22377388,19.5642953 7.14333594,19.1911527 7.14333594,18.9364325 L7.14333594,17.2047824 C4.11127248,17.56005 3.98838119,15.5535703 3.78505195,15.2184122 C3.3739247,14.5168146 2.40196626,14.3380636 2.6924366,14.0029055 C3.38286225,13.647638 4.08669422,14.092281 4.90224556,15.2966157 C5.49212379,16.1702611 6.6428332,16.0227916 7.22600827,15.8775564 C7.35336834,15.3524754 7.62596358,14.8832541 8.00134063,14.519049 C4.8597922,13.9559834 3.55044129,12.0388792 3.55044129,9.75980421 C3.55044129,8.65378254 3.91464641,7.63713635 4.62965032,6.81711624 C4.17383533,5.46531198 4.67210368,4.3078994 4.73913529,4.13585158 C6.03731427,4.01966344 7.38688415,5.06535666 7.49190035,5.14802899 C8.22924813,4.94916853 9.07161211,4.84415233 10.0145235,4.84415233 C10.9619037,4.84415233 11.8065021,4.9536373 12.550553,5.15473215 C12.8030388,4.96257485 14.0542956,4.06435119 15.2608647,4.17383616 C15.3256619,4.34588398 15.8127584,5.47648391 15.383756,6.81041308 C16.1076975,7.63266758 16.4763714,8.65825131 16.4763714,9.76650737 C16.4763714,12.0500511 15.1580829,13.9693897 12.0075969,14.5235178 C12.5326779,15.0418956 12.8588984,15.7613683 12.8588984,16.5568101 L12.8588984,19.0704958 C12.8767735,19.2715906 12.8588984,19.4704511 13.1940565,19.4704511 C17.1511563,18.1365219 20,14.3983921 20,9.99441487 C20,4.47100966 15.522288,3.17525522e-16 10.0011172,3.17525522e-16 Z"></path></g></g></svg>