<?xml version="1.0" encoding="UTF-8"?>
<svg viewBox="0 0 18 18" version="1.1" xmlns="http://www.w3.org/2000/svg" xmlns:xlink="http://www.w3.org/1999/xlink">
<g stroke="none" stroke-width="1" fill="none" fill-rule="evenodd"><g transform="translate(-398.000000, -120.000000)" fill="#1FD69A" fill-rule="nonzero"><path d="M411.790758,125.546656 C412.14317,125.899068 412.14317,126.452858 411.790758,126.805999 L406.151439,132.459181 C405.800508,132.799193 405.243027,132.799193 404.892096,132.459181 L404.848318,132.408107 L402.210701,129.758087 C401.858289,129.418808 401.858289,128.857722 402.198298,128.511877 C402.538306,128.166032 403.104499,128.165302 403.444507,128.511877 L405.521767,130.58257 L410.532874,125.547385 C410.885286,125.20154 411.444913,125.20154 411.791488,125.547385 L411.790758,125.546656 Z M416,129 C416,133.970977 411.970247,138 407,138 C402.029753,138 398,133.970977 398,129 C398,124.029023 402.029753,120 407,120 C411.970977,120 416.00073,124.029753 416.00073,129 L416,129 Z M414.333522,129 C414.333522,124.949818 411.050182,121.666478 406.99927,121.666478 C402.948358,121.666478 399.666478,124.949818 399.666478,129 C399.666478,133.050182 402.949088,136.333522 406.99927,136.333522 C411.049453,136.333522 414.333522,133.050182 414.333522,129 Z"></path></g></g>
</svg>