<?xml version="1.0" encoding="UTF-8"?>
<svg viewBox="0 0 20 16" version="1.1" xmlns="http://www.w3.org/2000/svg" xmlns:xlink="http://www.w3.org/1999/xlink"><g transform="translate(-916.000000, -787.000000)" fill="#FFFFFF" fill-rule="nonzero"><g transform="translate(916.000000, 787.000000)"><path d="M18.4036458,1.86979167 L20,0.3359375 L20,0 L14.4713542,0 L10.53125,9.85416667 L6.04947917,0 L0.252604167,0 L0.252604167,0.3359375 L2.1171875,2.59114583 C2.29947917,2.7578125 2.39322917,3.00260417 2.36979167,3.24739583 L2.36979167,12.109375 C2.42708333,12.4296875 2.32552083,12.7552083 2.1015625,12.9869792 L0,15.546875 L0,15.8776042 L5.953125,15.8776042 L5.953125,15.5416667 L3.85416667,12.9895833 C3.62760417,12.7578125 3.51822917,12.4348958 3.56510417,12.1119792 L3.56510417,4.4453125 L8.79166667,15.8828125 L9.3984375,15.8828125 L13.8932292,4.4453125 L13.8932292,13.5572917 C13.8932292,13.796875 13.8932292,13.8463542 13.7369792,14.0052083 L12.1197917,15.5755208 L12.1197917,15.9114583 L19.9635417,15.9114583 L19.9635417,15.5755208 L18.4036458,14.0416667 C18.2682292,13.9375 18.1979167,13.7630208 18.2265625,13.59375 L18.2265625,2.31770833 C18.1979167,2.1484375 18.2682292,1.97395833 18.4036458,1.86979167 L18.4036458,1.86979167 Z"></path></g></g></svg>