<svg width="11" height="12" viewBox="0 0 11 12" fill="none" xmlns="http://www.w3.org/2000/svg">
<g id="copy-alt">
<path id="Shape" fill-rule="evenodd" clip-rule="evenodd" d="M10.764 4.002C10.7817 4.05458 10.7937 4.10888 10.8 4.164V4.2V7.8C10.8 8.79411 9.99411 9.6 9 9.6H4.2C3.20589 9.6 2.4 8.79411 2.4 7.8V1.8C2.4 0.805887 3.20589 0 4.2 0H6.636L6.828 0.066H6.882C6.94369 0.0948487 7.0004 0.13333 7.05 0.18L10.65 3.78C10.6967 3.8296 10.7352 3.88631 10.764 3.948V4.002ZM3 10.8H7.8C8.13137 10.8 8.4 11.0686 8.4 11.4C8.4 11.7314 8.13137 12 7.8 12H3C2.20435 12 1.44129 11.6839 0.87868 11.1213C0.31607 10.5587 0 9.79565 0 9V3C5.07251e-05 2.66867 0.268665 2.40009 0.6 2.40009C0.931335 2.40009 1.19995 2.66867 1.2 3V9C1.2 9.99411 2.00589 10.8 3 10.8ZM7.2 2.046L8.754 3.6H7.8C7.46863 3.6 7.2 3.33137 7.2 3V2.046ZM9 8.4C9.33137 8.4 9.6 8.13137 9.6 7.8V4.8H7.8C6.80589 4.8 6 3.99411 6 3V1.2H4.2C3.86863 1.2 3.6 1.46863 3.6 1.8V7.8C3.6 7.95913 3.66321 8.11174 3.77574 8.22426C3.88826 8.33679 4.04087 8.4 4.2 8.4H9Z" fill="#969BA1"/>
</g>
</svg>
