<?xml version="1.0" encoding="UTF-8"?>
<svg viewBox="0 0 20 20" version="1.1" xmlns="http://www.w3.org/2000/svg" xmlns:xlink="http://www.w3.org/1999/xlink">
<g transform="translate(-449.000000, -813.000000)" fill="#1FD69A" fill-rule="nonzero"><path d="M467.1,824.144279 C467.5,823.746269 468.1,823.746269 468.5,824.144279 C468.9,824.542289 468.9,825.139303 468.6,825.636816 L461.5,832.701493 C461.1,833.099502 460.5,833.099502 460.1,832.701493 C460,832.701493 460,832.60199 460,832.60199 L456.5,829.119403 C456.1,828.721393 456.1,828.124378 456.5,827.726368 C456.9,827.328358 457.5,827.328358 457.9,827.726368 L460.7,830.512438 Z M467,813 C468.1,813 469,813.895522 469,814.99005 L469,819.965174 C469,820.562189 468.6,820.960199 468,820.960199 C467.4,820.960199 467,820.562189 467,819.965174 L467,815.985075 C467,815.38806 466.6,814.99005 466,814.99005 L452,814.99005 C451.4,814.99005 451,815.38806 451,815.985075 L451,829.915423 C451,830.512438 451.4,830.910448 452,830.910448 L454,830.910448 C454.6,830.910448 455,831.308458 455,831.905473 C455,832.502488 454.6,832.900498 454,832.900498 L451,832.900498 C449.9,832.900498 449,832.004975 449,830.910448 L449,814.99005 C449,813.895522 449.9,813 451,813 L467,813 Z"></path></g>
</svg>