<?xml version="1.0" encoding="UTF-8"?>
<svg viewBox="0 0 20 17" version="1.1" xmlns="http://www.w3.org/2000/svg" xmlns:xlink="http://www.w3.org/1999/xlink"><g transform="translate(-959.000000, -787.000000)" fill="#FFFFFF" fill-rule="nonzero"><g transform="translate(959.000000, 787.000000)"><path d="M20.0000085,4.4629405 L20.0000085,14.7058773 C20.0000085,15.680497 19.2099146,16.4705824 18.2352949,16.4705824 L1.76471367,16.4705824 C0.790093945,16.4705824 8.5472034e-06,15.680497 8.5472034e-06,14.7058773 L8.5472034e-06,4.4629405 L7.33706424,10.6835261 C8.87339921,11.9861715 11.1266093,11.9861715 12.6629443,10.6835261 L20.0000085,4.4629405 Z M18.2352949,6.1769746e-07 C18.4503277,0.000239032789 18.6635512,0.039296791 18.8647064,0.115295291 C19.1538852,0.225435276 19.4087818,0.410113539 19.6035296,0.650589189 C19.7090523,0.779913714 19.7957904,0.923487033 19.8611765,1.07705958 C19.9376471,1.25823597 19.9847059,1.45470647 19.9964706,1.66117699 L20.0000043,1.76470637 L20.0000043,2.3529414 L11.1452979,9.90587937 C10.5176234,10.4412853 9.60275739,10.4703558 8.94235767,9.97587933 L8.85471065,9.90529113 L4.26111754e-06,2.3529414 L4.26111754e-06,1.76470637 C-0.0014581582,1.09850073 0.373608383,0.488647532 0.96883165,0.189412907 C1.21557254,0.0646580033 1.48822715,-0.000230964901 1.76471367,6.1769746e-07 L18.2352949,6.1769746e-07 Z"></path></g></g></svg>