<?xml version="1.0" encoding="UTF-8"?>
<svg viewBox="0 0 12 12" version="1.1" xmlns="http://www.w3.org/2000/svg" xmlns:xlink="http://www.w3.org/1999/xlink"><g transform="translate(-290.000000, -1205.000000)" fill="#D8D8D8" fill-rule="nonzero"><g transform="translate(290.000000, 1205.000000)"><path d="M5.4,10.8018721 L12,10.8018721 L12,12 L5.4,12 L5.4,10.8018721 Z M5.475,9.97815913 L11.85,3.61310452 C11.925,3.46333853 12,3.31357254 12,3.16380655 C12,3.01404056 11.925,2.86427457 11.85,2.71450858 L9.3,0.168486739 C9.075,-0.0561622465 8.7,-0.0561622465 8.475,0.168486739 L2.025,6.53354134 C2.025,6.60842434 1.95,6.68330733 1.95,6.75819033 L0.675,9.75351014 C0.6,9.97815913 0.6,10.2028081 0.825,10.4274571 L0,11.1762871 L0.825,12 L1.65,11.1762871 C1.8,11.326053 1.95,11.326053 2.1,11.326053 C2.175,11.326053 2.25,11.326053 2.325,11.25117 L5.25,10.0530421 C5.325,10.0530421 5.4,9.97815913 5.475,9.97815913 Z M2.175,10.0530421 L1.875,9.75351014 L2.625,7.95631825 L3.9,9.22932917 L2.175,10.0530421 L2.175,10.0530421 Z M5.025,8.70514821 L4.2,7.88143526 L3.3,6.98283931 L8.85,1.44149766 L10.575,3.16380655 L5.025,8.70514821 L5.025,8.70514821 Z"></path></g></g></svg>