<?xml version="1.0" encoding="UTF-8"?>
<svg viewBox="0 0 14 14" version="1.1" xmlns="http://www.w3.org/2000/svg" xmlns:xlink="http://www.w3.org/1999/xlink"><g transform="translate(-619.000000, -619.000000)" fill="#1FD69A" fill-rule="nonzero"><g transform="translate(619.000000, 619.000000)"><path d="M3.60196484e-16,6.80644745 C3.60196484e-16,6.3398299 0.378268263,5.96156163 0.844885814,5.96156163 L11.1034893,5.96325142 L6.58335021,1.44311234 C6.2532183,1.11298043 6.2532183,0.577730847 6.58335021,0.247598934 C6.91348213,-0.0825329781 7.44873171,-0.0825329781 7.77886362,0.247598934 L13.7522063,6.22178648 C13.9108564,6.38026023 14,6.59530268 14,6.81954318 C14,7.04378368 13.9108564,7.25882613 13.7522063,7.41729989 L7.77886362,13.3906425 C7.44896502,13.7207744 6.91390458,13.7209636 6.58377267,13.391065 C6.25364077,13.0611664 6.25345162,12.5261059 6.58335021,12.195974 L11.1288358,7.65302303 L0.844885814,7.65217813 C0.378268271,7.65217813 3.60196484e-16,7.27390988 3.60196484e-16,6.80729234 L3.60196484e-16,6.80644745 Z"></path></g></g></svg>