<svg width="14" height="14" viewBox="0 0 14 14" fill="none" xmlns="http://www.w3.org/2000/svg">
<g opacity="0.7">
<path d="M2.90964 6.64222C2.90966 6.56408 2.92511 6.48672 2.9551 6.41457C2.98509 6.34241 3.02904 6.2769 3.08443 6.22178C3.13983 6.16666 3.20554 6.12302 3.27784 6.09337C3.35014 6.06373 3.42758 6.04866 3.50572 6.04902L4.49401 6.05224C4.65158 6.05224 4.8027 6.11484 4.91411 6.22625C5.02554 6.33768 5.08814 6.48879 5.08814 6.64636V10.3832C5.19939 10.3502 5.34229 10.315 5.49864 10.2782C5.60725 10.2527 5.70404 10.1912 5.77332 10.1038C5.8426 10.0163 5.88029 9.90803 5.88026 9.79646V5.16105C5.88026 5.00347 5.94285 4.85235 6.05427 4.74091C6.16568 4.62947 6.3168 4.56685 6.47439 4.56681H7.46463C7.62221 4.56685 7.77333 4.62947 7.88474 4.74091C7.99616 4.85235 8.05876 5.00347 8.05876 5.16105V9.46316C8.05876 9.46316 8.30669 9.36283 8.54819 9.2609C8.63789 9.22297 8.71445 9.15945 8.7683 9.07829C8.82216 8.99712 8.85091 8.90189 8.851 8.80449V3.67574C8.851 3.51819 8.91358 3.36709 9.02497 3.25568C9.13636 3.14425 9.28745 3.08165 9.445 3.08162H10.4353C10.5928 3.08162 10.7439 3.14422 10.8554 3.25563C10.9668 3.36705 11.0294 3.51817 11.0294 3.67574V7.89915C11.8879 7.27696 12.7579 6.52866 13.4483 5.62885C13.5485 5.49824 13.6148 5.34488 13.6413 5.18243C13.6677 5.01999 13.6536 4.85351 13.6001 4.69785C13.2805 3.77834 12.7725 2.93566 12.1086 2.22376C11.4446 1.51185 10.6393 0.946378 9.74432 0.563542C8.84929 0.180707 7.88419 -0.0110668 6.91079 0.000493194C5.93739 0.0120533 4.97712 0.226693 4.09145 0.630677C3.20576 1.03466 2.41416 1.61909 1.76731 2.34657C1.12046 3.07405 0.6326 3.92854 0.33495 4.85539C0.0373004 5.78223 -0.0635829 6.76101 0.0387551 7.72908C0.141093 8.69716 0.4444 9.63322 0.929264 10.4773C1.01373 10.6229 1.13799 10.7414 1.28746 10.8189C1.43692 10.8963 1.60538 10.9295 1.77305 10.9145C1.96036 10.8981 2.19357 10.8747 2.47084 10.8422C2.59154 10.8285 2.70298 10.7708 2.78392 10.6803C2.86487 10.5897 2.90966 10.4725 2.90976 10.351L2.90964 6.64222Z" fill="white"/>
<path d="M2.88806 12.6358C3.93184 13.3952 5.16536 13.851 6.45213 13.9528C7.73891 14.0545 9.02876 13.7984 10.179 13.2126C11.3292 12.6267 12.2949 11.7342 12.9693 10.6336C13.6436 9.53295 14.0004 8.26722 14 6.97643C14 6.81536 13.9926 6.656 13.9819 6.49757C11.4255 10.3101 6.70557 12.0925 2.88828 12.6352" fill="#8B8B8B"/>
</g>
</svg>
