<?xml version="1.0" encoding="UTF-8"?>
<svg viewBox="0 0 18 18" version="1.1" xmlns="http://www.w3.org/2000/svg" xmlns:xlink="http://www.w3.org/1999/xlink">
<g stroke="none" stroke-width="1" fill="none" fill-rule="evenodd"><g transform="translate(-682.000000, -120.000000)" fill="#8b8c8f" fill-rule="nonzero"><path d="M691,138 C686.029545,138 682,133.970455 682,129 C682,124.029545 686.029545,120 691,120 C695.970455,120 700,124.029545 700,129 C700,133.970455 695.970455,138 691,138 Z M691,136.363636 C695.066773,136.363636 698.363636,133.066773 698.363636,129 C698.363636,124.933227 695.066773,121.636364 691,121.636364 C686.933227,121.636364 683.636364,124.933227 683.636364,129 C683.636364,133.066773 686.933227,136.363636 691,136.363636 Z M691,127.843091 L693.694273,125.148818 C694.01531,124.83875 694.525615,124.843185 694.841215,125.158785 C695.156815,125.474385 695.16125,125.98469 694.851182,126.305727 L692.156909,129 L694.851182,131.694273 C695.16125,132.01531 695.156815,132.525615 694.841215,132.841215 C694.525615,133.156815 694.01531,133.16125 693.694273,132.851182 L691,130.156909 L688.305727,132.851182 C687.98469,133.16125 687.474385,133.156815 687.158785,132.841215 C686.843185,132.525615 686.83875,132.01531 687.148818,131.694273 L689.843091,129 L687.148818,126.305727 C686.83875,125.98469 686.843185,125.474385 687.158785,125.158785 C687.474385,124.843185 687.98469,124.83875 688.305727,125.148818 L691,127.843091 Z"></path></g></g>
</svg>