<?xml version="1.0" encoding="UTF-8"?>
<svg viewBox="0 0 93 22" version="1.1" xmlns="http://www.w3.org/2000/svg" xmlns:xlink="http://www.w3.org/1999/xlink"><g fill="#FFFFFF"><path d="M0.653083596,2.85717971 C0.710992565,2.85266847 0.76921512,2.8596884 0.824384333,2.87784341 C0.879559048,2.89599292 0.930580118,2.92491439 0.974493227,2.96292437 C1.01841184,3.00093435 1.05434225,3.04728464 1.08021588,3.09927947 L1.06325636,3.06841163 C1.06838133,3.0767616 1.0732212,3.08527396 1.07776929,3.0939337 L5.004,10.754 L15.1796084,10.7543489 C15.2257473,10.7543489 15.2711344,10.761617 15.3142454,10.775516 L15.3592329,10.6903113 L19.0045382,3.10541366 C19.0560874,3.00164955 19.1464773,2.9224167 19.2561225,2.88494587 C19.2607461,2.88336577 19.2653881,2.88186533 19.2700465,2.88044442 C19.2909901,2.87435691 19.3121704,2.86920413 19.3336939,2.86564105 C19.3908547,2.85618394 19.4493358,2.85812597 19.5057264,2.87136812 C19.5621169,2.88461028 19.6153716,2.90888297 19.6623546,2.94278882 C19.7093375,2.97669467 19.7491685,3.01956249 19.7794819,3.0689276 C19.8097952,3.11828721 19.8300958,3.17316485 19.8391183,3.23040263 L19.9549252,3.93046518 C20.0544477,4.62906983 20.1008805,5.33422678 20.0936735,6.03987887 C20.0931233,7.56434925 19.9093177,9.08320809 19.5462175,10.5638314 C19.0524014,12.5853638 18.1925142,14.4993416 17.0091379,16.2110837 C15.6382149,18.1809569 13.6523873,20.1170508 10.7985853,21.6551649 L10.2565208,21.9472955 C10.1925932,21.9819 10.1210185,22 10.0483434,22 C9.97566837,22 9.90414865,21.9819 9.84016601,21.9472955 L9.89548187,21.9724834 C9.86701304,21.9622181 9.83956084,21.9489905 9.81359368,21.9329365 L9.859,21.956 L9.84016601,21.9472955 L9.29733132,21.6551649 C6.44050352,20.117821 4.45543512,18.1809569 3.08681722,16.2110837 C1.90284123,14.4992316 1.04242596,12.5849787 0.548169665,10.5630612 C0.185077789,9.08243788 0.00127705474,7.56357904 0.000725252575,6.03910865 C-0.00647293238,5.33345657 0.0399197108,4.62829961 0.139503772,3.92969497 L0.249820689,3.25729566 C0.252576023,3.2251918 0.258864408,3.19341078 0.268622177,3.16253592 C0.286125804,3.10715765 0.314445413,3.05580098 0.351939903,3.01144775 C0.389434942,2.96708902 0.435358856,2.93061396 0.487053311,2.90413516 C0.538745566,2.87765636 0.595180128,2.86169646 0.653083596,2.85717971 Z M14.856,11.632 L5.454,11.632 L10.057696,20.6123523 L14.856,11.632 Z M0.92996188,4.73743517 C0.891619503,5.17008313 0.874730968,5.60450578 0.879399504,6.03910865 C0.880230233,7.4920043 1.05553608,8.93956348 1.40154299,10.3506476 C1.86959556,12.2680913 2.68478285,14.083592 3.80677875,15.7073097 C4.98729678,17.4042271 6.64527877,19.07577 8.99327446,20.4734601 Z M19.1655346,4.80268087 L16.1444095,11.0798737 L16.1359921,11.0967083 L11.1369401,20.4493522 C13.4636938,19.0565698 15.1100012,17.3944817 16.2830477,15.7073097 C17.4050271,14.083592 18.2202419,12.2680913 18.6882559,10.3506476 C19.0343564,8.9392884 19.2096347,7.49150917 19.2104049,6.03833844 C19.2148223,5.62583747 19.1998429,5.21349669 19.1655346,4.80268087 Z M33.7927261,6.93204545 L33.7927261,7.8444865 L27.02531,7.8444865 C26.9083477,7.84509167 26.7963368,7.89185456 26.713649,7.97454237 C26.6309612,8.05723017 26.5842533,8.16918604 26.5836482,8.28614829 L26.5836482,13.7179061 C26.5844184,13.8347584 26.6312363,13.9466592 26.7138691,14.029292 C26.7965019,14.1119798 26.9084027,14.1587427 27.02531,14.1595679 L33.7927261,14.1595679 L33.7927261,15.0796561 L27.02531,15.0796561 C26.8467307,15.0804669 26.6698019,15.0459174 26.5046464,14.9779736 C26.3395458,14.9099749 26.1895195,14.8100123 26.0632597,14.6837525 C25.9369998,14.5574927 25.8370373,14.4074663 25.7690385,14.2423658 C25.7010948,14.0772102 25.6665453,13.9002814 25.667356,13.7217572 L25.667356,8.28999936 C25.6665453,8.11142011 25.7010948,7.93449132 25.7690385,7.76939079 C25.8370373,7.60423525 25.9369998,7.45420888 26.0632597,7.32794906 C26.1895195,7.20168925 26.3395458,7.10172668 26.5046464,7.03378294 C26.6698019,6.96578419 26.8467307,6.93123467 27.02531,6.93204545 L33.7927261,6.93204545 Z M46.5002953,6.92743862 L46.5002953,7.84756735 L39.9828131,7.84756735 L39.9828131,10.5365989 L45.2213026,10.5365989 L45.2213026,11.4643747 L39.9820429,11.4643747 L39.9820429,14.1580275 L46.4995251,14.1580275 L46.4995251,15.0781562 L39.0619141,15.0781562 L39.0619141,6.92743862 L46.5002953,6.92743862 Z M10.0890811,0.00213099894 L10.1739981,0.0191789904 L16.9728279,2.09481798 C17.0842336,2.12915845 17.1774843,2.20622921 17.2321694,2.30916259 C17.2868545,2.41209598 17.2985727,2.53250218 17.2646834,2.64403994 C17.230849,2.75557769 17.1541579,2.849153 17.0514996,2.9042947 C16.9487863,2.95943641 16.8284131,2.97164978 16.7167323,2.93826107 L10.0459778,0.90172598 L3.52089242,2.89532173 C3.46466691,2.91088552 3.40637284,2.91686017 3.34859591,2.91137516 C3.29082447,2.90588464 3.234698,2.889039 3.18345137,2.86180649 C3.13219923,2.83456848 3.08683372,2.79748275 3.04995705,2.75266739 C3.01308038,2.70785203 2.98541876,2.65619829 2.96855661,2.60066047 C2.95169446,2.54512816 2.94596738,2.48681208 2.95169996,2.42905715 C2.95743804,2.37130773 2.97452025,2.31525277 3.00197282,2.26412167 C3.02943089,2.21299057 3.06670917,2.16778461 3.11167857,2.13109499 C3.15665348,2.09441087 3.20842275,2.06696931 3.26403209,2.05034372 L9.91790244,0.0191789904 C10.0013605,-0.00639299681 10.0905951,-0.00639299681 10.1739981,0.0191789904 Z M59.9210516,8.29687625 L59.9210516,10.6845897 C59.9221265,10.8631139 59.887467,11.0399877 59.8192481,11.2050882 C59.7510293,11.3701337 59.6514519,11.5201601 59.524917,11.6463649 C59.3989322,11.7726247 59.2487408,11.8725873 59.0836953,11.940586 C58.9186498,12.0085848 58.7415009,12.0432443 58.5632518,12.0425291 L57.3188086,12.0425291 L59.8759138,15.0750754 L58.6650299,15.0750754 L56.1189278,12.0425291 L53.1284131,12.0425291 C52.9805323,12.0349921 52.8330917,12.0199179 52.6867513,11.9973067 L52.6867513,15.0750754 L51.7666226,15.0750754 L51.7666226,6.93892594 L58.5560998,6.93892594 C58.7348991,6.93822159 58.9114978,6.97288115 59.0765433,7.0408799 C59.242139,7.10887865 59.3917803,7.20884122 59.5183152,7.33510104 C59.6442999,7.46136085 59.7444275,7.61133221 59.8120962,7.77637772 C59.880315,7.94147825 59.9149745,8.11835202 59.9144244,8.29687625 L59.9210516,8.29687625 L59.9210516,8.29687625 Z M53.1314939,11.1147533 L58.5632518,11.1147533 C58.6199174,11.1154685 58.6760329,11.1048506 58.7288475,11.0834497 C58.7811119,11.0621038 58.8289751,11.0304701 58.8691361,10.990364 C58.9092972,10.9502579 58.9406559,10.9025598 58.9621118,10.8500753 C58.9835677,10.7975358 58.9940206,10.7412553 58.9934911,10.6845897 L58.9934911,8.29687625 C58.9940206,8.2393854 58.9835677,8.18222464 58.9626619,8.12880491 C58.941206,8.07538517 58.9092972,8.02669675 58.8691361,7.98560042 C58.8300754,7.94351381 58.7827623,7.9101196 58.7299478,7.88767341 C58.6771332,7.86517221 58.6199174,7.85416917 58.5627016,7.85521446 L53.1307237,7.85521446 C53.0137615,7.85581963 52.9018056,7.90258252 52.8190628,7.98527032 C52.736375,8.06795813 52.6896671,8.17996901 52.6890619,8.29687625 L52.6890619,10.6845897 C52.6878516,10.7420255 52.6988546,10.7990212 52.7213558,10.8518908 C52.743802,10.9047604 52.7772513,10.9522935 52.8193929,10.9912993 C52.8605992,11.0315704 52.9093977,11.0632591 52.9629825,11.0844399 C53.0165673,11.1056758 53.073838,11.1159636 53.1314939,11.1147533 L53.1314939,11.1147533 Z M64.7876682,6.92743862 L72.9321141,6.92743862 L72.9321141,7.84756735 L69.3286204,7.84756735 L69.3286204,15.0788714 L68.4082166,15.0788714 L68.4082166,7.84756735 L64.7876682,7.84756735 L64.7876682,6.92743862 Z M77.8686254,15.0750754 L77.8686254,6.92743862 L78.7890292,6.92743862 L78.7890292,15.0750754 L77.8686254,15.0750754 Z M91.0178014,6.92743862 L92.1951261,6.92743862 L88.7891368,11.001257 L92.2061291,15.0750754 L91.0178014,15.0750754 L87.9853652,11.4651449 L85.3600412,11.4651449 L85.3600412,15.0750754 L84.4335857,15.0750754 L84.4335857,6.92743862 L85.3616917,6.92743862 L85.3616917,10.5365989 L87.9870156,10.5365989 L91.0178014,6.92743862 Z"></path></g></svg>