<svg width="56" height="16" viewBox="0 0 56 16" fill="none" xmlns="http://www.w3.org/2000/svg">
<g opacity="0.6">
<path d="M23.735 13V2.3376H25.8675V11.2133H30.2045V13H23.735ZM32.2091 13V2.3376H34.3416V13H32.2091ZM37.1092 13V2.3376H39.2416V6.96278H39.2705L42.815 2.3376H45.1636L41.8928 6.53052L45.7255 13H43.4057L40.6393 8.21633L39.2416 10.003V13H37.1092ZM50.8713 13.2017C48.2634 13.2017 46.7216 11.7464 46.7216 8.21633V2.3376H48.8397V8.40364C48.8397 10.6082 49.6178 11.3574 50.8713 11.3574C52.1249 11.3574 52.9462 10.6082 52.9462 8.40364V2.3376H54.9922V8.21633C54.9922 11.7464 53.4793 13.2017 50.8713 13.2017Z" fill="#222222"/>
<path fill-rule="evenodd" clip-rule="evenodd" d="M6.47737 2.91084C6.66684 2.72147 6.7733 2.46456 6.7733 2.19667V0.403898C6.7733 0.180831 6.59247 0 6.3694 0H4.57454C4.30686 0 4.05013 0.106291 3.86078 0.29551L0.295985 3.85793C0.106476 4.04731 0 4.30425 0 4.57217V6.36523C0 6.5883 0.180831 6.76913 0.403898 6.76913H2.19905C2.46677 6.76913 2.72352 6.66282 2.91287 6.47356L6.47737 2.91084ZM7.43937 4.87865C7.75493 4.56328 8.26656 4.56328 8.58211 4.87865L11.1403 7.43535C11.4559 7.75071 11.4559 8.26202 11.1403 8.57739L8.58212 11.1341C8.26656 11.4495 7.75493 11.4495 7.43937 11.1341L4.88117 8.57739C4.56562 8.26202 4.56561 7.75071 4.88117 7.43535L7.43937 4.87865ZM9.23625 2.19667C9.23625 2.46456 9.3427 2.72147 9.53218 2.91084L13.0967 6.47356C13.286 6.66282 13.5428 6.76913 13.8105 6.76913H15.6056C15.8287 6.76913 16.0095 6.5883 16.0095 6.36523V4.57217C16.0095 4.30425 15.9031 4.04731 15.7136 3.85793L12.1488 0.29551C11.9594 0.106291 11.7027 0 11.435 0H9.64015C9.41708 0 9.23625 0.180831 9.23625 0.403898V2.19667ZM6.47737 13.0892C6.66684 13.2785 6.7733 13.5354 6.7733 13.8033V15.5961C6.7733 15.8192 6.59247 16 6.3694 16H4.57454C4.30686 16 4.05013 15.8937 3.86078 15.7045L0.295985 12.1421C0.106476 11.9527 0 11.6958 0 11.4278V9.63477C0 9.4117 0.180831 9.23087 0.403898 9.23087H2.19905C2.46677 9.23087 2.72352 9.33718 2.91287 9.52644L6.47737 13.0892ZM9.23625 13.8033C9.23625 13.5354 9.3427 13.2785 9.53218 13.0892L13.0967 9.52644C13.286 9.33718 13.5428 9.23087 13.8105 9.23087H15.6056C15.8287 9.23087 16.0095 9.4117 16.0095 9.63477V11.4278C16.0095 11.6958 15.9031 11.9527 15.7136 12.1421L12.1488 15.7045C11.9594 15.8937 11.7027 16 11.435 16H9.64015C9.41708 16 9.23625 15.8192 9.23625 15.5961V13.8033Z" fill="#222222"/>
</g>
</svg>
