<?xml version="1.0" encoding="UTF-8"?>
<svg viewBox="0 0 56 22" version="1.1" xmlns="http://www.w3.org/2000/svg" xmlns:xlink="http://www.w3.org/1999/xlink"><g fill="#FFFFFF" fill-rule="nonzero"><path d="M16.0463355,2.37267555 L16.0463355,6.01079112 C14.2722067,4.52566888 12.4365755,3.78309554 10.5394667,3.78309554 C8.44914888,3.78309554 6.68817112,4.53444446 5.25655779,6.03714221 C3.81616888,7.53106446 3.09596222,9.35889779 3.09596222,11.5206667 C3.09596222,13.6560845 3.81616888,15.4575667 5.25655779,16.9251133 C6.69694667,18.39266 8.46232446,19.1264333 10.5526422,19.1264333 C11.63294,19.1264333 12.5507555,18.9506778 13.3060889,18.5991667 C13.7276578,18.4234111 14.1624267,18.1861289 14.6103467,17.8873689 C15.0670667,17.5885845 15.5457133,17.2282733 16.0463355,16.80646 L16.0463355,20.5106 C14.2897578,21.5035333 12.4453511,22 10.5131155,22 C7.60598667,22 5.12482667,20.9850667 3.06961111,18.9550533 C1.02319555,16.9075378 0,14.4381845 0,11.5470422 C0,8.95466 0.856337779,6.64351112 2.56898889,4.61354667 C4.67688221,2.12661778 7.40397779,0.883153333 10.7502511,0.883153333 C12.5771067,0.883153333 14.34246,1.37966889 16.0463355,2.37267555 Z M19.6870667,21.6308889 L19.6870667,1.27861555 L23.9555555,1.27861555 C26.0020445,1.27861555 27.6180667,1.48072222 28.8038667,1.88496 C30.0771778,2.28039778 31.2321778,2.95266889 32.2686222,3.90174888 C34.3676667,5.81746 35.4173111,8.33514 35.4173111,11.4547645 C35.4173111,14.5831889 34.3239111,17.1140445 32.1368667,19.0473311 C31.0390667,20.0138889 29.8884667,20.6863555 28.6850667,21.0640222 C27.5608667,21.4419333 25.9668445,21.6308889 23.903,21.6308889 L19.6870667,21.6308889 Z M22.7568,18.7441467 L24.1401111,18.7441467 C25.5190222,18.7441467 26.6652222,18.5991667 27.5784667,18.3091578 C28.4919555,18.0015978 29.3174445,17.5138822 30.0554222,16.8460111 C31.5660889,15.4663422 32.3214222,13.66926 32.3214222,11.4547645 C32.3214222,9.22269333 31.5746445,7.41241112 30.0815778,6.02396667 C28.7378667,4.78490221 26.7573778,4.16535779 24.1401111,4.16535779 L22.7568,4.16535779 L22.7568,18.7441467 Z M50.2384667,16.6878311 L41.5301333,16.6878311 L39.2641333,21.6308889 L35.9575333,21.6308889 L46.0225333,0 L55.7321112,21.6308889 L52.3727112,21.6308889 L50.2384667,16.6878311 Z M48.9869112,13.8010889 L45.9699779,6.88076888 L42.8080888,13.8010889 L48.9869112,13.8010889 Z"></path></g></svg>