<?xml version="1.0" encoding="UTF-8"?>
<svg viewBox="0 0 44 20" version="1.1" xmlns="http://www.w3.org/2000/svg" xmlns:xlink="http://www.w3.org/1999/xlink">
<g stroke="none" stroke-width="1" fill="none" fill-rule="evenodd"><path d="M34,0 C39.5228475,0 44,4.4771525 44,10 C44,15.5228475 39.5228475,20 34,20 L10,20 C4.4771525,20 0,15.5228475 0,10 C0,4.4771525 4.4771525,0 10,0 L34,0 Z M34,1 L10,1 C5.02943725,1 1,5.02943725 1,10 C1,14.9705627 5.02943725,19 10,19 L34,19 C38.9705627,19 43,14.9705627 43,10 C43,5.02943725 38.9705627,1 34,1 Z M12.7104492,6.08300781 C13.6808268,6.09733073 14.3683268,6.37841797 14.7729492,6.92626953 C15.0164388,7.26285807 15.1381836,7.6656901 15.1381836,8.13476562 C15.1381836,8.61816406 15.0164388,9.00667318 14.7729492,9.30029297 C14.6368815,9.46500651 14.4363607,9.61539714 14.1713867,9.75146484 C14.5760091,9.89827474 14.8812663,10.1310221 15.0871582,10.449707 C15.2930501,10.7683919 15.3959961,11.1551107 15.3959961,11.6098633 C15.3959961,12.0789388 15.277832,12.4996745 15.0415039,12.8720703 C14.8911133,13.1191406 14.703125,13.3268229 14.4775391,13.4951172 C14.2233073,13.6884766 13.9234212,13.8209635 13.5778809,13.8925781 C13.2323405,13.9641927 12.8572591,14 12.4526367,14 L8.86474609,14 L8.86474609,6.08300781 L12.7104492,6.08300781 Z M22.6362305,6.08300781 L22.6362305,7.48486328 L18.4467773,7.48486328 L18.4467773,9.16601562 L22.2924805,9.16601562 L22.2924805,10.5410156 L18.4467773,10.5410156 L18.4467773,12.5766602 L22.8295898,12.5766602 L22.8295898,14 L16.8300781,14 L16.8300781,6.08300781 L22.6362305,6.08300781 Z M29.8710938,6.08300781 L29.8710938,7.48486328 L27.5024414,7.48486328 L27.5024414,14 L25.8374023,14 L25.8374023,7.48486328 L23.4580078,7.48486328 L23.4580078,6.08300781 L29.8710938,6.08300781 Z M34.1625977,6.08300781 L36.9663086,14 L35.1723633,14 L34.6621094,12.3725586 L31.7456055,12.3725586 L31.1977539,14 L29.4682617,14 L32.293457,6.08300781 L34.1625977,6.08300781 Z M12.4150391,10.5141602 L10.4438477,10.5141602 L10.4438477,12.625 L12.3881836,12.625 C12.7355143,12.625 13.0058594,12.5784505 13.1992188,12.4853516 C13.5501302,12.3134766 13.7255859,11.9840495 13.7255859,11.4970703 C13.7255859,11.0852865 13.5555013,10.8024089 13.215332,10.6484375 C13.0255534,10.5625 12.7587891,10.5177409 12.4150391,10.5141602 Z M33.2119141,7.89306641 L32.1914062,11.0083008 L34.2001953,11.0083008 L33.2119141,7.89306641 Z M12.184082,7.45800781 L10.4438477,7.45800781 L10.4438477,9.20361328 L12.3881836,9.20361328 C12.7355143,9.20361328 13.0183919,9.13736979 13.2368164,9.00488281 C13.4516602,8.87597656 13.559082,8.64501953 13.559082,8.31201172 C13.559082,7.94319661 13.4158529,7.69970703 13.1293945,7.58154297 C12.8823242,7.4991862 12.5672201,7.45800781 12.184082,7.45800781 Z" fill="#1FD69A" fill-rule="nonzero"></path></g>
</svg>