<?xml version="1.0" encoding="UTF-8"?>
<svg viewBox="0 0 347 39" version="1.1" xmlns="http://www.w3.org/2000/svg" xmlns:xlink="http://www.w3.org/1999/xlink">
<g transform="translate(0.800000, 0.200000)" fill-rule="nonzero"><path d="M28.5,24.8 C28.5,26.9333333 28.1333333,28.8583333 27.4,30.575 C26.6666667,32.2916667 25.6666667,33.75 24.4,34.95 C23.1333333,36.15 21.6333333,37.075 19.9,37.725 C18.1666667,38.375 16.2833333,38.7 14.25,38.7 C12.2166667,38.7 10.3333333,38.375 8.6,37.725 C6.86666667,37.075 5.35833333,36.15 4.075,34.95 C2.79166667,33.75 1.79166667,32.2916667 1.075,30.575 C0.358333333,28.8583333 0,26.9333333 0,24.8 L0,2.4 L6.3,2.4 L6.3,24.6 C6.3,25.4666667 6.43333333,26.375 6.7,27.325 C6.96666667,28.275 7.40833333,29.15 8.025,29.95 C8.64166667,30.75 9.45833333,31.4083333 10.475,31.925 C11.4916667,32.4416667 12.75,32.7 14.25,32.7 C15.75,32.7 17.0083333,32.4416667 18.025,31.925 C19.0416667,31.4083333 19.8583333,30.75 20.475,29.95 C21.0916667,29.15 21.5333333,28.275 21.8,27.325 C22.0666667,26.375 22.2,25.4666667 22.2,24.6 L22.2,2.4 L28.5,2.4 L28.5,24.8 Z M53.6,10 C52.9333333,9.03333333 52.0416667,8.325 50.925,7.875 C49.8083333,7.425 48.6333333,7.2 47.4,7.2 C46.6666667,7.2 45.9583333,7.28333333 45.275,7.45 C44.5916667,7.61666667 43.975,7.88333333 43.425,8.25 C42.875,8.61666667 42.4333333,9.09166667 42.1,9.675 C41.7666667,10.2583333 41.6,10.95 41.6,11.75 C41.6,12.95 42.0166667,13.8666667 42.85,14.5 C43.6833333,15.1333333 44.7166667,15.6833333 45.95,16.15 C47.1833333,16.6166667 48.5333333,17.0666667 50,17.5 C51.4666667,17.9333333 52.8166667,18.5333333 54.05,19.3 C55.2833333,20.0666667 56.3166667,21.0833333 57.15,22.35 C57.9833333,23.6166667 58.4,25.3 58.4,27.4 C58.4,29.3 58.05,30.9583333 57.35,32.375 C56.65,33.7916667 55.7083333,34.9666667 54.525,35.9 C53.3416667,36.8333333 51.9666667,37.5333333 50.4,38 C48.8333333,38.4666667 47.1833333,38.7 45.45,38.7 C43.25,38.7 41.1333333,38.3333333 39.1,37.6 C37.0666667,36.8666667 35.3166667,35.6333333 33.85,33.9 L38.6,29.3 C39.3666667,30.4666667 40.375,31.375 41.625,32.025 C42.875,32.675 44.2,33 45.6,33 C46.3333333,33 47.0666667,32.9 47.8,32.7 C48.5333333,32.5 49.2,32.2 49.8,31.8 C50.4,31.4 50.8833333,30.8916667 51.25,30.275 C51.6166667,29.6583333 51.8,28.95 51.8,28.15 C51.8,26.85 51.3833333,25.85 50.55,25.15 C49.7166667,24.45 48.6833333,23.8583333 47.45,23.375 C46.2166667,22.8916667 44.8666667,22.4333333 43.4,22 C41.9333333,21.5666667 40.5833333,20.975 39.35,20.225 C38.1166667,19.475 37.0833333,18.475 36.25,17.225 C35.4166667,15.975 35,14.3 35,12.2 C35,10.3666667 35.375,8.78333333 36.125,7.45 C36.875,6.11666667 37.8583333,5.00833333 39.075,4.125 C40.2916667,3.24166667 41.6833333,2.58333333 43.25,2.15 C44.8166667,1.71666667 46.4166667,1.5 48.05,1.5 C49.9166667,1.5 51.725,1.78333333 53.475,2.35 C55.225,2.91666667 56.8,3.85 58.2,5.15 L53.6,10 Z M64.95,2.4 L78.9,2.4 C81.2333333,2.4 83.4833333,2.75833333 85.65,3.475 C87.8166667,4.19166667 89.7333333,5.28333333 91.4,6.75 C93.0666667,8.21666667 94.4,10.0583333 95.4,12.275 C96.4,14.4916667 96.9,17.1 96.9,20.1 C96.9,23.1333333 96.325,25.7583333 95.175,27.975 C94.025,30.1916667 92.5416667,32.025 90.725,33.475 C88.9083333,34.925 86.8916667,36.0083333 84.675,36.725 C82.4583333,37.4416667 80.2833333,37.8 78.15,37.8 L64.95,37.8 L64.95,2.4 Z M75.95,32.1 C77.9166667,32.1 79.775,31.875 81.525,31.425 C83.275,30.975 84.8,30.275 86.1,29.325 C87.4,28.375 88.425,27.1416667 89.175,25.625 C89.925,24.1083333 90.3,22.2666667 90.3,20.1 C90.3,17.9666667 89.9666667,16.1333333 89.3,14.6 C88.6333333,13.0666667 87.7083333,11.825 86.525,10.875 C85.3416667,9.925 83.9416667,9.225 82.325,8.775 C80.7083333,8.325 78.9333333,8.1 77,8.1 L71.25,8.1 L71.25,32.1 L75.95,32.1 Z M128.954266,2.47576792 L128.954266,9.2334471 L118.817747,9.2334471 L118.817747,13.6703072 C127.043003,14.0457338 133.254608,15.683959 133.254608,17.6293515 C133.254608,19.574744 127.043003,21.2129693 118.817747,21.5883959 L118.817747,37.8204778 L111.479863,37.8204778 L111.479863,21.6225256 C103.220478,21.247099 97.0430034,19.6088737 97.0430034,17.6634812 C97.0430034,15.7180887 103.220478,14.0457338 111.479863,13.6703072 L111.479863,9.2334471 L101.309215,9.2334471 L101.309215,2.47576792 L128.954266,2.47576792 Z M118.817747,14.1822526 L118.817747,19.131058 C118.621502,19.1637656 117.578946,19.2278181 115.47981,19.233099 L115.2,19.2334471 C113.322867,19.2334471 111.957679,19.1651877 111.479863,19.131058 L111.479863,14.1822526 C104.176109,14.5235495 98.7494881,15.7863481 98.7494881,17.2880546 C98.7494881,18.7897611 104.176109,20.0866894 111.479863,20.3938567 C111.931134,20.4260903 113.143475,20.4583239 114.858124,20.4618059 L115.16587,20.462116 C117.520819,20.462116 118.612969,20.3938567 118.817747,20.3938567 C126.087372,20.0866894 131.513993,18.7897611 131.513993,17.2880546 C131.513993,15.7863481 126.087372,14.4894198 118.817747,14.1822526 Z" fill="#1FD69A"></path><path d="M147.3,2.4 L161.1,2.4 C162.433333,2.4 163.75,2.55833333 165.05,2.875 C166.35,3.19166667 167.508333,3.70833333 168.525,4.425 C169.541667,5.14166667 170.366667,6.06666667 171,7.2 C171.633333,8.33333333 171.95,9.7 171.95,11.3 C171.95,13.3 171.383333,14.95 170.25,16.25 C169.116667,17.55 167.633333,18.4833333 165.8,19.05 L165.8,19.15 C166.9,19.2833333 167.925,19.5916667 168.875,20.075 C169.825,20.5583333 170.633333,21.175 171.3,21.925 C171.966667,22.675 172.491667,23.5416667 172.875,24.525 C173.258333,25.5083333 173.45,26.5666667 173.45,27.7 C173.45,29.6333333 173.066667,31.2416667 172.3,32.525 C171.533333,33.8083333 170.525,34.8416667 169.275,35.625 C168.025,36.4083333 166.591667,36.9666667 164.975,37.3 C163.358333,37.6333333 161.716667,37.8 160.05,37.8 L147.3,37.8 L147.3,2.4 Z M153.6,16.8 L159.35,16.8 C161.45,16.8 163.025,16.3916667 164.075,15.575 C165.125,14.7583333 165.65,13.6833333 165.65,12.35 C165.65,10.8166667 165.108333,9.675 164.025,8.925 C162.941667,8.175 161.2,7.8 158.8,7.8 L153.6,7.8 L153.6,16.8 Z M153.6,32.4 L159.4,32.4 C160.2,32.4 161.058333,32.35 161.975,32.25 C162.891667,32.15 163.733333,31.9166667 164.5,31.55 C165.266667,31.1833333 165.9,30.6583333 166.4,29.975 C166.9,29.2916667 167.15,28.3666667 167.15,27.2 C167.15,25.3333333 166.541667,24.0333333 165.325,23.3 C164.108333,22.5666667 162.216667,22.2 159.65,22.2 L153.6,22.2 L153.6,32.4 Z M179.25,0 L185.25,0 L185.25,37.8 L179.25,37.8 L179.25,0 Z M207.15,34.5 L207,34.5 C206.133333,35.8666667 205.033333,36.8583333 203.7,37.475 C202.366667,38.0916667 200.9,38.4 199.3,38.4 C198.2,38.4 197.125,38.25 196.075,37.95 C195.025,37.65 194.091667,37.2 193.275,36.6 C192.458333,36 191.8,35.25 191.3,34.35 C190.8,33.45 190.55,32.4 190.55,31.2 C190.55,29.9 190.783333,28.7916667 191.25,27.875 C191.716667,26.9583333 192.341667,26.1916667 193.125,25.575 C193.908333,24.9583333 194.816667,24.4666667 195.85,24.1 C196.883333,23.7333333 197.958333,23.4583333 199.075,23.275 C200.191667,23.0916667 201.316667,22.975 202.45,22.925 C203.583333,22.875 204.65,22.85 205.65,22.85 L207.15,22.85 L207.15,22.2 C207.15,20.7 206.633333,19.575 205.6,18.825 C204.566667,18.075 203.25,17.7 201.65,17.7 C200.383333,17.7 199.2,17.925 198.1,18.375 C197,18.825 196.05,19.4333333 195.25,20.2 L192.1,17.05 C193.433333,15.6833333 194.991667,14.7 196.775,14.1 C198.558333,13.5 200.4,13.2 202.3,13.2 C204,13.2 205.433333,13.3916667 206.6,13.775 C207.766667,14.1583333 208.733333,14.65 209.5,15.25 C210.266667,15.85 210.858333,16.5416667 211.275,17.325 C211.691667,18.1083333 211.991667,18.9 212.175,19.7 C212.358333,20.5 212.466667,21.275 212.5,22.025 C212.533333,22.775 212.55,23.4333333 212.55,24 L212.55,37.8 L207.15,37.8 L207.15,34.5 Z M206.8,27.05 L205.55,27.05 C204.716667,27.05 203.783333,27.0833333 202.75,27.15 C201.716667,27.2166667 200.741667,27.375 199.825,27.625 C198.908333,27.875 198.133333,28.2416667 197.5,28.725 C196.866667,29.2083333 196.55,29.8833333 196.55,30.75 C196.55,31.3166667 196.675,31.7916667 196.925,32.175 C197.175,32.5583333 197.5,32.8833333 197.9,33.15 C198.3,33.4166667 198.75,33.6083333 199.25,33.725 C199.75,33.8416667 200.25,33.9 200.75,33.9 C202.816667,33.9 204.341667,33.4083333 205.325,32.425 C206.308333,31.4416667 206.8,30.1 206.8,28.4 L206.8,27.05 Z M235.4,21 C234.7,20.2666667 233.966667,19.6833333 233.2,19.25 C232.433333,18.8166667 231.65,18.6 230.85,18.6 C229.75,18.6 228.766667,18.8 227.9,19.2 C227.033333,19.6 226.291667,20.1333333 225.675,20.8 C225.058333,21.4666667 224.591667,22.2333333 224.275,23.1 C223.958333,23.9666667 223.8,24.8666667 223.8,25.8 C223.8,26.7333333 223.958333,27.6333333 224.275,28.5 C224.591667,29.3666667 225.058333,30.1333333 225.675,30.8 C226.291667,31.4666667 227.033333,32 227.9,32.4 C228.766667,32.8 229.75,33 230.85,33 C231.783333,33 232.65,32.8083333 233.45,32.425 C234.25,32.0416667 234.933333,31.4833333 235.5,30.75 L239.5,35.05 C238.9,35.65 238.208333,36.1666667 237.425,36.6 C236.641667,37.0333333 235.85,37.3833333 235.05,37.65 C234.25,37.9166667 233.483333,38.1083333 232.75,38.225 C232.016667,38.3416667 231.383333,38.4 230.85,38.4 C229.05,38.4 227.35,38.1 225.75,37.5 C224.15,36.9 222.766667,36.05 221.6,34.95 C220.433333,33.85 219.508333,32.525 218.825,30.975 C218.141667,29.425 217.8,27.7 217.8,25.8 C217.8,23.9 218.141667,22.175 218.825,20.625 C219.508333,19.075 220.433333,17.75 221.6,16.65 C222.766667,15.55 224.15,14.7 225.75,14.1 C227.35,13.5 229.05,13.2 230.85,13.2 C232.383333,13.2 233.925,13.4916667 235.475,14.075 C237.025,14.6583333 238.383333,15.5833333 239.55,16.85 L235.4,21 Z M243.1,0 L249.1,0 L249.1,23.75 L258.35,13.8 L266.05,13.8 L255.75,24.7 L266.7,37.8 L258.75,37.8 L249.2,25.55 L249.1,25.55 L249.1,37.8 L243.1,37.8 L243.1,0 Z M270.5,2.4 L276.8,2.4 L276.8,32.1 L291.85,32.1 L291.85,37.8 L270.5,37.8 L270.5,2.4 Z M296,13.8 L302,13.8 L302,37.8 L296,37.8 L296,13.8 Z M295.15,5.65 C295.15,4.68333333 295.508333,3.84166667 296.225,3.125 C296.941667,2.40833333 297.85,2.05 298.95,2.05 C300.05,2.05 300.975,2.39166667 301.725,3.075 C302.475,3.75833333 302.85,4.61666667 302.85,5.65 C302.85,6.68333333 302.475,7.54166667 301.725,8.225 C300.975,8.90833333 300.05,9.25 298.95,9.25 C297.85,9.25 296.941667,8.89166667 296.225,8.175 C295.508333,7.45833333 295.15,6.61666667 295.15,5.65 Z M321.7,20.45 C320.533333,18.8166667 318.966667,18 317,18 C316.2,18 315.416667,18.2 314.65,18.6 C313.883333,19 313.5,19.65 313.5,20.55 C313.5,21.2833333 313.816667,21.8166667 314.45,22.15 C315.083333,22.4833333 315.883333,22.7666667 316.85,23 C317.816667,23.2333333 318.858333,23.475 319.975,23.725 C321.091667,23.975 322.133333,24.3583333 323.1,24.875 C324.066667,25.3916667 324.866667,26.1 325.5,27 C326.133333,27.9 326.45,29.1333333 326.45,30.7 C326.45,32.1333333 326.141667,33.3416667 325.525,34.325 C324.908333,35.3083333 324.108333,36.1 323.125,36.7 C322.141667,37.3 321.033333,37.7333333 319.8,38 C318.566667,38.2666667 317.333333,38.4 316.1,38.4 C314.233333,38.4 312.516667,38.1333333 310.95,37.6 C309.383333,37.0666667 307.983333,36.1 306.75,34.7 L310.75,30.95 C311.516667,31.8166667 312.341667,32.525 313.225,33.075 C314.108333,33.625 315.183333,33.9 316.45,33.9 C316.883333,33.9 317.333333,33.85 317.8,33.75 C318.266667,33.65 318.7,33.4833333 319.1,33.25 C319.5,33.0166667 319.825,32.725 320.075,32.375 C320.325,32.025 320.45,31.6166667 320.45,31.15 C320.45,30.3166667 320.133333,29.7 319.5,29.3 C318.866667,28.9 318.066667,28.575 317.1,28.325 C316.133333,28.075 315.091667,27.8416667 313.975,27.625 C312.858333,27.4083333 311.816667,27.0583333 310.85,26.575 C309.883333,26.0916667 309.083333,25.4166667 308.45,24.55 C307.816667,23.6833333 307.5,22.4833333 307.5,20.95 C307.5,19.6166667 307.775,18.4583333 308.325,17.475 C308.875,16.4916667 309.6,15.6833333 310.5,15.05 C311.4,14.4166667 312.433333,13.95 313.6,13.65 C314.766667,13.35 315.95,13.2 317.15,13.2 C318.75,13.2 320.333333,13.475 321.9,14.025 C323.466667,14.575 324.733333,15.5166667 325.7,16.85 L321.7,20.45 Z M328.3,18.9 L328.3,13.8 L333.25,13.8 L333.25,6.85 L339.25,6.85 L339.25,13.8 L345.85,13.8 L345.85,18.9 L339.25,18.9 L339.25,29.4 C339.25,30.6 339.475,31.55 339.925,32.25 C340.375,32.95 341.266667,33.3 342.6,33.3 C343.133333,33.3 343.716667,33.2416667 344.35,33.125 C344.983333,33.0083333 345.483333,32.8166667 345.85,32.55 L345.85,37.6 C345.216667,37.9 344.441667,38.1083333 343.525,38.225 C342.608333,38.3416667 341.8,38.4 341.1,38.4 C339.5,38.4 338.191667,38.225 337.175,37.875 C336.158333,37.525 335.358333,36.9916667 334.775,36.275 C334.191667,35.5583333 333.791667,34.6666667 333.575,33.6 C333.358333,32.5333333 333.25,31.3 333.25,29.9 L333.25,18.9 L328.3,18.9 Z" fill="#FFFFFF"></path></g>
</svg>