<?xml version="1.0" encoding="UTF-8"?>
<svg viewBox="0 0 100 22" version="1.1" xmlns="http://www.w3.org/2000/svg" xmlns:xlink="http://www.w3.org/1999/xlink">
<defs>
<linearGradient x1="100.010038%" y1="50%" x2="-0.0200762899%" y2="50%" id="linearGradient-1">
<stop stop-color="#F7D23D" offset="1%"></stop>
<stop stop-color="#F4C829" offset="19%"></stop>
<stop stop-color="#F2C018" offset="43%"></stop>
<stop stop-color="#F0BB0E" offset="69%"></stop>
<stop stop-color="#F0B90B" offset="100%"></stop>
</linearGradient>
</defs>
<g stroke="none" stroke-width="1" fill="none" fill-rule="evenodd">
<g id="alliance_color_dark_h.aeb05d0e" fill-rule="nonzero">
<path d="M8.11986711,0 L9.943,1.047 L12.1793864,1.04761905 L13.277,2.961 L15.1904762,4.05993127 L15.19,6.294 L16.2380952,8.1206868 L15.19,9.945 L15.1904762,12.178164 L13.278,13.276 L12.1793864,15.1904762 L9.944,15.19 L8.11986711,16.2380952 L6.294,15.19 L4.0570788,15.1904762 L2.958,13.275 L1.04761905,12.178164 L1.048,9.946 L0,8.1206868 L1.048,6.292 L1.04925804,4.05993127 L2.958,2.963 L4.0570788,1.04761905 L6.295,1.047 L8.11986711,0 Z M8.11822812,4.05830143 L4.58292359,6.08745214 L4.58292359,10.1473834 L8.11822812,12.1765341 L11.6535327,10.1473834 L11.6535327,6.08745214 L8.11822812,4.05830143 Z" fill="url(#linearGradient-1)"></path>
<path d="M23.9748649,12.0471978 C22.8869491,12.0630988 21.8393344,11.6282335 21.0721261,10.8422699 C20.3049177,10.0563062 19.8838969,8.98663347 19.9055583,7.87841231 L19.9055583,7.85527993 C19.9055583,5.55360803 21.6085363,3.66666667 24.0510934,3.66666667 C25.5497141,3.66666667 26.4466159,4.17723136 27.1845731,4.91746755 L26.068717,6.22444707 C25.4556449,5.65770374 24.8312196,5.31071803 24.0364965,5.31071803 C22.6968204,5.31071803 21.7301776,6.44420469 21.7301776,7.83214755 L21.7301776,7.85527993 C21.7301776,9.24322278 22.6724922,10.3998418 24.0364965,10.3998418 C24.9447515,10.3998418 25.496192,10.0297237 26.1254829,9.45141421 L27.2380952,10.5964671 C26.4158001,11.4870637 25.5075452,12.0471978 23.9748649,12.0471978 Z M33.5851799,12.0460159 L31.8996543,9.53224318 L30.5399969,9.53224318 L30.5399969,12.0460159 L28.8095238,12.0460159 L28.8095238,4.19047619 L32.411733,4.19047619 C34.2658113,4.19047619 35.3782582,5.16841072 35.3782582,6.78440746 L35.3782582,6.80685186 C35.3782582,8.07496041 34.6928111,8.87173657 33.6927325,9.24206916 L35.6190476,12.047619 L33.5851799,12.0460159 Z M33.6188905,6.87258188 C33.6188905,6.13191671 33.1019959,5.75036193 32.2592331,5.75036193 L30.5399969,5.75036193 L30.5399969,8.00602404 L32.2929436,8.00602404 C33.1357064,8.00602404 33.6188905,7.55713606 33.6188905,6.89502628 L33.6188905,6.87258188 Z M40.945706,8.91662537 L40.945706,12.047619 L39.1971511,12.047619 L39.1971511,8.95029197 L36.1428571,4.19047619 L38.1866226,4.19047619 L40.0827828,7.34551744 L42.0130058,4.19047619 L44,4.19047619 L40.945706,8.91662537 Z M48.1239811,9.69047619 L46.79581,9.69047619 L46.79581,12.047619 L45.047619,12.047619 L45.047619,4.19047619 L48.291016,4.19047619 C50.1867815,4.19047619 51.3333278,5.30330418 51.3333278,6.90840622 L51.3333278,6.9308552 C51.3365657,8.74761905 49.9062277,9.69047619 48.1239811,9.69047619 Z M49.5672927,6.94047619 C49.5672927,6.16598639 49.0207803,5.75068027 48.1466848,5.75068027 L46.79581,5.75068027 L46.79581,8.15592809 L48.1807405,8.15592809 C49.054836,8.15592809 49.5672927,7.63960155 49.5672927,6.96613217 L49.5672927,6.94047619 Z M56.6903531,5.7856317 L56.6903531,12.047619 L54.8827523,12.047619 L54.8827523,5.7856317 L52.3809524,5.7856317 L52.3809524,4.19047619 L59.1904762,4.19047619 L59.1904762,5.7856317 L56.6903531,5.7856317 Z M63.8959151,12.047619 C61.4641368,12.047619 59.7142857,10.1842666 59.7142857,7.88111678 L59.7142857,7.85796954 C59.7142857,5.55481968 61.4834366,3.66666667 63.9136066,3.66666667 C66.3437765,3.66666667 68.095237,5.53167244 68.095237,7.83482231 L68.095237,7.85796954 C68.0968442,10.1561593 66.3276933,12.047619 63.8959151,12.047619 Z M66.2842687,7.85796954 C66.2842687,6.46913545 65.2919359,5.31177371 63.8959151,5.31177371 C62.4998942,5.31177371 61.5316862,6.44598822 61.5316862,7.83482231 L61.5316862,7.85796954 C61.5316862,9.24680363 62.5224106,10.4041654 63.9184315,10.4041654 C65.3144524,10.4041654 66.2842687,9.26995087 66.2842687,7.88111678 L66.2842687,7.85796954 Z M72.5133871,12.047619 C71.2719815,12.0525367 70.0722174,11.5886003 69.1428571,10.7442304 L70.1750819,9.47579217 C70.8896991,10.0809187 71.6334843,10.4732534 72.545796,10.4732534 C73.2620337,10.4732534 73.6930726,10.1823272 73.6930726,9.70520825 L73.6930726,9.68193416 C73.6930726,9.22808929 73.419217,8.99534833 72.0920709,8.6462369 C70.4926896,8.22730318 69.4604648,7.77345831 69.4604648,6.1525838 L69.4604648,6.1243224 C69.4604648,4.64641732 70.617464,3.66724287 72.2395315,3.66724287 C73.3108616,3.65007648 74.3544552,4.01694965 75.1903657,4.70460256 L74.2812949,6.05450011 C73.5796413,5.55576949 72.8860899,5.25154381 72.2168453,5.25154381 C71.5476006,5.25154381 71.1959636,5.5657441 71.1959636,5.96140373 L71.1959636,5.98467782 C71.1959636,6.51998202 71.5362575,6.69453774 72.9087762,7.05528622 C74.5211211,7.48585699 75.4285714,8.07934643 75.4285714,9.49906626 L75.4285714,9.52234036 C75.4204692,11.13989 74.2180974,12.047619 72.5133871,12.047619 Z M82.5177024,12.047619 L81.7946778,10.296635 L78.4506891,10.296635 L77.7276645,12.047619 L75.952381,12.047619 L79.3415587,4.19047619 L80.9441556,4.19047619 L84.3333333,12.047619 L82.5177024,12.047619 Z M80.1226835,6.25345373 L79.0720384,8.78282974 L81.1701008,8.78282974 L80.1226835,6.25345373 Z M87.7204104,5.75709427 L87.7204104,7.42954325 L91.6582453,7.42954325 L91.6582453,9.00097182 L87.7204104,9.00097182 L87.7204104,12.047619 L85.9047619,12.047619 L85.9047619,4.19047619 L92.1904762,4.19047619 L92.1904762,5.76350826 L87.7204104,5.75709427 Z M93.2380952,12.0460159 L93.2380952,4.19047619 L99.4632405,4.19047619 L99.4632405,5.7295207 L95.0400224,5.7295207 L95.0400224,7.32307304 L98.9265321,7.32307304 L98.9265321,8.86051438 L95.0400224,8.86051438 L95.0400224,10.5101777 L99.5238095,10.5101777 L99.5238095,12.047619 L93.2380952,12.0460159 Z M26.4704329,22 L25.7475475,20.249016 L22.4025891,20.249016 L21.6797037,22 L19.9047619,22 L23.2932871,14.1428571 L24.8971891,14.1428571 L28.2857143,22 L26.4704329,22 Z M24.0758751,16.2058347 L23.0238187,18.7352107 L25.1214772,18.7352107 L24.0758751,16.2058347 Z M29.3333333,21.9983968 L29.3333333,14.1428571 L31.0974155,14.1428571 L31.0974155,20.4288921 L35.0952381,20.4288921 L35.0952381,22 L29.3333333,21.9983968 Z M36.6666667,21.9983968 L36.6666667,14.1428571 L38.430248,14.1428571 L38.430248,20.4288921 L42.4285714,20.4288921 L42.4285714,22 L36.6666667,21.9983968 Z M43.4761905,22 L43.4761905,14.1428571 L45.047619,14.1428571 L45.047619,22 L43.4761905,22 Z M53.183105,22 L52.4602197,20.249016 L49.1168748,20.249016 L48.3939894,22 L46.6190476,22 L50.0075728,14.1428571 L51.6114748,14.1428571 L55,22 L53.183105,22 Z M50.7885472,16.2058347 L49.7381044,18.7352107 L51.8357629,18.7352107 L50.7885472,16.2058347 Z M61.8328416,21.996795 L57.843091,17.0081583 L57.843091,22 L56.047619,22 L56.047619,14.1476647 L57.7202518,14.1476647 L61.5905286,18.9840622 L61.5905286,14.1428571 L63.3809524,14.1428571 L63.3809524,21.9951924 L61.8328416,21.996795 Z M69.0241209,21.9995292 C67.9357946,22.016349 66.8874924,21.5818353 66.1198314,20.7957223 C65.3521705,20.0096094 64.9310794,18.9394103 64.9532113,17.8307684 L64.9532113,17.8076361 C64.9532113,15.5059778 66.6561815,13.6190476 69.0971054,13.6190476 C70.5957191,13.6190476 71.4926168,14.1296093 72.2305705,14.8698411 L71.1163414,16.1768129 C70.5032722,15.6100729 69.8788498,15.2630893 69.0841304,15.2630893 C67.7444605,15.2630893 66.7794441,16.3965692 66.7794441,17.7845039 L66.7794441,17.8076361 C66.7794441,19.1955708 67.7217542,20.352183 69.0841304,20.352183 C69.9923811,20.352183 70.5438191,19.9820671 71.1731071,19.403761 L72.2857143,20.5488071 C71.4650449,21.4393985 70.5567941,21.9995292 69.0241209,21.9995292 Z M73.3333333,21.9983968 L73.3333333,14.1428571 L79.5651508,14.1428571 L79.5651508,15.6819017 L75.1371919,15.6819017 L75.1371919,17.275454 L79.0295514,17.275454 L79.0295514,18.8128953 L75.1371919,18.8128953 L75.1371919,20.4625587 L79.6190476,20.4625587 L79.6190476,22 L73.3333333,21.9983968 Z" fill="#FFFFFF"></path>
</g>
</g>
</svg>