<?xml version="1.0" encoding="UTF-8"?>
<svg viewBox="0 0 140 22" version="1.1" xmlns="http://www.w3.org/2000/svg" xmlns:xlink="http://www.w3.org/1999/xlink">
<g id="lockup_ciphertrace-1" fill-rule="nonzero">
<polygon id="Path" fill="#ED6522" points="12.9881481 2.35481481 22.6111111 2.35481481 22.6111111 19.6533333 12.9881481 19.6533333"></polygon>
<path d="M13.5992593,11 C13.5992593,7.48814815 15.2451852,4.36740741 17.8037037,2.35481481 C15.9296296,0.88 13.5748148,0 11.0081481,0 C4.92148148,0 0,4.92148148 0,11 C0,17.0785185 4.92148148,22 11,22 C13.5666667,22 15.9296296,21.12 17.7955556,19.6451852 C15.1403316,17.5624261 13.589997,14.3746257 13.5911111,11" fill="#E01B24"></path>
<path d="M35.5911111,11 C35.5911111,17.0785185 30.6696296,22 24.5911111,22 C22.0244444,22 19.6614815,21.12 17.7955556,19.6451852 C20.3540741,17.6325926 22,14.5037037 22,11 C22,7.4962963 20.3540741,4.36740741 17.7955556,2.35481481 C19.6696296,0.88 22.0244444,0 24.5911111,0 C30.6696296,0 35.5911111,4.92148148 35.5911111,11 M34.5481481,17.82 L34.5481481,17.4696296 L34.6948148,17.4696296 L34.6948148,17.3962963 L34.3281481,17.3962963 L34.3281481,17.4696296 L34.4748148,17.4696296 L34.4748148,17.82 L34.5562963,17.82 L34.5481481,17.82 Z M35.257037,17.82 L35.257037,17.3962963 L35.142963,17.3962963 L35.0125926,17.6896296 L34.8822222,17.3962963 L34.7681481,17.3962963 L34.7681481,17.82 L34.8496296,17.82 L34.8496296,17.4940741 L34.9718519,17.7711111 L35.0533333,17.7711111 L35.1755556,17.4940741 L35.1755556,17.82 L35.257037,17.82 L35.257037,17.82 Z" fill="#F49A1B"></path>
<path d="M47.642963,6.46148148 C48.302963,6.46148148 48.9059259,6.57555556 49.4681481,6.81185185 C50.0303704,7.04814815 50.502963,7.38222222 50.8940741,7.83037037 L50.2014815,8.55555556 C49.8592593,8.21333333 49.4681481,7.94444444 49.0444444,7.75703704 C48.5940244,7.56422041 48.1084511,7.46710575 47.6185185,7.47185185 C46.7054065,7.46438681 45.8286531,7.8292104 45.1903704,8.48222222 C44.8807407,8.8 44.6444444,9.17481481 44.4733333,9.60666667 C44.3022222,10.0385185 44.2125926,10.5111111 44.2125926,11.0244444 C44.2125926,11.5377778 44.3022222,12.0103704 44.4733333,12.4422222 C44.6444444,12.8740741 44.8807407,13.2488889 45.1903704,13.5585185 C45.5,13.8681481 45.8585185,14.1125926 46.2740741,14.2918519 C46.6896296,14.4711111 47.1377778,14.5607407 47.6185185,14.5607407 C48.14,14.5607407 48.6288889,14.462963 49.0688889,14.2592593 C49.5088889,14.0555556 49.9,13.7948148 50.2340741,13.4607407 L50.9022222,14.1940741 C50.502963,14.6340741 50.0222222,14.9762963 49.4681481,15.2125926 C48.9140741,15.4488889 48.302963,15.562963 47.6511111,15.562963 C46.9992593,15.562963 46.38,15.4488889 45.8259259,15.2207407 C44.7429639,14.7830038 43.8902094,13.9154957 43.4711111,12.8251852 C43.2511111,12.2711111 43.137037,11.6681481 43.137037,11.0244444 C43.137037,10.3807407 43.2511111,9.76962963 43.4711111,9.21555556 C43.6911111,8.66148148 44.0007407,8.18074074 44.4,7.77333333 C44.7992593,7.36592593 45.28,7.04814815 45.8259259,6.82 C46.38,6.59185185 46.982963,6.46962963 47.6511111,6.46962963 L47.642963,6.46148148 Z M53.7622222,2.6562963 C53.9822222,2.6562963 54.1614815,2.72962963 54.3081481,2.88444444 C54.4548148,3.03111111 54.5281481,3.21851852 54.5281481,3.43851852 C54.5341893,3.64271553 54.4551573,3.8402506 54.3099346,3.98392834 C54.164712,4.12760608 53.9663429,4.20452094 53.7622222,4.1962963 C53.5422222,4.1962963 53.362963,4.12296296 53.2162963,3.98444444 C53.0696296,3.83777778 53.0044444,3.65851852 53.0044444,3.43851852 C53.0044444,3.21851852 53.0777778,3.03925926 53.2162963,2.88444444 C53.362963,2.73777778 53.5422222,2.6562963 53.7622222,2.6562963 Z M54.3,15.4162963 L53.2325926,15.4162963 L53.2325926,6.6 L54.3,6.6 L54.3,15.4162963 Z M61.4948148,6.46148148 C62.1140741,6.46148148 62.6925926,6.57555556 63.2303704,6.8037037 C63.7681481,7.03185185 64.2325926,7.34962963 64.6318519,7.75703704 C65.0311111,8.16444444 65.3407407,8.64518519 65.5688889,9.19925926 C65.797037,9.75333333 65.9111111,10.3644444 65.9111111,11.0162963 C65.9111111,11.6681481 65.797037,12.2792593 65.5688889,12.8333333 C65.3407407,13.3874074 65.0311111,13.8681481 64.6318519,14.2674074 C64.2325926,14.6748148 63.7681481,14.9844444 63.2303704,15.2125926 C62.6925926,15.4407407 62.1140741,15.5548148 61.4948148,15.5548148 C60.6962963,15.5548148 60.0037037,15.3918519 59.4251852,15.0577778 C58.8466667,14.7237037 58.3740741,14.2837037 58.0155556,13.7377778 L58.0155556,19.1644444 L56.9481481,19.1644444 L56.9481481,6.6 L58.0155556,6.6 L58.0155556,8.27851852 C58.3659259,7.73259259 58.8303704,7.29259259 59.417037,6.95851852 C60.0037037,6.62444444 60.6962963,6.45333333 61.4948148,6.45333333 L61.4948148,6.46148148 Z M61.3725926,7.4637037 C60.8755556,7.4637037 60.4111111,7.55333333 59.9955556,7.73259259 C59.58,7.91185185 59.2133333,8.16444444 58.9118519,8.48222222 C58.6103704,8.8 58.3740741,9.17481481 58.202963,9.60666667 C58.0318519,10.0385185 57.9422222,10.5111111 57.9422222,11.0162963 C57.9422222,11.5214815 58.0318519,11.9940741 58.202963,12.4177778 C58.3740741,12.8496296 58.6103704,13.2244444 58.9118519,13.5422222 C59.2133333,13.86 59.5718519,14.1125926 59.9955556,14.2837037 C60.4111111,14.462963 60.8755556,14.5525926 61.3725926,14.5525926 C61.8696296,14.5525926 62.3422222,14.462963 62.7659259,14.2837037 C63.1896296,14.1044444 63.5481481,13.8518519 63.8496296,13.5340741 C64.1511111,13.2162963 64.3874074,12.8414815 64.5585185,12.4096296 C64.7296296,11.9777778 64.8111111,11.5133333 64.8111111,11.0162963 C64.8111111,10.5192593 64.7296296,10.0548148 64.5585185,9.62296296 C64.3874074,9.19111111 64.1511111,8.8162963 63.8496296,8.49851852 C63.54,8.18074074 63.1814815,7.92814815 62.7659259,7.74074074 C62.3503704,7.55333333 61.8859259,7.4637037 61.3807407,7.4637037 L61.3725926,7.4637037 Z M68.9340741,8.13185185 C69.1051852,7.84666667 69.317037,7.59407407 69.5451852,7.38222222 C69.7814815,7.17037037 70.0340741,6.99925926 70.3111111,6.86074074 C70.8599489,6.59602168 71.4617712,6.45949717 72.0711111,6.46148148 C72.617037,6.46148148 73.1222222,6.54296296 73.5785185,6.70592593 C74.0348148,6.86888889 74.4259259,7.10518519 74.7518519,7.41481481 C75.0777778,7.72444444 75.3303704,8.09111111 75.5096296,8.53111111 C75.6888889,8.97111111 75.7785185,9.46 75.7785185,10.0059259 L75.7785185,15.4162963 L74.7111111,15.4162963 L74.7111111,10.34 C74.7111111,9.9 74.6459259,9.49259259 74.5237037,9.14222222 C74.4014815,8.7837037 74.2140741,8.48222222 73.9696296,8.23777778 C73.7251852,7.99333333 73.4318519,7.80592593 73.0814815,7.66740741 C72.7311111,7.53703704 72.3318519,7.47185185 71.8837037,7.47185185 C71.4681481,7.47185185 71.0851852,7.54518519 70.7266667,7.6837037 C70.3681481,7.82222222 70.0585185,8.02592593 69.7896296,8.28666667 C69.5207407,8.54740741 69.317037,8.85703704 69.1622222,9.21555556 C69.0074074,9.57407407 68.9340741,9.97333333 68.9340741,10.4051852 L68.9340741,15.4244444 L67.8666667,15.4244444 L67.8666667,1.92296296 L68.9340741,1.92296296 L68.9340741,8.1237037 L68.9340741,8.13185185 Z M82.1911111,6.46148148 C82.7777778,6.46148148 83.3237037,6.57555556 83.8288889,6.79555556 C84.3340741,7.01555556 84.7659259,7.32518519 85.1325926,7.72444444 C85.4992593,8.1237037 85.7844444,8.5962963 85.9962963,9.15037037 C86.2081481,9.70444444 86.3140741,10.3074074 86.3222222,10.9592593 L86.3222222,11.1874074 C86.3222222,11.2607407 86.3222222,11.3259259 86.3059259,11.3992593 L78.9155556,11.3992593 C78.9562963,11.9125926 79.0703704,12.3688889 79.2577778,12.7681481 C79.4451852,13.1674074 79.6977778,13.5096296 79.9992593,13.7866667 C80.3088889,14.0637037 80.6592593,14.2755556 81.0503704,14.4222222 C81.4496296,14.5688889 81.8733333,14.6340741 82.3214815,14.6340741 C82.9407407,14.6340741 83.4948148,14.52 83.9837037,14.3 C84.4725926,14.0718519 84.9125926,13.7703704 85.3037037,13.3792593 L85.8740741,14.1125926 C85.597037,14.3896296 85.3037037,14.6259259 85.0185185,14.8133333 C84.7251852,15.0007407 84.4318519,15.1474074 84.1303704,15.2614815 C83.8288889,15.3755556 83.5192593,15.4488889 83.2096296,15.4977778 C82.9,15.5385185 82.5822222,15.562963 82.2644444,15.562963 C81.6207407,15.562963 81.0259259,15.4488889 80.4881481,15.2288889 C79.9422222,15.0088889 79.4777778,14.6992593 79.0785185,14.3 C78.6788766,13.8882909 78.3657983,13.4006646 78.1577778,12.8659259 C77.9377778,12.3118519 77.8318519,11.6925926 77.8318519,11.0162963 C77.8318519,10.34 77.9459259,9.74518519 78.1659259,9.18296296 C78.3859259,8.62074074 78.6955556,8.14 79.0866667,7.74074074 C79.4777778,7.34148148 79.9422222,7.0237037 80.4718519,6.79555556 C81.0096296,6.56740741 81.58,6.46148148 82.1992593,6.46148148 L82.1911111,6.46148148 Z M82.1748148,7.40666667 C81.7266667,7.40666667 81.3111111,7.48 80.9444444,7.63481481 C80.5777778,7.78962963 80.2437037,8.00148148 79.9666667,8.27037037 C79.6896296,8.53925926 79.4533333,8.86518519 79.2822222,9.24 C79.102963,9.61481481 78.9888889,10.0303704 78.94,10.4785185 L85.2466667,10.4785185 C85.2059259,10.0222222 85.1081481,9.60666667 84.937037,9.2237037 C84.7659259,8.84888889 84.5459259,8.52296296 84.277037,8.25407407 C84.0081481,7.98518519 83.6903704,7.77333333 83.3318519,7.62666667 C82.9733333,7.48 82.5903704,7.39851852 82.1748148,7.39851852 L82.1748148,7.40666667 Z M92.4251852,6.45333333 C92.742963,6.45333333 93.0362963,6.47777778 93.3133333,6.53481481 C93.5822222,6.59185185 93.842963,6.67333333 94.0792593,6.79555556 L93.8103704,7.83851852 C93.5903704,7.7162963 93.3459259,7.63481481 93.0688889,7.56962963 C92.7918519,7.51259259 92.5148148,7.48 92.2459259,7.48 C91.8792593,7.48 91.537037,7.55333333 91.2274074,7.69185185 C90.9177778,7.83851852 90.6488889,8.03407407 90.4288889,8.29481481 C90.2088889,8.55555556 90.0296296,8.86518519 89.9074074,9.23185185 C89.7851852,9.59851852 89.72,9.99777778 89.72,10.4459259 L89.72,15.4244444 L88.6607407,15.4244444 L88.6607407,6.60814815 L89.7118519,6.60814815 L89.7118519,8.10740741 C89.997037,7.58592593 90.38,7.18666667 90.8444444,6.89333333 C91.3088889,6.6 91.8385185,6.45333333 92.4251852,6.45333333 L92.4251852,6.45333333 Z M102.439259,7.57777778 L98.3733333,7.57777778 L98.3733333,12.3851852 C98.3733333,12.76 98.4222222,13.0859259 98.5118519,13.3548148 C98.6096296,13.6237037 98.74,13.8518519 98.9111111,14.0311111 C99.0822222,14.2103704 99.2859259,14.3407407 99.5303704,14.4303704 C99.7666667,14.52 100.035556,14.5607407 100.328889,14.5607407 C100.711852,14.5607407 101.07037,14.5037037 101.404444,14.3814815 C101.738519,14.2592593 102.04,14.0962963 102.300741,13.8925926 L102.805926,14.6911111 C102.488148,14.9518519 102.113333,15.1637037 101.681481,15.3266667 C101.24963,15.4896296 100.777037,15.5711111 100.247407,15.5711111 C99.3266667,15.5711111 98.6096296,15.3103704 98.0881481,14.797037 C97.5666667,14.2755556 97.3059259,13.4851852 97.3059259,12.4177778 L97.3059259,7.59407407 L95.2851852,7.59407407 L95.2851852,6.6162963 L97.3059259,6.6162963 L97.3059259,3.74 L98.3733333,3.74 L98.3733333,6.6162963 L102.439259,6.6162963 L102.439259,7.59407407 L102.439259,7.57777778 Z M108.338519,6.45333333 C108.656296,6.45333333 108.94963,6.47777778 109.226667,6.53481481 C109.495556,6.59185185 109.756296,6.67333333 109.992593,6.79555556 L109.723704,7.83851852 C109.487899,7.71366655 109.235475,7.62312323 108.974074,7.56962963 C108.697037,7.51259259 108.42,7.48 108.151111,7.48 C107.784444,7.48 107.442222,7.55333333 107.132593,7.69185185 C106.822963,7.83851852 106.554074,8.03407407 106.334074,8.29481481 C106.114074,8.55555556 105.942963,8.86518519 105.812593,9.23185185 C105.69037,9.59851852 105.625185,9.99777778 105.625185,10.4459259 L105.625185,15.4244444 L104.565926,15.4244444 L104.565926,6.60814815 L105.617037,6.60814815 L105.617037,8.10740741 C105.902222,7.58592593 106.285185,7.18666667 106.74963,6.89333333 C107.214074,6.6 107.743704,6.45333333 108.33037,6.45333333 L108.338519,6.45333333 Z M119.33037,15.4162963 L118.271111,15.4162963 L118.271111,13.7214815 C117.912593,14.2755556 117.448148,14.7237037 116.861481,15.0577778 C116.274815,15.3918519 115.582222,15.562963 114.775556,15.562963 C114.156296,15.562963 113.577778,15.4488889 113.04,15.2207407 C112.517319,15.0014761 112.043631,14.6801439 111.646667,14.2755556 C111.255556,13.8762963 110.945926,13.3955556 110.717778,12.8414815 C110.48963,12.2874074 110.375556,11.6762963 110.375556,11.0244444 C110.375556,10.3725926 110.48963,9.76148148 110.717778,9.20740741 C110.945926,8.65333333 111.255556,8.17259259 111.646667,7.76518519 C112.037778,7.35777778 112.502222,7.04 113.04,6.81185185 C113.577778,6.5837037 114.156296,6.46962963 114.775556,6.46962963 C115.582222,6.46962963 116.274815,6.64074074 116.861481,6.97481481 C117.448148,7.30888889 117.912593,7.75703704 118.271111,8.30296296 L118.271111,6.60814815 L119.33037,6.60814815 L119.33037,15.4244444 L119.33037,15.4162963 Z M114.897778,7.4637037 C113.963423,7.44552157 113.064485,7.82106486 112.420741,8.49851852 C112.119259,8.8162963 111.882963,9.19111111 111.711852,9.62296296 C111.540741,10.0548148 111.459259,10.5192593 111.459259,11.0162963 C111.459259,11.5133333 111.540741,11.9777778 111.711852,12.4096296 C111.882963,12.8414815 112.119259,13.2162963 112.420741,13.5340741 C112.73037,13.8518519 113.088889,14.1044444 113.512593,14.2837037 C113.936296,14.462963 114.392593,14.5525926 114.897778,14.5525926 C115.402963,14.5525926 115.859259,14.462963 116.274815,14.2837037 C117.104947,13.936788 117.754036,13.2611447 118.067407,12.4177778 C118.238519,11.9859259 118.32,11.5214815 118.32,11.0162963 C118.32,10.5111111 118.238519,10.0385185 118.067407,9.60666667 C117.896296,9.17481481 117.66,8.8 117.358519,8.48222222 C117.048203,8.16575011 116.680404,7.91133283 116.274815,7.73259259 C115.859259,7.55333333 115.394815,7.4637037 114.897778,7.4637037 L114.897778,7.4637037 Z M125.979259,6.46148148 C126.639259,6.46148148 127.242222,6.57555556 127.804444,6.81185185 C128.366667,7.04814815 128.839259,7.38222222 129.23037,7.83037037 L128.537778,8.55555556 C128.195556,8.21333333 127.804444,7.94444444 127.380741,7.75703704 C126.930321,7.56422041 126.444747,7.46710575 125.954815,7.47185185 C125.041703,7.46438681 124.164949,7.8292104 123.526667,8.48222222 C123.217037,8.8 122.980741,9.17481481 122.80963,9.60666667 C122.638519,10.0385185 122.548889,10.5111111 122.548889,11.0244444 C122.548889,11.5377778 122.638519,12.0103704 122.80963,12.4422222 C122.980741,12.8740741 123.217037,13.2488889 123.526667,13.5585185 C123.836296,13.8681481 124.194815,14.1125926 124.61037,14.2918519 C125.025926,14.4711111 125.474074,14.5607407 125.954815,14.5607407 C126.476296,14.5607407 126.965185,14.462963 127.405185,14.2592593 C127.845185,14.0555556 128.236296,13.7948148 128.57037,13.4607407 L129.238519,14.1940741 C128.839259,14.6340741 128.358519,14.9762963 127.804444,15.2125926 C127.25037,15.4488889 126.639259,15.562963 125.987407,15.562963 C125.335556,15.562963 124.716296,15.4488889 124.162222,15.2207407 C123.07926,14.7830038 122.226506,13.9154957 121.807407,12.8251852 C121.587407,12.2711111 121.473333,11.6681481 121.473333,11.0244444 C121.473333,10.3807407 121.587407,9.76962963 121.807407,9.21555556 C122.027407,8.66148148 122.337037,8.18074074 122.736296,7.77333333 C123.135556,7.36592593 123.616296,7.04814815 124.162222,6.82 C124.716296,6.59185185 125.319259,6.46962963 125.987407,6.46962963 L125.979259,6.46148148 Z M134.901481,6.46148148 C135.488148,6.46148148 136.034074,6.57555556 136.539259,6.79555556 C137.044444,7.01555556 137.476296,7.32518519 137.842963,7.72444444 C138.20963,8.1237037 138.494815,8.5962963 138.706667,9.15037037 C138.918519,9.70444444 139.032593,10.3074074 139.032593,10.9592593 L139.032593,11.1874074 C139.032593,11.2607407 139.032593,11.3259259 139.016296,11.3992593 L131.625926,11.3992593 C131.666667,11.9125926 131.780741,12.3688889 131.968148,12.7681481 C132.155556,13.1674074 132.408148,13.5096296 132.70963,13.7866667 C133.019259,14.0637037 133.36963,14.2755556 133.760741,14.4222222 C134.16,14.5688889 134.583704,14.6340741 135.031852,14.6340741 C135.651111,14.6340741 136.205185,14.52 136.694074,14.3 C137.182963,14.0718519 137.622963,13.7703704 138.014074,13.3792593 L138.584444,14.1125926 C138.307407,14.3896296 138.014074,14.6259259 137.728889,14.8133333 C137.435556,15.0007407 137.142222,15.1474074 136.840741,15.2614815 C136.539259,15.3755556 136.22963,15.4488889 135.92,15.4977778 C135.61037,15.5385185 135.292593,15.562963 134.974815,15.562963 C134.331111,15.562963 133.736296,15.4488889 133.19037,15.2288889 C132.644444,15.0088889 132.18,14.6992593 131.788889,14.3 C131.397778,13.9007407 131.088148,13.42 130.868148,12.8659259 C130.648148,12.3118519 130.542222,11.6925926 130.542222,11.0162963 C130.542222,10.34 130.656296,9.74518519 130.876296,9.18296296 C131.096296,8.62074074 131.405926,8.14 131.797037,7.74074074 C132.188148,7.34148148 132.652593,7.0237037 133.182222,6.79555556 C133.72,6.56740741 134.29037,6.46148148 134.90963,6.46148148 L134.901481,6.46148148 Z M134.885185,7.40666667 C134.437037,7.40666667 134.021481,7.48 133.654815,7.63481481 C132.915117,7.93946441 132.318282,8.51300831 131.984444,9.24 C131.805185,9.61481481 131.691111,10.0303704 131.642222,10.4785185 L137.948889,10.4785185 C137.908148,10.0222222 137.81037,9.60666667 137.639259,9.2237037 C137.468148,8.84074074 137.248148,8.52296296 136.979259,8.25407407 C136.71037,7.98518519 136.392593,7.77333333 136.034074,7.62666667 C135.675556,7.48 135.292593,7.39851852 134.885185,7.39851852 L134.885185,7.40666667 Z" fill="#FFFFFF"></path>
</g>
</svg>