<?xml version="1.0" encoding="UTF-8"?>
<svg viewBox="0 0 80 52" version="1.1" xmlns="http://www.w3.org/2000/svg" xmlns:xlink="http://www.w3.org/1999/xlink">
<g transform="translate(29.000000, 15.000000)" fill="#1FD69A" fill-rule="nonzero"><path d="M15.2307692,9.30769234 C15.2307692,7.67708336 14.651242,6.28225163 13.4921875,5.12319715 C12.333133,3.96414266 10.9383013,3.38461542 9.30769229,3.38461542 C7.67708331,3.38461542 6.28225158,3.96414266 5.1231971,5.12319715 C3.96414262,6.28225163 3.38461537,7.67708336 3.38461537,9.30769234 C3.38461537,10.9383013 3.96414262,12.333133 5.1231971,13.4921875 C6.28225158,14.651242 7.67708331,15.2307693 9.30769229,15.2307693 C10.9383013,15.2307693 12.333133,14.651242 13.4921875,13.4921875 C14.651242,12.333133 15.2307692,10.9383013 15.2307692,9.30769234 Z M22,20.3076923 C22,20.7660257 21.832532,21.1626603 21.4975961,21.4975961 C21.1626602,21.832532 20.7660256,22 20.3076923,22 C19.8317307,22 19.4350961,21.832532 19.1177885,21.4975961 L14.5829327,16.9759615 C13.0052083,18.0689103 11.2467949,18.6153846 9.30769231,18.6153846 C8.04727564,18.6153846 6.84194712,18.3707933 5.69170675,17.8816106 C4.54146637,17.3924279 3.54987983,16.7313702 2.71694713,15.8984375 C1.88401442,15.0655048 1.22295672,14.0739183 0.733774044,12.9236779 C0.244591363,11.7734375 0,10.568109 0,9.30769231 C0,8.04727566 0.244591333,6.84194714 0.733774044,5.69170675 C1.22295676,4.54146636 1.88401445,3.54987982 2.71694713,2.71694713 C3.5498798,1.88401443 4.54146634,1.22295674 5.69170675,0.733774044 C6.84194715,0.244591348 8.04727567,0 9.30769231,0 C10.568109,0 11.7734375,0.244591348 12.9236779,0.733774044 C14.0739183,1.22295674 15.0655048,1.88401443 15.8984375,2.71694713 C16.7313702,3.54987982 17.3924279,4.54146636 17.8816106,5.69170675 C18.3707933,6.84194714 18.6153846,8.04727566 18.6153846,9.30769231 C18.6153846,11.2467949 18.0689103,13.0052083 16.9759615,14.5829327 L21.5108173,19.1177885 C21.8369391,19.4439102 22,19.8405449 22,20.3076923 L22,20.3076923 Z"></path></g>
</svg>