<svg width="20" height="20" viewBox="0 0 20 20" fill="none" xmlns="http://www.w3.org/2000/svg">
<circle cx="10" cy="10" r="10" fill="#404145"/>
<path d="M13.536 6.46443C13.1426 6.0711 12.5049 6.0711 12.1116 6.46443L10.0004 8.57558L7.88938 6.46446C7.49606 6.07114 6.85831 6.07114 6.46495 6.46446C6.07163 6.85779 6.07163 7.49554 6.46495 7.88892L8.57594 10L6.46493 12.1111C6.0716 12.5044 6.0716 13.1422 6.46493 13.5355C6.85828 13.9289 7.496 13.9289 7.88935 13.5355L10.0003 11.4244L12.1116 13.5355C12.5049 13.9289 13.1426 13.9289 13.536 13.5355C13.9293 13.1422 13.9293 12.5045 13.536 12.1111L11.4248 9.99998L13.536 7.88888C13.9293 7.4955 13.9293 6.85781 13.536 6.46443Z" fill="#E8EAED"/>
</svg>
