<svg width="80" height="80" viewBox="0 0 80 80" fill="none" xmlns="http://www.w3.org/2000/svg">
<path d="M40 4.99854C20.6719 4.99854 5 20.6704 5 39.9985C5 59.3267 20.6719 74.9985 40 74.9985C59.3281 74.9985 75 59.3267 75 39.9985C75 20.6704 59.3281 4.99854 40 4.99854ZM37.5 23.1235C37.5 22.7798 37.7812 22.4985 38.125 22.4985H41.875C42.2188 22.4985 42.5 22.7798 42.5 23.1235V44.3735C42.5 44.7173 42.2188 44.9985 41.875 44.9985H38.125C37.7812 44.9985 37.5 44.7173 37.5 44.3735V23.1235ZM40 57.4985C39.0187 57.4785 38.0843 57.0746 37.3974 56.3735C36.7105 55.6725 36.3258 54.73 36.3258 53.7485C36.3258 52.767 36.7105 51.8246 37.3974 51.1235C38.0843 50.4225 39.0187 50.0186 40 49.9985C40.9813 50.0186 41.9157 50.4225 42.6026 51.1235C43.2895 51.8246 43.6742 52.767 43.6742 53.7485C43.6742 54.73 43.2895 55.6725 42.6026 56.3735C41.9157 57.0746 40.9813 57.4785 40 57.4985Z" fill="#BEC1C5"/>
</svg>
