<svg width="140" height="140" viewBox="0 0 140 140" fill="none" xmlns="http://www.w3.org/2000/svg">
<path d="M70.9176 18.61L67.0471 19.6081L19.361 31.9054L15.4904 32.9036C13.6117 33.3903 12.0028 34.6024 11.0166 36.2739C10.0305 37.9455 9.74761 39.9399 10.2301 41.8197L27.0137 106.903C27.5005 108.781 28.7126 110.39 30.3841 111.377C32.0556 112.363 34.0501 112.646 35.9299 112.163L35.9399 112.16L91.3471 97.8721L91.3571 97.8695C93.2358 97.3828 94.8447 96.1707 95.8309 94.4991C96.817 92.8276 97.0999 90.8332 96.6174 88.9534L79.8338 23.8703C79.347 21.9916 78.1349 20.3827 76.4634 19.3965C74.7919 18.4104 72.7974 18.1275 70.9176 18.61Z" fill="#F2F2F2"/>
<path d="M71.6379 20.7L67.0535 21.8822L20.795 33.8114L16.2107 34.9936C14.8728 35.3402 13.727 36.2034 13.0247 37.3937C12.3225 38.584 12.1211 40.0043 12.4647 41.343L29.2483 106.426C29.5949 107.764 30.458 108.91 31.6484 109.612C32.8387 110.314 34.259 110.516 35.5977 110.172L35.6077 110.169L91.0149 95.881L91.0249 95.8784C92.3628 95.5318 93.5085 94.6686 94.2108 93.4783C94.913 92.2879 95.1145 90.8677 94.7709 89.529L77.9873 24.446C77.6406 23.1081 76.7775 21.9624 75.5872 21.2601C74.3969 20.5578 72.9766 20.3564 71.6379 20.7Z" fill="white"/>
<path d="M67.7322 41.7722L39.7031 49.0003C39.39 49.0811 39.0577 49.0341 38.7793 48.8698C38.5008 48.7056 38.299 48.4374 38.2183 48.1243C38.1376 47.8113 38.1845 47.479 38.3488 47.2005C38.5131 46.9221 38.7812 46.7203 39.0943 46.6396L67.1234 39.4114C67.4364 39.331 67.7685 39.3781 68.0467 39.5424C68.3249 39.7067 68.5265 39.9748 68.6072 40.2877C68.6879 40.6005 68.641 40.9326 68.477 41.211C68.3129 41.4894 68.045 41.6912 67.7322 41.7722Z" fill="#F2F2F2"/>
<path d="M73.7576 44.5039L40.8593 52.9877C40.5463 53.0684 40.214 53.0215 39.9355 52.8572C39.6571 52.6929 39.4553 52.4247 39.3746 52.1117C39.2938 51.7986 39.3408 51.4663 39.505 51.1879C39.6693 50.9094 39.9375 50.7076 40.2505 50.6269L73.1488 42.1431C73.4618 42.0624 73.7941 42.1093 74.0726 42.2736C74.351 42.4379 74.5528 42.706 74.6336 43.0191C74.7143 43.3322 74.6674 43.6645 74.5031 43.9429C74.3388 44.2214 74.0706 44.4231 73.7576 44.5039Z" fill="#F2F2F2"/>
<path d="M72.3377 59.6025L44.3086 66.8307C44.1535 66.8706 43.9922 66.8797 43.8337 66.8573C43.6752 66.8349 43.5226 66.7815 43.3847 66.7002C43.2469 66.6188 43.1264 66.5111 43.0301 66.3832C42.9339 66.2553 42.8637 66.1097 42.8238 65.9547C42.7838 65.7997 42.7747 65.6383 42.7971 65.4798C42.8195 65.3213 42.8729 65.1687 42.9543 65.0309C43.0356 64.893 43.1433 64.7725 43.2712 64.6762C43.3991 64.58 43.5448 64.5099 43.6998 64.4699L71.7289 57.2417C71.8839 57.2018 72.0453 57.1927 72.2038 57.2151C72.3623 57.2375 72.5149 57.2909 72.6527 57.3722C72.7906 57.4536 72.9111 57.5613 73.0074 57.6892C73.1036 57.8171 73.1737 57.9627 73.2137 58.1177C73.2537 58.2727 73.2627 58.4341 73.2403 58.5926C73.2179 58.7511 73.1646 58.9037 73.0832 59.0415C73.0019 59.1794 72.8942 59.2999 72.7663 59.3962C72.6383 59.4924 72.4927 59.5625 72.3377 59.6025Z" fill="#F2F2F2"/>
<path d="M78.3552 62.334L45.457 70.8178C45.302 70.8577 45.1406 70.8668 44.9821 70.8444C44.8236 70.822 44.6711 70.7686 44.5332 70.6873C44.3953 70.6059 44.2748 70.4982 44.1785 70.3703C44.0823 70.2424 44.0122 70.0968 43.9722 69.9418C43.9322 69.7868 43.9232 69.6254 43.9456 69.4669C43.968 69.3084 44.0214 69.1558 44.1027 69.018C44.184 68.8801 44.2917 68.7596 44.4197 68.6633C44.5476 68.5671 44.6932 68.497 44.8482 68.457L77.7464 59.9732C78.0595 59.8925 78.3918 59.9394 78.6702 60.1037C78.9487 60.268 79.1505 60.5361 79.2312 60.8492C79.3119 61.1622 79.265 61.4945 79.1007 61.773C78.9364 62.0514 78.6683 62.2532 78.3552 62.334Z" fill="#F2F2F2"/>
<path d="M76.9345 77.4326L48.9054 84.6607C48.5924 84.7412 48.2603 84.6941 47.982 84.5298C47.7038 84.3655 47.5021 84.0975 47.4214 83.7846C47.3407 83.4716 47.3876 83.1395 47.5517 82.8611C47.7158 82.5827 47.9837 82.3809 48.2966 82.3L76.3258 75.0718C76.6388 74.9911 76.9711 75.038 77.2496 75.2023C77.528 75.3666 77.7298 75.6347 77.8105 75.9478C77.8913 76.2609 77.8443 76.5932 77.6801 76.8716C77.5158 77.1501 77.2476 77.3519 76.9345 77.4326Z" fill="#F2F2F2"/>
<path d="M82.9578 80.164L50.0596 88.6478C49.9045 88.688 49.7431 88.6972 49.5845 88.6749C49.4259 88.6526 49.2732 88.5992 49.1352 88.5179C48.9972 88.4366 48.8766 88.3288 48.7803 88.2009C48.6839 88.0729 48.6138 87.9272 48.5738 87.7721C48.5338 87.617 48.5247 87.4556 48.5472 87.297C48.5696 87.1384 48.6231 86.9858 48.7045 86.8478C48.786 86.7099 48.8938 86.5894 49.0219 86.4932C49.1499 86.397 49.2957 86.3269 49.4508 86.2871L82.349 77.8033C82.6621 77.7225 82.9944 77.7695 83.2729 77.9338C83.5513 78.098 83.7531 78.3662 83.8338 78.6793C83.9146 78.9923 83.8676 79.3246 83.7033 79.6031C83.5391 79.8815 83.2709 80.0833 82.9578 80.164Z" fill="#F2F2F2"/>
<path d="M35.0047 56.3979L25.0854 58.9558C24.9353 58.9944 24.7761 58.9718 24.6426 58.893C24.5091 58.8143 24.4123 58.6858 24.3735 58.5358L22.0965 49.7063C22.058 49.5562 22.0806 49.3969 22.1593 49.2634C22.238 49.13 22.3665 49.0332 22.5165 48.9943L32.4358 46.4363C32.5859 46.3978 32.7451 46.4204 32.8786 46.4991C33.0121 46.5779 33.1089 46.7064 33.1477 46.8564L35.4247 55.6859C35.4632 55.836 35.4406 55.9953 35.3619 56.1287C35.2832 56.2622 35.1547 56.359 35.0047 56.3979Z" fill="#E6E6E6"/>
<path d="M39.6062 74.2279L29.687 76.7859C29.5369 76.8244 29.3776 76.8019 29.2441 76.7231C29.1107 76.6444 29.0139 76.5159 28.975 76.3659L26.6981 67.5364C26.6595 67.3863 26.6821 67.227 26.7609 67.0935C26.8396 66.9601 26.9681 66.8633 27.1181 66.8244L37.0373 64.2664C37.1875 64.2279 37.3467 64.2505 37.4802 64.3292C37.6137 64.408 37.7104 64.5364 37.7493 64.6865L40.0263 73.516C40.0648 73.6661 40.0422 73.8253 39.9635 73.9588C39.8847 74.0923 39.7562 74.1891 39.6062 74.2279Z" fill="#E6E6E6"/>
<path d="M44.2078 92.058L34.2885 94.616C34.1384 94.6545 33.9792 94.6319 33.8457 94.5532C33.7122 94.4744 33.6154 94.346 33.5766 94.196L31.2996 85.3664C31.2611 85.2163 31.2837 85.0571 31.3624 84.9236C31.4412 84.7901 31.5696 84.6933 31.7197 84.6545L41.6389 82.0965C41.789 82.058 41.9483 82.0806 42.0817 82.1593C42.2152 82.238 42.312 82.3665 42.3509 82.5165L44.6278 91.3461C44.6664 91.4962 44.6438 91.6554 44.565 91.7889C44.4863 91.9224 44.3578 92.0191 44.2078 92.058Z" fill="#E6E6E6"/>
<path d="M109.647 35.0596H52.4061C50.4653 35.0618 48.6047 35.8337 47.2324 37.206C45.86 38.5783 45.0881 40.439 45.0859 42.3797V109.592C45.0881 111.533 45.86 113.393 47.2324 114.766C48.6047 116.138 50.4653 116.91 52.4061 116.912H109.647C111.587 116.91 113.448 116.138 114.82 114.766C116.193 113.393 116.965 111.533 116.967 109.592V42.3797C116.965 40.439 116.193 38.5783 114.82 37.206C113.448 35.8337 111.587 35.0618 109.647 35.0596Z" fill="#E6E6E6"/>
<path d="M109.836 37.0723H52.5957C51.2136 37.0738 49.8886 37.6235 48.9113 38.6008C47.9341 39.578 47.3844 40.903 47.3828 42.2851V109.497C47.3844 110.879 47.9341 112.204 48.9113 113.182C49.8886 114.159 51.2136 114.709 52.5957 114.71H109.836C111.218 114.709 112.543 114.159 113.521 113.182C114.498 112.204 115.048 110.879 115.049 109.497V42.2851C115.048 40.9031 114.498 39.5781 113.521 38.6008C112.543 37.6235 111.218 37.0738 109.836 37.0723Z" fill="white"/>
<path d="M115.386 125.051C122.766 125.051 128.749 119.069 128.749 111.689C128.749 104.309 122.766 98.3262 115.386 98.3262C108.006 98.3262 102.023 104.309 102.023 111.689C102.023 119.069 108.006 125.051 115.386 125.051Z" fill="#FE6F55"/>
<path d="M115.529 119.866C116.315 119.866 116.952 119.229 116.952 118.443C116.952 117.657 116.315 117.02 115.529 117.02C114.743 117.02 114.105 117.657 114.105 118.443C114.105 119.229 114.743 119.866 115.529 119.866Z" fill="white"/>
<path d="M115.304 103.503C114.231 103.514 113.205 103.943 112.443 104.698C111.682 105.454 111.245 106.477 111.227 107.55C111.227 107.571 111.227 107.715 111.227 107.904C111.227 108.181 111.337 108.446 111.532 108.642C111.728 108.838 111.994 108.948 112.27 108.948C112.548 108.948 112.813 108.838 113.009 108.642C113.205 108.446 113.315 108.18 113.315 107.903V107.902C113.315 107.774 113.315 107.685 113.315 107.679C113.315 107.336 113.404 106.998 113.574 106.699C113.744 106.401 113.989 106.151 114.285 105.976C114.58 105.801 114.917 105.705 115.26 105.699C115.604 105.693 115.943 105.777 116.245 105.942C116.546 106.107 116.8 106.347 116.98 106.64C117.161 106.932 117.262 107.267 117.274 107.61C117.285 107.954 117.208 108.295 117.048 108.599C116.888 108.903 116.652 109.161 116.363 109.346L116.363 109.347C116.363 109.347 114.877 110.303 114.424 111.616L114.425 111.616C114.345 111.884 114.305 112.163 114.305 112.444C114.305 112.559 114.312 113.567 114.325 114.386C114.329 114.668 114.445 114.938 114.646 115.136C114.847 115.334 115.119 115.445 115.401 115.445C115.542 115.445 115.682 115.417 115.813 115.363C115.944 115.309 116.062 115.229 116.162 115.129C116.262 115.029 116.341 114.911 116.395 114.78C116.45 114.649 116.477 114.509 116.477 114.368L116.477 114.361C116.473 113.612 116.47 112.739 116.47 112.676C116.47 111.87 117.248 111.067 117.886 110.544C118.625 109.945 119.145 109.118 119.363 108.192C119.41 108.002 119.436 107.806 119.44 107.61C119.44 107.07 119.334 106.536 119.128 106.038C118.921 105.54 118.619 105.087 118.237 104.706C117.856 104.324 117.403 104.022 116.905 103.816C116.407 103.609 115.873 103.503 115.333 103.503C115.324 103.503 115.314 103.503 115.304 103.503Z" fill="white"/>
<path d="M101.131 74.02H72.1852C72.025 74.0202 71.8664 73.9888 71.7183 73.9276C71.5702 73.8664 71.4357 73.7767 71.3224 73.6635C71.209 73.5503 71.1191 73.4158 71.0578 73.2678C70.9964 73.1199 70.9648 72.9612 70.9648 72.801C70.9648 72.6408 70.9964 72.4822 71.0578 72.3342C71.1191 72.1862 71.209 72.0518 71.3224 71.9386C71.4357 71.8254 71.5702 71.7356 71.7183 71.6744C71.8664 71.6132 72.025 71.5819 72.1852 71.582H101.131C101.454 71.5824 101.764 71.711 101.992 71.9395C102.221 72.1681 102.349 72.478 102.349 72.801C102.349 73.1241 102.221 73.4339 101.992 73.6625C101.764 73.8911 101.454 74.0197 101.131 74.02Z" fill="#E6E6E6"/>
<path d="M106.16 78.19H72.1852C72.025 78.1901 71.8664 78.1587 71.7183 78.0976C71.5702 78.0364 71.4357 77.9466 71.3224 77.8334C71.209 77.7202 71.1191 77.5857 71.0578 77.4378C70.9964 77.2898 70.9648 77.1311 70.9648 76.971C70.9648 76.8108 70.9964 76.6521 71.0578 76.5041C71.1191 76.3562 71.209 76.2217 71.3224 76.1085C71.4357 75.9953 71.5702 75.9055 71.7183 75.8444C71.8664 75.7832 72.025 75.7518 72.1852 75.752H106.16C106.483 75.752 106.793 75.8804 107.022 76.109C107.25 76.3376 107.379 76.6477 107.379 76.971C107.379 77.2943 107.25 77.6043 107.022 77.8329C106.793 78.0615 106.483 78.19 106.16 78.19Z" fill="#E6E6E6"/>
<path d="M101.131 92.4243H72.1852C72.025 92.4245 71.8664 92.3931 71.7183 92.3319C71.5702 92.2708 71.4357 92.181 71.3224 92.0678C71.209 91.9546 71.1191 91.8201 71.0578 91.6721C70.9964 91.5242 70.9648 91.3655 70.9648 91.2053C70.9648 91.0451 70.9964 90.8865 71.0578 90.7385C71.1191 90.5905 71.209 90.4561 71.3224 90.3429C71.4357 90.2297 71.5702 90.1399 71.7183 90.0787C71.8664 90.0176 72.025 89.9861 72.1852 89.9863H101.131C101.455 89.9863 101.765 90.1148 101.993 90.3434C102.222 90.572 102.35 90.882 102.35 91.2053C102.35 91.5286 102.222 91.8387 101.993 92.0673C101.765 92.2959 101.455 92.4243 101.131 92.4243Z" fill="#E6E6E6"/>
<path d="M106.16 96.5952H72.1852C72.025 96.5954 71.8664 96.564 71.7183 96.5028C71.5702 96.4416 71.4357 96.3519 71.3224 96.2387C71.209 96.1255 71.1191 95.991 71.0578 95.843C70.9964 95.6951 70.9648 95.5364 70.9648 95.3762C70.9648 95.216 70.9964 95.0574 71.0578 94.9094C71.1191 94.7614 71.209 94.627 71.3224 94.5138C71.4357 94.4006 71.5702 94.3108 71.7183 94.2496C71.8664 94.1884 72.025 94.157 72.1852 94.1572H106.16C106.32 94.157 106.479 94.1884 106.627 94.2496C106.775 94.3108 106.909 94.4006 107.023 94.5138C107.136 94.627 107.226 94.7614 107.287 94.9094C107.349 95.0574 107.38 95.216 107.38 95.3762C107.38 95.5364 107.349 95.6951 107.287 95.843C107.226 95.991 107.136 96.1255 107.023 96.2387C106.909 96.3519 106.775 96.4416 106.627 96.5028C106.479 96.564 106.32 96.5954 106.16 96.5952Z" fill="#E6E6E6"/>
<path d="M65.6916 80.0003H55.4478C55.2928 80.0001 55.1443 79.9385 55.0347 79.8289C54.9251 79.7193 54.8635 79.5708 54.8633 79.4158V70.2974C54.8635 70.1424 54.9251 69.9939 55.0347 69.8843C55.1443 69.7747 55.2928 69.7131 55.4478 69.7129H65.6916C65.8465 69.7131 65.9951 69.7747 66.1047 69.8843C66.2143 69.9939 66.2759 70.1424 66.2761 70.2974V79.4158C66.2759 79.5708 66.2143 79.7193 66.1047 79.8289C65.9951 79.9385 65.8465 80.0001 65.6916 80.0003Z" fill="#E6E6E6"/>
<path d="M65.6916 98.4046H55.4478C55.2928 98.4044 55.1443 98.3428 55.0347 98.2332C54.9251 98.1236 54.8635 97.975 54.8633 97.8201V88.7017C54.8635 88.5467 54.9251 88.3982 55.0347 88.2886C55.1443 88.179 55.2928 88.1174 55.4478 88.1172H65.6916C65.8465 88.1174 65.9951 88.179 66.1047 88.2886C66.2143 88.3982 66.2759 88.5467 66.2761 88.7017V97.8201C66.2759 97.975 66.2143 98.1236 66.1047 98.2332C65.9951 98.3428 65.8465 98.4044 65.6916 98.4046Z" fill="#E6E6E6"/>
<path d="M101.001 53.6011H79.6604C79.3371 53.6011 79.0271 53.4727 78.7984 53.244C78.5698 53.0154 78.4414 52.7054 78.4414 52.3821C78.4414 52.0588 78.5698 51.7487 78.7984 51.5201C79.0271 51.2915 79.3371 51.1631 79.6604 51.1631H101.001C101.325 51.1631 101.635 51.2915 101.863 51.5201C102.092 51.7487 102.22 52.0588 102.22 52.3821C102.22 52.7054 102.092 53.0154 101.863 53.244C101.635 53.4727 101.325 53.6011 101.001 53.6011Z" fill="#CCCCCC"/>
<path d="M106.03 57.6274H79.6604C79.5003 57.6274 79.3418 57.5959 79.1939 57.5347C79.046 57.4734 78.9116 57.3836 78.7984 57.2704C78.6853 57.1572 78.5955 57.0228 78.5342 56.8749C78.4729 56.727 78.4414 56.5685 78.4414 56.4085C78.4414 56.2484 78.4729 56.0899 78.5342 55.942C78.5955 55.7941 78.6853 55.6597 78.7984 55.5465C78.9116 55.4333 79.046 55.3435 79.1939 55.2822C79.3418 55.221 79.5003 55.1895 79.6604 55.1895H106.03C106.353 55.1895 106.663 55.3179 106.892 55.5465C107.12 55.7751 107.249 56.0852 107.249 56.4085C107.249 56.7318 107.12 57.0418 106.892 57.2704C106.663 57.499 106.353 57.6274 106.03 57.6274Z" fill="#CCCCCC"/>
<path d="M75.1222 62.6546H55.4478C55.2928 62.6545 55.1443 62.5928 55.0347 62.4832C54.9251 62.3737 54.8635 62.2251 54.8633 62.0701V46.7154C54.8635 46.5604 54.9251 46.4118 55.0347 46.3022C55.1443 46.1927 55.2928 46.131 55.4478 46.1309H75.1222C75.2772 46.131 75.4257 46.1927 75.5353 46.3022C75.6449 46.4118 75.7065 46.5604 75.7067 46.7154V62.0701C75.7065 62.2251 75.6449 62.3737 75.5353 62.4832C75.4257 62.5928 75.2772 62.6545 75.1222 62.6546Z" fill="#FE6F55"/>
</svg>
