<svg width="300" height="150" viewBox="0 0 300 150" fill="none" xmlns="http://www.w3.org/2000/svg">
<path d="M105.086 127.257H225.059C225.746 127.257 226.427 127.122 227.062 126.859C227.696 126.596 228.273 126.21 228.759 125.725C229.245 125.239 229.63 124.662 229.893 124.027C230.156 123.392 230.291 122.712 230.291 122.025V52.6479C230.292 52.1842 230.231 51.7225 230.108 51.2754C229.807 50.167 229.149 49.1886 228.237 48.491C227.325 47.7935 226.208 47.4157 225.059 47.416H178.199C177.106 49.2574 176.432 51.3172 176.226 53.4487C175.645 59.6454 179.198 65.3742 182.377 70.7266C185.556 76.0791 188.588 82.3023 186.905 88.2964C185.766 92.3391 182.681 95.265 178.853 97.0186C175.175 98.6463 171.129 99.2625 167.133 98.8036C164.733 98.5004 162.369 97.9607 160.075 97.1923C157.067 96.2154 154.129 94.949 151.196 93.6682C151.193 93.6682 151.193 93.6682 151.191 93.6658C151.14 93.6441 151.087 93.62 151.037 93.5983C148.767 92.6069 146.499 91.6131 144.198 90.7375C141.502 89.6831 138.703 88.9119 135.848 88.4363C131.508 87.7561 127.133 88.0022 123.261 89.9704C116.951 93.1761 113.569 100.104 110.923 106.669C108.251 113.308 105.855 120.168 105.086 127.257Z" fill="#EEEEEE" fill-opacity="0.54"/>
<path d="M63.5977 100.73V122.039C63.5976 122.726 63.7329 123.406 63.9958 124.041C64.2587 124.676 64.6441 125.253 65.13 125.739C65.6158 126.224 66.1926 126.61 66.8273 126.873C67.4621 127.136 68.1425 127.271 68.8295 127.271H88.7728C89.1178 124.056 88.8283 120.852 87.562 117.864C84.8025 111.346 78.1258 107.492 71.7602 104.397C69.0852 103.097 66.3643 101.842 63.5977 100.73Z" fill="#EEEEEE" fill-opacity="0.54"/>
<path d="M84.5273 122.345C84.5273 123.732 85.0786 125.063 86.0597 126.044C87.0409 127.025 88.3716 127.577 89.7592 127.577H109.703C110.047 124.361 109.758 121.158 108.492 118.169C107.843 116.637 106.327 114.94 104.353 113.225C96.6055 106.498 84.5273 112.084 84.5273 122.345Z" fill="#EEEEEE" fill-opacity="0.54"/>
<path d="M63.375 122.038V52.6606C63.3766 51.2095 63.9538 49.8184 64.9798 48.7923C66.0059 47.7663 67.397 47.1891 68.8481 47.1875H225.061C226.512 47.1891 227.903 47.7663 228.929 48.7923C229.955 49.8184 230.533 51.2095 230.534 52.6606V122.038C230.533 123.489 229.955 124.88 228.929 125.906C227.903 126.932 226.512 127.509 225.061 127.511H68.8481C67.397 127.509 66.0058 126.932 64.9798 125.906C63.9538 124.88 63.3766 123.489 63.375 122.038ZM68.8481 47.6699C67.5249 47.6714 66.2564 48.1977 65.3208 49.1333C64.3852 50.0689 63.8589 51.3374 63.8574 52.6606V122.038C63.8589 123.361 64.3851 124.629 65.3207 125.565C66.2564 126.501 67.5249 127.027 68.8481 127.028H225.061C226.384 127.027 227.653 126.501 228.588 125.565C229.524 124.629 230.05 123.361 230.052 122.038V52.6606C230.05 51.3374 229.524 50.0689 228.588 49.1333C227.653 48.1977 226.384 47.6714 225.061 47.6699H68.8481Z" fill="#3F3D56"/>
<path d="M115.055 127.091H122.149C123.362 123.006 125.113 118.675 126.712 114.729C129.781 107.163 133.7 99.1791 141.016 95.4847C144.14 93.9072 147.546 93.291 151.024 93.3246C155.829 93.3701 160.769 94.66 165.292 96.3693C167.142 97.067 168.975 97.8342 170.801 98.6181C177.68 101.574 184.485 104.794 191.883 105.664C201.244 106.765 212.251 102.576 214.807 93.5547C216.759 86.6477 213.244 79.4769 209.559 73.3083C205.873 67.1397 201.753 60.5395 202.426 53.3975C202.429 53.3736 202.431 53.3472 202.436 53.3232C202.689 50.7579 204.221 48.9144 206.36 47.7324H197.045C196.922 54.3949 200.776 60.2758 204.245 66.0824C207.931 72.2486 211.445 79.4218 209.494 86.3288C206.937 95.348 185.765 84.7757 176.404 83.6728C173.76 83.3636 177.959 84.464 175.439 83.6728C171.485 82.4334 171.047 93.8017 167.2 92.1331C164.804 91.0926 162.407 90.0593 159.978 89.1411C158.972 88.7599 157.944 88.4026 156.905 88.0718C156.902 88.0718 156.902 88.0718 156.9 88.0694C149.919 85.8589 142.285 84.9983 135.835 88.1941C135.792 88.2156 135.746 88.2372 135.702 88.2588C128.386 91.9509 124.467 99.9344 121.399 107.501C118.863 113.756 116.304 120.493 115.055 127.091Z" fill="#3F3D56" fill-opacity="0.14"/>
<path d="M115.149 77.3555H69.0076C68.6295 77.3555 68.2669 77.5057 67.9996 77.773C67.7322 78.0403 67.582 78.4029 67.582 78.781C67.582 79.1591 67.7322 79.5217 67.9996 79.789C68.2669 80.0564 68.6295 80.2066 69.0076 80.2066H115.149C115.527 80.2066 115.89 80.0564 116.157 79.789C116.425 79.5217 116.575 79.1591 116.575 78.781C116.575 78.4029 116.425 78.0403 116.157 77.773C115.89 77.5057 115.527 77.3555 115.149 77.3555Z" fill="#3F3D56" fill-opacity="0.3"/>
<path d="M83.3139 69.3633H69.0076C68.6295 69.3633 68.2669 69.5135 67.9996 69.7808C67.7322 70.0482 67.582 70.4108 67.582 70.7888C67.582 71.1669 67.7322 71.5295 67.9996 71.7969C68.2669 72.0642 68.6295 72.2144 69.0076 72.2144H83.3139C83.692 72.2144 84.0546 72.0642 84.3219 71.7969C84.5893 71.5295 84.7395 71.1669 84.7395 70.7888C84.7395 70.4108 84.5893 70.0482 84.3219 69.7808C84.0546 69.5135 83.692 69.3633 83.3139 69.3633Z" fill="#3F3D56" fill-opacity="0.3"/>
<g opacity="0.6">
<path d="M246.265 42.7037C253 42.7037 258.46 37.244 258.46 30.5091C258.46 23.7742 253 18.3145 246.265 18.3145C239.53 18.3145 234.07 23.7742 234.07 30.5091C234.07 37.244 239.53 42.7037 246.265 42.7037Z" fill="#FE6F55"/>
<path fill-rule="evenodd" clip-rule="evenodd" d="M249.071 25.6758C251.381 25.6758 252.108 28.2386 252.52 31.8138C252.709 33.7122 252.551 35.2942 251.412 35.2625C250.403 35.2625 249.989 34.7035 249.55 34.1105C249.273 33.7364 248.986 33.3487 248.533 33.0794C248.09 32.8579 247.109 32.763 246.287 32.7314C245.464 32.763 244.483 32.8579 244.04 33.0794C243.587 33.3487 243.3 33.7364 243.023 34.1105C242.584 34.7035 242.17 35.2625 241.161 35.2625C239.99 35.2625 239.801 33.6805 240.022 31.7822C240.402 28.2386 241.129 25.6758 243.439 25.6758C244.055 25.6758 244.505 26.0089 244.95 26.3383C245.35 26.6347 245.746 26.928 246.255 26.973C246.745 26.9285 247.137 26.6401 247.537 26.3465C247.989 26.0145 248.45 25.6758 249.071 25.6758ZM241.825 29.8522C241.825 30.7381 242.553 31.4974 243.471 31.4974C244.357 31.4974 245.116 30.7697 245.116 29.8522C245.116 28.9346 244.388 28.2069 243.471 28.2069C242.553 28.2069 241.825 28.9663 241.825 29.8522ZM249.545 30.1686H250.843V29.5358H249.545V28.2702H248.913V29.5358H247.615V30.1686H248.913V31.4658H249.545V30.1686ZM242.804 30.514C242.614 30.3242 242.52 30.1027 242.52 29.8496C242.52 29.5965 242.614 29.3433 242.804 29.1851C242.994 28.9953 243.216 28.9004 243.469 28.9004C243.722 28.9004 243.975 29.0269 244.133 29.1851C244.323 29.375 244.418 29.5965 244.418 29.8496C244.418 30.1027 244.291 30.3558 244.133 30.514C243.943 30.7038 243.722 30.7988 243.469 30.7988C243.216 30.7988 242.962 30.6722 242.804 30.514Z" fill="white"/>
</g>
<path d="M35.0167 101.68C43.4353 101.68 50.26 94.8552 50.26 86.4366C50.26 78.018 43.4353 71.1934 35.0167 71.1934C26.5981 71.1934 19.7734 78.018 19.7734 86.4366C19.7734 94.8552 26.5981 101.68 35.0167 101.68Z" fill="#FE6F55"/>
<path fill-rule="evenodd" clip-rule="evenodd" d="M42.5945 86.4808C42.5945 82.2406 39.1566 78.8027 34.9164 78.8027C30.6761 78.8027 27.2383 82.2406 27.2383 86.4808L27.2421 86.5525C27.2592 86.7028 27.3289 86.8423 27.439 86.9461C27.5491 87.0499 27.6925 87.1113 27.8436 87.1194L27.8583 87.1207H39.0817L41.2834 87.1219C41.1657 88.3656 40.6806 89.5461 39.8898 90.5131C39.5048 91.0479 38.998 91.4833 38.4113 91.7835C37.8246 92.0837 37.175 92.2399 36.516 92.2394C35.8729 92.2399 35.2385 92.091 34.6628 91.8046C34.0871 91.5181 33.5858 91.1018 33.1984 90.5886L34.1793 89.6064C34.3153 89.4706 34.4079 89.2975 34.4454 89.109C34.483 88.9204 34.4637 88.725 34.3902 88.5475C34.3166 88.3699 34.192 88.2181 34.0321 88.1114C33.8722 88.0047 33.6843 87.9478 33.4921 87.948H29.0369C28.5007 87.948 28.0656 88.3831 28.0656 88.9193V93.3745C28.0654 93.5667 28.1223 93.7546 28.229 93.9145C28.3357 94.0744 28.4875 94.199 28.6651 94.2725C28.8426 94.3461 29.0381 94.3654 29.2266 94.3278C29.4151 94.2903 29.5882 94.1976 29.7241 94.0616L30.8144 92.9726C32.0013 93.7238 33.4076 94.1589 34.9164 94.1589C36.524 94.1615 38.0915 93.657 39.3959 92.7173L39.5686 92.5894L39.726 92.4665L39.8438 92.3693L39.9897 92.2439L40.2226 92.0302L40.3582 91.8971L40.4715 91.7813L40.6858 91.5471L40.8995 91.2937L41.0083 91.1555L41.1523 90.961L41.2841 90.7722L41.4459 90.5221L41.5816 90.2943L41.6788 90.1215C41.7409 90.0044 41.8011 89.8861 41.858 89.7658L41.8874 89.7031L41.9962 89.4574L42.0531 89.3172C42.1286 89.1291 42.1965 88.9365 42.2566 88.7407L42.3155 88.5385L42.3756 88.3069L42.4319 88.0593C42.4601 87.9262 42.4844 87.7919 42.5049 87.6562L42.5369 87.4271L42.565 87.1482L42.5829 86.9095C42.5906 86.7675 42.5945 86.6248 42.5945 86.4808ZM40.2725 83.0321L40.3 83.0218H40.3006C40.8475 83.8702 41.1846 84.8365 41.2841 85.841H39.3798C39.3366 84.9537 39.2053 84.1092 39.0011 83.3334C39.4835 83.2519 39.9071 83.1516 40.2725 83.0321ZM37.2657 82.2459C36.8031 81.2432 36.1957 80.5299 35.5565 80.237V82.3167C35.711 82.3144 35.8623 82.3112 36.0105 82.3071L36.5179 82.2892L36.9984 82.2636L37.2288 82.2489L37.2657 82.2459ZM38.5936 82.1032C38.41 81.6513 38.1988 81.2348 37.9642 80.8609C37.0582 80.3688 36.0197 80.0899 34.9167 80.0899C33.8526 80.0882 32.8051 80.3531 31.8697 80.8602C31.6349 81.2342 31.4234 81.6508 31.2396 82.1029C30.933 82.0564 30.6552 82.0026 30.4068 81.9418C31.5636 80.7926 33.1568 80.0824 34.9164 80.0824C36.607 80.0805 38.2293 80.7495 39.4272 81.9424C39.1782 82.0033 38.9002 82.0569 38.5936 82.1032ZM32.5675 82.246C33.0301 81.2431 33.6376 80.5297 34.2768 80.237V82.3173C34.1221 82.3148 33.9705 82.3115 33.8222 82.3071L33.3148 82.2892L33.0711 82.2777L32.604 82.2489L32.5675 82.246ZM30.8321 83.3335C30.337 83.25 29.9039 83.1465 29.5321 83.0225C28.9855 83.8706 28.6488 84.8368 28.55 85.841H30.4535C30.4967 84.9537 30.6279 84.1093 30.8321 83.3335ZM31.7345 85.841L31.7501 85.5989C31.8065 84.8422 31.9332 84.1339 32.113 83.4936C32.2231 83.5034 32.3354 83.5125 32.4498 83.5209L32.9514 83.5529C33.3123 83.5721 33.6734 83.5853 34.0347 83.5926L34.2768 83.5958V85.841H31.7345ZM35.5565 85.841H38.0979V85.8267C38.0515 84.9842 37.918 84.1977 37.7203 83.4936C37.61 83.5034 37.4976 83.5125 37.383 83.5209L36.8813 83.5529C36.5377 83.5721 36.1775 83.5849 35.7981 83.5926L35.5565 83.5958V85.841ZM38.9073 87.1287L38.0992 87.1281V87.1287L38.0832 87.3783C37.9578 89.0643 37.4831 90.5103 36.8483 91.4988C37.4184 91.4541 37.9904 91.2698 38.5644 90.9447C39.0199 89.8513 39.3117 88.5447 39.3802 87.1294L39.0827 87.1287H38.9073ZM35.5565 91.3856V88.958C35.5229 89.029 35.4828 89.0966 35.4368 89.1602L34.4419 90.5295L34.4982 90.6319C34.7183 90.9972 35.0702 91.2487 35.5565 91.3856ZM35.5565 87.1281H34.4144L34.5097 87.1326C34.7321 87.1515 34.9458 87.2282 35.1294 87.3551C35.313 87.4821 35.4602 87.6548 35.5565 87.8562V87.1281Z" fill="white"/>
<g opacity="0.2">
<path d="M287.804 70.5337C294.539 70.5337 299.999 65.074 299.999 58.3391C299.999 51.6042 294.539 46.1445 287.804 46.1445C281.069 46.1445 275.609 51.6042 275.609 58.3391C275.609 65.074 281.069 70.5337 287.804 70.5337Z" fill="#FE6F55"/>
<path d="M293.018 62.5031H292.411V55.5919C292.411 55.3896 292.291 55.2126 292.108 55.124L289.079 53.5433C288.908 53.4674 288.718 53.4674 288.548 53.5433C288.358 53.6191 288.238 53.8025 288.244 54.8016V63.2935H287.637V53.9606C287.637 52.9362 287.637 52.7845 287.41 52.7023C287.214 52.6201 286.999 52.6201 286.803 52.7023L283.337 54.5297C283.154 54.6182 283.034 54.8079 283.034 55.0102V62.5094H282.427C282.275 62.5094 282.199 62.5916 282.199 62.6675V63.5464C282.199 63.6223 282.275 63.7045 282.427 63.7045H293.018C293.088 63.7045 293.233 63.6223 293.246 63.5464V62.6739C293.265 62.579 293.1 62.5031 293.018 62.5031ZM285.905 61.3903C285.905 61.4788 285.835 61.5483 285.747 61.5483H284.893C284.804 61.5483 284.735 61.4788 284.735 61.3903V60.6504C284.735 60.5619 284.804 60.4924 284.893 60.4924H285.766C285.854 60.4924 285.924 60.5619 285.924 60.6504L285.905 61.3903ZM285.905 59.1582C285.905 59.2467 285.835 59.3163 285.747 59.3163H284.893C284.804 59.3163 284.735 59.2467 284.735 59.1582V58.4057C284.735 58.3172 284.804 58.2477 284.893 58.2477H285.766C285.854 58.2477 285.924 58.3172 285.924 58.4057L285.905 59.1582ZM285.905 56.9324C285.905 57.021 285.835 57.0905 285.747 57.0905H284.893C284.804 57.0905 284.735 57.021 284.735 56.9324V56.1737C284.735 56.0851 284.804 56.0156 284.893 56.0156H285.766C285.854 56.0156 285.924 56.0851 285.924 56.1737L285.905 56.9324ZM290.894 61.3839C290.894 61.4725 290.824 61.542 290.736 61.542H289.863C289.774 61.542 289.705 61.4725 289.705 61.3839V60.6378C289.705 60.5493 289.774 60.4797 289.863 60.4797H290.736C290.824 60.4797 290.894 60.5493 290.894 60.6378V61.3839ZM290.894 59.1519C290.894 59.2404 290.824 59.3099 290.736 59.3099H289.863C289.774 59.3099 289.705 59.2404 289.705 59.1519V58.4057C289.705 58.3172 289.774 58.2477 289.863 58.2477H290.736C290.824 58.2477 290.894 58.3172 290.894 58.4057V59.1519ZM290.894 56.9261C290.894 57.0146 290.824 57.0842 290.736 57.0842H289.863C289.774 57.0842 289.705 57.0146 289.705 56.9261V56.1737C289.705 56.0851 289.774 56.0156 289.863 56.0156H290.736C290.824 56.0156 290.894 56.0851 290.894 56.1737V56.9261Z" fill="white"/>
</g>
<g opacity="0.3">
<path d="M12.4837 63.1138C19.2186 63.1138 24.6783 57.6541 24.6783 50.9192C24.6783 44.1843 19.2186 38.7246 12.4837 38.7246C5.74878 38.7246 0.289062 44.1843 0.289062 50.9192C0.289062 57.6541 5.74878 63.1138 12.4837 63.1138Z" fill="#FE6F55"/>
<g clip-path="url(#clip0_99_8462)">
<path d="M18.3408 50.2675C18.3408 51.0402 17.7101 51.7057 16.932 51.7057C16.1538 51.7057 15.5232 51.0402 15.5232 50.2675C15.5232 51.0402 14.8925 51.7057 14.1144 51.7057C13.3362 51.7057 12.7056 51.0402 12.7056 50.2675C12.7056 51.0402 12.0749 51.7057 11.2967 51.7057C10.5186 51.7057 9.88793 51.0402 9.88793 50.2675C9.88793 51.0402 9.25727 51.7057 8.47912 51.7057C7.70099 51.7057 7.07031 51.0402 7.07031 50.2675L8.19736 47.7609H17.2137L18.3408 50.2675ZM16.6502 47.1973H8.76092C8.41091 47.1973 8.1974 46.9236 8.1974 46.6338C8.1974 46.3441 8.37405 46.0703 8.83138 46.0703H16.5798C17.0046 46.0703 17.2138 46.3441 17.2138 46.6338C17.2138 46.9236 16.9419 47.1973 16.6502 47.1973ZM8.76092 51.9874C8.71166 51.9957 8.81156 51.9828 8.76092 51.9874C8.75046 51.9891 8.77165 51.9855 8.76092 51.9874C8.78376 51.983 9.02013 51.9924 9.0427 51.9874C9.13844 51.9654 9.23447 52.0221 9.32446 51.9874V54.5233H16.0867V51.9874H16.3685C16.4582 52.0221 16.5548 51.9654 16.6502 51.9874C16.6274 51.983 16.6728 51.9924 16.6502 51.9874C16.6395 51.9855 16.6607 51.9891 16.6502 51.9874C16.5996 51.9828 16.6998 51.9957 16.6502 51.9874C16.7083 51.9927 16.8726 51.9874 16.932 51.9874C17.0525 51.9874 17.0993 52.0083 17.2138 51.9874V55.6503C17.2138 55.9398 16.9419 56.2138 16.6503 56.2138H8.76094C8.46927 56.2138 8.19743 55.9398 8.19743 55.6503V51.9874C8.3119 52.0083 8.35868 51.9874 8.47919 51.9874C8.53859 51.9874 8.70288 51.9927 8.76092 51.9874Z" fill="white"/>
</g>
</g>
<path d="M95.3175 31.174C103.736 31.174 110.561 24.3494 110.561 15.9308C110.561 7.51214 103.736 0.6875 95.3175 0.6875C86.8989 0.6875 80.0742 7.51214 80.0742 15.9308C80.0742 24.3494 86.8989 31.174 95.3175 31.174Z" fill="#FE6F55"/>
<path d="M99.8409 11.287H98.5668C98.5668 9.48668 97.1402 8.02539 95.3823 8.02539C93.6243 8.02539 92.1978 9.48668 92.1978 11.287H90.9237C90.2233 11.287 89.6565 11.8743 89.6565 12.592L89.1719 21.3991C89.1726 21.7448 89.307 22.076 89.5458 22.3205C89.7845 22.5651 90.1081 22.703 90.446 22.7041H100.318C100.656 22.703 100.98 22.5651 101.218 22.3205C101.457 22.076 101.592 21.7448 101.592 21.3991L101.115 12.5923C101.114 12.2467 100.979 11.9155 100.741 11.6709C100.502 11.4264 100.178 11.2885 99.8405 11.2874L99.8409 11.287ZM95.3823 9.32998C95.6334 9.32974 95.8822 9.38022 96.1143 9.47851C96.3464 9.5768 96.5572 9.72097 96.7348 9.90277C96.9123 10.0846 97.053 10.3004 97.1489 10.538C97.2447 10.7755 97.2938 11.03 97.2934 11.287H93.4711C93.4707 11.03 93.5198 10.7755 93.6156 10.538C93.7115 10.3004 93.8522 10.0846 94.0298 9.90277C94.2073 9.72097 94.4182 9.5768 94.6502 9.47851C94.8823 9.38022 95.1311 9.32974 95.3823 9.32998ZM95.3823 15.854C93.6243 15.854 92.1978 14.3927 92.1978 12.5916H93.4715C93.471 12.8486 93.5201 13.1032 93.6159 13.3408C93.7117 13.5784 93.8525 13.7943 94.03 13.9761C94.2075 14.158 94.4184 14.3022 94.6505 14.4005C94.8826 14.4988 95.1314 14.5493 95.3826 14.549C95.6337 14.5492 95.8824 14.4986 96.1144 14.4003C96.3464 14.302 96.5572 14.1578 96.7347 13.976C96.9121 13.7942 97.0528 13.5784 97.1486 13.3409C97.2444 13.1034 97.2935 12.8489 97.293 12.592H98.5671C98.5671 14.3927 97.1402 15.854 95.3823 15.854Z" fill="white"/>
<path d="M102.793 70.6916C100.973 72.4056 98.6145 72.8565 97.5238 71.6989C96.4331 70.5412 97.0237 68.2133 98.8429 66.4993C99.6392 65.7491 100.539 65.2409 101.39 65.0037L109.19 57.8379L112.475 61.5696L104.437 68.2376C104.15 69.0735 103.589 69.9414 102.793 70.6916Z" fill="#FFB6B6"/>
<path d="M143.818 144.433L140.058 144.432L138.269 129.93L143.819 129.93L143.818 144.433Z" fill="#FFB6B6"/>
<path d="M130.941 144.348C130.823 144.545 130.762 145.181 130.762 145.41C130.762 146.115 131.333 146.687 132.038 146.687H143.682C144.163 146.687 144.552 146.297 144.552 145.816V145.331C144.552 145.331 145.128 143.874 143.943 142.078C143.943 142.078 142.469 143.484 140.266 141.282L139.617 140.105L134.915 143.544L132.309 143.865C131.739 143.935 131.234 143.854 130.941 144.348Z" fill="#2F2E41"/>
<rect x="130" y="147" width="15" height="2" rx="1" fill="#D6D5E0"/>
<rect x="158" y="147" width="13" height="2" rx="1" fill="#D6D5E0"/>
<path d="M170.205 142.3L166.508 142.986L162.102 129.054L167.558 128.041L170.205 142.3Z" fill="#FFB6B6"/>
<path d="M157.524 144.569C157.445 144.785 157.501 145.422 157.543 145.647C157.671 146.34 158.337 146.797 159.03 146.669L170.479 144.543C170.951 144.455 171.263 144 171.176 143.528L171.087 143.051C171.087 143.051 171.387 141.513 169.893 139.964C169.893 139.964 168.701 141.616 166.133 139.853L165.28 138.814L161.286 143.053L158.782 143.845C158.234 144.018 157.723 144.03 157.524 144.569Z" fill="#2F2E41"/>
<path d="M160.988 72.76L170.249 134.768L161.628 135.892L146.634 86.7878L144.76 137.392H136.724C136.724 137.392 129.784 81.5399 131.837 74.7927C133.889 68.0455 160.988 72.76 160.988 72.76Z" fill="#2F2E41"/>
<path d="M141.012 23.0645H150.008L151.32 26.2506C151.32 26.2506 156.568 29.2494 156.568 30.3739C156.568 31.4985 159.754 59.7992 159.754 59.7992L161.441 75.3553C161.441 75.3553 141.762 85.2887 132.016 75.1679L133.89 57.925C133.89 57.925 132.39 30.9362 133.14 29.8117C133.89 28.6871 139.513 26.0632 139.513 26.0632L141.012 23.0645Z" fill="#FE6F55"/>
<path d="M138.201 27.9011C138.201 27.9011 140.942 32.0443 140.077 33.7486C139.212 35.453 125.712 51.81 125.712 51.81L109.423 65.2242L104.648 60.9872L119.991 46.3509L129.905 31.7307C131.482 28.7213 134.887 27.1496 138.201 27.9011Z" fill="#FE6F55"/>
<path d="M169.139 81.7495C169.531 84.2181 168.575 86.4212 167.004 86.6704C165.433 86.9197 163.842 85.1205 163.45 82.652C163.279 81.5714 163.366 80.5417 163.649 79.7045L162.121 69.2237L167.055 68.6113L168.038 79.0083C168.566 79.7167 168.968 80.6689 169.139 81.7495Z" fill="#FFB6B6"/>
<path d="M149.953 28.3073C149.953 28.3073 157.71 26.5711 159.12 30.8731C160.529 35.175 168.998 75.9803 168.998 75.9803L162.546 76.6947L157.702 48.7388L149.953 28.3073Z" fill="#FE6F55"/>
<path d="M145.817 20.977C150.088 20.977 153.551 17.5141 153.551 13.2424C153.551 8.97071 150.088 5.50781 145.817 5.50781C141.545 5.50781 138.082 8.97071 138.082 13.2424C138.082 17.5141 141.545 20.977 145.817 20.977Z" fill="#FFB6B6"/>
<path d="M150.34 19.811C149.844 19.8351 149.189 19.7406 149.106 19.2511C149.048 18.9058 149.339 18.6081 149.613 18.39C149.995 18.086 150.398 17.8025 150.727 17.4411C151.055 17.0796 151.308 16.6225 151.314 16.1342C151.32 15.6458 151.029 15.1363 150.562 14.9942C150.095 14.8521 149.512 15.1995 149.505 15.6878C149.055 15.0038 148.995 14.1419 148.971 13.3232C148.957 12.8441 148.951 12.3649 148.953 11.8856C148.955 11.2308 148.972 10.5762 148.988 9.92171C148.666 9.90476 146.068 10.8824 145.693 10.8824C145.371 10.8824 142.781 10.3682 142.953 9.63042C142.903 10.102 140.432 10.9514 140.382 10.7046C140.331 10.4577 140.147 10.1972 139.895 10.212C139.63 10.2275 139.486 10.5214 139.397 10.7715C139.198 11.3301 138.715 12.2954 138.197 12.0069C134.276 9.8234 137.437 9.14333 137.902 8.25534C138.472 7.16379 139.082 6.02815 140.098 5.33179C141.114 4.63543 141.916 3.80395 142.716 4.7403C144.724 3.27667 146.716 3.62972 149.057 4.46433C151.397 5.29895 153.269 7.34104 153.898 9.74491C154.186 10.8468 154.958 11.3302 154.383 12.3133C155.017 13.1634 154.673 12.6824 154.798 13.7355C154.897 14.5664 154.814 15.4434 154.402 16.1716C153.962 16.9496 153.183 17.4909 152.35 17.8153C151.517 18.1397 151.373 19.7689 150.489 19.8965" fill="#2F2E41"/>
<rect x="94.6914" y="40.7246" width="46.3847" height="46.3847" rx="23.1924" fill="#3FD070"/>
<path d="M109.27 65.2416L115.233 71.2054L127.823 58.6152" stroke="white" stroke-width="5.30111" stroke-linecap="round" stroke-linejoin="round"/>
<defs>
<clipPath id="clip0_99_8462">
<rect width="11.2913" height="11.2913" fill="white" transform="translate(7.0625 45.502)"/>
</clipPath>
</defs>
</svg>
