<svg width="12" height="12" viewBox="0 0 12 12" fill="none" xmlns="http://www.w3.org/2000/svg">
<g clip-path="url(#clip0_168_5700)">
<path d="M8.9047 2.86401C7.15959 1.26349 4.44723 1.3806 2.84671 3.1257C1.58306 4.50357 1.35752 6.54217 2.29007 8.16294C3.47564 10.2117 6.09547 10.9143 8.14564 9.73021C9.11145 9.17212 9.82279 8.25981 10.1264 7.18556C10.2551 6.73013 10.7293 6.46555 11.1848 6.59422C11.6402 6.7229 11.9048 7.19713 11.7761 7.65256C10.8739 10.8406 7.55864 12.6941 4.36916 11.7919C1.18113 10.8898 -0.672415 7.57449 0.229777 4.38501C1.13197 1.19553 4.44723 -0.656562 7.63671 0.24563C8.56493 0.508769 9.41652 0.990227 10.1177 1.65241L11.2701 0.500094C11.4378 0.332379 11.7081 0.332379 11.8759 0.498648C11.9568 0.579614 12.0016 0.68805 12.0016 0.80227V4.48188C12.0016 4.719 11.8093 4.90984 11.5737 4.90984H7.89262C7.65551 4.90984 7.46466 4.71755 7.46466 4.48044C7.46466 4.36766 7.50948 4.25922 7.589 4.17826L8.9047 2.86401Z" fill="#0B5BF5"/>
</g>
<defs>
<clipPath id="clip0_168_5700">
<rect width="12" height="12" fill="white"/>
</clipPath>
</defs>
</svg>
